<svg xmlns="http://www.w3.org/2000/svg" xmlns:xlink="http://www.w3.org/1999/xlink" width="313.2" height="337.6" viewBox="0 0 313.2 337.6"><defs><linearGradient id="b" x1="100.76" x2="158.12" y1="362.03" y2="219.19" gradientUnits="userSpaceOnUse"><stop offset="0" stop-color="#a33716"/><stop offset="1" stop-color="#d34b16"/></linearGradient><linearGradient id="a" x1="137.63" x2="214.25" y1="238.92" y2="188.16" gradientTransform="rotate(-19.9 192.71 202.736)" gradientUnits="userSpaceOnUse"><stop offset="0" stop-color="#892b15"/><stop offset="1" stop-color="#a33716"/></linearGradient><linearGradient id="c" x1="201.4" x2="278.01" y1="261.99" y2="211.23" gradientTransform="matrix(-.94 -.34 -.34 .94 441.12 77.68)" xlink:href="#a"/></defs><g style="isolation:isolate"><circle cx="156.6" cy="156.6" r="125.4" fill="#0fa59d"/><path fill="#e3ac1b" d="M156.6 31.2A125.4 125.4 0 1 1 31.2 156.6 125.3 125.3 0 0 1 156.6 31.2m0-31.2A156.5 156.5 0 0 0 45.9 267.3a156.2 156.2 0 0 0 221.4 0 156.2 156.2 0 0 0 0-221.4A155.5 155.5 0 0 0 156.6 0z"/><circle cx="156.6" cy="16" r="8.1" fill="#b7871c"/><circle cx="156.6" cy="297.6" r="8.1" fill="#b7871c"/><circle cx="297.4" cy="156.8" r="8.1" fill="#b7871c"/><circle cx="15.8" cy="156.8" r="8.1" fill="#b7871c"/><circle cx="256.2" cy="256.4" r="8.1" fill="#b7871c"/><circle cx="57" cy="57.2" r="8.1" fill="#b7871c"/><circle cx="57" cy="256.4" r="8.1" fill="#b7871c"/><circle cx="256.2" cy="57.2" r="8.1" fill="#b7871c"/><path fill="#1c4041" d="M156.6 282a125.4 125.4 0 0 0 108.6-62.6c-33.2-21.5-102-16.3-108.6-15.7S81.2 197.9 48 219.3A125.3 125.3 0 0 0 156.6 282z"/><ellipse cx="156.7" cy="121.7" fill="#fff" rx="94.1" ry="50.2"/><path fill="#e6e7e8" d="M91 126.8s-1 12.9 9.3 18.8a30.3 30.3 0 0 0 12.3-2.1c5.6-2.5-21.6-16.7-21.6-16.7zm131.3 0s1.1 12.9-9.3 18.8a29.9 29.9 0 0 1-12.2-2.1c-5.7-2.5 21.5-16.7 21.5-16.7z"/><ellipse cx="156.7" cy="178.6" fill="#fecab2" rx="62.9" ry="74.3"/><path fill="url(#b)" d="M225.5 202.1s-.5-18.1-5.9-23.5c0 0-8.6 5.3-15 20.4-10.9 25.7-36 28.2-47.9 13.4-11.9 14.8-37 12.3-48-13.4-6.3-15.1-14.9-20.4-14.9-20.4-5.4 5.4-5.9 23.5-5.9 23.5 0 65.9 19.6 114 37.9 126 .3.2 25 18.8 55.7 3.5 19.7-9.6 44-56.2 44-129.5z"/><path fill="url(#a)" d="M245.5 180s-7.8 9.7-29.3 5.2c-33.7-7.1-47.1 2-47.1 2-8.8 5.1-13.2 15.4-9.8 24.6s12.5 13.9 22.1 12.7h.2l4.4-.7c43.3-10.3 59.5-43.8 59.5-43.8z"/><path fill="url(#c)" d="M70.3 180s7.8 9.7 29.4 5.2c33.6-7.1 47 2 47 2 8.8 5.1 13.2 15.4 9.9 24.6s-12.5 13.9-22.2 12.7h-.2l-4.4-.7C86.6 213.5 70.3 180 70.3 180z"/><path d="M140.4 175.1a5.7 5.7 0 0 1-5.7-5.6 5.8 5.8 0 0 1 5.7-5.7 5.7 5.7 0 0 1 5.6 5.7 5.6 5.6 0 0 1-5.6 5.6z"/><path fill="#91bd00" d="M140.4 164.8a4.7 4.7 0 1 1-4.7 4.7 4.7 4.7 0 0 1 4.7-4.7m0-2a6.7 6.7 0 1 0 6.6 6.7 6.7 6.7 0 0 0-6.6-6.7z"/><path d="M174.5 175.1a5.6 5.6 0 0 1-5.6-5.6 5.7 5.7 0 0 1 5.6-5.7 5.8 5.8 0 0 1 5.7 5.7 5.7 5.7 0 0 1-5.7 5.6z"/><path fill="#91bd00" d="M174.5 164.8a4.7 4.7 0 1 1-4.6 4.7 4.7 4.7 0 0 1 4.6-4.7m0-2a6.7 6.7 0 1 0 6.7 6.7 6.7 6.7 0 0 0-6.7-6.7z"/><circle cx="178.4" cy="165.5" r="2.8" fill="#fff"/><circle cx="144.8" cy="165.5" r="2.8" fill="#fff"/><ellipse cx="156.7" cy="215" fill="#fecab2" rx="21.1" ry="33.3"/><path fill="#d34b16" d="M167.9 157c0-5.4 7-9.3 12.6-8.4 7.5 1.2 13.9 5.1 22.8 13.7 0 0-16.7-13-35.4-5.3zm-20.3 0c0-5.4-7-9.3-12.6-8.4-7.5 1.2-13.9 5.1-22.8 13.7 0 0 16.7-13 35.4-5.3z"/><path fill="#fff" d="M91 100.8h131.4v26.04H91z"/><path fill="#baac9f" d="M100.3 145.6s15.9 10.2 56.7 10.2 56-10.2 56-10.2l-2.3-6-106.1-3.6z" style="mix-blend-mode:multiply"/><path fill="#1c4041" d="M169.8 103.6l-1.1-4.9-2.3 4.5h1.1a11.1 11.1 0 0 1-7.9 6.2l-.9-16.9h1.2a1 1 0 0 0 .8.5.9.9 0 0 0 .9-.9.9.9 0 0 0-1.7-.4h-1.2v-1.4a3.6 3.6 0 1 0-5.1-3.2 3.3 3.3 0 0 0 2 3.1v1.6h-1.2a.9.9 0 0 0-1.7.4.9.9 0 0 0 .9.9 1 1 0 0 0 .8-.5h1.1l-.8 16.9a11.7 11.7 0 0 1-8-6.2h1l-2.3-4.5-1.1 4.9h1.2a11.7 11.7 0 0 0 23.3 0zm-12.7-18.2a1.7 1.7 0 0 1 1.6 1.7 1.6 1.6 0 0 1-.8 1.4.8.8 0 0 0-.8-.6 1 1 0 0 0-.9.6 1.8 1.8 0 0 1-.8-1.4 1.8 1.8 0 0 1 1.7-1.7zM91 126.8c0 12.4 29.4 22.5 65.7 22.5s65.7-10.1 65.7-22.5c-70.6-7.8-131.4 0-131.4 0z"/></g></svg>