<?xml version="1.0" encoding="utf-8"?>
<!-- Generator: Adobe Illustrator 22.1.0, SVG Export Plug-In . SVG Version: 6.00 Build 0)  -->
<svg version="1.1" id="Layer_1" xmlns="http://www.w3.org/2000/svg" xmlns:xlink="http://www.w3.org/1999/xlink" x="0px" y="0px"
	 viewBox="0 0 360 144" style="enable-background:new 0 0 360 144;" xml:space="preserve">
<style type="text/css">
	.st0{fill:#B1B3B6;}
	.st1{fill:#6D6E71;}
</style>
<g>
	<path class="st0" d="M98.1,64.7c0,2.5-1,4.8-2.8,6.5c1.8,1.6,2.8,4,2.8,6.4v11.5c0,0.7-0.6,1.3-1.3,1.3h-2.5
		c-0.7-0.1-1.2-0.6-1.2-1.3V77.6c0-2.2-1.8-4-4-4h-3.9v15.5c0,0.7-0.5,1.2-1.2,1.3h-2.5c-0.7,0-1.3-0.6-1.3-1.3V54.5
		c0-1.4,1.1-2.5,2.5-2.5h6.4c4.9,0,8.9,4,9,8.9V64.7z M93.1,60.9c-0.1-2.2-1.8-3.9-4-3.9h-3.9v11.7h3.9c2.2,0,4-1.8,4-4V60.9z"/>
	<path class="st0" d="M107.9,57v11.7h6.7c0.7-0.1,1.2,0.4,1.3,1.1c0,0,0,0.1,0,0.1v2.5c0,0.7-0.5,1.2-1.2,1.2c0,0-0.1,0-0.1,0h-6.7
		v11.8h6.7c0.7,0,1.2,0.5,1.3,1.2v2.5c0,0.7-0.6,1.3-1.3,1.3h0h-9.2c-1.4,0-2.5-1.1-2.5-2.5V54.5c0-1.4,1.1-2.5,2.5-2.5h9.2
		c0.7,0,1.3,0.6,1.3,1.3c0,0,0,0,0,0v2.5c0,0.7-0.5,1.2-1.2,1.2c0,0-0.1,0-0.1,0L107.9,57z"/>
	<path class="st0" d="M125.7,57v11.7h6.7c0.7-0.1,1.2,0.4,1.3,1.1c0,0,0,0.1,0,0.1v2.5c0,0.7-0.5,1.2-1.2,1.2c0,0-0.1,0-0.1,0h-6.7
		v15.5c0,0.7-0.6,1.3-1.3,1.3h0H122c-0.7,0-1.3-0.6-1.3-1.3v0V54.5c0-1.4,1.1-2.5,2.5-2.5h9.2c0.7,0,1.3,0.6,1.3,1.3c0,0,0,0,0,0
		v2.5c0,0.7-0.5,1.2-1.2,1.2c0,0-0.1,0-0.1,0L125.7,57z"/>
	<path class="st0" d="M155,53.3v28.1c0.5,4.9-3.1,9.4-8,9.9s-9.4-3.1-9.9-8c-0.1-0.6-0.1-1.3,0-1.9V53.3c0-0.7,0.5-1.2,1.2-1.3h2.5
		c0.7,0,1.3,0.6,1.3,1.3c0,0,0,0,0,0v28.1c-0.1,2.2,1.6,3.9,3.8,4c0.1,0,0.1,0,0.2,0c2.2-0.1,3.9-1.8,3.9-4V53.3
		c0-0.7,0.6-1.3,1.3-1.3l0,0h2.4C154.4,52,155,52.6,155,53.3C155,53.3,155,53.3,155,53.3z"/>
	<path class="st0" d="M172.2,63.7V61c0.1-2.1-1.6-3.8-3.7-3.9c-0.1,0-0.1,0-0.2,0c-2.2-0.1-3.9,1.6-4,3.8c0,0,0,0.1,0,0.1v20.5
		c0,2.2,1.8,4,4,4c2.2,0,3.9-1.7,3.9-3.9c0,0,0-0.1,0-0.1v-7.9h-2.7c-0.7,0-1.2-0.5-1.2-1.2v-2.5c0-0.7,0.5-1.2,1.2-1.2h6.4
		c0.7-0.1,1.2,0.4,1.3,1.1c0,0,0,0.1,0,0.1v11.6c0,4.9-4,8.9-8.9,8.9c-4.9,0-8.9-4-8.9-8.9l0,0V61c0-4.9,4-8.9,8.9-8.9
		c4.9,0,8.9,4,8.9,8.9v2.7c0,0.7-0.5,1.2-1.2,1.2c0,0-0.1,0-0.1,0h-2.4c-0.7,0.1-1.2-0.4-1.3-1.1C172.2,63.8,172.2,63.7,172.2,63.7z
		"/>
	<path class="st0" d="M186.8,57v11.7h6.7c0.7-0.1,1.2,0.4,1.3,1.1c0,0,0,0.1,0,0.1v2.5c0,0.7-0.5,1.2-1.2,1.2c0,0-0.1,0-0.1,0h-6.7
		v11.8h6.7c0.7,0,1.2,0.5,1.3,1.2v2.5c0,0.7-0.6,1.3-1.3,1.3l0,0h-9.2c-1.4,0-2.5-1.1-2.5-2.5V54.5c0-1.4,1.1-2.5,2.5-2.5h9.2
		c0.7,0,1.3,0.6,1.3,1.3c0,0,0,0,0,0v2.5c0,0.7-0.5,1.2-1.2,1.2c0,0-0.1,0-0.1,0L186.8,57z"/>
	<path class="st0" d="M203.9,57v11.7h6.7c0.7,0,1.2,0.5,1.2,1.2v2.5c0,0.7-0.5,1.2-1.2,1.2h-6.7v11.8h6.7c0.7,0,1.2,0.5,1.2,1.2v2.5
		c0.1,0.7-0.4,1.2-1.1,1.3c0,0-0.1,0-0.1,0h-9.2c-1.4,0-2.5-1.1-2.5-2.5V54.5c0-1.4,1.1-2.5,2.5-2.5h9.2c0.7,0,1.2,0.5,1.2,1.2
		c0,0,0,0.1,0,0.1v2.5c0,0.7-0.5,1.2-1.2,1.2L203.9,57z"/>
</g>
<path class="st1" d="M53.1,68.7c5.5,0,6.2-3.1,6.2-5.8c-0.1-2.2-0.3-4.3-0.6-6.5c-0.4-2.1-0.6-4.3-0.6-6.4c0-7.1,4.6-10.1,11.2-10.1
	H71v4.2h-1.4c-4.6,0-6.2,2.5-6.2,6.7c0.1,1.8,0.3,3.7,0.6,5.5c0.3,2,0.5,3.9,0.5,5.9c0.1,4.9-2.1,7.4-5.5,8.3v0.2
	c3.4,0.8,5.6,3.5,5.5,8.4c0,2-0.2,3.9-0.5,5.9c-0.3,1.8-0.5,3.7-0.6,5.6c0,4.3,1.8,6.7,6.2,6.7H71v4.3h-1.7
	c-6.4,0-11.2-2.8-11.2-10.6c0.1-2.1,0.3-4.3,0.6-6.4c0.3-2.1,0.5-4.2,0.6-6.3c0-2.4-0.7-5.7-6.2-5.7V68.7z"/>
<path class="st1" d="M238.4,72.6c-5.5,0-6.3,3.3-6.3,5.7c0,2.1,0.3,4.2,0.7,6.3c0.3,2.1,0.5,4.3,0.6,6.4c0,7.8-4.9,10.6-11.3,10.6
	h-1.6v-4.3h1.3c4.4-0.1,6.2-2.4,6.2-6.7c-0.1-1.9-0.2-3.7-0.5-5.6c-0.4-1.9-0.6-3.9-0.6-5.9c0-4.9,2.1-7.6,5.5-8.4v-0.2
	c-3.4-0.9-5.5-3.4-5.5-8.3c0-2,0.2-4,0.6-5.9c0.3-1.8,0.4-3.7,0.5-5.5c0-4.2-1.6-6.6-6.1-6.7h-1.4v-4.2h1.6c6.6,0,11.3,3,11.3,10.1
	c0,2.1-0.2,4.3-0.6,6.4c-0.4,2.1-0.7,4.3-0.7,6.5c0,2.7,0.8,5.8,6.3,5.8V72.6z"/>
<path class="st1" d="M260.8,73.9v7.6c0.5,4.9-3.1,9.4-8,9.9s-9.4-3.1-9.9-8c-0.1-0.6-0.1-1.3,0-1.9V61.1c0.5-4.9,5-8.5,9.9-8
	c4.2,0.4,7.6,3.8,8,8c0,0.7-0.5,1.2-1.2,1.2l0,0h-2.5c-0.7,0-1.2-0.5-1.2-1.2c0-2.2-1.8-4-4-4s-4,1.8-4,4V66c1.2-0.7,2.6-1,4-1
	C256.8,65,260.8,69,260.8,73.9C260.8,73.9,260.8,73.9,260.8,73.9z M255.9,73.9c0-2.2-1.8-4-4-4s-4,1.8-4,4v7.6c0,2.2,1.8,4,4,4
	s4-1.8,4-4V73.9z"/>
<path class="st1" d="M273.7,54.7v34.6c0,0.6-0.6,1.2-1.2,1.2H270c-0.7,0-1.2-0.5-1.2-1.2v0V57.1h-4.1c-0.7,0-1.2-0.5-1.2-1.2
	c0,0,0,0,0,0v-2.5c0-0.7,0.5-1.2,1.2-1.2l0,0h6.5C272.6,52.2,273.7,53.3,273.7,54.7L273.7,54.7z"/>
<path class="st1" d="M296.5,64.8c0,2.5-1,4.8-2.8,6.5c1.8,1.7,2.8,4,2.8,6.4v3.8c0.5,4.9-3.1,9.4-8,9.9c-4.9,0.5-9.4-3.1-9.9-8
	c-0.1-0.6-0.1-1.3,0-1.9v-2.6c-0.1-0.7,0.4-1.2,1.1-1.3c0,0,0.1,0,0.1,0h2.5c0.7,0,1.3,0.6,1.3,1.3v2.6c-0.1,2.2,1.6,3.9,3.8,4
	c0,0,0.1,0,0.1,0c2.2,0.1,3.9-1.6,4-3.8c0-0.1,0-0.1,0-0.2v-3.8c-0.1-2.2-1.8-3.9-4-3.9c-0.7,0-1.2-0.5-1.2-1.2c0,0,0-0.1,0-0.1
	v-2.4c-0.1-0.7,0.4-1.2,1.1-1.3c0,0,0.1,0,0.1,0c2.2,0,4-1.8,4-4v-3.7c0-2.2-1.8-4-4-4c-2.2,0-3.9,1.7-3.9,3.9c0,0,0,0.1,0,0.1v2.7
	c-0.1,0.7-0.6,1.2-1.3,1.2h-2.5c-0.7,0-1.2-0.5-1.2-1.2c0,0,0,0,0,0v-2.7c0.5-4.9,5-8.5,9.9-8c4.2,0.4,7.6,3.8,8,8V64.8z"/>
</svg>
