<svg xmlns="http://www.w3.org/2000/svg" width="251.1" height="185.2" viewBox="0 0 251.1 185.2"><path fill="#c7c7c7" d="M74.4 44.1l31.1 31.1c16.1 16.1 43.3 18.7 62 0A42.9 42.9 0 0 0 180 44.5v-.8a42.5 42.5 0 0 0-12.5-30.6c-18.7-18.7-45.9-16.1-62 0l-31.1 31M121 28.7a21.6 21.6 0 0 1 30.9 0 21.4 21.4 0 0 1 6.2 15.2v.4A21.7 21.7 0 0 1 121 59.6l-15.4-15.5s4.5-4.6 15.4-15.4z"/><path fill="#878787" d="M105.6 44.1L121 59.6a21.7 21.7 0 0 0 37.1-15.3v-.2H180v.4a42.9 42.9 0 0 1-12.5 30.7c-18.7 18.7-45.9 16.1-62 0L74.4 44.1z"/><path fill="#4d4d4d" d="M105.6 44.1l-31.1-31c-16.1-16.1-43.3-18.7-62 0A42.5 42.5 0 0 0 0 43.7v.8a42.9 42.9 0 0 0 12.5 30.7c18.7 18.7 45.9 16.1 62 0l31.1-31.1m-31.2 0L59 59.6a21.7 21.7 0 0 1-37.1-15.3v-.4a21.4 21.4 0 0 1 6.2-15.2 21.6 21.6 0 0 1 30.9 0c10.9 10.8 15.4 15.4 15.4 15.4z"/><path fill="#1a1a1a" d="M74.4 44.1L59 59.6a21.7 21.7 0 0 1-37.1-15.3v-.2H0v.4a42.9 42.9 0 0 0 12.5 30.7c18.7 18.7 45.9 16.1 62 0l31.1-31.1z"/><path d="M105.6 44.1H74.4L90 59.7z"/><path fill="gray" d="M162.2 110.1h4.1c2.4 0 3.5 1.1 3.5 2.7a2.3 2.3 0 0 1-1.5 2.1 2.2 2.2 0 0 1 1.8 2.2c0 1.9-1.4 2.8-3.6 2.8h-4.3zm4 4.1c.9 0 1.4-.5 1.4-1.2s-.5-1.2-1.4-1.2h-1.9v2.4zm.3 4.1a1.3 1.3 0 0 0 1.5-1.3c0-.8-.6-1.2-1.5-1.2h-2.2v2.5zm5.7-8.2h2.1v8h4.9v1.8h-7zm13.2-.1a5.1 5.1 0 1 1-5.1 5 4.9 4.9 0 0 1 5.1-5zm0 8.3c1.7 0 2.9-1.3 2.9-3.3a2.9 2.9 0 1 0-5.8 0c0 2 1.2 3.3 2.9 3.3zm11.7-8.3a5.1 5.1 0 1 1-5.1 5 4.9 4.9 0 0 1 5.1-5zm0 8.3c1.7 0 2.9-1.3 2.9-3.3a2.9 2.9 0 1 0-5.8 0c0 2 1.2 3.3 2.9 3.3zm7.1-8.2h3.2c3.5 0 5.4 1.9 5.4 4.9s-1.8 4.9-5.4 4.9h-3.2zm3.4 8.1a2.9 2.9 0 0 0 3.1-3.2 2.8 2.8 0 0 0-3.1-3.1h-1.3v6.3zm-45.4 8.1h4.1c2.9 0 3.8 1.6 3.8 3.2s-1 3.1-3.7 3.1h-2.1v3.6h-2.1zm4.1 4.6c1.2 0 1.7-.6 1.7-1.4s-.5-1.5-1.7-1.5h-2v2.9zm5.6-4.6h2.1v8h4.9v1.9h-7zm11.9 0h2.4l3.5 9.9h-2.3l-.6-1.9h-3.7l-.6 1.9h-2.3zm-.2 6.4h2.7l-1.3-4zm8.4.9a5.8 5.8 0 0 0 2.8.9c1.1 0 1.7-.5 1.7-1.1s-5.3-.6-5.3-4.3c0-1.6 1.3-2.9 3.6-2.9a8.5 8.5 0 0 1 3.5.8l-.8 1.7a5.4 5.4 0 0 0-2.7-.7c-.9 0-1.5.5-1.5 1.1s5.3.5 5.3 4.3c0 1.6-1.2 2.9-3.7 2.9a7.5 7.5 0 0 1-3.9-1.1zm8.6-7.3h2.2l2.9 4.2 3-4.2h2.1v9.9h-2v-6.8l-3.1 4.2-3-4.2v6.8h-2.1zm15.3 0h2.4l3.6 9.9h-2.3l-.6-1.9h-3.7l-.7 1.9h-2.2zm-.1 6.4h2.6l-1.3-4zm-53 17.1a6.2 6.2 0 0 0 2.9.9c1.1 0 1.6-.5 1.6-1.1s-5.3-.6-5.3-4.3c0-1.6 1.3-2.9 3.6-2.9a8.2 8.2 0 0 1 3.5.8l-.7 1.7a5.4 5.4 0 0 0-2.7-.7c-.9 0-1.5.5-1.5 1.1s5.3.5 5.3 4.3c0 1.6-1.3 2.9-3.8 2.9a8.1 8.1 0 0 1-3.9-1.1zm11.2-5.4h-3.2v-1.9h8.6v1.9h-3.3v8H174zm7-1.9h7.1v1.9h-5v2.2h4.5v1.6h-4.5v2.3h5.1v1.9H181zm9.4 0h2.1l3 4.2 3-4.2h2.1v9.9h-2v-6.8l-3.1 4.2-3.1-4.2v6.8h-2zm21-.1a5.5 5.5 0 0 1 3.5 1.2l-1.1 1.5a3.4 3.4 0 0 0-2.4-.9 2.9 2.9 0 0 0-3 3.2 3 3 0 0 0 3 3.3 3.7 3.7 0 0 0 2.5-1l1.2 1.3a5.2 5.2 0 0 1-3.8 1.5 4.8 4.8 0 0 1-5-5.1 4.9 4.9 0 0 1 5.1-5zm5.4.1h7.1v1.9h-5v2.2h4.5v1.6h-4.5v2.3h5.1v1.9h-7.2zm9.4 0h2.1v8h4.9v1.9h-7zm8.7 0h2.1v8h4.9v1.9h-7zm9.5 7.3a6.2 6.2 0 0 0 2.9.9c1 0 1.6-.5 1.6-1.1s-5.3-.6-5.3-4.3c0-1.6 1.3-2.9 3.6-2.9a8.2 8.2 0 0 1 3.5.8l-.8 1.7a5.1 5.1 0 0 0-2.6-.7c-1 0-1.5.5-1.5 1.1s5.3.5 5.3 4.3c0 1.6-1.3 2.9-3.8 2.9a7.5 7.5 0 0 1-3.9-1.1zm-77.5 8.8a5.1 5.1 0 1 1-5 5 4.9 4.9 0 0 1 5-5zm0 8.3a3 3 0 0 0 3-3.3 3 3 0 1 0-5.9 0c0 2 1.2 3.3 2.9 3.3zm7.1-8.2h4.3c2.9 0 3.8 1.6 3.8 3.2a2.9 2.9 0 0 1-1.8 2.7l1.9 4h-2.3l-1.5-3.7h-2.2v3.7H174zm4.3 4.6c1.1 0 1.7-.6 1.7-1.4s-.6-1.5-1.7-1.5h-2.1v2.9zm10.5-4.7a5.8 5.8 0 0 1 3.6 1.2l-1.1 1.4a4.1 4.1 0 0 0-2.4-.8 2.9 2.9 0 0 0-3 3.2c0 2 1.1 3.3 3 3.3a3.1 3.1 0 0 0 1.7-.4v-2h-2.2v-1.4h4.1v4.5a6 6 0 0 1-3.7 1.1 5.1 5.1 0 1 1 0-10.1zm8.7.1h2.4l3.5 9.9h-2.2l-.6-1.9h-3.8l-.6 1.9h-2.3zm-.2 6.4h2.7l-1.3-4zm7.7-6.4h2l4.4 6.5v-6.5h2v9.9h-2l-4.4-6.5v6.5h-2zm11.4 7.3a5.5 5.5 0 0 0 2.8.9c1.1 0 1.7-.5 1.7-1.1s-5.3-.6-5.3-4.3c0-1.6 1.3-2.9 3.6-2.9a8.5 8.5 0 0 1 3.5.8l-.8 1.7a5.4 5.4 0 0 0-2.7-.7c-.9 0-1.5.5-1.5 1.1s5.3.5 5.3 4.3c0 1.6-1.2 2.9-3.7 2.9a7.5 7.5 0 0 1-3.9-1.1zm-52.7 13.1a2.9 2.9 0 0 1-.7-1.8 2.7 2.7 0 0 1 2.9-2.5 3.8 3.8 0 0 1 2.9 1.3l-1.3 1.2a2.2 2.2 0 0 0-1.5-.8.9.9 0 0 0-1 .9 2.3 2.3 0 0 0 .8 1.4l2.7 2.4a4.8 4.8 0 0 0 .3-1.8h1.9a5.7 5.7 0 0 1-.8 2.9l1.7 1.2-1.1 1.4-1.7-1.2a5.6 5.6 0 0 1-3.4 1.2c-2.3 0-3.6-1.4-3.6-2.9a3.4 3.4 0 0 1 1.9-2.9zm1 1.1a1.9 1.9 0 0 0-1 1.6c0 .9.7 1.5 1.8 1.5a3.5 3.5 0 0 0 2-.7 22 22 0 0 1-2.8-2.4zm14.9-3.4h-3.3V175h8.6v1.8h-3.2v8h-2.1zm6.9-1.8h2.2v9.8h-2.2zm5.1 7.2a6.2 6.2 0 0 0 2.9.9c1 0 1.6-.5 1.6-1.1s-5.3-.6-5.3-4.3c0-1.6 1.3-2.9 3.6-2.9a8.2 8.2 0 0 1 3.5.8l-.8 1.7a4.8 4.8 0 0 0-2.6-.7c-1 0-1.5.5-1.5 1.1s5.3.5 5.3 4.3c0 1.6-1.3 2.9-3.8 2.9a7.5 7.5 0 0 1-3.9-1.1zm9.1 0a5.8 5.8 0 0 0 2.9.9c1 0 1.6-.5 1.6-1.1s-5.3-.6-5.3-4.3c0-1.6 1.3-2.9 3.6-2.9a8.5 8.5 0 0 1 3.5.8l-.8 1.7a5.4 5.4 0 0 0-2.6-.7c-1 0-1.5.5-1.5 1.1s5.2.5 5.2 4.3c0 1.6-1.2 2.9-3.7 2.9a7.5 7.5 0 0 1-3.9-1.1zm8.5-7.2h2.2v6a1.9 1.9 0 0 0 2 2.1 1.9 1.9 0 0 0 2-2.1v-6h2.1v6c0 2.7-1.7 3.9-4.1 3.9s-4.2-1.2-4.2-3.9zm10.7 0h7.2v1.8H222v2.2h4.5v1.6H222v2.3h5.1v1.9h-7.2zm9.8 7.2a6.2 6.2 0 0 0 2.9.9c1.1 0 1.6-.5 1.6-1.1s-5.3-.6-5.3-4.3c0-1.6 1.4-2.9 3.6-2.9a8.6 8.6 0 0 1 3.6.8l-.8 1.7a5.4 5.4 0 0 0-2.7-.7c-.9 0-1.5.5-1.5 1.1s5.3.5 5.3 4.3c0 1.6-1.2 2.9-3.8 2.9a8.1 8.1 0 0 1-3.9-1.1z"/><path fill="#262626" d="M14.9 104.7a12.5 12.5 0 0 1 7.9 2.8l-2.6 3.2a8.1 8.1 0 0 0-5.3-2c-4 0-6.7 2.9-6.7 7.2s2.6 7.4 6.7 7.4a7.8 7.8 0 0 0 5.5-2.2l2.8 3a11.9 11.9 0 0 1-8.5 3.3c-6.7 0-11.3-4.8-11.3-11.5s4.7-11.2 11.5-11.2zM35 116.9v-1.5c0-1.2-.7-1.9-2.3-1.9a11.9 11.9 0 0 0-5.4 1.7l-1.6-3.5a17.6 17.6 0 0 1 7.2-1.9c4.9 0 6.8 2.3 6.8 5.8v7a1.2 1.2 0 0 0 1.3 1.3v3.2c-3.2 0-4.5-.5-5.5-2.1a6.6 6.6 0 0 1-5.2 2.4c-2.9 0-5-1.8-5-4.5s3.4-5.6 9.7-6zm-3.1 7.2a3.9 3.9 0 0 0 3.1-1.5v-3.2c-2.6.2-5 .9-5 2.9a1.7 1.7 0 0 0 1.9 1.8zm11.9-14h4.4l.2 2a7.3 7.3 0 0 1 5.1-2.4c3.8 0 5.4 2.4 5.4 6.1V127h-4.7v-11.2c0-1.6-.6-2.5-2.2-2.5a4.6 4.6 0 0 0-3.5 1.9V127h-4.7zm27.6 6.8v-1.5c0-1.2-.7-1.9-2.3-1.9a11.9 11.9 0 0 0-5.4 1.7l-1.6-3.5a17.6 17.6 0 0 1 7.3-1.9c4.8 0 6.7 2.3 6.7 5.8v7a1.2 1.2 0 0 0 1.3 1.3v3.2c-3.2 0-4.5-.5-5.5-2.1a6.6 6.6 0 0 1-5.2 2.4c-2.9 0-5-1.8-5-4.5s3.4-5.6 9.7-6zm-3.1 7.2a3.9 3.9 0 0 0 3.1-1.5v-3.2c-2.6.2-5 .9-5 2.9a1.7 1.7 0 0 0 1.9 1.8zm11-5.7c0-5.7 2.6-8.6 6.5-8.6a6.2 6.2 0 0 1 4.8 2.2v-8.7h4.7V127h-4.1l-.3-2a6.8 6.8 0 0 1-5.2 2.4c-3.7 0-6.4-3.1-6.4-9zm11.3 3.8v-7.1a4.5 4.5 0 0 0-3.4-1.7c-2.2 0-3.2 1.7-3.2 5s1 5.4 3.2 5.4a4.3 4.3 0 0 0 3.4-1.6zm25.9-5.3v-1.5c0-1.2-.8-1.9-2.3-1.9a11.9 11.9 0 0 0-5.4 1.7l-1.6-3.5a17.6 17.6 0 0 1 7.2-1.9c4.8 0 6.7 2.3 6.7 5.8v7c0 .9.5 1.3 1.4 1.3v3.2c-3.2 0-4.6-.5-5.5-2.1a6.8 6.8 0 0 1-5.3 2.4c-2.9 0-4.9-1.8-4.9-4.5s3.4-5.6 9.7-6zm-3.2 7.2a4.1 4.1 0 0 0 3.2-1.5v-3.2c-2.6.2-5.1.9-5.1 2.9a1.8 1.8 0 0 0 1.9 1.8zm11.9-14h4.5l.2 2a7.1 7.1 0 0 1 5.1-2.4c3.8 0 5.3 2.4 5.3 6.1V127h-4.6v-11.2c0-1.6-.7-2.5-2.2-2.5a4.7 4.7 0 0 0-3.6 1.9V127h-4.7zM4.3 133.9h9c5.3 0 7.8 2.5 7.8 5.9a5 5 0 0 1-3.3 4.7c2.4.8 4.1 2.4 4.1 5.1s-3.2 6.3-8.1 6.3H4.3zM13 143c2.2 0 3.3-1.1 3.3-2.7s-1.1-2.6-3.3-2.6H9v5.3zm.7 9.1c2.1 0 3.4-1 3.4-2.8s-1.3-2.8-3.4-2.8H9v5.6zm11.5-19.9h4.7v23.7h-4.7zm16.2 6.4c4.8 0 8.4 3.5 8.4 8.7s-3.4 9-8.4 9-8.5-3.5-8.5-9 3.6-8.7 8.5-8.7zm0 14.1c2.3 0 3.7-2.1 3.7-5.4s-1.5-5.1-3.7-5.1-3.8 2-3.8 5.1 1.3 5.4 3.8 5.4zm19-14.1a8.3 8.3 0 0 1 8.5 8.7c0 5.5-3.4 9-8.5 9s-8.5-3.5-8.5-9a8.3 8.3 0 0 1 8.5-8.7zm0 14.1c2.4 0 3.7-2.1 3.7-5.4s-1.4-5.1-3.7-5.1-3.7 2-3.7 5.1 1.3 5.4 3.7 5.4zm10.7-5.4c0-5.7 2.7-8.7 6.5-8.7a6.7 6.7 0 0 1 4.9 2.3v-8.7h4.6v23.7H83l-.3-2a6.7 6.7 0 0 1-5.1 2.4c-3.8 0-6.5-3.1-6.5-9zm11.4 3.8v-7.2a4.4 4.4 0 0 0-3.5-1.6c-2.1 0-3.2 1.7-3.2 5s1.1 5.4 3.2 5.4a4.6 4.6 0 0 0 3.5-1.6zM5.6 179a12.4 12.4 0 0 0 6.4 2c2.4 0 3.6-1 3.6-2.4 0-4.1-11.8-1.3-11.8-9.6 0-3.6 2.9-6.6 8-6.6a17.4 17.4 0 0 1 7.9 1.9L18 168a14.6 14.6 0 0 0-6-1.4c-2.1 0-3.3 1-3.3 2.3 0 4 11.8 1.2 11.8 9.7 0 3.7-2.8 6.6-8.4 6.6a17.9 17.9 0 0 1-8.8-2.5zm25.6-11.5c4.9 0 7.6 3.2 7.6 7.7a11.2 11.2 0 0 1-.2 2H27.5c.3 2.9 1.6 4.2 4.1 4.2a8.3 8.3 0 0 0 4.6-1.4l2 2.9a11.7 11.7 0 0 1-7 2.3c-4.9 0-8.4-3.3-8.4-9s3.7-8.7 8.4-8.7zm-3.6 7.1h6.7c0-2.1-.8-3.7-3-3.7s-3.2 1.2-3.7 3.7zm14.1-6.7h4.4l.3 2.6c1.3-2.3 2.9-3.1 4.8-3.1a10.6 10.6 0 0 1 2 .3l-.7 4.4a6.2 6.2 0 0 0-2.2-.4c-1.7 0-2.9 1-3.9 3v10.1h-4.7zm13 0h4.6l3.5 11.8h.1l3.5-11.8h4.5l-5.6 16.9h-5zm34.5-.4a10.2 10.2 0 0 1 6 2.1l-2.4 3a5.7 5.7 0 0 0-3.5-1.3c-2.2 0-3.9 1.7-3.9 4.9s1.7 5.1 3.9 5.1a5.2 5.2 0 0 0 3.5-1.3l2.6 2.7a8.8 8.8 0 0 1-6.2 2.5c-4.9 0-8.6-3.4-8.6-9s3.7-8.7 8.6-8.7zm15.6 0c4.9 0 7.6 3.2 7.6 7.7a11.2 11.2 0 0 1-.2 2h-11c.2 2.9 1.5 4.2 4 4.2a8.6 8.6 0 0 0 4.7-1.4l2 2.9a12 12 0 0 1-7 2.3c-5 0-8.5-3.3-8.5-9s3.8-8.7 8.4-8.7zm-3.5 7.1h6.6c0-2.1-.8-3.7-2.9-3.7s-3.3 1.2-3.7 3.7zm14.8 5.5a10.8 10.8 0 0 0 5.2 1.5c1.5 0 2.5-.5 2.5-1.6 0-2.7-9.1-.9-9.1-7.2 0-3.5 3.1-5.3 6.7-5.3a15.1 15.1 0 0 1 6.3 1.5l-1.7 3.3a11.2 11.2 0 0 0-4.5-1.2c-1.4 0-2.3.5-2.3 1.5 0 2.7 9.1.8 9.1 7.1 0 3.6-3 5.5-6.9 5.5a14.5 14.5 0 0 1-7.1-1.9zm-17-76.8h4.7v3.98h-4.7zm0 6.8h4.7v16.85h-4.7zm-26.1 51h4.7v3.98H73zm0 6.8h4.7v16.85H73z"/></svg>