<svg xmlns="http://www.w3.org/2000/svg" xmlns:xlink="http://www.w3.org/1999/xlink" width="257.9" height="201.4" viewBox="0 0 257.9 201.4"><defs><linearGradient id="a" x1="96.57" x2="96.24" y1="18.16" y2="42.02" gradientTransform="translate(39.29 -6.49)" gradientUnits="userSpaceOnUse"><stop offset="0" stop-color="#b5b5b5"/><stop offset=".09" stop-color="#b8b8b8"/><stop offset=".16" stop-color="#c2c2c2"/><stop offset=".22" stop-color="#d3d3d3"/><stop offset=".29" stop-color="#ebebeb"/><stop offset=".29" stop-color="#eee"/><stop offset=".33" stop-color="#dfdfdf"/><stop offset=".39" stop-color="#d4d4d4"/><stop offset=".46" stop-color="#cdcdcd"/><stop offset=".67" stop-color="#cbcbcb"/><stop offset=".78" stop-color="#c8c8c8"/><stop offset=".85" stop-color="silver"/><stop offset=".91" stop-color="#b1b1b1"/><stop offset=".96" stop-color="#9d9d9d"/><stop offset="1" stop-color="#858585"/></linearGradient><linearGradient id="l" x1="69.39" x2="70.56" y1="22.65" y2="42" xlink:href="#a"/><linearGradient id="m" x1="83.24" x2="83.24" y1="21.85" y2="34.84" gradientTransform="translate(39.29 -6.49)" gradientUnits="userSpaceOnUse"><stop offset="0" stop-color="#cbcbcb"/><stop offset=".11" stop-color="#cecece"/><stop offset=".19" stop-color="#d8d8d8"/><stop offset=".27" stop-color="#e9e9e9"/><stop offset=".29" stop-color="#eee"/><stop offset=".33" stop-color="#dfdfdf"/><stop offset=".39" stop-color="#d4d4d4"/><stop offset=".46" stop-color="#cdcdcd"/><stop offset=".67" stop-color="#cbcbcb"/><stop offset=".77" stop-color="#c8c8c8"/><stop offset=".83" stop-color="silver"/><stop offset=".88" stop-color="#b1b1b1"/><stop offset=".92" stop-color="#9d9d9d"/><stop offset=".96" stop-color="#828282"/><stop offset="1" stop-color="#626262"/></linearGradient><radialGradient id="b" cx="71.54" cy="36.29" r=".74" gradientTransform="matrix(1.02 0 0 1 36.37 -7.03)" gradientUnits="userSpaceOnUse"><stop offset="0" stop-color="#cbcbcb"/><stop offset="0" stop-color="#d7d7d7"/><stop offset="0" stop-color="#eee"/><stop offset=".51" stop-color="#cbcbcb"/><stop offset=".65" stop-color="#c8c8c8"/><stop offset=".74" stop-color="silver"/><stop offset=".81" stop-color="#b1b1b1"/><stop offset=".87" stop-color="#9d9d9d"/><stop offset=".93" stop-color="#828282"/><stop offset=".99" stop-color="#616161"/><stop offset="1" stop-color="#5a5a5a"/></radialGradient><radialGradient id="n" cx="70.94" cy="34.97" r=".74" xlink:href="#b"/><radialGradient id="o" cx="70.1" cy="33.77" r=".74" xlink:href="#b"/><radialGradient id="p" cx="69.15" cy="32.64" r=".74" xlink:href="#b"/><radialGradient id="q" cx="68.17" cy="31.44" r=".73" xlink:href="#b"/><radialGradient id="r" cx="67.32" cy="30.1" r=".73" xlink:href="#b"/><radialGradient id="s" cx="66.72" cy="28.82" r=".73" xlink:href="#b"/><radialGradient id="t" cx="66.44" cy="27.31" r=".73" xlink:href="#b"/><radialGradient id="u" cx="66.45" cy="25.76" r=".72" xlink:href="#b"/><radialGradient id="v" cx="66.83" cy="24.35" r=".72" xlink:href="#b"/><radialGradient id="w" cx="67.58" cy="23.03" r=".72" xlink:href="#b"/><radialGradient id="x" cx="68.68" cy="22.03" r=".72" xlink:href="#b"/><radialGradient id="y" cx="70.04" cy="21.49" r=".72" xlink:href="#b"/><radialGradient id="z" cx="71.45" cy="21.36" r=".72" xlink:href="#b"/><radialGradient id="A" cx="72.71" cy="21.38" r=".72" xlink:href="#b"/><radialGradient id="B" cx="74.04" cy="21.64" r=".72" xlink:href="#b"/><radialGradient id="C" cx="75.24" cy="22.08" r=".72" xlink:href="#b"/><radialGradient id="D" cx="73.97" cy="22" r=".72" xlink:href="#b"/><radialGradient id="E" cx="72.75" cy="22.11" r=".72" xlink:href="#b"/><radialGradient id="F" cx="71.56" cy="22.58" r=".72" xlink:href="#b"/><radialGradient id="G" cx="70.57" cy="23.44" r=".72" xlink:href="#b"/><radialGradient id="H" cx="69.94" cy="24.62" r=".72" xlink:href="#b"/><radialGradient id="I" cx="69.74" cy="26" r=".73" xlink:href="#b"/><radialGradient id="J" cx="69.87" cy="27.28" r=".73" xlink:href="#b"/><radialGradient id="K" cx="70.15" cy="28.57" r=".73" xlink:href="#b"/><radialGradient id="L" cx="70.7" cy="29.81" r=".73" xlink:href="#b"/><radialGradient id="M" cx="71.46" cy="30.92" r=".73" xlink:href="#b"/><radialGradient id="N" cx="72.34" cy="32.06" r=".73" xlink:href="#b"/><radialGradient id="O" cx="73.25" cy="33.17" r=".74" xlink:href="#b"/><radialGradient id="P" cx="73.94" cy="34.5" r=".74" xlink:href="#b"/><radialGradient id="Q" cx="74.43" cy="35.83" r=".74" xlink:href="#b"/><radialGradient id="R" cx="76.42" cy="22.58" r=".72" xlink:href="#b"/><radialGradient id="S" cx="77.5" cy="23.21" r=".72" xlink:href="#b"/><radialGradient id="T" cx="78.61" cy="23.86" r=".72" xlink:href="#b"/><radialGradient id="U" cx="79.83" cy="24.41" r=".72" xlink:href="#b"/><radialGradient id="V" cx="81.15" cy="24.72" r=".72" xlink:href="#b"/><radialGradient id="c" cx="82.66" cy="21.68" r=".72" gradientTransform="matrix(1.02 0 0 1 36.37 -7.03)" gradientUnits="userSpaceOnUse"><stop offset="0" stop-color="#cbcbcb"/><stop offset="0" stop-color="#d7d7d7"/><stop offset="0" stop-color="#eee"/><stop offset=".51" stop-color="#cbcbcb"/><stop offset=".65" stop-color="#c8c8c8"/><stop offset=".74" stop-color="silver"/><stop offset=".82" stop-color="#b1b1b1"/><stop offset=".88" stop-color="#9d9d9d"/><stop offset=".94" stop-color="#828282"/><stop offset="1" stop-color="#626262"/></radialGradient><radialGradient id="W" cx="82.65" cy="23.13" r=".72" xlink:href="#c"/><radialGradient id="X" cx="82.64" cy="24.58" r=".72" xlink:href="#c"/><radialGradient id="Y" cx="82.63" cy="26.03" r=".73" xlink:href="#c"/><radialGradient id="Z" cx="82.62" cy="27.48" r=".73" xlink:href="#c"/><radialGradient id="aa" cx="82.61" cy="28.92" r=".73" xlink:href="#c"/><radialGradient id="ab" cx="82.59" cy="30.37" r=".73" xlink:href="#c"/><radialGradient id="ac" cx="82.58" cy="31.82" r=".74" xlink:href="#c"/><radialGradient id="ad" cx="82.57" cy="33.27" r=".74" xlink:href="#c"/><radialGradient id="ae" cx="86.41" cy="21.68" r=".72" xlink:href="#c"/><radialGradient id="af" cx="86.42" cy="23.13" r=".72" xlink:href="#c"/><radialGradient id="ag" cx="86.43" cy="24.58" r=".72" xlink:href="#c"/><radialGradient id="ah" cx="86.44" cy="26.03" r=".73" xlink:href="#c"/><radialGradient id="ai" cx="86.45" cy="27.48" r=".73" xlink:href="#c"/><radialGradient id="aj" cx="86.45" cy="28.92" r=".73" xlink:href="#c"/><radialGradient id="ak" cx="86.46" cy="30.37" r=".73" xlink:href="#c"/><radialGradient id="al" cx="86.47" cy="31.82" r=".73" xlink:href="#c"/><radialGradient id="am" cx="86.48" cy="33.27" r=".74" xlink:href="#c"/><radialGradient id="an" cx="87.59" cy="24.72" r=".72" xlink:href="#b"/><radialGradient id="ao" cx="88.86" cy="24.44" r=".73" xlink:href="#b"/><radialGradient id="ap" cx="90.07" cy="24.02" r=".72" xlink:href="#b"/><radialGradient id="aq" cx="91.23" cy="23.45" r=".72" xlink:href="#b"/><radialGradient id="ar" cx="92.32" cy="22.79" r=".72" xlink:href="#b"/><radialGradient id="as" cx="93.44" cy="22.16" r=".72" xlink:href="#b"/><radialGradient id="at" cx="94.78" cy="21.91" r=".72" xlink:href="#b"/><radialGradient id="au" cx="98.1" cy="23.06" r=".72" xlink:href="#b"/><radialGradient id="av" cx="98.82" cy="24.12" r=".72" xlink:href="#b"/><radialGradient id="aw" cx="99.22" cy="25.44" r=".73" xlink:href="#b"/><radialGradient id="ax" cx="99.25" cy="26.75" r=".73" xlink:href="#b"/><radialGradient id="ay" cx="98.99" cy="28.02" r=".73" xlink:href="#b"/><radialGradient id="az" cx="98.6" cy="29.18" r=".73" xlink:href="#b"/><radialGradient id="aA" cx="97.98" cy="30.31" r=".73" xlink:href="#b"/><radialGradient id="aB" cx="97.2" cy="31.39" r=".73" xlink:href="#b"/><radialGradient id="aC" cx="96.37" cy="32.35" r=".74" xlink:href="#b"/><radialGradient id="aD" cx="95.56" cy="33.43" r=".74" xlink:href="#b"/><radialGradient id="aE" cx="94.91" cy="34.64" r=".74" xlink:href="#b"/><radialGradient id="aF" cx="94.42" cy="35.94" r=".74" xlink:href="#b"/><radialGradient id="aG" cx="94.71" cy="21.69" r=".72" xlink:href="#b"/><radialGradient id="aH" cx="96" cy="21.46" r=".72" xlink:href="#b"/><radialGradient id="aI" cx="97.33" cy="21.36" r=".72" xlink:href="#b"/><radialGradient id="aJ" cx="98.63" cy="21.48" r=".72" xlink:href="#b"/><radialGradient id="aK" cx="99.87" cy="21.87" r=".72" xlink:href="#b"/><radialGradient id="aL" cx="101.01" cy="22.62" r=".72" xlink:href="#b"/><radialGradient id="aM" cx="101.77" cy="23.62" r=".72" xlink:href="#b"/><radialGradient id="aN" cx="102.34" cy="24.87" r=".72" xlink:href="#b"/><radialGradient id="aO" cx="102.57" cy="26.18" r=".73" xlink:href="#b"/><radialGradient id="aP" cx="102.49" cy="27.47" r=".73" xlink:href="#b"/><radialGradient id="aQ" cx="102.19" cy="28.75" r=".73" xlink:href="#b"/><radialGradient id="aR" cx="101.7" cy="30" r=".73" xlink:href="#b"/><radialGradient id="aS" cx="100.98" cy="31.18" r=".73" xlink:href="#b"/><radialGradient id="aT" cx="100.2" cy="32.14" r=".73" xlink:href="#b"/><radialGradient id="aU" cx="99.36" cy="33.12" r=".73" xlink:href="#b"/><radialGradient id="aV" cx="98.56" cy="34.17" r=".74" xlink:href="#b"/><radialGradient id="aW" cx="97.91" cy="35.37" r=".74" xlink:href="#b"/><radialGradient id="aX" cx="97.42" cy="36.55" r=".74" xlink:href="#b"/><radialGradient id="aY" cx="95.82" cy="22.07" r=".72" xlink:href="#b"/><radialGradient id="aZ" cx="97.06" cy="22.42" r=".72" xlink:href="#b"/><radialGradient id="d" cx="84.59" cy="32.38" r=".79" gradientTransform="matrix(1.02 0 0 1 36.41 -7.15)" gradientUnits="userSpaceOnUse"><stop offset="0" stop-color="#cbcbcb"/><stop offset="0" stop-color="#d7d7d7"/><stop offset="0" stop-color="#eee"/><stop offset=".51" stop-color="#cbcbcb"/><stop offset=".66" stop-color="#c8c8c8"/><stop offset=".75" stop-color="silver"/><stop offset=".83" stop-color="#b1b1b1"/><stop offset=".89" stop-color="#9d9d9d"/><stop offset=".96" stop-color="#828282"/><stop offset="1" stop-color="#6b6b6b"/></radialGradient><radialGradient id="ba" cx="254.12" cy="-355.51" r=".81" gradientTransform="matrix(.72 -.71 .72 .71 195.38 453.07)" xlink:href="#d"/><radialGradient id="bb" cx="84.59" cy="27.14" r=".78" gradientTransform="matrix(1.02 0 0 1 36.37 -7.03)" xlink:href="#d"/><radialGradient id="bc" cx="257.82" cy="-359.22" r=".81" gradientTransform="matrix(.72 -.71 .72 .71 195.38 453.07)" xlink:href="#c"/><radialGradient id="bd" cx="228.89" cy="-184.77" r=".57" gradientTransform="matrix(1.16 -.53 .43 .9 -75.96 317.25)" xlink:href="#d"/><radialGradient id="be" cx="268.54" cy="-276" r=".69" gradientTransform="matrix(1.04 -.74 .6 .81 -6.09 444.53)" xlink:href="#d"/><radialGradient id="bf" cx="290.17" cy="351.44" r=".69" gradientTransform="matrix(.98 .81 -.65 .77 49.98 -487.32)" xlink:href="#d"/><radialGradient id="bg" cx="542.98" cy="-466.11" r=".57" gradientTransform="matrix(.2 -1.24 1 .16 465.17 775.5)" xlink:href="#d"/><radialGradient id="bh" cx="312.75" cy="-316.43" r=".6" gradientTransform="matrix(.94 -.86 .69 .73 29.45 518.84)" xlink:href="#d"/><radialGradient id="bi" cx="1017.91" cy="278.92" r="1.47" gradientTransform="matrix(-1.16 -.53 -.43 .9 1437.1 318.76)" xlink:href="#d"/><radialGradient id="bj" cx="973.84" cy="371.03" r="1.03" gradientTransform="matrix(-1.04 -.74 -.6 .81 1369.17 446.01)" xlink:href="#d"/><radialGradient id="bk" cx="982.89" cy="-312.58" r="1.73" gradientTransform="matrix(-1.05 .72 .58 .82 1354.13 -433.57)" xlink:href="#d"/><radialGradient id="bl" cx="683.42" cy="618.11" r=".83" gradientTransform="matrix(-.21 -1.24 -1 .16 896.34 776.09)" xlink:href="#d"/><radialGradient id="bm" cx="953.19" cy="429.61" r=".86" gradientTransform="matrix(-.94 -.86 -.69 .73 1333.21 518.73)" xlink:href="#d"/><linearGradient id="bn" x1="70.32" x2="96.07" y1="47.77" y2="47.77" gradientTransform="translate(39.29 -6.49)" gradientUnits="userSpaceOnUse"><stop offset=".11" stop-color="#b5b5b5"/><stop offset=".22" stop-color="#bababa"/><stop offset=".36" stop-color="#c9c9c9"/><stop offset=".51" stop-color="#e1e1e1"/><stop offset=".52" stop-color="#e3e3e3"/><stop offset=".7" stop-color="#b4b4b4"/><stop offset=".86" stop-color="#929292"/><stop offset=".94" stop-color="#858585"/></linearGradient><linearGradient id="e" x1="81.7" x2="84.66" y1="41.52" y2="41.52" gradientTransform="translate(39.29 -6.49)" gradientUnits="userSpaceOnUse"><stop offset="0" stop-color="#cbcbcb"/><stop offset=".15" stop-color="#cecece"/><stop offset=".27" stop-color="#d8d8d8"/><stop offset=".29" stop-color="#dbdbdb"/><stop offset=".33" stop-color="#d4d4d4"/><stop offset=".39" stop-color="#cdcdcd"/><stop offset=".58" stop-color="#cbcbcb"/><stop offset=".69" stop-color="#bdbdbd"/><stop offset=".9" stop-color="#999"/><stop offset="1" stop-color="#858585"/></linearGradient><linearGradient id="bo" x1="88.95" x2="91.36" y1="42.5" y2="42.5" xlink:href="#e"/><linearGradient id="bp" x1="74.99" x2="77.39" y1="42.5" y2="42.5" xlink:href="#e"/><linearGradient id="f" x1="86.96" x2="87.62" y1="41.2" y2="41.2" gradientTransform="translate(39.29 -6.49)" gradientUnits="userSpaceOnUse"><stop offset="0" stop-color="#cbcbcb"/><stop offset=".12" stop-color="#d7d7d7"/><stop offset=".29" stop-color="#eee"/><stop offset=".67" stop-color="#cbcbcb"/><stop offset=".77" stop-color="#c8c8c8"/><stop offset=".83" stop-color="silver"/><stop offset=".88" stop-color="#b1b1b1"/><stop offset=".92" stop-color="#9d9d9d"/><stop offset=".96" stop-color="#828282"/><stop offset="1" stop-color="#626262"/></linearGradient><linearGradient id="bq" x1="86.76" x2="87.43" y1="42.58" y2="42.58" xlink:href="#f"/><linearGradient id="br" x1="86.19" x2="86.85" y1="41.8" y2="41.8" xlink:href="#f"/><linearGradient id="bs" x1="87.54" x2="88.2" y1="41.98" y2="41.98" xlink:href="#f"/><linearGradient id="bt" x1="78.73" x2="79.38" y1="41.2" y2="41.2" xlink:href="#f"/><linearGradient id="bu" x1="78.92" x2="79.58" y1="42.58" y2="42.58" xlink:href="#f"/><linearGradient id="bv" x1="79.5" x2="80.16" y1="41.8" y2="41.8" xlink:href="#f"/><linearGradient id="bw" x1="78.14" x2="78.81" y1="41.98" y2="41.98" xlink:href="#f"/><linearGradient id="h" x1="76.54" x2="88.69" y1="12.33" y2="17.99" gradientTransform="translate(39.29 -6.49)" gradientUnits="userSpaceOnUse"><stop offset=".19" stop-color="#b5b5b5"/><stop offset=".19" stop-color="#b6b6b6"/><stop offset=".22" stop-color="#c7c7c7"/><stop offset=".27" stop-color="#d2d2d2"/><stop offset=".33" stop-color="#d9d9d9"/><stop offset=".5" stop-color="#dbdbdb"/><stop offset=".68" stop-color="#afafaf"/><stop offset=".83" stop-color="#909090"/><stop offset=".92" stop-color="#858585"/><stop offset="1" stop-color="#cbcbcb"/></linearGradient><linearGradient id="g" x1="82.34" x2="83.76" y1="7.38" y2="7.38" gradientTransform="translate(39.29 -6.49)" gradientUnits="userSpaceOnUse"><stop offset="0" stop-color="#cbcbcb"/><stop offset=".11" stop-color="#cecece"/><stop offset=".19" stop-color="#d8d8d8"/><stop offset=".27" stop-color="#e9e9e9"/><stop offset=".29" stop-color="#eee"/><stop offset=".33" stop-color="#dfdfdf"/><stop offset=".39" stop-color="#d4d4d4"/><stop offset=".46" stop-color="#cdcdcd"/><stop offset=".67" stop-color="#cbcbcb"/><stop offset=".77" stop-color="#c8c8c8"/><stop offset=".82" stop-color="silver"/><stop offset=".87" stop-color="#b1b1b1"/><stop offset=".92" stop-color="#9d9d9d"/><stop offset=".96" stop-color="#828282"/><stop offset=".99" stop-color="#616161"/><stop offset="1" stop-color="#5a5a5a"/></linearGradient><linearGradient id="bx" x1="87.77" x2="89.18" y1="12.18" y2="12.18" xlink:href="#g"/><linearGradient id="by" x1="77.11" x2="78.52" y1="12.21" y2="12.21" xlink:href="#g"/><linearGradient id="bz" x1="82.52" x2="83.77" y1="12.23" y2="12.23" xlink:href="#g"/><linearGradient id="bA" x1="73.19" x2="93.46" y1="46.29" y2="46.29" xlink:href="#h"/><linearGradient id="bB" x1="72.63" x2="93.9" y1="44.65" y2="44.65" xlink:href="#h"/><linearGradient id="bC" x1="70.45" x2="95.96" y1="37.41" y2="37.41" xlink:href="#h"/><radialGradient id="bD" cx="83.28" cy="35.54" r=".52" gradientTransform="translate(39.31 -5.43)" gradientUnits="userSpaceOnUse"><stop offset="0" stop-color="#cbcbcb"/><stop offset="0" stop-color="#d7d7d7"/><stop offset="0" stop-color="#eee"/><stop offset=".51" stop-color="#cbcbcb"/><stop offset=".67" stop-color="#c8c8c8"/><stop offset=".78" stop-color="silver"/><stop offset=".86" stop-color="#b1b1b1"/><stop offset=".94" stop-color="#9d9d9d"/><stop offset="1" stop-color="#858585"/></radialGradient><linearGradient id="bE" x1="93.98" x2="95.36" y1="38.45" y2="38.45" gradientTransform="translate(39.29 -6.49)" gradientUnits="userSpaceOnUse"><stop offset="0" stop-color="#cbcbcb"/><stop offset=".12" stop-color="#d7d7d7"/><stop offset=".29" stop-color="#eee"/><stop offset=".67" stop-color="#cbcbcb"/><stop offset=".77" stop-color="#c8c8c8"/><stop offset=".83" stop-color="silver"/><stop offset=".88" stop-color="#b1b1b1"/><stop offset=".93" stop-color="#9d9d9d"/><stop offset=".97" stop-color="#828282"/><stop offset="1" stop-color="#6b6b6b"/></linearGradient><linearGradient id="i" x1="92.27" x2="93.58" y1="42.94" y2="42.94" gradientTransform="translate(39.29 -6.49)" gradientUnits="userSpaceOnUse"><stop offset="0" stop-color="#cbcbcb"/><stop offset=".23" stop-color="#d7d7d7"/><stop offset=".29" stop-color="#dbdbdb"/><stop offset=".65" stop-color="#cbcbcb"/><stop offset=".76" stop-color="#b9b9b9"/><stop offset=".98" stop-color="#898989"/><stop offset="1" stop-color="#858585"/></linearGradient><linearGradient id="bF" x1="72.77" x2="74.07" y1="42.93" y2="42.93" xlink:href="#i"/><linearGradient id="bG" x1="70.88" x2="72.26" y1="38.56" y2="38.56" gradientTransform="translate(39.29 -6.49)" gradientUnits="userSpaceOnUse"><stop offset="0" stop-color="#cbcbcb"/><stop offset=".12" stop-color="#d7d7d7"/><stop offset=".29" stop-color="#eee"/><stop offset=".67" stop-color="#cbcbcb"/><stop offset=".77" stop-color="#c8c8c8"/><stop offset=".83" stop-color="silver"/><stop offset=".88" stop-color="#b1b1b1"/><stop offset=".93" stop-color="#9d9d9d"/><stop offset=".97" stop-color="#828282"/><stop offset="1" stop-color="#6c6c6c"/></linearGradient><radialGradient id="bH" cx="79.65" cy="176.3" r="13.25" gradientTransform="translate(39.31 -5.43)" gradientUnits="userSpaceOnUse"><stop offset="0" stop-color="#cbcbcb"/><stop offset="0" stop-color="#d7d7d7"/><stop offset="0" stop-color="#eee"/><stop offset=".4" stop-color="#cbcbcb"/><stop offset=".48" stop-color="#bfbfbf"/><stop offset=".64" stop-color="#9f9f9f"/><stop offset=".76" stop-color="#858585"/></radialGradient><linearGradient id="bI" x1="82.4" x2="84.07" y1="188.25" y2="188.3" xlink:href="#f"/><radialGradient id="bJ" cx="80.06" cy="171.77" r="14.97" gradientTransform="translate(39.31 -5.43)" gradientUnits="userSpaceOnUse"><stop offset="0" stop-color="#cbcbcb"/><stop offset="0" stop-color="#d7d7d7"/><stop offset="0" stop-color="#eee"/><stop offset=".51" stop-color="#cbcbcb"/><stop offset=".6" stop-color="#c5c5c5"/><stop offset=".73" stop-color="#b3b3b3"/><stop offset=".88" stop-color="#979797"/><stop offset=".95" stop-color="#858585"/></radialGradient><linearGradient id="bK" x1="78.52" x2="87.43" y1="155.67" y2="155.67" gradientTransform="translate(39.29 -6.49)" gradientUnits="userSpaceOnUse"><stop offset="0" stop-color="#cbcbcb"/><stop offset=".12" stop-color="#d7d7d7"/><stop offset=".29" stop-color="#eee"/><stop offset=".67" stop-color="#cbcbcb"/><stop offset=".76" stop-color="#adadad"/><stop offset=".85" stop-color="#909090"/><stop offset=".91" stop-color="#858585"/></linearGradient><linearGradient id="j" x1="92.83" x2="86.36" y1="53.99" y2="53.99" gradientTransform="translate(39.29 -6.49)" gradientUnits="userSpaceOnUse"><stop offset=".07" stop-color="#b5b5b5"/><stop offset=".37" stop-color="#eaeaea"/><stop offset=".5" stop-color="#d3d3d3"/><stop offset=".66" stop-color="#bdbdbd"/><stop offset=".76" stop-color="#b5b5b5"/></linearGradient><linearGradient id="bL" x1="73.7" x2="80.17" y1="54" y2="54" xlink:href="#j"/><linearGradient id="k" x1="149.39" x2="145.64" y1="61.68" y2="70.09" gradientTransform="matrix(-1 0 0 1 273.47 -5.51)" gradientUnits="userSpaceOnUse"><stop offset=".09" stop-color="#b5b5b5"/><stop offset=".11" stop-color="#bfbfbf"/><stop offset=".14" stop-color="#d0d0d0"/><stop offset=".18" stop-color="#dbdbdb"/><stop offset=".23" stop-color="#e2e2e2"/><stop offset=".38" stop-color="#e4e4e4"/><stop offset=".5" stop-color="#d6d6d6"/><stop offset=".63" stop-color="#cbcbcb"/><stop offset=".7" stop-color="#c2c2c2"/><stop offset=".8" stop-color="#aaa"/><stop offset=".92" stop-color="#858585"/></linearGradient><linearGradient id="bM" x1="81.42" x2="77.92" y1="62.65" y2="71.32" gradientTransform="translate(39.29 -6.49)" xlink:href="#k"/></defs><path fill="none" stroke="#000" stroke-width=".31" d="M120.7 55.4h3.7v92.83h-3.7z"/><path fill="#cbcbcb" stroke="#000" stroke-width=".31" d="M120.9 17.8h2.8"/><path fill="url(#a)" d="M135.1 15.9a3.7 3.7 0 0 1 1.7 1.8c.7 1.5-.5 5-1.5 5.9s-2.7 3.6-2.7 3.6l-1.2 3.9v1l-.2.8-.2 1.5.5.7h1.2l.5-.8.2-.5.2-.5v-4.1l1.1.5c.5-2.3 2.7-4.5 3.7-5.6a8.5 8.5 0 0 0 1.6-5.2 4.6 4.6 0 0 0-2.4-3.6c-1.1-.6-4-.5-6 .3h1.7l.9.2z"/><path fill="url(#l)" d="M111.5 15.1l-2.3-.2c-4.7.2-4.6 4.2-4.6 5.4a14.5 14.5 0 0 0 1.7 3.7l2.6 3.2 1.1 2.4.9-.3.2 1.6h.5l-.7 2.1.9.5v.5l1.1.6h1.3l-.3-1.8-.5-.6a1.7 1.7 0 0 0 .2-1.2c-.1-.8-1.3-4.8-2.7-6a9.4 9.4 0 0 1-2.8-6.1 2.9 2.9 0 0 1 1.7-2.9l.7-.3.7-.2h1.7z"/><path fill="none" stroke="#000" stroke-width=".39" d="M135.1 29.8a9.3 9.3 0 0 1 2.6-4.7c3.5-3.5 3-7.3 1.3-9s-5.6-1.7-8.8.5a10.8 10.8 0 0 1-4.6 1.8h1.5c1.5.1 4.8.2 6.4-1.3a7.4 7.4 0 0 1 1.7-1.2"/><path stroke="#000" stroke-width=".39" d="M131.5 31.1c-.1.8-.5 3.1-.6 3.4"/><path fill="none" stroke="#000" stroke-width=".39" d="M131.9 15.6a4.5 4.5 0 0 1 4.2 1c1.5 1.7 1.3 5.3-2 8.5-1.5 1.5-2.2 4.1-2.7 6.2m-21.3-1.5a9.3 9.3 0 0 0-2.8-4.7c-3.5-3.5-3.1-7.2-1.4-9s5.6-1.7 8.9.5a10.1 10.1 0 0 0 4.5 1.8h-1.5c-1.4.1-4.7.2-6.4-1.3a5.7 5.7 0 0 0-1.7-1.2"/><path stroke="#000" stroke-width=".39" d="M113.5 31.2c.1.8.5 3 .6 3.3"/><path fill="none" stroke="#000" stroke-width=".39" d="M113 15.6a4.7 4.7 0 0 0-4.2 1c-1.5 1.7-1.2 5.3 2.1 8.5 1.5 1.4 2.2 4 2.6 6.1"/><path fill="url(#m)" stroke="#000" stroke-width=".39" d="M124.9 26.7l-.1-11.5h-4.5l-.1 11.5"/><path fill="url(#b)" stroke="#000" stroke-width=".12" d="M108.8 29.3a.5.5 0 0 0 1 0 .4.4 0 0 0-.4-.5.6.6 0 0 0-.6.5z"/><path fill="url(#n)" stroke="#000" stroke-width=".12" d="M108.2 28a.5.5 0 0 0 .5.5.5.5 0 0 0 .5-.5.5.5 0 0 0-.5-.5.5.5 0 0 0-.5.5z"/><path fill="url(#o)" stroke="#000" stroke-width=".12" d="M107.4 26.8a.5.5 0 0 0 .4.5.6.6 0 0 0 .6-.5.5.5 0 0 0-1 0z"/><path fill="url(#p)" stroke="#000" stroke-width=".12" d="M106.4 25.6a.6.6 0 0 0 .5.6.6.6 0 0 0 .5-.6.5.5 0 1 0-1 0z"/><path fill="url(#q)" stroke="#000" stroke-width=".12" d="M105.4 24.4a.5.5 0 1 0 1 0 .5.5 0 0 0-.5-.5.6.6 0 0 0-.5.5z"/><path fill="url(#r)" stroke="#000" stroke-width=".12" d="M104.5 23.1a.5.5 0 0 0 1 0 .4.4 0 0 0-.4-.5.6.6 0 0 0-.6.5z"/><path fill="url(#s)" stroke="#000" stroke-width=".12" d="M103.9 21.8a.5.5 0 0 0 1 0c0-.2-.2-.5-.4-.5s-.5.3-.6.5z"/><path fill="url(#t)" stroke="#000" stroke-width=".12" d="M103.6 20.3a.5.5 0 0 0 1 0 .5.5 0 0 0-.4-.5.6.6 0 0 0-.6.5z"/><path fill="url(#u)" stroke="#000" stroke-width=".12" d="M103.7 18.8c-.1.3.1.5.4.5a.5.5 0 0 0 .5-.5c.1-.3-.1-.5-.4-.5a.5.5 0 0 0-.5.5z"/><path fill="url(#v)" stroke="#000" stroke-width=".12" d="M104 17.4a.5.5 0 1 0 1 0 .5.5 0 0 0-.4-.5.6.6 0 0 0-.6.5z"/><path fill="url(#w)" stroke="#000" stroke-width=".12" d="M104.8 16.1a.5.5 0 0 0 .5.5.6.6 0 0 0 .5-.5.6.6 0 0 0-.5-.6.6.6 0 0 0-.5.6z"/><path fill="url(#x)" stroke="#000" stroke-width=".12" d="M105.9 15.1a.5.5 0 0 0 .5.5.6.6 0 0 0 .5-.6.5.5 0 0 0-.5-.5.6.6 0 0 0-.5.6z"/><path fill="url(#y)" stroke="#000" stroke-width=".12" d="M107.3 14.5a.5.5 0 0 0 .5.5.5.5 0 0 0 .5-.5.5.5 0 0 0-1 0z"/><path fill="url(#z)" stroke="#000" stroke-width=".12" d="M108.7 14.4a.5.5 0 1 0 .5-.5c-.2 0-.4.2-.5.5z"/><path fill="url(#A)" stroke="#000" stroke-width=".12" d="M110 14.4a.5.5 0 1 0 .5-.5.5.5 0 0 0-.5.5z"/><path fill="url(#B)" stroke="#000" stroke-width=".12" d="M111.4 14.7c0 .2.2.5.4.5a.5.5 0 0 0 .5-.5.5.5 0 0 0-.4-.6.6.6 0 0 0-.5.6z"/><path fill="url(#C)" stroke="#000" stroke-width=".12" d="M112.6 15.1a.5.5 0 0 0 .5.5.5.5 0 0 0 .5-.5.5.5 0 1 0-1 0z"/><path fill="url(#D)" stroke="#000" stroke-width=".12" d="M111.3 15a.5.5 0 0 0 .5.5.5.5 0 0 0 .5-.5.5.5 0 0 0-1 0z"/><path fill="url(#E)" stroke="#000" stroke-width=".12" d="M110.1 15.1a.5.5 0 0 0 .4.5.5.5 0 0 0 .5-.5.5.5 0 0 0-.4-.5.5.5 0 0 0-.5.5z"/><path fill="url(#F)" stroke="#000" stroke-width=".12" d="M108.9 15.6c-.1.3.1.5.4.5a.5.5 0 0 0 .5-.5.5.5 0 0 0-.4-.5.5.5 0 0 0-.5.5z"/><path fill="url(#G)" stroke="#000" stroke-width=".12" d="M107.8 16.5a.5.5 0 0 0 1 0c0-.3-.2-.6-.4-.5a.6.6 0 0 0-.6.5z"/><path fill="url(#H)" stroke="#000" stroke-width=".12" d="M107.2 17.6a.5.5 0 0 0 .5.5.5.5 0 0 0 .5-.5.5.5 0 0 0-.5-.5.6.6 0 0 0-.5.5z"/><path fill="url(#I)" stroke="#000" stroke-width=".12" d="M107 19a.5.5 0 0 0 .5.5.5.5 0 0 0 .5-.5.5.5 0 0 0-.5-.5.5.5 0 0 0-.5.5z"/><path fill="url(#J)" stroke="#000" stroke-width=".12" d="M107.1 20.3a.5.5 0 0 0 1 0 .5.5 0 0 0-.4-.5.6.6 0 0 0-.6.5z"/><path fill="url(#K)" stroke="#000" stroke-width=".12" d="M107.4 21.6a.5.5 0 1 0 .5-.5.5.5 0 0 0-.5.5z"/><path fill="url(#L)" stroke="#000" stroke-width=".12" d="M108 22.8a.5.5 0 0 0 .5.5.5.5 0 0 0 .5-.5.5.5 0 0 0-1 0z"/><path fill="url(#M)" stroke="#000" stroke-width=".12" d="M108.7 23.9a.5.5 0 0 0 1 0 .4.4 0 0 0-.4-.5.6.6 0 0 0-.6.5z"/><path fill="url(#N)" stroke="#000" stroke-width=".12" d="M109.6 25.1a.5.5 0 0 0 .5.5.5.5 0 0 0 .5-.5.4.4 0 0 0-.4-.5.6.6 0 0 0-.6.5z"/><path fill="url(#O)" stroke="#000" stroke-width=".12" d="M110.6 26.2a.4.4 0 0 0 .4.5.6.6 0 0 0 .6-.5.5.5 0 1 0-1 0z"/><path fill="url(#P)" stroke="#000" stroke-width=".12" d="M111.3 27.5a.5.5 0 0 0 .5.5.5.5 0 0 0 .5-.5.5.5 0 0 0-1 0z"/><path fill="url(#Q)" stroke="#000" stroke-width=".12" d="M111.8 28.8a.5.5 0 0 0 .5.5.5.5 0 0 0 .5-.5.5.5 0 1 0-1 0z"/><path fill="url(#R)" stroke="#000" stroke-width=".12" d="M113.8 15.6a.5.5 0 0 0 .5.5.5.5 0 0 0 .5-.5.5.5 0 0 0-1 0z"/><path fill="url(#S)" stroke="#000" stroke-width=".12" d="M114.9 16.2a.5.5 0 0 0 .5.5.5.5 0 0 0 .5-.5.5.5 0 1 0-1 0z"/><path fill="url(#T)" stroke="#000" stroke-width=".12" d="M116 16.9a.5.5 0 1 0 .5-.5.5.5 0 0 0-.5.5z"/><path fill="url(#U)" stroke="#000" stroke-width=".12" d="M117.3 17.4a.5.5 0 0 0 .4.5.5.5 0 0 0 .5-.5.5.5 0 0 0-.4-.5.5.5 0 0 0-.5.5z"/><path fill="url(#V)" stroke="#000" stroke-width=".12" d="M118.6 17.7a.6.6 0 0 0 .5.6.6.6 0 0 0 .5-.6.5.5 0 1 0-1 0z"/><path fill="url(#c)" stroke="#000" stroke-width=".12" d="M120.1 14.7a.5.5 0 1 0 .5-.5.5.5 0 0 0-.5.5z"/><path fill="url(#W)" stroke="#000" stroke-width=".12" d="M120.6 16.7a.6.6 0 0 0 .5-.6.5.5 0 1 0-1 0 .6.6 0 0 0 .5.6z"/><path fill="url(#X)" stroke="#000" stroke-width=".12" d="M120.6 18.1a.5.5 0 1 0-.5-.5.5.5 0 0 0 .5.5z"/><path fill="url(#Y)" stroke="#000" stroke-width=".12" d="M120.6 19.6a.6.6 0 0 0 .5-.6.5.5 0 0 0-1 0 .6.6 0 0 0 .5.6z"/><path fill="url(#Z)" stroke="#000" stroke-width=".12" d="M120.6 21a.5.5 0 1 0-.5-.5.5.5 0 0 0 .5.5z"/><path fill="url(#aa)" stroke="#000" stroke-width=".12" d="M120.6 22.4a.5.5 0 1 0-.5-.5.5.5 0 0 0 .5.5z"/><path fill="url(#ab)" stroke="#000" stroke-width=".12" d="M120.6 23.9a.5.5 0 0 0 0-1 .5.5 0 0 0 0 1z"/><path fill="url(#ac)" stroke="#000" stroke-width=".12" d="M120.6 25.3a.5.5 0 0 0 0-1 .5.5 0 0 0-.5.5c-.1.3.2.5.5.5z"/><path fill="url(#ad)" stroke="#000" stroke-width=".12" d="M120 26.3a.5.5 0 0 0 .5.5.6.6 0 0 0 .6-.5.6.6 0 0 0-.6-.5.5.5 0 0 0-.5.5z"/><path fill="url(#ae)" stroke="#000" stroke-width=".12" d="M123.9 14.7a.5.5 0 0 0 .5.5.5.5 0 0 0 0-1 .5.5 0 0 0-.5.5z"/><path fill="url(#af)" stroke="#000" stroke-width=".12" d="M124.4 16.7a.6.6 0 0 0 .5-.6.5.5 0 0 0-.5-.5c-.2 0-.4.3-.4.5s.2.6.4.6z"/><path fill="url(#ag)" stroke="#000" stroke-width=".12" d="M124.5 18.1a.5.5 0 0 0 .4-.5.5.5 0 0 0-.5-.5.5.5 0 0 0-.4.5.5.5 0 0 0 .5.5z"/><path fill="url(#ah)" stroke="#000" stroke-width=".12" d="M124.5 19.6a.6.6 0 0 0 0-1.1.5.5 0 0 0-.5.5.6.6 0 0 0 .5.6z"/><path fill="url(#ai)" stroke="#000" stroke-width=".12" d="M124.5 21a.5.5 0 0 0 .5-.5.5.5 0 0 0-.5-.5.5.5 0 0 0 0 1z"/><path fill="url(#aj)" stroke="#000" stroke-width=".12" d="M124.5 22.4a.5.5 0 0 0 0-1 .5.5 0 0 0-.5.5.5.5 0 0 0 .5.5z"/><path fill="url(#ak)" stroke="#000" stroke-width=".12" d="M124.5 23.9a.5.5 0 1 0-.5-.5.5.5 0 0 0 .5.5z"/><path fill="url(#al)" stroke="#000" stroke-width=".12" d="M124.5 25.3a.5.5 0 1 0-.5-.5.5.5 0 0 0 .5.5z"/><path fill="url(#am)" stroke="#000" stroke-width=".12" d="M124 26.3a.5.5 0 1 0 .5-.5.5.5 0 0 0-.5.5z"/><path fill="url(#an)" stroke="#000" stroke-width=".12" d="M125.1 17.7a1 1 0 0 0 .5.6.6.6 0 0 0 .5-.6.5.5 0 0 0-.5-.5.6.6 0 0 0-.5.5z"/><path fill="url(#ao)" stroke="#000" stroke-width=".12" d="M126.4 17.5a.6.6 0 0 0 .5.5.5.5 0 0 0 .5-.5.5.5 0 1 0-1 0z"/><path fill="url(#ap)" stroke="#000" stroke-width=".12" d="M127.7 17a.6.6 0 0 0 .5.6c.2 0 .4-.3.4-.6a.5.5 0 0 0-.5-.5c-.2 0-.4.3-.4.5z"/><path fill="url(#aq)" stroke="#000" stroke-width=".12" d="M128.8 16.5a.6.6 0 0 0 .6.5.5.5 0 0 0 .4-.5.5.5 0 0 0-.5-.5.5.5 0 0 0-.5.5z"/><path fill="url(#ar)" stroke="#000" stroke-width=".12" d="M129.9 15.8a.6.6 0 0 0 .6.5.5.5 0 0 0 .4-.5.5.5 0 0 0-.5-.5.5.5 0 0 0-.5.5z"/><path fill="url(#as)" stroke="#000" stroke-width=".12" d="M131.1 15.2a.5.5 0 0 0 1 0c-.1-.3-.3-.5-.5-.5a.5.5 0 0 0-.5.5z"/><path fill="url(#at)" stroke="#000" stroke-width=".12" d="M132.5 14.9a.5.5 0 0 0 .5.5.5.5 0 0 0 .4-.5.5.5 0 0 0-.5-.5c-.3 0-.5.2-.4.5z"/><path fill="url(#au)" stroke="#000" stroke-width=".12" d="M135.8 16.1a.5.5 0 0 0 .5.5.5.5 0 1 0-.5-.5z"/><path fill="url(#av)" stroke="#000" stroke-width=".12" d="M136.6 17.1a.6.6 0 0 0 .5.6.7.7 0 0 0 .4-.6.5.5 0 0 0-.5-.5c-.3 0-.5.3-.4.5z"/><path fill="url(#aw)" stroke="#000" stroke-width=".12" d="M137 18.4a.6.6 0 0 0 .5.6.5.5 0 0 0 .4-.6.5.5 0 0 0-.5-.5c-.2 0-.5.3-.4.5z"/><path fill="url(#ax)" stroke="#000" stroke-width=".12" d="M137 19.8a.5.5 0 1 0 1 0 .6.6 0 0 0-.5-.6.6.6 0 0 0-.5.6z"/><path fill="url(#ay)" stroke="#000" stroke-width=".12" d="M136.7 21a.6.6 0 0 0 .6.5.5.5 0 0 0 .4-.5.5.5 0 0 0-1 0z"/><path fill="url(#az)" stroke="#000" stroke-width=".12" d="M136.3 22.2a.6.6 0 0 0 .6.5.5.5 0 0 0 .4-.5.5.5 0 1 0-1 0z"/><path fill="url(#aA)" stroke="#000" stroke-width=".12" d="M135.7 23.3a.5.5 0 1 0 1 0 .5.5 0 0 0-.5-.5.5.5 0 0 0-.5.5z"/><path fill="url(#aB)" stroke="#000" stroke-width=".12" d="M134.9 24.4a.5.5 0 0 0 .5.5.5.5 0 1 0-.5-.5z"/><path fill="url(#aC)" stroke="#000" stroke-width=".12" d="M134.1 25.4a.5.5 0 0 0 .5.5.6.6 0 0 0 .5-.6.6.6 0 0 0-.6-.5.5.5 0 0 0-.4.6z"/><path fill="url(#aD)" stroke="#000" stroke-width=".12" d="M133.2 26.4a.6.6 0 0 0 .6.5.4.4 0 0 0 .4-.5.5.5 0 0 0-1 0z"/><path fill="url(#aE)" stroke="#000" stroke-width=".12" d="M132.6 27.6a.5.5 0 1 0 1 0 .6.6 0 0 0-.5-.5.5.5 0 0 0-.5.5z"/><path fill="url(#aF)" stroke="#000" stroke-width=".12" d="M132.1 28.9a.5.5 0 1 0 .5-.5.5.5 0 0 0-.5.5z"/><path fill="url(#aG)" stroke="#000" stroke-width=".12" d="M132.4 14.7a.5.5 0 0 0 1 0c-.1-.3-.3-.5-.5-.5a.5.5 0 0 0-.5.5z"/><path fill="url(#aH)" stroke="#000" stroke-width=".12" d="M133.7 14.5a.5.5 0 0 0 1 0 .5.5 0 0 0-.5-.5.5.5 0 0 0-.5.5z"/><path fill="url(#aI)" stroke="#000" stroke-width=".12" d="M135 14.4a.6.6 0 0 0 .6.5.5.5 0 0 0 .4-.5.5.5 0 0 0-1 0z"/><path fill="url(#aJ)" stroke="#000" stroke-width=".12" d="M136.4 14.5a.5.5 0 0 0 .5.5.5.5 0 0 0 .4-.5.5.5 0 0 0-.5-.5.4.4 0 0 0-.4.5z"/><path fill="url(#aK)" stroke="#000" stroke-width=".12" d="M137.6 14.9a.5.5 0 0 0 .5.5.5.5 0 0 0 .5-.5.5.5 0 0 0-.5-.5.5.5 0 0 0-.5.5z"/><path fill="url(#aL)" stroke="#000" stroke-width=".12" d="M138.8 15.6a.5.5 0 0 0 1 0 .6.6 0 0 0-.6-.5.5.5 0 0 0-.4.5z"/><path fill="url(#aM)" stroke="#000" stroke-width=".12" d="M139.6 16.6a.5.5 0 0 0 .5.5.5.5 0 0 0 .4-.5.5.5 0 0 0-.5-.5c-.3 0-.5.2-.4.5z"/><path fill="url(#aN)" stroke="#000" stroke-width=".12" d="M140.1 17.9a.6.6 0 0 0 .6.5.5.5 0 0 0 .4-.5.5.5 0 0 0-1 0z"/><path fill="url(#aO)" stroke="#000" stroke-width=".12" d="M140.4 19.2a.5.5 0 0 0 1 0 .6.6 0 0 0-.6-.5.4.4 0 0 0-.4.5z"/><path fill="url(#aP)" stroke="#000" stroke-width=".12" d="M140.3 20.5a.5.5 0 0 0 1 0 .6.6 0 0 0-.6-.5.5.5 0 0 0-.4.5z"/><path fill="url(#aQ)" stroke="#000" stroke-width=".12" d="M140 21.8a.5.5 0 1 0 1 0 .6.6 0 0 0-.6-.6c-.2 0-.4.3-.4.6z"/><path fill="url(#aR)" stroke="#000" stroke-width=".12" d="M139.5 23a.5.5 0 0 0 1 0 .5.5 0 0 0-.5-.5.5.5 0 0 0-.5.5z"/><path fill="url(#aS)" stroke="#000" stroke-width=".12" d="M138.7 24.2a.6.6 0 0 0 .6.5.5.5 0 0 0 .5-.5.6.6 0 0 0-.6-.5.5.5 0 0 0-.5.5z"/><path fill="url(#aT)" stroke="#000" stroke-width=".12" d="M138 25.1a.5.5 0 0 0 1 0c-.1-.2-.3-.5-.6-.5s-.5.3-.4.5z"/><path fill="url(#aU)" stroke="#000" stroke-width=".12" d="M137.1 26.1a.5.5 0 0 0 .5.5.5.5 0 1 0-.5-.5z"/><path fill="url(#aV)" stroke="#000" stroke-width=".12" d="M136.3 27.2a.5.5 0 0 0 1 0 .5.5 0 0 0-.5-.5.5.5 0 0 0-.5.5z"/><path fill="url(#aW)" stroke="#000" stroke-width=".12" d="M135.6 28.4a.6.6 0 0 0 .6.5c.2 0 .5-.3.4-.5s-.2-.6-.5-.5a.5.5 0 0 0-.5.5z"/><path fill="url(#aX)" stroke="#000" stroke-width=".12" d="M135.1 29.5c0 .3.3.5.6.6s.5-.3.4-.6a.5.5 0 0 0-1 0z"/><path fill="url(#aY)" stroke="#000" stroke-width=".12" d="M133.5 15.1a.5.5 0 0 0 .5.5.5.5 0 0 0 .5-.5.5.5 0 0 0-.5-.5.5.5 0 0 0-.5.5z"/><path fill="url(#aZ)" stroke="#000" stroke-width=".12" d="M134.8 15.4a.5.5 0 0 0 .5.5c.3 0 .5-.2.4-.5a.5.5 0 0 0-.5-.5c-.2 0-.4.3-.4.5z"/><path fill="url(#d)" stroke="#000" stroke-width=".16" d="M122.1 24.8h1.1v1.1h-1.1z" transform="rotate(-.1 114.592 .1)"/><path fill="url(#ba)" stroke="#000" stroke-width=".16" d="M123.4 22.6l-.8.8-.8-.8.8-.7.8.7z"/><path fill="url(#bb)" stroke="#000" stroke-width=".16" d="M122.1 19.6h1.1v1.1h-1.1z"/><path fill="url(#bc)" stroke="#000" stroke-width=".16" d="M123.3 17.4l-.7.8-.7-.8.7-.8.7.8z"/><path fill="url(#bd)" stroke="#000" stroke-width=".16" d="M111 28.2l-.6.3-.4-.9.7-.3.3.9z"/><path fill="url(#be)" stroke="#000" stroke-width=".16" d="M107.5 22.8h-.7l-.5-.8h.7l.5.8z"/><path fill="url(#bf)" stroke="#000" stroke-width=".16" d="M107.1 17l-.7-.1.6-.8.7.1-.6.8z"/><path fill="url(#bg)" stroke="#000" stroke-width=".16" d="M109.3 25.1v.8l-.7-.3v-.8l.7.3z"/><path fill="url(#bh)" stroke="#000" stroke-width=".16" d="M106.4 19.3l-.4.6-.4-.7.4-.6.4.7z"/><path fill="url(#bi)" stroke="#000" stroke-width=".16" d="M133.9 28.2l.7.3.4-.9-.7-.3-.4.9z"/><path fill="url(#bj)" stroke="#000" stroke-width=".16" d="M137.4 22.8h.8l.5-.8h-.8l-.5.8z"/><path fill="url(#bk)" stroke="#000" stroke-width=".16" d="M137.9 17h.7l-.6-.9h-.7l.6.9z"/><path fill="url(#bl)" stroke="#000" stroke-width=".16" d="M135.6 25.1v.8l.7-.3.1-.8-.8.3z"/><path fill="url(#bm)" stroke="#000" stroke-width=".16" d="M138.6 19.3l.4.6.3-.7-.4-.6-.3.7z"/><path fill="url(#bn)" stroke="#000" stroke-width=".31" d="M122.4 26.7h2.5l-1.5 2 1.7-.5v2.7s-1-.8-1.3-.6-.5.2-.2 1a3.9 3.9 0 0 0 2.2 1.5s2.6.7 1.8-1.6c-1.4-.7-1.3.6-1.3.6s-.5-1.2-.3-1.6 1.8-.2 1.8-.2a3.2 3.2 0 0 1 1.6-2.9c1.2 1.3.2 3.6.2 3.6s1.3-.8 1.6.4a1.5 1.5 0 0 1-1 1.6c.4-1.5-1.1-1-1.1-1l-.4.7s-.2 1.2 2 1.8 1.8-.9 1.8-.9a.7.7 0 0 0-.7-.7 16 16 0 0 0 .4-2.7s1.3.8 1.4.4a16.2 16.2 0 0 0 .2-1.8l1.7.8-2.9 8c.6 0 .7.7.7.7a1.2 1.2 0 0 1 0 .7.7.7 0 0 1-.3.5c-.2.1-.2 1.3-.2 1.3l-.3.3c.2 1 1.1 1.3 1 2.1a7.1 7.1 0 0 1-1 2 5.8 5.8 0 0 0-.1 1.6c.2.5.8.9.5 1.5s-1 .7-1.1 1.7a4.8 4.8 0 0 0-.4 1.3c-.1.6.3 2.1-.5 2.7s-2.3.3-2.9.7l-2.3 1.4h-6.1l-2.4-1.4c-.6-.4-2-.1-2.9-.7s-.4-2.1-.5-2.7a2.6 2.6 0 0 0-.4-1.3c-.1-1-.8-1-1.1-1.6s.3-1.1.5-1.6a5.8 5.8 0 0 0-.1-1.6 7.1 7.1 0 0 1-1-2c0-.8.8-1.1 1-2.1l-.3-.3s0-1.2-.2-1.3a.7.7 0 0 1-.3-.5 1.2 1.2 0 0 1 0-.7s.2-.7.7-.7l-2.9-7.8 1.7-1.1a18.6 18.6 0 0 0 .1 2.2c.1.4 1.7-1 1.7-1a23.8 23.8 0 0 0 .7 2.9s-1.1.1-1.3.4a1 1 0 0 0-.2.6s0 1.4 2.1.7 2-1.8 2-1.8-.1-.6-.4-.7-1.5-.4-1.1 1.1a1.5 1.5 0 0 1-1-1.6c.4-1.2 1.6-.5 1.6-.5s-1.2-2.2 0-3.5a3.6 3.6 0 0 1 1.7 3s1.1-1.2 1.8.1-.2 1.6-.2 1.6 0-1.4-1.4-.7c-.7 2.3 1.9 1.6 1.9 1.6a3.9 3.9 0 0 0 2.2-1.5c.3-.8 0-.9-.1-1.1s-1.5.7-1.5.7v-2.7l1.8.5-1.5-2h2.5"/><path fill="url(#e)" stroke="#000" stroke-linecap="round" stroke-linejoin="round" stroke-width=".11" d="M121 34.4h3v1.22h-3z"/><path fill="url(#bo)" stroke="#000" stroke-linecap="round" stroke-linejoin="round" stroke-width=".11" d="M128.3 35.7c-.1.4.4.8 1 .9s1.3 0 1.3-.4-.4-.7-1-.9-1.3.1-1.3.4z"/><path fill="url(#bp)" stroke="#000" stroke-linecap="round" stroke-linejoin="round" stroke-width=".11" d="M116.7 35.7c.1.4-.4.8-1.1.9s-1.2 0-1.3-.4.4-.7 1.1-.9 1.2.1 1.3.4z"/><path fill="url(#f)" stroke="#000" stroke-linecap="round" stroke-linejoin="round" stroke-width=".11" d="M126.3 34.7a.3.3 0 0 0 .6 0c0-.2-.1-.4-.3-.4s-.3.2-.3.4z"/><path fill="url(#bq)" stroke="#000" stroke-linecap="round" stroke-linejoin="round" stroke-width=".11" d="M126.1 36.1a.3.3 0 0 0 .3.3.3.3 0 0 0 .3-.3c0-.2-.1-.4-.3-.4s-.3.2-.3.4z"/><path fill="url(#br)" stroke="#000" stroke-linecap="round" stroke-linejoin="round" stroke-width=".11" d="M125.5 35.3a.3.3 0 1 0 .6 0c0-.2-.1-.4-.3-.4s-.3.2-.3.4z"/><path fill="url(#bs)" stroke="#000" stroke-linecap="round" stroke-linejoin="round" stroke-width=".11" d="M126.8 35.5c0 .2.2.3.4.3a.3.3 0 0 0 .3-.3c0-.2-.1-.4-.3-.4a.4.4 0 0 0-.4.4z"/><path fill="url(#bt)" stroke="#000" stroke-linecap="round" stroke-linejoin="round" stroke-width=".11" d="M118.7 34.7a.3.3 0 0 1-.3.3c-.2 0-.4-.1-.4-.3s.2-.3.4-.3a.3.3 0 0 1 .3.3z"/><path fill="url(#bu)" stroke="#000" stroke-linecap="round" stroke-linejoin="round" stroke-width=".11" d="M118.9 36.1c0 .2-.2.3-.4.3a.4.4 0 0 1 0-.7.4.4 0 0 1 .4.4z"/><path fill="url(#bv)" stroke="#000" stroke-linecap="round" stroke-linejoin="round" stroke-width=".11" d="M119.5 35.3c0 .2-.2.3-.4.3a.3.3 0 0 1-.3-.3c0-.2.1-.4.3-.4a.4.4 0 0 1 .4.4z"/><path fill="url(#bw)" stroke="#000" stroke-linecap="round" stroke-linejoin="round" stroke-width=".11" d="M118.1 35.5a.3.3 0 0 1-.3.3c-.2 0-.4-.1-.4-.3a.4.4 0 0 1 .4-.4c.2 0 .3.2.3.4z"/><path fill="none" stroke="#000" stroke-width=".39" d="M112.4 41.2a9.8 9.8 0 0 0 2.7.6c2.9 0 6-1.9 14.9.2 2.2.1 2.7-.5 2.7-.5"/><path fill="none" stroke="#000" stroke-width=".08" d="M126.7 47.2a4.1 4.1 0 1 1-8.1 0 4.1 4.1 0 1 1 8.1 0z"/><path fill="none" stroke="#000" stroke-width=".11" d="M126.7 47.2a4.1 4.1 0 1 1-8.1 0 4.1 4.1 0 1 1 8.1 0z"/><path fill="none" stroke="#000" stroke-width=".08" d="M119.6 44.7v.3a1 1 0 0 0 .4-.8m.2-.1c0 .1-.1.2-.1.3h.2m-.2.2c-.1.3-.3.3-.4.5a.6.6 0 0 0 0 .6m.4-.1c-.1.2-.2.3-.2.5a1.3 1.3 0 0 0 .1.6"/><path fill="none" stroke="#000" stroke-width=".08" d="M119.6 46.7c0 .2.3.1.5 0s.3-.3.5-.6m-.8 1.1c.2-.2.6-.2.6-.5m4.5 3.2c.1.1 0 .1 0 .1h-.3a1.9 1.9 0 0 1-1-.5l-.8-.4c-.2-.1-.4.1-.6 0a.2.2 0 0 1-.2-.2l-.3-.4h-.5l-.4-.3c-.1-.1-.1-.1-.1-.2l-.5-.2m3.6.6h-.3c0-.2-.2-.5.1-.6h.5c.1 0 .2.3.2.4l-.2.3"/><path fill="none" stroke="#000" stroke-width=".08" d="M123.8 48.1a.6.6 0 0 0 .1.4.3.3 0 0 0-.1-.2m-.3-.2c.1-.1.5-.3.7-.1m0 .1h-.3m-.2 0l-.2.2m.4-.1c.1.1.2.1.2.2m.7 0h.2V48a.3.3 0 0 0-.1-.2h-.4v.2m0 .2l.4-.2m.8 0c-.1-.1-.3 0-.4.1s.1.3.2.2m.9-.4h-.4c0 .1-.1.6.1.5m-.5-.7h-.4c0 .1.1.2.1.3m.7.1h.2m-1-.6h.5m.2 0h.5m-1.9-.1h.4m-1.5.1h.6m-.1.2a1.7 1.7 0 0 1-.1-.7v-.4m.9 1.1v-1.2m.7 1.3v-1m.8 1.1a1.7 1.7 0 0 0-.1-.7v-.4m-5.4.3a1.9 1.9 0 0 0 .7-.6c.1-.1.1-.3.3-.4l.2-.2c.1-.2.3-.1.6-.1s0 .2.2.4m-.1-1.1a2.2 2.2 0 0 0 .1.8c0 .1 0 .4.1.4h.7c.1 0 .2-.3.2-.4a7464167972734.6 7464167972734.6 0 0 1 .2-.6 3.6 3.6 0 0 1 .2 1"/><path fill="none" stroke="#000" stroke-width=".08" d="M124 46.3c.2.1.7.1.8-.1s0-.7.2-.9.1.4.2.6c0 .2-.1.4 0 .6"/><path fill="none" stroke="#000" stroke-width=".08" d="M125 46.3h.5c0-.1.1-.1.2-.1h.3c0 .1.1.1.2 0s-.1-.1 0-.1m-4.5 1.6h.4c.1-.1 0-.3.1-.4a.8.8 0 0 1 .2-.4m-.5 1.1c.3-.1.5 0 .7-.3a.7.7 0 0 1 .1-.5m.1.8c0 .1.3 0 .4-.1v-.2m-2.3-.4h.9m-1.1-.7a.7.7 0 0 0 .6-.3c.1-.4-.1-.5-.2-.7h1.1v-.2c-.1-.1 0-.1.1-.2s.4-.3.2-.5-.2-.3-.1-.4.6 0 .7 0 .6.1.5 0h.2l.5-.2a.5.5 0 0 1-.5-.3c.1-.1.4-.1.5-.3m-1.4.2c.1.2.9.2.8 0m-.7-.1l.4-.2m-1.4.4c.1 0 .4-.1.4-.2m-.2-.2h.3m-1.1.5h.5m-.5.6h.5m-.6.5h.5m-1.2.1c.1 0 .4-.2.4-.3m-.1-.4l.4-.2m-.7 0q.3-.2.3-.3m0-.2a.9.9 0 0 0 .7-.3m-1.5 1.6l.6-.4m-.2 1.2l.4-.3m-.8 1.8a2.4 2.4 0 0 0 .3 1.2c.1.2.2.2.4.3m-.1.7c.1-.3.7-.2 1-.2h.8c.1 0 .3.1.2.2h-1c-.3 0-.5-.1-.7 0a.5.5 0 0 1-.4.2"/><path fill="none" stroke="#000" stroke-width=".11" d="M127.6 47.2a5 5 0 1 1-9.9 0 5 5 0 1 1 9.9 0z"/><path fill="none" stroke="#000" stroke-width=".08" d="M119.5 49.8a29.1 29.1 0 0 0 6.2.1"/><path d="M120.6 50.2h-.1l.2-.2v.3h-.2zm0 0zm.3.2v-.2h.1a.1.1 0 0 1 .1.1h-.2zm0 0zm0-.1zm.3-.1zm.2 0v.2-.3zm.1 0h.2a.1.1 0 0 1-.1.1v.2h-.1zm.4.1h-.1c0 .1.1 0 .1.1a.1.1 0 0 1-.1.1h-.1a.1.1 0 0 0 .1.1.1.1 0 0 1-.1-.1h.2z"/><path d="M122.1 50.3a.1.1 0 0 1 .1.1h-.3c0-.1.1-.1.2-.1zm-.1.1a.1.1 0 0 0 .1-.1c0-.1 0-.1-.1-.1zm.3-.1h.1a.1.1 0 0 1-.1.1zm.1.2h.1v-.3h.3a.2.2 0 0 1-.2.2zm.1 0h.1c.1 0 .1-.1.1-.2h-.2zm.6-.2c0 .1-.1.1-.2.1a.1.1 0 0 1-.1-.1h.1c.1 0 .1 0 .1-.1h.1zm.2 0h-.1a.1.1 0 0 0 .1.1.1.1 0 0 1 .1-.1h-.1c-.1 0-.2 0-.2-.1a.3.3 0 0 1 .1-.2zm.4.2v-.2h.1v.2h-.1zm.3-.3h.2a.1.1 0 0 1-.1.1c-.1 0-.2 0-.2-.1zm0 .1c0 .1 0 .1.1.1h-.1s-.1-.1 0-.1zm.2-.1h.1v.2-.2zm.2.2h.1v-.2h-.1zm.4-.3zm-3.8.6v-.3.3zm0 0zm.5-.1h-.2v-.2h.1zm0 .1zm.3 0zm.4 0h-.1a.1.1 0 0 1-.1-.1h.2zm.2 0v.2h-.1v-.2.2-.2h.1zm.3.2zm0 0zm.3-.2h-.1a.1.1 0 0 1-.1-.1.1.1 0 0 0 .1.1h.1zm.6 0h-.1v-.2h.2zm0 .1zm.2-.2h.1a.1.1 0 0 1 .1.1h-.1zm.1.1zm.1-.1h.2c0 .1 0 .1-.1.1zm.1.1zm.2-.1c.1 0 .1 0 .1.1h-.2a.1.1 0 0 1 .1-.1zm0 .1h.1c0-.1 0-.1-.1-.1s-.1 0 0 .1zm-6.1-2.2a.1.1 0 0 0-.1.1c.1.2.2.2.3.2s.2-.2.1-.3-.1-.1-.1-.2h.1c0 .1 0 .1.1.2s0 .3-.2.3-.2 0-.3-.2h.1zm.2-.4v.2h-.6l.4-.2h.1V48h-.2v.2h.1zm-.2.1zm-.3-1h.4l-.3.3h.3v.2h-.5v-.2l.3-.3h-.3V47zm.5-1.8h.2a.1.1 0 1 1-.2 0zm1.1-1.7h-.1l.2-.2.2.3zm.7-.6h-.1l.3.3h-.1l-.5-.2.2.3-.2-.3h.5l-.2-.3h.1zm.3.3v-.3h-.1l.3-.2h-.2v.2h.1a.1.1 0 0 0 .1.1h.1l-.3.2zm2.1-.8h-.1a.1.1 0 0 1 .1 0zm2.1.4h-.1c-.1.1.1.2.1.3h-.4a.1.1 0 0 0 .1-.1.3.3 0 0 0 .1.2h.1c0-.1-.2-.1-.1-.3a.1.1 0 0 1 .2 0h.1a.1.1 0 0 1-.1.1zm.3.1l-.2.4zm.6.5c0-.1 0-.2-.1-.2a.2.2 0 0 0-.3 0c-.1.1 0 .3.1.4h.1v.2h-.3c-.1-.1-.2-.3-.1-.4a.3.3 0 0 1 .4 0 .1.1 0 0 1 .1.1zm.2.1l.2.2h-.1l-.3.2zm.4.4h-.1l-.2.3h.1l-.3-.3h.1l.3-.2zm.4.4h-.1l-.3.3-.2-.4h.1l.3-.2zm.5 2c.1 0 0 .1 0 .1s-.1 0-.1-.1v-.1s.1 0 .1.1zm.1 1.9v.3h-.2c-.1-.1-.2-.1-.1-.3a.1.1 0 0 0 .2 0l-.3-.2h-.1V48h.4zm-.2.6v.2c0 .1-.1.2-.1.1s-.1 0-.1-.1h-.3c0-.1.1-.1.2-.2h-.1v-.3zm-.2 0h-.1c0 .1 0 .1.1.2a.1.1 0 0 0 .1-.1h-.1z"/><path d="M126.7 49.7h-.4a.6.6 0 0 1-.1-.4c.1-.1.3-.2.4-.1s.1.3.1.5zm-.1-.3q-.3-.1-.3 0a.2.2 0 0 0 0 .3c.2 0 .3 0 .3-.1s.1-.1 0-.2zm-.7.5h.1l.4.2h.1l-.2.2h-.3l.2.3zm-1.4 1.4h-.1c-.1-.1 0-.1 0-.1h.1zm-2.4.6v-.5l.3.4v-.3h.1v.4h-.1l-.3-.3v.3h-.1zm-.5-.1c-.1 0-.2-.1-.2-.3s.2-.2.3-.1.3.1.2.3-.1.2-.3.1zm.3-.2a.2.2 0 0 0-.2-.2c-.1 0-.2 0-.2.1s0 .3.2.3zm-.9-.1c0 .1 0 .1.1.1h.1s-.2-.2-.2-.3h.4a.1.1 0 0 0-.1.1.1.1 0 0 0-.1-.1h-.1c0 .1.2.1.1.3s-.1.1-.2.1zm-1.6-1.1c-.1 0-.1-.1 0-.1h.1s.1.1 0 .1z"/><path fill="none" stroke="#000" stroke-width=".31" d="M121.3 6.5c.6 1.2-1.9 4-1.9 4"/><path fill="url(#h)" d="M127.2 8.8V2.1s-2.2 3.2-3.6 2.4 2.2-3.1 2.2-3.1H119s2.9 2.5 2.2 3.1-3.6-2.4-3.6-2.4v6.7s2-3.1 3.7-2.3-1.9 4-1.9 4c-2.7 3.7-.1 6.9 3 7.2h.1c3-.3 5.7-3.5 3-7.2 0 0-2.5-2.8-1.9-4s3.6 2.3 3.6 2.3z"/><path fill="none" stroke="#000" stroke-width=".31" d="M127.2 8.8V2.1s-2.2 3.2-3.6 2.4 2.2-3.1 2.2-3.1H119s2.9 2.5 2.2 3.1-3.6-2.4-3.6-2.4v6.7s2-3.1 3.7-2.3-1.9 4-1.9 4c-2.7 3.7-.1 6.9 3 7.2h.1c3-.3 5.7-3.5 3-7.2 0 0-2.5-2.8-1.9-4s3.6 2.3 3.6 2.3z"/><path fill="none" stroke="#000" stroke-width=".31" d="M126.6 13.6a4.2 4.2 0 0 1-8.3 0 4.2 4.2 0 0 1 8.3 0z"/><path fill="#cbcbcb" stroke="#000" stroke-width=".08" d="M122.8 9.5c0 .2-.2.3-.4.3a.3.3 0 0 1-.3-.3.4.4 0 0 1 .3-.4.4.4 0 0 1 .4.4z"/><path fill="#cbcbcb" stroke="#000" stroke-width=".08" d="M122.8 10.1a.4.4 0 0 1-.4.4.4.4 0 0 1-.3-.4.3.3 0 0 1 .3-.3c.2 0 .4.1.4.3z"/><path fill="#cbcbcb" stroke="#000" stroke-width=".08" d="M122.8 10.8c0 .2-.2.3-.4.3a.3.3 0 0 1-.3-.3.4.4 0 0 1 .3-.4.4.4 0 0 1 .4.4zm0 .6a.4.4 0 0 1-.4.4.4.4 0 0 1-.3-.4.4.4 0 0 1 .7 0zm-4.8 1.9a.3.3 0 0 0 .3.3c.2 0 .4-.1.4-.3a.4.4 0 0 0-.4-.4c-.2 0-.3.2-.3.4z"/><path fill="#cbcbcb" stroke="#000" stroke-width=".08" d="M118.5 12.9a.4.4 0 0 0 .4.4.4.4 0 0 0 .3-.4l-.3-.3a.4.4 0 0 0-.4.3z"/><path fill="#cbcbcb" stroke="#000" stroke-width=".08" d="M119 12.7a.3.3 0 0 0 .3.3c.2 0 .4-.1.4-.3a.4.4 0 0 0-.4-.4c-.2 0-.3.2-.3.4z"/><path fill="#cbcbcb" stroke="#000" stroke-width=".08" d="M119.5 12.5c0 .2.2.3.4.3s.3-.1.4-.3-.2-.4-.4-.4a.4.4 0 0 0-.4.4z"/><path fill="#cbcbcb" stroke="#000" stroke-width=".08" d="M120.2 12.3c0 .2.1.4.3.4a.4.4 0 0 0 .4-.4c0-.2-.2-.3-.4-.3a.3.3 0 0 0-.3.3z"/><path fill="#cbcbcb" stroke="#000" stroke-width=".08" d="M120.8 12.2c0 .2.2.3.4.3a.3.3 0 0 0 .3-.3c0-.2-.1-.4-.3-.4a.4.4 0 0 0-.4.4zm.7-.1a.3.3 0 0 0 .3.3c.2 0 .4-.1.4-.3a.4.4 0 0 0-.4-.4c-.2 0-.3.2-.3.4zm5.4 1.2a.3.3 0 0 1-.3.3c-.2 0-.4-.1-.4-.3a.4.4 0 0 1 .4-.4c.2 0 .3.2.3.4z"/><path fill="#cbcbcb" stroke="#000" stroke-width=".08" d="M126.4 12.9c0 .2-.1.4-.3.4a.4.4 0 0 1-.4-.4.4.4 0 0 1 .4-.3.3.3 0 0 1 .3.3z"/><path fill="#cbcbcb" stroke="#000" stroke-width=".08" d="M125.9 12.7a.3.3 0 0 1-.3.3c-.2 0-.4-.1-.4-.3a.4.4 0 0 1 .4-.4c.2 0 .3.2.3.4z"/><path fill="#cbcbcb" stroke="#000" stroke-width=".08" d="M125.4 12.5c0 .2-.2.3-.4.3a.3.3 0 0 1-.3-.3c0-.2.1-.4.3-.4a.4.4 0 0 1 .4.4zm-.7-.2c0 .2-.1.4-.3.4a.4.4 0 0 1-.4-.4c0-.2.2-.3.4-.3a.3.3 0 0 1 .3.3z"/><path fill="#cbcbcb" stroke="#000" stroke-width=".08" d="M124.1 12.2c0 .2-.2.3-.4.3a.3.3 0 0 1-.3-.3c0-.2.1-.4.3-.4a.4.4 0 0 1 .4.4z"/><path fill="#cbcbcb" stroke="#000" stroke-width=".08" d="M123.4 12.1a.3.3 0 0 1-.3.3c-.2 0-.4-.1-.4-.3a.4.4 0 0 1 .4-.4c.2 0 .3.2.3.4z"/><path fill="#cbcbcb" stroke="#000" stroke-width=".08" d="M122.8 12.1c0 .2-.2.3-.4.3a.3.3 0 0 1-.3-.3.4.4 0 0 1 .3-.4.4.4 0 0 1 .4.4z"/><path fill="url(#g)" stroke="#000" stroke-width=".31" d="M123 .9a.7.7 0 0 1-1.4 0 .7.7 0 0 1 1.4 0z"/><path fill="url(#bx)" stroke="#000" stroke-width=".31" d="M128.5 5.7a.7.7 0 1 1-.7-.7.7.7 0 0 1 .7.7z"/><path fill="url(#by)" stroke="#000" stroke-width=".31" d="M117.8 5.7a.7.7 0 1 1-.7-.7.7.7 0 0 1 .7.7z"/><path fill="url(#bz)" stroke="#000" stroke-width=".31" d="M123.1 5.7c0 .4-.3.6-.7.6a.6.6 0 0 1-.6-.6.6.6 0 0 1 .6-.6.7.7 0 0 1 .7.6z"/><path fill="url(#bA)" d="M112.5 41c3.8-2.7 18.9-1.8 19.9-.2l.4-.4-.2-.4c-2.7-1.8-16.4-2.1-20.1.2z"/><path fill="url(#bB)" d="M133 39.4c-1.1-2-16.8-3.1-20.9.1l-.2-.9c3.9-2.5 17.8-2.3 21.3-.1z"/><path fill="none" stroke="#000" stroke-linecap="round" stroke-linejoin="round" stroke-width=".16" d="M112.2 39.5c4.1-3.2 19.5-2 20.7-.2m.3-.8c-2.7-2.2-17.4-2.4-21.3.1m.4 1.7c3.8-2.4 17.7-2 20.3-.2m-20.1.9c3.8-2.7 18.8-1.8 19.9-.2"/><path fill="url(#bC)" d="M111.4 34.2l-1.7-4.6 1.5-1 .2 1.3v.8l1.5-.9.8 2.5-1.3.6-.2.8.5.7h.8l1.3-.4.9-.7.5-.5v-1h-1.1l-.3.7v.4l-.7-.4-.3-.6v-.6l.5-.6h1l-.2-.7-.3-1.6.6-1.1.7.6.6.9.2.7.3.8.4-.4h.8l.5.6v.9l-.9-.2-.7.3v.5l.2.8 1.5.2 1.5-.6 1-1v-.7l-.2-.3h-.4l-1 .7v-2.8l1.7.5-1.3-2.1h4.7l-1.5 1.9 1.8-.5v2.7l-.7-.5h-1v.3l.3.9 1.3.9 1.1.3h1.3l.3-.4v-1l-.3-.2h-.7l-.6.5-.3-1 .5-.8h.5l.7.2.3-.5.5-1.1.9-1 .6.5.2 1.1-.4 1.8.8-.2.5.3.2.4v.7l-.8.7v-.6l-.5-.4h-.9l-.2.9.5.8.9.5 1.4.3.8-.4.3-.6V33l-.4-.4-.8-.3.7-2.6 1.6.7.2-.9v-1l1.5.7-.4 1.2-1.7 3.6-.5.5s-1.9 1.6-4.7-.7l-.4-.4s-2.2 1.6-5.4-1.9l-.2.2s-2.2 3.1-5.3 1.7l-.5.4s-2.9 2.5-5 .2c-.4-.3-.1.2-.1.2z"/><path d="M122.5 29.4l-.5.2a.8.8 0 0 0-.2.5.7.7 0 0 0 .7.6.6.6 0 0 0 .5-.2.8.8 0 0 0 .2-.5.8.8 0 0 0-.2-.4.6.6 0 0 0-.5-.2z"/><path fill="url(#bD)" d="M122 30.1c0-.2 0-.3.1-.4a.5.5 0 0 1 .4-.2l.4.2c.1.1.1.2.1.4a.4.4 0 0 1-.1.3l-.4.2a.5.5 0 0 1-.5-.5z"/><path fill="none" stroke="#000" stroke-linecap="round" stroke-linejoin="round" stroke-width=".16" d="M111.2 33.7s2 3.1 5.8-.4c3 1.4 5.5-1.8 5.5-1.8s2.4 3.3 5.4 1.9c3.8 3.5 5.9.3 5.9.3"/><path fill="none" stroke="#000" stroke-width=".31" d="M122.4 26.7h2.5l-1.5 2 1.7-.5v2.7s-1-.8-1.3-.6-.5.2-.2 1a3.9 3.9 0 0 0 2.2 1.5s2.6.7 1.8-1.6c-1.4-.7-1.3.6-1.3.6a5 5 0 0 1-.3-1.6c.5-1.3 1.8-.2 1.8-.2a3.2 3.2 0 0 1 1.6-2.9c1.2 1.3.2 3.6.2 3.6s1.3-.8 1.6.4a1.5 1.5 0 0 1-1 1.6c.4-1.5-1.1-1-1.1-1l-.4.7s-.2 1.2 2 1.8 1.8-.9 1.8-.9a.8.8 0 0 0-.2-.5 2.6 2.6 0 0 0-1-.3c0-.4.7-2.9.7-2.9s1.5 1.1 1.6.7a16.2 16.2 0 0 0 .2-1.8l1.7.8-2.9 8c.6 0 .7.7.7.7a1.2 1.2 0 0 1 0 .7.7.7 0 0 1-.3.5c-.2.1-.2 1.3-.2 1.3l-.3.3c.2 1 1.1 1.3 1 2.1a7.1 7.1 0 0 1-1 2 5.8 5.8 0 0 0-.1 1.6c.2.5.8.9.5 1.5s-1 .7-1.1 1.7a4.8 4.8 0 0 0-.4 1.3c-.1.6.3 2.1-.5 2.7s-2.3.3-2.9.7l-2.3 1.4h-6.1l-2.4-1.4c-.6-.4-2-.1-2.9-.7s-.4-2.1-.5-2.7a2.6 2.6 0 0 0-.4-1.3c-.1-1-.8-1-1.1-1.6s.3-1.1.5-1.6a5.8 5.8 0 0 0-.1-1.6 7.1 7.1 0 0 1-1-2c0-.8.8-1.1 1-2.1l-.3-.3s0-1.2-.2-1.3a.7.7 0 0 1-.3-.5 1.2 1.2 0 0 1 0-.7s.2-.7.7-.7l-2.9-7.8 1.7-1.1a18.6 18.6 0 0 0 .1 2.2c.1.4 1.8-1 1.8-1s.5 2.6.6 2.9-1.1.1-1.3.4a1 1 0 0 0-.2.6s0 1.4 2.1.7 2-1.8 2-1.8-.1-.6-.4-.7-1.5-.4-1.1 1.1a1.5 1.5 0 0 1-1-1.6c.4-1.2 1.6-.5 1.6-.5s-1.2-2.2 0-3.5a3.6 3.6 0 0 1 1.7 3s1.1-1.2 1.8.1-.2 1.6-.2 1.6 0-1.4-1.4-.7c-.7 2.3 1.9 1.6 1.9 1.6a3.9 3.9 0 0 0 2.2-1.5c.3-.8-.1-1-.3-1.1s-1.3.7-1.3.7v-2.7l1.8.5-1.5-2h2.5"/><path fill="url(#bE)" stroke="#000" stroke-width=".16" d="M134.7 31.9a.7.7 0 1 1-1.4 0 .7.7 0 0 1 1.4 0z"/><path fill="url(#i)" stroke="#000" stroke-linecap="round" stroke-linejoin="round" stroke-width=".11" d="M132.9 36.1l-1-.4-.3 1.1.9.3"/><path fill="url(#bF)" stroke="#000" stroke-linecap="round" stroke-linejoin="round" stroke-width=".11" d="M112.1 36.1l.9-.4.4 1.1-1 .3"/><path fill="url(#bG)" stroke="#000" stroke-width=".16" d="M111.6 32a.7.7 0 1 1-1.4 0 .7.7 0 0 1 1.4 0z"/><path fill="url(#bH)" d="M119.7 150.4c.2 3.9-.2 11.4-1 13a9.8 9.8 0 0 1-2.3 2.8l-1.1.6-.2.9.6.9s.4 6.1 3.4 7.3c.1.8 1 3.9 2.9 5.1l-.2.5-.8.4v.5l.6.7h1.4l.9-.6v-.5l-.8-.6v-.6s1.9-.4 2.9-5.1c1.8-1.4 3.1-4.4 3.2-7.1.5-.3.9-1.1.7-1.5a2.7 2.7 0 0 0-1-1.1l-.9-.5a15.6 15.6 0 0 1-1.5-1.7 48 48 0 0 1-1.4-12.9z"/><path fill="none" stroke="#000" stroke-width=".23" d="M115.4 167.5c0 1.4 3.2 2.6 7.2 2.5s7.2-1.1 7.2-2.5-3.2-2.5-7.2-2.5-7.2 1.2-7.2 2.5z"/><path fill="url(#bI)" stroke="#000" stroke-width=".16" d="M123.1 180.9a7.4 7.4 0 0 0 .2 1.2c.1.3-.3.6-.8.6s-1-.3-.9-.6a5.3 5.3 0 0 0 .3-1.2"/><path fill="none" stroke="#000" stroke-width=".39" d="M126 176c0 .7-.9 4.7-3.4 5s-3.5-4.3-3.5-5"/><path d="M114.9 167.6v-.2c0-.8.7-1.5 1.9-1.7a4.2 4.2 0 0 1-.2.6l-.6.2-.3.3-.2.3v.9l.3.4.4.3c0 .1-.1.3-.1.4a1.8 1.8 0 0 1-1.2-1.5zm14.4.8l.4-.4v-.9l-.3-.4-.2-.2-.7-.4s-.3-.3-.3-.4 1.9.9 1.9 1.7a1.9 1.9 0 0 1-1.1 1.8c0-.1-.1-.5-.1-.6z"/><path fill="url(#bJ)" stroke="#000" stroke-width=".16" d="M125.2 151.5c0 .8-.3 10.9 1.7 12.8s1.9 2.8 1.9 2.8-4.1 1.7-6.3 1.7a11.9 11.9 0 0 1-6.3-1.7s-.1-.8 1.9-2.7 1.7-12.1 1.7-12.9"/><path d="M116.6 166.9s-.2-.6 1.6-2.4 1.9-12.9 1.9-13h-.4c.1 2.3.1 11.3-1.6 12.9s-2.2 2.5-2.1 2.6 1.4.8 1.4.8-.7-.5-.8-.9zm11.8 0c-.1 0 .2-.6-1.6-2.3s-2-13-1.9-13.1h.3c-.1 2.2.1 11.2 1.8 12.8s2 2.6 2 2.8-1.3.8-1.3.8a3.2 3.2 0 0 0 .7-1z"/><path fill="url(#bK)" stroke="#000" stroke-width=".39" d="M125.2 146.9c2.7 0 2.5 4.5 0 4.6h-5.4c-2.4 0-2.6-4.5.1-4.5z"/><path fill="none" stroke="#000" stroke-width=".31" d="M123.2 181.5c.5.1.8.4.8.8s-.7.9-1.5.9-1.6-.4-1.6-.9.4-.7.9-.8"/><path fill="none" stroke="#000" stroke-width=".39" d="M115.9 168.7c.2 3 .5 7.9 6.6 8s6.2-4.9 6.6-8"/><path fill="none" stroke="#000" stroke-width=".16" d="M116.8 54.4a14.7 14.7 0 0 1 11.3 0"/><path fill="url(#j)" stroke="#000" stroke-width=".05" d="M129.6 44.4c.1-.2-.1-.7-.1-.7s-.3 0-.6-.5-.1-.8-.1-1.1a1.3 1.3 0 0 1 .4-.7 1.7 1.7 0 0 1 2.1-.2c.5.4 1.1 1.3.3 2s-.5 1.2-.5 1.2h.1s.6-.2.9 1-.4.7-.4.7a6.4 6.4 0 0 0-.4 1c0 .5.1.6.1.6s.4.1.4.3-.5.7-.5.9a13 13 0 0 1-.2 2.3h-.2v.8s.6.2.6.5a.7.7 0 0 1-.4.6s-.6.6-.9.6-.6-.2-.6-.2a2.9 2.9 0 0 1-1 .3.3.3 0 0 1-.3-.3h-.4s-1.7.5-1.9-.2.5-.9.5-.9a1.4 1.4 0 0 0 .4.5 7.1 7.1 0 0 0 .9-.7l.9-.7s-.2 0-.1-.6a9.7 9.7 0 0 1 .4-1.9.4.4 0 0 1-.2-.4l.2-1 .4-.5c-.4-.6-.2-.9-.2-.9a2 2 0 0 1-.5-1c-.1-.5.9-.6.9-.8z"/><path fill="none" stroke="#000" stroke-width=".08" d="M129.4 45.6a.3.3 0 0 1 .6 0c.1.4-.2.5-.6.6s-.5-.6-.2-.9l.5-.2c.3-.1.3.1.5.3a.7.7 0 0 0 .9.1c.2-.2.4-.6.8-.6"/><path fill="none" stroke="#000" stroke-width=".08" d="M129 44.7a1.1 1.1 0 0 1 .8 0c.2 0 .4.3.7.4s.4 0 .6-.1.2-.3.2-.5m-.8-1.4c.2-.1.3-.1.4.1s0 .4.1.5h.3"/><path fill="#cbcbcb" stroke="#000" stroke-width=".08" d="M131.6 42.8l-.3.2"/><path fill="none" stroke="#000" stroke-width=".08" d="M131.2 43.2h.3m-.9.2c.1 0 .4 0 .2-.1h-.4"/><path fill="#cbcbcb" stroke="#000" stroke-width=".08" d="M131 43.9c0 .1-.1.1-.1.2m.3 0h-.5"/><path fill="none" stroke="#000" stroke-width=".11" d="M131.5 42.8c0-.1.1-.4 0-.5h-.5a.1.1 0 0 1-.1.1h-.3l-.6.3c0 .1.1.3 0 .4s-.3.4-.5.4"/><path fill="none" stroke="#000" stroke-width=".08" d="M130.2 43.6a.8.8 0 0 0 1 .8m-.6 1.4c0 .1.1.3-.1.4h-.5m1.5-.4c0 .2-.1.5-.4.4m-.2 3.1c-.2.2-.3.2-.6.2s-.7-.1-.8-.4m-.2.2a4.3 4.3 0 0 0 .2 1.1 1.6 1.6 0 0 0 .4.7c.6.3.9-.3 1.1-.8"/><path fill="none" stroke="#000" stroke-width=".08" d="M129.6 49.7c0 .4.1.7.6.8a.8.8 0 0 0 .6-.4"/><path fill="none" stroke="#000" stroke-width=".08" d="M129.6 49.3c.2.3.4.7.8.6s.5-.2.6-.5m-1.8-.7c-.2 0-.1.6.2.5s-.4-.9-.5-1.1"/><path fill="#cbcbcb" stroke="#000" stroke-width=".08" d="M129.2 48.7h-.5"/><path fill="none" stroke="#000" stroke-width=".08" d="M129.2 49.3c-.2.1-.2.5-.2.7a.6.6 0 0 0-.1.4 4.9 4.9 0 0 0-.1 1.2 2 2 0 0 1-.8 1.7c-.2.1-1 .8-1.3.5"/><path fill="#cbcbcb" stroke="#000" stroke-width=".08" d="M129.1 50.1c0 .4.1.8.1 1.3"/><path fill="none" stroke="#000" stroke-width=".08" d="M129.6 51.1a2.1 2.1 0 0 1-.2 1.9c-.1.3-.2.6-.5.7m1.1-2.1a4 4 0 0 1-.3 1.5c0 .2-.1.3-.2.5m.7-.7c.2-.2.5-.1.8 0s-.4.5-.6.6h-.5c0-.2.3-.5.5-.4"/><path fill="#cbcbcb" stroke="#000" stroke-width=".08" d="M130.6 51.3c0 .3-.2.5.1.8m-1.1-5.5l.3.5m1.5-.4h-.2m0 .4c0 .1-.1.1-.2.1"/><path fill="none" stroke="#000" stroke-width=".08" d="M129.7 47.3a1.4 1.4 0 0 1 .2.6.7.7 0 0 0 .1.5c0 .2.3.2.4.2"/><path fill="#cbcbcb" stroke="#000" stroke-width=".08" d="M130.6 48.1c.1 0 .1 0 .1-.1"/><path fill="none" stroke="#000" stroke-width=".08" d="M131.9 45.8a.3.3 0 0 0 .1-.2c0-.1-.2-.1-.2 0s-.1.4-.1.6m-.3 2.2c.1.1.2-.1.2-.2s-.2-.1-.3 0-.2.4-.1.5.2.3.1.1"/><path fill="url(#bL)" stroke="#000" stroke-width=".05" d="M115.5 44.4a3.1 3.1 0 0 1 .2-.7s.2 0 .5-.4a3.8 3.8 0 0 0 .1-1.2.9.9 0 0 0-.3-.7 1.9 1.9 0 0 0-2.2-.2c-.4.4-1 1.3-.2 2a2 2 0 0 0 .4 1.2h-.1s-.5-.2-.9 1 .5.7.5.7a2.9 2.9 0 0 1 .3 1c0 .5-.1.6-.1.6s-.3.1-.3.3.5.7.4.9a13 13 0 0 0 .2 2.3h.2v.4l.2.4s-.7.2-.7.5a1 1 0 0 0 .4.7 4.5 4.5 0 0 0 .9.6 1.1 1.1 0 0 0 .7-.3l.9.3a.4.4 0 0 0 .4-.3h.3s1.7.4 2-.3-.5-.8-.5-.8l-.5.4a7.1 7.1 0 0 1-.9-.7l-.8-.6s.1-.1.1-.7-.4-1.8-.4-1.8a.8.8 0 0 0 .2-.5l-.3-.9a1.7 1.7 0 0 0-.4-.6c.5-.5.3-.9.3-.9a1.5 1.5 0 0 0 .4-1c0-.4-.9-.5-1-.7z"/><path fill="none" stroke="#000" stroke-width=".08" d="M115.8 45.6a.4.4 0 0 0-.7 0c-.1.4.3.6.6.6s.5-.6.3-.9l-.5-.2a.5.5 0 0 0-.5.3.8.8 0 0 1-1 .1c-.2-.2-.4-.6-.8-.6"/><path fill="none" stroke="#000" stroke-width=".08" d="M116.1 44.7a2.1 2.1 0 0 0-.8 0l-.6.4a.6.6 0 0 1-.6-.1.6.6 0 0 1-.2-.5"/><path fill="#cbcbcb" stroke="#000" stroke-width=".08" d="M114.7 43.1c-.2-.1-.4-.1-.5.1s0 .4-.1.5h-.2m-.3-.9c0 .1.2.1.2.3m.1.1v.2h-.2"/><path fill="none" stroke="#000" stroke-width=".08" d="M114.6 43.4c-.1 0-.4 0-.2-.1h.3"/><path fill="#cbcbcb" stroke="#000" stroke-width=".08" d="M114.1 43.9l.2.2m-.4 0a.5.5 0 0 1 .5 0"/><path fill="none" stroke="#000" stroke-width=".11" d="M113.6 42.8c0-.1-.1-.4 0-.5h.5c.1.1.1.1.1.2h.3l.6.3c0 .1-.1.3 0 .4a.7.7 0 0 0 .5.4"/><path fill="none" stroke="#000" stroke-width=".08" d="M115 43.6c0 .5-.5 1-1 .8m.5 1.4c0 .2 0 .3.1.4h.5m-1.4-.4a.3.3 0 0 0 .3.5m.3 3c.1.2.3.2.5.2s.7-.1.8-.4m.2.3a3 3 0 0 1-.2 1c-.1.3-.1.5-.4.7s-.9-.3-1-.7"/><path fill="none" stroke="#000" stroke-width=".08" d="M115.6 49.7a.8.8 0 0 1-.7.8.7.7 0 0 1-.6-.3m1.3-.9c-.3.3-.4.7-.9.6a.9.9 0 0 1-.6-.4m1.8-.8c.3 0 .1.7-.1.5s.3-.9.4-1.1"/><path fill="#cbcbcb" stroke="#000" stroke-width=".08" d="M115.9 48.8h.5"/><path fill="none" stroke="#000" stroke-width=".08" d="M116 49.3c.1.2.1.5.2.7a.6.6 0 0 0 .1.4v1.2a2.3 2.3 0 0 0 .8 1.7c.2.1 1.1.8 1.4.5"/><path fill="#cbcbcb" stroke="#000" stroke-width=".08" d="M116 50.1c0 .4-.1.8-.1 1.3"/><path fill="none" stroke="#000" stroke-width=".08" d="M115.5 51.1a2.8 2.8 0 0 0 .2 2 1.5 1.5 0 0 0 .5.6m-1.1-2.1a8 8 0 0 0 .3 1.5l.2.5m-.7-.6c-.2-.3-.5-.2-.8-.1s.5.5.7.6h.4c0-.2-.3-.5-.5-.4"/><path fill="#cbcbcb" stroke="#000" stroke-width=".08" d="M114.6 51.3c0 .3.2.6-.1.8m1-5.5a.7.7 0 0 1-.3.5m-1.4-.4h.2m-.1.4c0 .1.1.1.2.1"/><path fill="none" stroke="#000" stroke-width=".08" d="M115.5 47.3l-.3.7c0 .1.1.3 0 .4s-.3.2-.5.2"/><path fill="#cbcbcb" stroke="#000" stroke-width=".08" d="M114.5 48.2V48m-1.2-2.2a.2.2 0 0 1-.2-.2.2.2 0 0 1 .3 0c.1.2 0 .4 0 .6m.4 2.2c-.1.1-.3-.1-.2-.2s.2 0 .2.1a.8.8 0 0 1 .2.4c0 .1-.2.3-.2.2"/><path fill="url(#k)" stroke="#000" stroke-linecap="round" stroke-linejoin="round" stroke-width=".24" d="M125.7 57.3c.3 1-1.4 1.7-1.9.1s1.1-1.7 1.9-1.3l.6-.3a.7.7 0 0 0 .3.5s1-.7 1.4-.2 0 .6-.4.6 2.4 3.1-2.2 7.8l.3.3a1.8 1.8 0 0 0-1.2 1.3v-1.8s3.5-3.8 2.7-6.2-3.1-1.5-2.3-.4c-.1-1 .6-.7.8-.4z"/><path d="M124.3 146.8c.1-1.4-1.1-2.9-2.2-3.9a3.3 3.3 0 0 1-1.5-2.9h.3c0 1.3.3 1.7 1.5 2.7s2.3 2.7 2.2 4.1zm0-5.3c.1-1.4-1.1-3-2.2-3.9a3.4 3.4 0 0 1-1.5-3h.3c0 1.4.3 1.8 1.5 2.8s2.3 2.7 2.2 4.1zm0-73.5c.1-1.4-1.1-2.9-2.2-3.9a3.3 3.3 0 0 1-1.5-2.9h.2a3.5 3.5 0 0 0 1.5 2.8c1.3 1.1 2.3 2.6 2.2 4zm-.1-5.3a5.3 5.3 0 0 0-2.1-3.9 3.8 3.8 0 0 1-1.6-2.9h.3a3.3 3.3 0 0 0 1.5 2.8 5.5 5.5 0 0 1 2.2 4.1z"/><path fill="none" stroke="#000" stroke-linejoin="bevel" stroke-width=".35" d="M120.1 151.6c2.5 2.6 2.6 17.2 2.6 17.2s-.4-13.1 2.2-17.3m-5.8 24.4c3.7.4 3.6-5.9 3.6-5.9s0 5.9 3.4 5.8"/><path fill="url(#bM)" stroke="#000" stroke-linecap="round" stroke-linejoin="round" stroke-width=".24" d="M119.3 57.3c-.3 1 1.4 1.7 1.8.1s-1-1.7-1.8-1.3l-.6-.3a.7.7 0 0 1-.3.5s-1-.7-1.4-.2 0 .6.4.6-2.4 3.1 2.2 7.8l-.3.3a1.8 1.8 0 0 1 1.2 1.3v-1.8s-3.5-3.8-2.7-6.2 3.1-1.5 2.3-.4c.1-1-.6-.7-.8-.4z"/><path d="M153.7 66.3c0 1.2-.1 30.7-.1 30.7 0 17.2-8.4 38.9-31 52.2-13.1-6.8-30.2-23.8-31-52.2 0 0-.3-29.5-.3-30.7z"/><path fill="#cbcbcb" d="M152.5 67.5v18.3c-.2.3.3 1.4-.5 1.3h-28.7V67.5h29.3z"/><path d="M150.6 68.4a3.1 3.1 0 0 1 1.7-.3 2.3 2.3 0 0 1-.6 1.6 1.4 1.4 0 0 1 .3 1.5 1.1 1.1 0 0 1-1.2.6 1.1 1.1 0 0 1-.9-.7h-.1v4.5c.1.1.3-.1.5-.1a.8.8 0 0 1 1 .4c.3.2-.2.7.2.8a1.2 1.2 0 0 1 .7.5c-.1.4-.6.5-.8.7a1 1 0 0 1-.1.9 1.1 1.1 0 0 1-1.2.2h-.2a38.1 38.1 0 0 0-.1 4.8h.1a1.8 1.8 0 0 1 .7-.9 1.7 1.7 0 0 1 1.2.2 1.5 1.5 0 0 1 .4 1.1 1.1 1.1 0 0 1-.6.9c.2.5.6 1 .5 1.6a1.8 1.8 0 0 1-1.7-.4c-.3.3-.6.7-1.1.7a1.1 1.1 0 0 1-.9-.7c-.3-.3.3-1.1-.4-1.1h-8.2a1.3 1.3 0 0 1-.2 1.2c-.3.3-.8 0-1.1 0s-.4.5-.6.5-.3-.7-.7-.4-.6 0-.8-.1-.3-.8-.2-1.1h-8.6c0 .3.2.9-.1 1.2a1.4 1.4 0 0 1-.8.5 1.3 1.3 0 0 1-1-.6 2 2 0 0 1-1.8.4c-.1-.5.3-1 .6-1.5a1.9 1.9 0 0 1-.7-1.1 1.3 1.3 0 0 1 .6-1 1.4 1.4 0 0 1 1.1 0c.2.3.5.4.4.7h.2V79c-.3.1-.8.4-1.2.1s-.3-.7-.2-1-.6-.4-.7-.7.5-.5.7-.7a1 1 0 0 1 .1-.9.9.9 0 0 1 1.1-.1h.2c.1-1.6 0-2.9 0-4.5h-.1a1 1 0 0 1-.9.6 1 1 0 0 1-1-.3 1.2 1.2 0 0 1-.1-1c.1-.3.4-.5.6-.7s-1.2-1.1-1.1-1.9a2.5 2.5 0 0 1 2 .6 1.4 1.4 0 0 1 1.1-1 1.1 1.1 0 0 1 1 .6 1.7 1.7 0 0 1-.2 1.4c2.9 0 6 .1 9-.1a.9.9 0 0 1 0-1 1.2 1.2 0 0 1 1-.1 1.6 1.6 0 0 1 .7-.7c.3.1.4.4.6.7a.9.9 0 0 1 1 0 .6.6 0 0 1 .2.8c-.1.1-.2.2-.2.3 2.9.2 5.9.1 8.9.1-.1-.5-.3-1 .1-1.5s.5-.4.8-.4a1.3 1.3 0 0 1 1.1.8z"/><path fill="#484848" d="M121.9 69l.1 17.9-.1.1-29.1.1h-.1l-.1-1V67.5h7.8l20.2-.1 1.2.1.1 1.5zm28.2-.5c.1.4-.1.6-.3.9s-.1-.6-.5-.6h-.4c-.2-.2-.1-.4.1-.6s1-.2 1.1.3zm-12 .3c-.1.1-.1.3-.2.2a1.1 1.1 0 0 1-.1-.8l.2-.2c.2.1.2.6.1.8z"/><path d="M104 68.1l.3.2h14.5c.2.2.5.3.6.5a1.1 1.1 0 0 1 .9.4 1.5 1.5 0 0 1 .2 1.3c-.2.2-.3-.1-.5.1s.4.6.1 1-.8.3-.5.8.6.1.7.4.4.3.3.7 0 1-.5 1.2-.3 0-.3-.1 0-.3-.1-.4a.9.9 0 0 1-1 .1l.5.5a1.1 1.1 0 0 1 1.1.3 1.2 1.2 0 0 1 .2 1c0 .2 0 .4-.2.5s-.1-.1-.2-.1a1.4 1.4 0 0 1 0 1.1c-.2.2-.4.5-.7.5s.7 0 .7.5.8.6.4 1.1-.4.8-.8.7.1-.4-.1-.5l-.6.2a1 1 0 0 0 1 .6 1.1 1.1 0 0 1 .6 1 2 2 0 0 1-.4.8l-.3-.2c.1.3.3.8 0 1.1s-.6.4-.4.8.4.8 1 .9a.3.3 0 0 1 0 .5c-.2.3-.4.7-.7.6s-.7.1-1-.4-.7.3-.5.8a1.2 1.2 0 0 1-1.2-.6c0-.1-.1-.3-.2-.3s-.4.5-.8.2l-.2-.3c-.8.5-1.8.2-2.7.3s-.6.1-1 .2h-6.5c-.3 0-.4-.6-.7-.2h-.4c-.2-.2.1-.4 0-.7h-.7c-.2.3-.4.9-.8.9h-6.7V86c-.3.1-.6.4-.9.2l-.3-.3c-.3.1-.3.6-.7.5s-.3-.8-.2-1.2.5-.3.3-.5a.3.3 0 0 1-.5 0c-.2-.4.1-.9.4-1.2s.5 0 .6-.3-.4 0-.3-.3.8-.5.3-.9a2.3 2.3 0 0 1 .8-1.1.8.8 0 0 0 .3-.8.6.6 0 0 1-.8.1l-.2-.2c-.1.1-.1.4-.4.5s-.3-.4-.4-.6a1.4 1.4 0 0 1 0-1.1.4.4 0 0 1-.4-.4c.1-.4 0-.9.5-1.1h.6c-.1-.2-.4-.3-.3-.6s.4-.3.2-.5 1-1 1.1-1.8-.3.3-.5.1l-.4-.2c-.2.1-.1.5-.4.5a1.1 1.1 0 0 1-.5-.4c0-.4-.1-.8.1-1.1s-.4-.2-.4-.4-.2-1.2.4-1.4h.5c-.2 0-.3-.2-.2-.4s.8-.4.4-.8.2-1.1.8-1.1.6-.8 1-1 1.2.1 1.3.8.4-.3.5-.5a.9.9 0 0 1 1 .5c.3-.2.2-.8.7-.7l.4.2c.2-.2.5-.6.8-.3s.3-.1.5-.1.3.7.7.4.3.2.4.3.5-1.9.8-.7z"/><path fill="#484848" d="M127.1 68.5v.3c-.2 0-.4-.3-.6-.1s-.3.4-.4.6a1 1 0 0 1-.2-.9c.1-.2.3-.2.5-.4s.6.2.7.5zm24.7 0a1.7 1.7 0 0 1-1 1.2h-.7a1.7 1.7 0 0 1 1.7-1.2zm-26 1.2a2 2 0 0 1-1.9-1.4 2.4 2.4 0 0 1 1.9 1.4zm13.5-.8v.3c-.1-.3-.6-.2-.7-.2s.2-.3.4-.4.3.1.3.3zm-1.7.3c-.2 0-.6-.4-.9 0a.3.3 0 0 1 0-.4c.3-.3.8 0 .9.4z"/><path fill="#cbcbcb" d="M118.4 68.9c.3 0 .5.3.6.5s.6-.4.8.2v.2h-.5c-.3.4-.6 1-1.1 1h-5.6c.6.3.9 1 1.4 1.4s.7-.6 1.2-.7a.7.7 0 0 1-.3.6c.4.2.6-.5.9-.7h.3c0 .3-.3.5-.3.7s.2 0 .3 0 .4-.7.9-.8-.4.3-.2.5a3.3 3.3 0 0 1 2.2-.5.8.8 0 0 0 .4-.4.5.5 0 0 1 0 .5c-.1.3-.6 0-.6.3v1.4c.2.3.7-.4.8.1s.5.3.4.6l-.6-.2c-.1.1-.3.3-.4.2l-.5-.6a1.6 1.6 0 0 0-.4.7c-.2.1-.6 0-.7.3s.2-.4 0-.7.5-.2.5-.5.2-.8-.1-1.1a12.8 12.8 0 0 0-3 1.7h-1.6c-.8-.7-1.1-1.8-2.1-2.4s-.7-.5-.8-.1l.4.2-.8.2c.1-.1 0-.4-.3-.3a12.4 12.4 0 0 0-4 1c.1-.5.8-.6 1.2-.8s-.2-.2-.3-.1-1.8 2.2-3.4 1.7c0 .4 0 .8-.5.8h-.4l.5-.5c.8-.4.5-1.6 1.5-1.8l.2-.3c2.5-.7 5.2-1.7 7.9-.8h4.9c.1 0 .2-.3.1-.4h-.1c.1-.1.3 0 .4 0s-.2.4.1.5a.7.7 0 0 0 .8-.5.4.4 0 0 0-.3-.6 27.7 27.7 0 0 0-4.1-.1 1.1 1.1 0 0 1-1.3.4c0-.2.3-.1.4-.3a2.5 2.5 0 0 0-1.7.3h-.5c0-.2.4-.2.3-.4a2.3 2.3 0 0 0-1.6.4.8.8 0 0 1-.7 0c.1-.2.5-.1.4-.4h-2.9a.6.6 0 0 0-.2.7h.3a.4.4 0 0 1-.7.1c-.2-.1-.2-.4-.1-.6v-.2c-.6 0-1.7.4-2-.4h14.6zm-20.7.2c.2.3 0 .6.2.8s.3-.9.9-.5.2-.2.3-.4-.3.6-.2 1-.7.2-.7.6.1 1.8 1.2 1.8h-1.3v-.3c-.2-.1-.5.2-.7-.1s.7.1.5-.4a.9.9 0 0 1-.9-.4c-.1-.2.2-.2.3-.2h.4a.8.8 0 0 0-.7-.5c-.7.3-.5-.9-1.3-.6s.7.1 1-.2.5.3.7.2-.6-.6-.3-1v-.3zm4 .2c.2-.1.1-.4.4-.4s.1.4.3.6.1-.4.4-.5-.3 1.2.5.6h.1c-.1.1 0 .4-.2.5s-.3-.4-.5-.3.2.4.1.6-.6-.3-.7.2h-.2c-.1-.2.2-.4-.1-.4s-.8-.3-.5.4h-.2c-.1-.1-.1-.4-.3-.3h-.4c-.2-.2.4-.8-.2-.5s0 .3-.3.2a1.7 1.7 0 0 1-.1-.7l.5.2c.1-.2 0-.7.3-.8s.2.6.5.4 0-.5.2-.6a.8.8 0 0 1 .4.8z"/><path fill="#484848" d="M149.2 70c0 4.8.1 9.5.1 14.6h-22.7V70h22.7zm2.4.5a.6.6 0 0 1-.4.8c-.1 0-.4.1-.5-.1a.7.7 0 0 0 .2-.7c-.2-.2-.4-.2-.7-.3a1 1 0 0 1 1.4.3z"/><path fill="#cbcbcb" d="M105.4 69.7c0 .3-.4.5-.7.5s.3-.9.7-.5z"/><path d="M102.4 69.6c-.3.1.1.8-.5.6h-.1c-.4-.1-.8.2-1-.1s.1-.2 0-.3c.4 0 .8.6 1.2.1s.3-.4.4-.3z"/><path fill="#484848" d="M104.2 69.7h-.2v-.2zm10.4.2l.8-.1 1 .1h-1.8zm11.2.3a.7.7 0 0 0-.8.5c-.1.2.2.3.3.4a.6.6 0 0 1-.7.2.5.5 0 0 1-.3-.5.6.6 0 0 1 .5-.6.9.9 0 0 1 1 0z"/><path d="M148.9 70.8v13.3H127V70.4h20.9c.2.1 1.2-.3 1 .4z"/><path fill="#cbcbcb" d="M150.2 70.8h-.3a.2.2 0 0 1 .3 0z"/><path fill="#484848" d="M99.3 70.5c-.1.1-.2.2-.2 0s.2-.1.2-.3v.3zm48.5 12.7h-19.7l-.1-11.7v-.1l18.6-.1 1.2.1v11.8z"/><path fill="#cbcbcb" d="M104.2 71.1a.4.4 0 0 1-.4.4c-.3.1-.5-.3-.8-.2s.5.8.1 1.1-.2-.3-.4-.3 0 .8-.3 1.1-.1-.6-.4-.7a1.3 1.3 0 0 1-.3 1.2c0-.2-.2-.5-.2-.8a1 1 0 0 0-.4.8.9.9 0 0 1-.7-.6c-.1-.2.1-.4 0-.6s-.2.2-.3.4-.3-.5-.3-.8.2-.3.2-.5-.7.5-.9 0v-.2c.3.2.6-.2.7-.4s.1-.3.3-.4.6.2.5.5c.2 0 .2-.3.3 0s0 .7.3.8v.2c-.2.1-.3-.2-.4 0s.2.3.4.3.5-.5.9-.6.1-.5.2-.8.1.1.2.1.7-.2.7-.6.4.9 1 .6z"/><path d="M147.4 72.4l.1 10.4v.1h-19.1l-.1-11 .1-.1h19v.6z"/><path fill="#4b4b4b" d="M101.5 71.8c0-.2-.2-.7.1-.9z"/><path fill="#cbcbcb" d="M96.4 71.5c-.1.5-.1 1.1.5 1.2a23.5 23.5 0 0 0 2.7.1 2.8 2.8 0 0 1 .8 1.1h-1.1c.1-.3.6-.2.5-.5s-.9.7-1.5.5a.7.7 0 0 1 .4-.5c-.6-.2-.9.7-1.5.5s.3-.3.5-.4h-.1c-.7 0-1.4-.1-1.9.5s-.4-.5-.8-.3-.2.2-.2.3c-.2-.4.5-.5.6-.9h.6c-.3-.3-.9-.1-1-.6s-.4-.2-.4 0 .6-.3.9-.4.3.5.6.4-.5-.6-.1-.9-.2-.3-.3-.4.5.1.8.3z"/><path fill="#484848" d="M114.4 71.4l-.3.2c-.3-.3.1-.3.3-.2z"/><path fill="#cbcbcb" d="M144.4 72.2a.8.8 0 0 0 .2.9c.5.3-.3.7-.3 1s.1.5.3.5a1.4 1.4 0 0 0 1.1-.3 1 1 0 0 0 1 .5l.2-.2a1.7 1.7 0 0 1 .1 1 1.4 1.4 0 0 0-1.4-.4 1 1 0 0 0-.4 1.1c.3.6-.6.4-.8.7l-.3.3a1.9 1.9 0 0 0 1.1.9 2 2 0 0 0-.1 1.1l.6.5a2 2 0 0 0 1.3-.4v.6a.8.8 0 0 0-.8.1c-.4.8-1-.3-1.7 0a2.5 2.5 0 0 0 .4 1.2 1.3 1.3 0 0 0-.3 1.2h-2.5c.2-.1.6-.1.7-.4s-.3-.3-.2-.5.8-.2.9-.6-.3-.4-.5-.5l-.6-.2c-.1-.3-.1-.7-.4-.9h-.1c-.1-.3-.2-.7-.5-.7h-.2l.6-.9h.1c.1.1 0 .3.2.3a1.2 1.2 0 0 0 .6-.6 2.1 2.1 0 0 0 0-.8.7.7 0 0 0-.7-.3v-.9c.4-.2.3.4.5.6a1.1 1.1 0 0 0 .9.4 1 1 0 0 0 .8-.7.1.1 0 0 0 0-.2c-.2 0-.3.2-.4.1s-.1-.6-.1-.8a1 1 0 0 0 .6-.5 1.5 1.5 0 0 0-.4-.9c-.1 0-.2-.2-.3-.1s.2.4-.1.4a2.7 2.7 0 0 0-1.1-1c-.2-.1-.6.1-.6-.3h-.1c-.4.1-1 .3-1.1.8h-.3a.6.6 0 0 1-.1.6h-.1c0-.1-.2-.5-.4-.5s-.1.4-.4.4-.7-.2-.8-.6h.9c.3 0 .7-.3.7-.6a1.6 1.6 0 0 0 0-.7z"/><path fill="#484848" d="M146.9 72.5c-.2.4-.9.7-.6 1.2h.4v-.2c.2.1.2.3.1.5a.6.6 0 0 1-.7.2c-.4-.1 0-1.4-.5-.5a.9.9 0 0 1-.7.3.7.7 0 0 1 .4-.6c0-.1.2-.1.3-.3s-.6 0-.7-.4.1-.4.3-.5h.3c-.1.1-.3.3-.2.5s1.1-.3 1.5-.6.2.4.1.4z"/><path fill="#cbcbcb" d="M135.8 72.2c-.1.3-.4.7-.1 1.1a1.2 1.2 0 0 0 1.2.3c.4-.6.5.3.8.5s-.2.1-.2.2.3-.2 0-.4a.8.8 0 0 0-.5.5c-.2.4.4.8-.1 1v.4c-1 .2-1.1-.9-1.5-1.4s.4-.8.1-1.1-.5-.5-.8-.7-.1.3-.2.4-.5-.4-.8-.2-.8.3-.6.8.3.1.2.3a.9.9 0 0 0-.4.8c0 .2 0 .5.2.6s.5.2.6.3.5.6.4 1-.6-.1-.7-.3a1.2 1.2 0 0 0-.9.3c0 .2.3.2.3.3s-1.1.6-.6 1.3l.4.3c-.2.5.5.6.7.9h.1c-.3 0 0 .5-.4.4s-.5.6-.3.9.4-.1.4.2-.4.7-.4 1.1.8-.2 1.1.2.6-.3 1-.1a1.6 1.6 0 0 1 1-.1v.5h-4.6c-.1-.2 0-.6-.1-.8l-.3-.3a2.2 2.2 0 0 0 .6-1.3 1.7 1.7 0 0 0-1.4.3.9.9 0 0 0-.8-.6l-.5.2v-.7c.4.2 1 .5 1.4.2a1 1 0 0 0 .6-.9l-.2-.6c.4-.2.8-.3 1-.7s-.7-.5-1.1-.7.2-.3.2-.5a1.9 1.9 0 0 0-.3-1 1.2 1.2 0 0 0-1-.2l-.5.3c-.1-.1-.1-.2-.1-.4s.3.1.5.1.6-.3.8-.5a3.2 3.2 0 0 0 1.4.3c.2-.5-.2-1-.4-1.4a.7.7 0 0 0 .4-1zm-26.2-.6c0 .2-.1.4 0 .6s.5-.4.9-.5a2.2 2.2 0 0 1 .8 0c-.3.3-1.1.4-1 .9s1 1.1 1.6.9.1.1 0 .2h-.6c-.2-.1-.2-.3-.4-.4s0 .4-.2.5h-.5c.1-.1.3-.1.2-.3s-.9.5-1.5.3.5 0 .4-.3-.7.3-1.2.3-2 .3-2.7-.4h-.1c.2-.3.5.1.9-.1s.4.4.6.1.1-1-.6-.9.5.4.9.2.1.5.4.6a4.5 4.5 0 0 1 2.3 0h.1c-.3-.4-1-.5-1.1-1.1s.4-.7.8-.6z"/><path fill="#484848" d="M131 72.6c0 .2-.2.4-.5.5h-.3c.3.3.8.5.8 1a1.3 1.3 0 0 1-1-.6c-.2.1-.1.4-.2.6s-.4.2-.6.1-.3-.2-.2-.4.3.1.5 0a.5.5 0 0 0 .1-.6c-.1-.4-.6-.6-.7-1s.8.9 1.4.6.1-.2.1-.4h-.2c0-.1.2-.2.3-.2s.5.1.5.4zm7.1.7c0 .1-.1.3-.2.2s-.2-.6-.1-1v-.2a1.2 1.2 0 0 1 .3 1zm1.1-.7l.3-.2a.6.6 0 0 1 0 .6.6.6 0 0 1-.7.1 2.2 2.2 0 0 1-.5-.8c.3.2.6.5.9.3zm-2.2.1h.4a1.1 1.1 0 0 1-.7.6.5.5 0 0 1-.5-.3c0-.2.1-.3.2-.5s.3.3.6.2z"/><path fill="#cbcbcb" d="M108.2 72.7a.5.5 0 0 1-.5.4c-.1 0-.2-.2-.2-.3s.5-.4.2-.6.1 0 .2 0z"/><path fill="#484848" d="M111.8 72.7a.2.2 0 0 1-.2.2c-.2.1-.3-.2-.5-.3s.2-.2.3-.3.3.2.4.4zm29.6.4c.1.3-.3.5-.1.7s.8-.6 1.2-.4.5 1.6.6 2.4.1.2.2.2-.5-.2-.6-.5a1.3 1.3 0 0 0-.1-.6.4.4 0 0 1-.5.2c-.1-.1-.2-.4-.1-.5a.3.3 0 0 0 .5-.1.5.5 0 0 0 0-.6c-.2-.3-.6-.2-.8-.1l-.2.3a9.8 9.8 0 0 0 .1 3 .7.7 0 0 1 .6-.1.4.4 0 0 1 .1.3h-.6c-.5.6-.8 1.6-1.7 1.4s-.3-.1-.1-.2a.9.9 0 0 0 .6-.3.5.5 0 0 0-.2-.4h-.3c0-.2.1-.2.3-.2s.1.6.5.5a1.9 1.9 0 0 0 .3-1.8 1.2 1.2 0 0 1-.4-1c.4.1 0 .7.5.6s-.8-1.1-.4-1.7.1.5.4.4-.6-1.2.2-1.5z"/><path fill="#cbcbcb" d="M129 73.1c-.1 0-.2-.1-.1-.2z"/><path fill="#484848" d="M135.1 74.3a9.3 9.3 0 0 0 1.1 1.9h.3c0 .2-.3.2-.5.3s-.3-.2-.4-.3-.4.3-.7.2.4-.4.2-.6-.5.2-.6 0 .2-.2.2-.4-.4.1-.5-.2.4-.3.3-.7-.5.3-.7 0h-.3c.1-.2.4-.2.5-.4h.2c-.1-.2-.5-.5-.2-.8l-.2-.2a1.1 1.1 0 0 1 .8.7c.2 0 0-.5.4-.5v-.2c.1.4.3.9.1 1.2z"/><path fill="#cbcbcb" d="M117.4 73.1c-.2.1-.2.3-.3.5s-.5-.3-.7-.2.5-.2.7-.4z"/><path fill="#484848" d="M139.9 74.8c0 .3-.3.3-.5.4s0 .9.5 1a.5.5 0 0 1-.7.1h-.1a.4.4 0 0 0 .3.4h.3c0 .2-.2.3-.4.3s-.5-.1-.5-.4-.3.4-.3.6.8 1 1 1.6v.9c.5 0 1.1.1 1.3-.4.5.1-.2 1.1.5.5h.1c.1 0 .1.3 0 .4s-.2.2 0 .3.3-.1.5-.3 0 .3 0 .4l-.2.2c.1.3.8-.1 1 .3s.2.2.3.2a1.4 1.4 0 0 1-1.1.1c0 .2.2.4 0 .7v.2c-.2.1-.3-.3-.6-.4s0-.3-.1-.4-.8-.1-1 .4a.9.9 0 0 1 .6-.7h.2c-.2-.3-.3-.5-.6-.6s-1 .5-1.6.2-.3-1.1-.9-1.5h.4c-.3-.6-1.4-.6-1.4-1.5s-.1 0-.1.1l-.4.5a1 1 0 0 0-.4-.5c-.1.2.2.3 0 .5l-.2.2c-.1-.2-.1-.5-.4-.5s0 .5-.2.6-.1-.4-.4-.5.1.3-.1.4-.2.3-.3.2-.1-.3-.2-.3-.5.5-1 .5a1.7 1.7 0 0 1 .4-.7c-.1-.2-.3.1-.5 0s-.2-.2-.3-.1l.4-.4h.3c-.3-.2.1-.7-.3-.8h.1c.2.2.3.4.6.4l.5.4c.9-.4 2.2-.2 2.9-1.1l.5-.3-.3-.4h.3a.6.6 0 0 0 .5.3c.2.1.3-.1.4-.2s-.1-.7-.4-.8-.5 0-.3-.2a.4.4 0 0 0 .4-.4c.5-.4.8.2 1.5.1zm3.7-.2l-.2-.2c0-.2.3 0 .4-.2s0 .4-.2.4zm-39.2-1v.3c-.1 0-.2 0-.2-.1s.1-.1.2-.2zm11.9.5a.4.4 0 0 1 .4-.2c.1.1.2.2.2.3h-2.1c.4.1.6-.3.9-.4s.3.5.6.3zm-3.2.1h-.9c0-.1.2-.2.3-.3a.9.9 0 0 0 .6.3z"/><path d="M139.1 74.8c0 .3-.2 0-.4.1a.3.3 0 0 1 0-.4c.2 0 .4.1.4.3z"/><path fill="#484848" d="M113.8 74.2h.9-.9z"/><path fill="#4b4b4b" d="M138.4 75.5c-.2 0-.2-.3-.4-.3s-.7-.1-.7-.5.9.3 1.1.8z"/><path fill="#cbcbcb" d="M105.3 74.8h13.1a1.5 1.5 0 0 1 .5.6.6.6 0 0 1 .8-.1c.1 0 .1.2.1.3a.9.9 0 0 0-.7 0c-.7 1.8-3 .8-4.6 1.1s-1.4.1-1.9-.2h-.1L114 78c.5.2.7-.6 1.2-.7a.9.9 0 0 1-.5.8c.5.2.7-.5 1-.7h.4c.1.3-.3.6-.5.7s.2.2.3.1.5-.8 1.1-.8-.4.2-.4.4 1-.8 1.7-.5.8.3 1.1-.1V77a.5.5 0 0 1-.1.6h-.6a5.7 5.7 0 0 0 0 1.3c.2.2.4-.1.6-.1s.7.5.6.8a.3.3 0 0 0-.3-.3c-.3.1-1 .4-1.1-.1a.1.1 0 0 0-.1-.1c-.2.1-.1.7-.5.5h-.7a1.2 1.2 0 0 1 .6-.8c.2-.2.1-.7 0-1s-.6.1-.8.2l-2 1.2c-.7 0-1.5.2-2.1-.2s-1.4-2.3-2.7-2.2c.2.2.5.2.6.4l-1.1.2.2-.3c-.2-.3-.7 0-1.1 0l-2.8.7a1.5 1.5 0 0 1 1.1-.6V77c-.2-.2-.5 0-.7 0s-1.9 2-3.3 1.8.1.4-.2.6-.3.2-.5.2a3.5 3.5 0 0 0 1-1.9 1.7 1.7 0 0 0 .9-.8c2.1-.2 4-1.2 6.3-.9s4.3.1 6.4.2c.2-.1.4-.4.2-.6s.3.1.3.2-.2.2-.1.4.5 0 .7-.1a.6.6 0 0 0 .2-.7c-.5-.7-1.3-.3-2.1-.4h-2.3a1.8 1.8 0 0 1-1.4.4c0-.2.3-.2.4-.3s-.6-.2-.9-.1a1.4 1.4 0 0 1-1.1.4c0-.2.4-.3.4-.4s-1.5.5-2.5.4.4-.2.4-.5a28 28 0 0 1-2.9 0c-.2.1-.4.4-.2.6l.3.3a.6.6 0 0 1-.7 0 .6.6 0 0 1-.2-.8c-.7-.1-1.7.1-1.9-.7v-.2c.5.7 1.1.7 1.7.7z"/><path fill="#484848" d="M98.5 74.4c.1.2 0 .3-.2.3s-.1-.4.2-.3zm1.3.3c-.1 0-.3-.1-.2-.2h.2z"/><path fill="#cbcbcb" d="M97.9 75.5v.3c.2-.2.3-.5.6-.6s.6 0 .6-.2-.3.5-.3.9-.4.1-.6.4a2.6 2.6 0 0 0 .8 1.9h.4a2 2 0 0 1-1.3.1V78a.7.7 0 0 1-.6.1c-.2 0-.1-.3 0-.3s.6.1.4-.2-.9-.2-.9-.6h.7a.6.6 0 0 0-.4-.7.8.8 0 0 1-1-.4c-.1-.2-.6 0-.5-.3s.7.1 1 0 .4.2.5 0 .3-1-.5-1 .6.2 1 .2zm3.8-.3c.1-.2 0-.4.3-.5s.2.4.3.6.1-.4.3-.4.1.6.3.7l.4-.2c0 .2.1.4 0 .6s-.4-.5-.7-.2.3.3.2.5-.6-.2-.7.2-.2.2-.3.1.1-.3-.1-.4h-.2c-.1 0-.2-.2-.3-.1s.1.4-.1.5-.3-.5-.6-.3l-.2-.2c0-.2.2-.3 0-.3l-.4.3c-.2-.3.2-.5 0-.8s.4.3.5.1-.1-.5 0-.7a.8.8 0 0 1 .5.5c.3-.2.1-.6.3-.7s.3.5.5.7zm38.4.4c-.1-.1.1-.1.1-.2z"/><path fill="#484848" d="M130.2 75.7c.2.5-.3.9-.7 1.2h-.5c.3-.1.7-.5.6-.8s0-.3-.2-.3h-.3c0-.2.2-.5.4-.5a.5.5 0 0 1 .7.4zm16.4.1c-.2.1-.5.3-.4.6s.4.5.6.7a1.3 1.3 0 0 1-1-.4 1.1 1.1 0 0 1-.2-.8.7.7 0 0 1 .8-.3.2.2 0 0 0 .2.2z"/><path fill="#cbcbcb" d="M105.3 75.6c0 .2-.3.3-.5.4h-.4c.2-.2.6-.9.9-.4z"/><path fill="#484848" d="M150.9 76.2a.6.6 0 0 1-.3.6l-.5.2c.2-.2.5-.4.4-.7h-.3a.4.4 0 0 1 .7-.1z"/><path d="M102.3 75.5c-.4.1.1.5-.3.6s-.5-.1-.8-.1h-.3c-.2-.1 0-.3-.2-.4s.4-.1.5-.1a.4.4 0 0 0 .5.2c.2-.1.4-.4.6-.2z"/><path fill="#484848" d="M114.3 75.7h2.1-2.1zm-6.4 0h-.5c0-.2.3 0 .5 0zm17.8.4a.5.5 0 0 0-.2.6l.2.2c-.3 0-.5-.2-.7-.5a.3.3 0 0 1 .2-.4.4.4 0 0 1 .5.1z"/><path fill="#cbcbcb" d="M140.7 77.2h-.6c.4-.3-.1-.6.3-.9a.9.9 0 0 1 .3.9zm6.3-.5c-.1 0-.1-.1-.2-.2h.1a.2.2 0 0 1 .1.2zm-18.1-.1c-.1-.1-.1-.2 0-.2s0 .2 0 .2z"/><path fill="#484848" d="M99.1 76.6c-.2-.1.1-.2.2-.3s-.1.3-.2.3z"/><path fill="#cbcbcb" d="M104.1 76.9c-.1.2-.2.5-.5.5s-.6-.5-.9-.2a.9.9 0 0 1 .3 1.1c-.1-.1-.3-.4-.5-.2a1.1 1.1 0 0 1 .3 1l-.3.2c-.1-.3-.1-.6-.4-.8s0 .4-.1.5a.6.6 0 0 1-.3.6 1.1 1.1 0 0 1-.2-.6c.1-.1.1-.2 0-.2-.3.1-.4.5-.6.7a.8.8 0 0 1-.5-.7c-.1-.2.2-.5.1-.7a1 1 0 0 0-.4.5c-.3-.1-.3-.4-.3-.7v-.3c-.2-.1-.8.3-.9-.2s.3 0 .4-.2.2-.6.7-.6.3 1 .8.5-.1.7.3.9h-.4c.1.3.5.3.7.2s.9-.8.7-1.5.2.4.4.1.3-.3.4-.5.7.9 1.2.6z"/><path fill="#484848" d="M146.5 77.4a1.5 1.5 0 0 1-1 .3c-.2-.1-.5-.1-.7-.3a1.3 1.3 0 0 1 1.3-.2zm4.9-.1a.8.8 0 0 1-.9.2l-.2-.2.4-.2zm-20.6 0a1.5 1.5 0 0 1-1 .3l-.5-.2a1.2 1.2 0 0 1 1.4-.2z"/><path fill="#cbcbcb" d="M96.5 77.3a1.2 1.2 0 0 0 .3 1.3 26.2 26.2 0 0 0 2.8.1 2 2 0 0 1 .8 1h-1.1c0-.2.3-.2.5-.4s-.9.6-1.5.4.4-.2.5-.3-.1-.2-.3-.2-.7.7-1.3.5.6-.2.5-.5-1.4-.1-1.9.5-.6-.6-.9-.2h-.2v-.3l1.1-.5c-.1-.3-.5-.1-.7-.3s-.3-.5-.7-.4.6-.1.8-.4.4.4.7.4-.3-.7-.1-1.1l-.2-.2h.4z"/><path fill="#484848" d="M125.6 77.3c-.1.3-.6.2-.9.2l-.2-.2.6-.2z"/><path fill="#4b4b4b" d="M101.6 77.7l-.1-.8h.1v.8z"/><path fill="#cbcbcb" d="M139.6 77.8c-.2 0-.3-.2-.4-.3h.4c0 .1-.1.2 0 .3z"/><path fill="#484848" d="M150.9 78.2c.1.3 0 .6-.3.6l-.4-.2c0-.2.3-.1.3-.3a1 1 0 0 0-.4-.7c.3 0 .6.3.8.6zm-3.9-.5c-.3.2-.9.5-.9.9a.4.4 0 0 0 .4.4h.1a.8.8 0 0 1-.9.3.6.6 0 0 1-.1-.7c.2-.6.8-.8 1.4-.9zm-32.8-.3h-.1s.1-.1.1 0z"/><path fill="#cbcbcb" d="M109.5 77.5c0 .1-.1.4.1.5a1.4 1.4 0 0 1 1.1-.3c-.2.2-.5.5-.3.8s1 .9 1.7.7a.7.7 0 0 1-.4.5.6.6 0 0 1-.6-.3c-.2.3-.6.3-.9.3s.4-.1.3-.3-1 .6-1.7.3.3-.2.5-.3-.9.1-1.4.3h-2.1c-.2-.2-.4-.4-.7-.3s.6 0 .8-.3.6.2.8.1-.3-.1-.3-.4a.2.2 0 0 0-.1-.3h-.3c.1-.2.4-.2.6-.1s.6.2.7.6.9-.2 1.5 0h1c-.3-.5-1.3-.6-.9-1.3s.3-.4.6-.2z"/><path fill="#484848" d="M130.2 78.5a.5.5 0 0 1-.3.7.7.7 0 0 1-.6-.3c.1 0 .3-.2.4-.4a.8.8 0 0 0-.7-.8 1.2 1.2 0 0 1 1.2.8zm-4.5-.8a1.4 1.4 0 0 0-.2.6l.3.2c-.2.3-.4.4-.7.3s-.2-.4-.1-.6a1.8 1.8 0 0 1 .7-.5z"/><path fill="#cbcbcb" d="M147 78.2c0 .2 0 .3-.1.3h-.1c-.1-.2.1-.3.2-.3zm-17.9.2h-.2v-.3c.1 0 .1.2.2.3z"/><path fill="#484848" d="M111.7 78.6c-.2.3-.5-.1-.7-.2s.1-.3.3-.4a.7.7 0 0 1 .4.6z"/><path fill="#cbcbcb" d="M108.2 78.7h-.5c-.2-.3.5-.3.2-.6s.2.3.3.6zm28.8-.3zm-19.6.5l-.3.4c-.3 0-.1-.3-.3-.3h-.3c.3.1.5-.5.9-.1z"/><path fill="#484848" d="M137.4 78.9c-.2.7.8.3.7.9a1.5 1.5 0 0 1-1 .2l-.9-.3c-.3.4.5.7.3 1.1s-.2-.4-.5-.3.2.6-.1.9 0-.5-.2-.5-.1.5-.5.6.2-.4-.1-.4-.4.6-.8.5.3-.3.1-.5-.6.8-.9.3h-.2c.2-.2.3-.5.7-.6s-.6-.2-.7-.5h-.2c.1-.3.5-.1.7-.1h.2c0-.2.1-.4-.1-.6s.3.3.6.3.5.5.8.6-.1-.5 0-.8.1-.8.5-.9 1.1.4 1.6.1z"/><path fill="#cbcbcb" d="M134.8 79.6c-.4.1-.7-.5-1.2-.2s.7 0 1-.4h.2z"/><path fill="#484848" d="M104.5 79.7c-.1-.1-.2-.2-.1-.3h.1zm11.5.3h-3.6c0-.2.1-.3.3-.4l.4.3c.9-.1 2 .3 2.7-.3s.1.3.2.4zm.8-.1z"/><path fill="#cbcbcb" d="M105.6 80.6h12.7a.8.8 0 0 1 .7.5c.1.1 0 .3.1.3a.5.5 0 0 1 .7-.1c.1.1.2.2.1.3a.6.6 0 0 0-.7.1c-.2.4-.4.8-.9.8h-5.7l.8.7c.2.3.5.7.8.6s.5-.7 1.1-.6-.2.5-.5.7.8-.4 1.1-.7l.3-.2c.1.4-.3.6-.4.8s.7-.9 1.3-.9-.3.4-.3.6.7-.4 1-.6 1.3.3 1.6-.3.1.2.1.3a.6.6 0 0 1-.6.3 3.8 3.8 0 0 0 .1 1.5c.1.1.3 0 .5 0s.5.4.6.7-.4-.2-.6-.2a.2.2 0 0 1-.4.1c-.2-.2-.4-.5-.6-.4s0 .5-.3.6-.4-.2-.5.1v.2c-.4-.8 1.2-1.4.3-2.1a21 21 0 0 0-3 1.5c-.7-.1-1.7.3-2.1-.5s-1.4-2-2.4-2.2h-.1c.2.3.5.4.7.6l-.9.2c.1-.1.2-.2.1-.3s-2.8.4-4.2.6a2.4 2.4 0 0 1 1-.5c-.1-.3-.4-.1-.5-.1s-1.6 2.1-3.1 1.7c.1.4-.1.8-.5.8h-.5c.6-.5 1.4-1.1 1.4-2a2.4 2.4 0 0 0 .8-.6c1.9-.4 3.6-1.1 5.7-1.1s4.7.2 7 .2c.6-.1-.2-.8.5-.5s-.2.6.3.6a.7.7 0 0 0 .6-.5c.1-.3-.2-.6-.4-.7h-3.8a1.1 1.1 0 0 1-1.4.4l.5-.2c-.2-.2-.8-.1-1-.1s-1 .4-1.5.4.4-.2.4-.4h-1c-.4.2-.8.7-1.4.4l.4-.3h-2.8c-.2.1-.4.4-.2.6l.2.2c-.1.3-.5.1-.6.1a.5.5 0 0 1-.2-.6c0-.1.2-.2.1-.3s-1.8 0-2.2-.8V80c.3.6 1 .6 1.7.6z"/><path fill="#484848" d="M147 80.7v.3h-.4c-.5.5.4 1 .5 1.5s-1.1-1.2-1.5-.4.2.2.1.3-.4 0-.5-.2.1-.5.4-.6h.2c-.3-.3-.7-.5-.7-1s.7.4 1.1.7.1-.7.4-.8a.9.9 0 0 1 .4.2zm-17.2 0c.1.2-.1.5.1.6a1.4 1.4 0 0 1 1-.7c0 .4-.4.7-.7.9s.7.1.7.6-.2.3-.3.4l-.5-.2c.1 0 .4-.2.2-.4s-.9.3-1.4.5 1.2-1 .5-1.5-.2 0-.3.1a.3.3 0 0 1 0-.5.4.4 0 0 1 .7.2z"/><path fill="#cbcbcb" d="M137.8 80.5c-.5.2-.2 1.5-.9.7v-.7z"/><path fill="#484848" d="M100.1 80.3c.1.1 0 .2-.1.3s-.3-.2-.4-.3zm-1.5 0c-.1.1-.5.4-.4 0z"/><path fill="#cbcbcb" d="M97.8 80.7c.2.2.1.5.3.7s.5-.6.9-.3.2-.1.2-.3-.2.7-.4 1-.4.2-.4.5 0 1.4.7 1.7.3 0 .3.2h-1.3c.1-.4-.5-.1-.7-.3s.2-.3.4-.4-.8-.2-.7-.6.5.1.7-.1a1.2 1.2 0 0 0-1.2-.7c-.2-.1-.3-.5-.7-.5a.1.1 0 0 1-.1.1c.1-.5.8-.1 1.1-.2s.3.3.5.1.1-1-.6-1.1.3-.2.4 0 .4.2.6.2zm3.9.3c.2-.1.1-.4.4-.5s.2.5.4.6.2-.4.4-.3 0 .5.1.6l.3-.2a.7.7 0 0 1 .1.6c-.2.3-.3-.4-.6-.2s.3.4.1.7-.7-.4-.8.1h-.2c-.2-.1.1-.3-.1-.4s-.7-.3-.4.3-.1.2-.3.2-.1-.2-.2-.3-.2.2-.4.1.1-.5-.1-.6l-.4.2c-.2-.1 0-.4 0-.7l.4.2a.8.8 0 0 1 .2-.7c.2 0 .3.3.4.4l.3-.6c.3.1.3.4.4.5zm38.5-.1l-.4.5a.9.9 0 0 0-.9-.1h-.2c-.1-.1-.1-.3-.2-.5a1.1 1.1 0 0 0 .8.3z"/><path fill="#484848" d="M138.3 81.7c-.1.3-.1.5-.4.6a.9.9 0 0 1-.1-1l.2-.3c.2.1.2.4.3.7z"/><path fill="#cbcbcb" d="M105.5 81.2a.9.9 0 0 1-.6.7h-.3c.3-.2.3-1 .9-.7z"/><path d="M102.3 81.3c-.2.2.2.4-.1.6a.8.8 0 0 0-1 0c-.4 0-.2-.4-.4-.5s.7.4 1.1 0 .3-.2.4-.1z"/><path fill="#484848" d="M104.3 81.4h-.3v-.2zm12.2.1zm-8.6 0h-.4c0-.1.3 0 .4 0zm29.6.8a1.1 1.1 0 0 0-.8-.2l-.2.3c-.2-.2-.3-.4-.2-.6l.3-.3c.5.1.7.5.9.8zm2.1-.4l-.2.4c-.1-.2-.2-.3-.4-.3l-.6.3c.2-.2.4-.7.8-.7s.4.1.4.3z"/><path fill="#cbcbcb" d="M140.7 82.3c0-.3.3-.2.5-.3l.6.5h-2l.2-.4a.6.6 0 0 0 .7.2z"/><path fill="#484848" d="M99.4 82c.1.1 0 .2-.1.3h-.1a.2.2 0 0 1 .2-.3z"/><path fill="#cbcbcb" d="M104.2 82.8a.4.4 0 0 1-.4.4c-.3.1-.5-.3-.7-.2a1.3 1.3 0 0 1 .2 1.2c-.2-.1-.4-.7-.7-.5s.2.4.2.7a.5.5 0 0 1-.2.6c-.2-.2-.1-.6-.5-.8s.1.4.1.5l-.3.8a.9.9 0 0 1-.2-1c-.1-.1-.2 0-.3.1s-.1.4-.2.6-.5-.2-.7-.5.1-.6 0-.8-.3.4-.4.6-.2-.2-.3-.4a.8.8 0 0 1 .3-.8c-.2-.1-.5.2-.7 0s-.3-.3-.2-.4h.4c.3-.2.2-.5.5-.6s.5.1.5.5.2-.1.3-.1 0 .7.3.9v.2h-.2c-.1.1-.1.2.1.3s.7-.5 1.1-.8-.1-.5.1-.6v.2c.2-.4.7-.3.9-.7s.6.7 1 .6z"/><path fill="#4b4b4b" d="M101.6 83.7c0-.4-.2-.7 0-1.1a2.1 2.1 0 0 1 0 1.1z"/><path fill="#cbcbcb" d="M96.4 83c.2.6.2 1.3.9 1.5h2.3a12.7 12.7 0 0 1 1.2 1h-1.4c0-.1.4-.2.4-.3s-.9.6-1.5.4.2-.3.3-.3.3 0 .3-.2-1 .7-1.7.4.4-.3.6-.4a2.9 2.9 0 0 0-1.3-.1c-.4.1-.4.7-.8.6s-.6-.3-.9-.2v.2c-.1-.5.7-.5.9-.9l.3-.2c-.2-.3-.8.1-.9-.5s-.2-.2-.4-.1v-.2c.3-.1.6.2.9-.1a.7.7 0 0 1 .5.4c.1-.3-.3-.5-.3-.8s.3-.6 0-.7h.2c.1.4.3.4.4.5z"/><path fill="#484848" d="M151.6 83.8a.8.8 0 0 1 0 .7.8.8 0 0 1-.9.3 1.1 1.1 0 0 1-.7-.3c.3 0 .7.1.9-.2a.4.4 0 0 0 .1-.5l-.3-.3a.7.7 0 0 1 .9.3zm-37.2-.7c0 .1-.1.2-.2.3l-.2-.2c0-.2.2-.1.4-.1zm10.8.5a.5.5 0 0 0-.3.7.7.7 0 0 0 .9.2.9.9 0 0 1-1.1.3c-.2 0-.4-.2-.5-.5a.9.9 0 0 1 .3-.7c.2-.2.4-.1.7 0z"/><path fill="#cbcbcb" d="M109.6 83.4c0 .1-.1.4.1.5a1.7 1.7 0 0 1 1.4-.3c-.2.1-.6.3-.6.6a2.6 2.6 0 0 0 1.2 1.1h.5c.1.2-.2.4-.4.4s-.7-.6-.8 0h-.7c0-.2.2-.2.3-.3s-.5.2-.8.3h-.7l.4-.2c-.4-.3-.7.2-1.1.3h-2.5c-.2-.1-.1-.5-.4-.4h-.3c.2-.4.8-.1 1.2-.2h.4c-.5-.1.1-.8-.5-.7s.6.3 1 .2 1.1.1 1.6.3.8.3 1.2.2a4.5 4.5 0 0 1-1.3-1c0-.6.4-1 .8-.8zm16 .7c-.1 0 0-.1 0-.1z"/><path fill="#cbcbcb" d="M108.2 84.4c.2.3-.1.5-.4.4h-.1c-.1-.3.5-.4.2-.7s.3.1.3.3z"/><path fill="#484848" d="M111.8 84.6c-.2 0-.4-.2-.6-.4s.4-.1.5.1.2.2.1.3zm39.8 1.6a1.3 1.3 0 0 1-1.2-.6l-.3-.6a2.3 2.3 0 0 1 1.5 1.2z"/><path fill="#cbcbcb" d="M117.5 84.8a.7.7 0 0 1-.4.5c-.3 0-.5-.2-.7 0s.5-.3.6-.6.3.1.5.1z"/><path fill="#484848" d="M149.8 86.2a.7.7 0 0 1-.8.3.9.9 0 0 1-.3-.7c.2-.1.5.2.7 0s.2-.3.3-.4a1.1 1.1 0 0 1 .1.8zm-25.4.2c0-.5.5-.9.9-1.1l.5-.2a1.7 1.7 0 0 1-1.4 1.3zm12.7-.7h.3a.6.6 0 0 1-.5.6.4.4 0 0 1-.4-.4l.2-.4c.1 0 .2.2.4.2zm2.3.1c0 .1-.1.2-.2.3a1 1 0 0 1-.8-.4.7.7 0 0 0 .6.1c.1-.4.4-.4.4 0z"/><path fill="#cbcbcb" d="M126.8 85.4h-.1c-.2 0-.1-.2 0-.2z"/><path fill="#484848" d="M138 86.2h-.1a.6.6 0 0 1-.1-.7h.1c.2.1.4.5.1.7zm-11.1-.3l.2-.2a.9.9 0 0 1 0 .7.6.6 0 0 1-.8 0 1 1 0 0 1-.2-.9c.2.2.4.6.8.4z"/><path fill="#4b4b4b" d="M152.5 88.2c.1 6.3.3 12.7-.9 18.8h-28.3V88.3h29.3z"/><path fill="#fff" d="M151.3 108.2H94l.3 1.4a59.5 59.5 0 0 0 10.8 22.9 54.4 54.4 0 0 0 17.5 15.5 61 61 0 0 0 28.7-39.8z"/><path fill="#4b4b4b" d="M93.7 107.1H122V88.3a6.9 6.9 0 0 0-2-.1H92.6V98a53.9 53.9 0 0 0 1.1 9.1z"/><path d="M117.2 89.8c.8 1.2.3 2.9-.2 4a1.5 1.5 0 0 1 .1 1.3 1.8 1.8 0 0 1-.9.8c-1.1 2.9-1.5 6.7.2 9.4a.2.2 0 0 1-.2.2c-1.3-.3-2.9-.3-3.8 1l-.3.2h-7l.9-1.5-.2-.2c-3.2-.9-6.5-3.5-7.5-6.8s-.9-5.7-1.1-8.5c.9-.4 1.8-.6 2.7-.9l3.3 2.1v1c.8.7 2.2.3 3.1-.1 3.3-1.1 6.3-4.5 10.2-2.7zm30.2.7a3.2 3.2 0 0 1 .7 3 2.8 2.8 0 0 1 2.5.2 2.3 2.3 0 0 1 .6 1.6 3.6 3.6 0 0 1-1.9 2.3c-.2.2.2.9-.4.7h-.3c-.2.6-.5 1.3-1.2 1.2s-.3.5-.5.7-.8.7-1.2.3a1.8 1.8 0 0 1-.6-.9 1.5 1.5 0 0 1-1.1-.8c.1-.6-.5-.4-.8-.5v-.8a3.3 3.3 0 0 1-1.9-2.1 2.2 2.2 0 0 1 1.1-2.1 2.7 2.7 0 0 1 1.8.1c-.4-1.6.7-3.2 2-4.1s.8.8 1.2 1.2zm-15.7 1.3a4.9 4.9 0 0 1-.1 1.7 2.8 2.8 0 0 1 2-.1 2.7 2.7 0 0 1 1 1.1 2.4 2.4 0 0 1-.6 2.3c-.3.6-1.4.5-1.2 1.4h-.6c-.2.6-.6 1.3-1.3 1.4a2.2 2.2 0 0 1-1.2.9 1.8 1.8 0 0 1-1.1-1 1.4 1.4 0 0 1-1.1-.9c.3-.7-.7-.2-.7-.6s-.8-.7-1.1-1.2a2.1 2.1 0 0 1-.8-2.3 1.7 1.7 0 0 1 1.1-1.1 1.9 1.9 0 0 1 1.8.1c.2-.4-.2-.8-.1-1.2a6 6 0 0 1 2-3.2 5.7 5.7 0 0 1 2 2.7z"/><path fill="#cbcbcb" d="M116.8 90.4a3.3 3.3 0 0 1-.3 2.9l-.9-.6a2 2 0 0 0 0-1.7 1.9 1.9 0 0 0-1.9-.5c-3.1 1-5.2 4.5-8.8 4a4.3 4.3 0 0 1-2.2-.6 5.8 5.8 0 0 1 .3-1.4c4.8 1.3 7.6-4.4 12.4-3.3a2.1 2.1 0 0 1 1.4 1.2zm30.7 3.2a8 8 0 0 0-.9 3c0 .2.3.2.4.2a3.1 3.1 0 0 1 1.5-2.8 1.4 1.4 0 0 1 1.7.2 1.5 1.5 0 0 1 .4 1.4 2.5 2.5 0 0 1-1.2 1.3c0-.4 0-.9-.3-1.1a.8.8 0 0 0-.9-.1 1.3 1.3 0 0 0-.6.9c.2.3.7.1 1 .2v.9H147c-.1.1 0 .3 0 .4a.8.8 0 0 0 .8.3.6.6 0 0 1-.4.6.7.7 0 0 1-.6-.1c0 .4 0 .9-.5 1.1s-.6-.2-.7-.5.1-.4 0-.7a.8.8 0 0 1-.9.1.5.5 0 0 1-.3-.5c.3 0 .6.1.8-.1a.5.5 0 0 0 .3-.5c-.5-.2-1.2 0-1.7-.2v-.8c.3-.1 1 .2.9-.3s-.3-.8-.7-.9-.9 0-1 .4v.8a2 2 0 0 1-1.2-1.5 1.3 1.3 0 0 1 .5-1.2 1.6 1.6 0 0 1 1.2-.3c1 .1 1.5 1.2 1.8 2.1s-.2.9.3.8.2-.1.2-.1c.2-2-2.1-3.4-.8-5.4.4-.4.7-1 1.1-1.4s2.2 2.3 1.4 3.8zm-16.2-.9c-.3 1.3-1.1 2.5-1.1 4h.3A3.5 3.5 0 0 1 132 94a1.9 1.9 0 0 1 1.3-.2 1.7 1.7 0 0 1 .8 1.6 1.9 1.9 0 0 1-1.1 1.5 1.2 1.2 0 0 0-.2-1c-.1-.2-.4-.3-.6-.4a1.4 1.4 0 0 0-.9.9c0 .1-.1.2 0 .3s.9 0 .8.4v.5h-1.6a.4.4 0 0 0 .1.5.8.8 0 0 0 .8.3c-.1.2-.2.5-.5.6l-.5-.2a1.2 1.2 0 0 1-.5 1.2c-.3-.1-.6-.2-.7-.6s0-.4-.1-.6-.5.3-.7.1-.3-.3-.3-.5a.7.7 0 0 0 .9-.4.2.2 0 0 0 0-.3h-1.6c-.1-.3 0-.6-.1-.8h1a.8.8 0 0 0-.3-.8c-.3-.3-.6-.5-1-.3a.7.7 0 0 0-.4.6v.6a2 2 0 0 1-1.1-1.1 1.3 1.3 0 0 1 0-1.2c.2-.5.6-.6 1-.8a1.6 1.6 0 0 1 1.4.4 4.1 4.1 0 0 1 1.1 2.6h.3a6.2 6.2 0 0 0-.2-1.9c-.3-1-1.2-1.9-.7-3a5.6 5.6 0 0 1 1.4-2 3.7 3.7 0 0 1 1.5 2.7zM102.8 103c-4.5-2.8-5.2-7.9-4.9-12.9l1.7-.5c-.2 4.8-.2 9.9 3.2 13.4z"/><path fill="#cbcbcb" d="M102.5 91.1c-.3 2.3-.8 4.9-.2 7.1a7.9 7.9 0 0 0 5.5 5.8c.6.2 1.5 0 1.8.7a.5.5 0 0 1-.3.5 10.6 10.6 0 0 1-4.6-1.3c-3.6-2.2-4.8-6.3-4.8-10.2a25 25 0 0 1 .3-4zm12.7.1a2.3 2.3 0 0 1-.1 1.4c-.2.1-.5 0-.7 0a1.7 1.7 0 0 0-.1-1.2c-.1-.2-.4-.3-.7-.4a1.4 1.4 0 0 1 1.6.2z"/><path fill="#4b4b4b" d="M113.9 92c.3 1.1-1.3.7-1.4 1.7a2.7 2.7 0 0 0 0 .9 8.1 8.1 0 0 1-1.6-1.6 15.9 15.9 0 0 1 2.1-1.5 1.1 1.1 0 0 1 .9.5z"/><path d="M138.1 93.2c1.3 1.2 2.6 2.7 2.1 4.7a2.7 2.7 0 0 1 2.8.6 2.6 2.6 0 0 1 .4 2 4.1 4.1 0 0 1-2 2.1c-.2.2-.1.5-.1.8h-.8a1.8 1.8 0 0 1-.8 1.1c-.6-.1-.5.6-.7.9a1.7 1.7 0 0 1-1.1.6 1.8 1.8 0 0 1-1.1-1.3c-.3-.1-.8-.1-1-.4s-.2-.7-.5-1-.6.2-.6-.1v-.7a3.1 3.1 0 0 1-2-2 2.3 2.3 0 0 1 .5-2.4 2.6 2.6 0 0 1 2.7-.1c-.6-2 .5-3.6 2-4.9z"/><path fill="#cbcbcb" d="M116.5 94.1a.9.9 0 0 1-.1.9c-.1.1-.2.3-.3.3a1.4 1.4 0 0 0-.6-1.1 2.2 2.2 0 0 0-1.6-.3l-.7.4c-.2-.2 0-.6.1-.7a1.8 1.8 0 0 1 2-.3 2.5 2.5 0 0 1 1.2.8z"/><path fill="#fff" d="M113.1 96.3a.2.2 0 0 1-.2.2l-2.9-2.9c.1-.1.3-.2.4-.1z"/><path fill="#cbcbcb" d="M139.1 95.3c1.8 2.2-1.1 4-.6 6.4h.4a5.9 5.9 0 0 0 .2-1.3c.2-.8.7-1.9 1.7-2.1a2 2 0 0 1 1.3.2 1.8 1.8 0 0 1 .7 1.9c-.2.6-.6 1.3-1.3 1.4s.1-1-.3-1.2a.9.9 0 0 0-1-.1 1.2 1.2 0 0 0-.5 1.1c.3.2.7.1 1 .2v.9h-2a.4.4 0 0 0 .1.5.8.8 0 0 0 1 .2.7.7 0 0 1-.4.7h-.7a1.4 1.4 0 0 1-.3 1.1c-.2.2-.6.3-.7 0s-.3-.8-.3-1.2a.9.9 0 0 1-1.1.1.6.6 0 0 1-.2-.7.6.6 0 0 0 .8 0 .9.9 0 0 0 .3-.6l-1.8-.2c-.1-.2 0-.6-.1-.9s1.1.2 1.2-.3a1.4 1.4 0 0 0-1-1.1.8.8 0 0 0-.9.3c-.6.2.4 1.7-.7.9a2.1 2.1 0 0 1-.8-1.6 1.5 1.5 0 0 1 .7-1.4 2 2 0 0 1 2.1.2 3.3 3.3 0 0 1 1.2 2.8c.1.2.3.1.4.1s0-.8-.1-1.2-1.8-3.2-.7-4.9a3.1 3.1 0 0 1 1.2-1.6 3 3 0 0 1 1.2 1.4z"/><path fill="#fff" d="M112.7 97.3c0 .1-.1.1-.2.2s-2.3-2.2-3.4-3.4.2-.2.4-.1z"/><path fill="#cbcbcb" d="M114.6 94.5c-.7 2.6-1.6 5.1-2.2 7.8l-.9 3.7h-5.2a4.3 4.3 0 0 1 .4-.7c1 0 1.9.5 2.9.2s.4-.5.5-.8-1.5-.7-2.2-1.2a2.6 2.6 0 0 1 .5-.9l1.7 1.6h.3c1.2-2.6 2.2-5.3 3.4-7.9 0-.5-1.2-.9-.6-1.3a1.5 1.5 0 0 1 1.4-.5z"/><path fill="#fff" d="M112.2 98.3c.1.1 0 .3-.2.2a37.8 37.8 0 0 1-4-4h.4z"/><path fill="#cbcbcb" d="M115.6 95.1c-.2 2.1-1.1 3.9-.9 6.1a22.9 22.9 0 0 0 .7 3.6 4 4 0 0 0-3.3 1 18.5 18.5 0 0 1 .4-2.3 42.6 42.6 0 0 1 2.6-8.8.7.7 0 0 1 .5.4z"/><path fill="#fff" d="M111.7 99.4c.1.2 0 .4-.2.3s-3.3-3.1-4.7-4.7c.1-.1.3-.2.4-.1zm-.9 2.3a.2.2 0 0 1-.2.2c-2.4-2.3-4.6-4.5-6.9-6.9h.6zm.5-1.2a.2.2 0 0 1-.2.2c-1.9-1.7-3.8-3.6-5.6-5.5.1-.1.3-.2.4-.1zm-1.1 2.2c.1 0 .1.1.1.2h-.2l-7.4-7.3a.4.4 0 0 1 0-.5z"/><path fill="#4b4b4b" d="M148.7 96.2h-.2c-.1-.1.2-.1.2-.1zm-4.8 0h-.3a.2.2 0 0 1 .3 0zm-16.4 0h-.2s.1-.1.2 0zm-19.5 5.9a3.3 3.3 0 0 1-.6 1 4.8 4.8 0 0 1-1.9-.9 7.5 7.5 0 0 1-2.8-5.2h.1zm32.8-1h-.4c0-.2.3-.2.4 0zm-5.3 0z"/><path d="M141.5 112.3a19.4 19.4 0 0 0 2.4.2c-.4.9-1 1.7-1.4 2.5.3-.1.5-.4.8-.6a6.5 6.5 0 0 1 .4 2c1 .2 2.1 0 3 .1s-1.1 2-1.6 3.1l1.2 1.2h-.1l-5.5 2.4a19.7 19.7 0 0 0 .3 2.4h-.1L137 124a52.3 52.3 0 0 1-4.9 8.2c-2.9 4.1-8.6 7.5-7.7 13.1v.9a3.9 3.9 0 0 1-3.5-.1c.2-1.7.4-3.5-.5-5-2.4-4.4-6.8-7.5-9.3-11.9a31 31 0 0 1-2.7-5.1c-1.4.5-2.7 1.4-4.1 1.9a19.7 19.7 0 0 1 .3-2.4c-1.8-.9-3.8-1.6-5.6-2.4v-.2l1.1-1.2c-.4-1.1-1.1-2-1.5-3h3l.3-2c.4.1.7.6 1.1.8s-1.1-1.9-1.6-2.8h2.3c.3-1.3.4-2.5.6-3.8h.1c.8.7 1.7 1.8 2.6 2.7h.1a11.3 11.3 0 0 1 2-1.3l.3 2.9c.2-.3.3-.9.5-1.3l1.5 1.5 2.2-1.7h.1l.4 3.5a8.8 8.8 0 0 0 1.6.2v.3l-3.1 5.2c.5.7 1.1 1.3 1.6 1.9l-3.9.7c2 5.8 7.1 10.1 11.3 14.5a74.2 74.2 0 0 0 .1-8.2c-1.6.1-3.1.6-4.8.6l1.3-2.5-4.7-4.1v-.2l1.3-.8c-.2-1.2-.5-2.4-.8-3.6h.1l2.9 1.1c.4-.6.6-1.3 1-1.9s.6.8 1 1.2h.1l-1-4.4h.1l2.1.7.2-.3c.7-1.2 1.3-2.5 2-3.8.9 1.3 1.5 2.7 2.3 4.1h.1l2-.7v.2c-.4 1.4-.7 2.9-1 4.4h.1l1.1-1.5.9 1.9 3-.9a34 34 0 0 0-.7 3.4l1.4 1.1-4.8 4.3 1.3 2.3h-.1l-4.5-.6h-.1l.2 8.1h.1c2.7-3.3 6.3-6 8.6-9.6a28.8 28.8 0 0 0 2.4-5h-.2l-3.6-.5c-.2-.2 0-.3.1-.5l1.4-1.4-.2-.5-3-5.1c.5-.2 1 0 1.5-.2s.2-2.5.4-3.7c.9.5 1.7 1.3 2.6 1.8l1.3-1.5a5.8 5.8 0 0 1 .5 1.4c.2-1 .1-2.1.2-3.1s1.4.9 2.2 1.2 1.7-1.9 2.6-2.7z"/><path fill="#484848" d="M140.9 113a12.4 12.4 0 0 0 1.8.2l-2.2 3.8.2.3a14.3 14.3 0 0 0 2.2-1.5c.2.5.1 1 .3 1.5s1.5-.1 2.3 0a25.3 25.3 0 0 1-1.2 2.3c0 .4.6.7.8 1.1l-5.1 2.2h-.1l.2 1.6-3.4-1.6-.2.2c-2 5.9-6.5 10.6-10.7 15.4a10.1 10.1 0 0 0-2.1 7.1 1.9 1.9 0 0 1-1.8 0 9.7 9.7 0 0 0-2.2-7.2c-2.6-3.3-6.1-6.3-8.2-10a22.7 22.7 0 0 1-2.7-5.4h-.3l-3.3 1.6.3-1.6c-1.7-.9-3.5-1.5-5.2-2.3.2-.4 1-.7.7-1.2l-1.2-2.1h2.4c.2-.4.1-1 .3-1.4l2.1 1.6h.4v-.4l-2.2-3.7h1.8c.1-1 .3-2 .5-3l2 2.1h.2l1.4-.8.4 4.5h.3l.2-.2.8-2.7 1 1a21.4 21.4 0 0 0 1.9-1.3c.2.9.2 1.9.4 2.9l1.1.2c-.9 1.7-1.9 3.4-2.9 5.1a12.7 12.7 0 0 0 1.1 1.3c-1.1.3-2.3.2-3.4.6 1.7 5.7 6.6 10.3 11 14.7a25.3 25.3 0 0 1 1.8 2.7h.1v-11.5h-.2l-4 .5a14 14 0 0 1 .9-1.7l-4.5-4c.3-.3.8-.4 1-.8l-.6-2.7c.8.1 1.5.6 2.4.7l.7-1.4c.8.8 1.2 1.9 2.1 2.6s.1-.3.1-.4l-1.2-5.7 1.6.5c.7-1.1 1.2-2.4 1.9-3.5.7 1.1 1.2 2.3 1.8 3.4a7.5 7.5 0 0 0 1.6-.4c-.3 2-.9 3.8-1.1 5.8 0 .1 0 .3.2.2h.1a23.5 23.5 0 0 1 1.9-2.5l.6 1.3c.8-.1 1.6-.5 2.5-.6a21.4 21.4 0 0 0-.6 2.7l1.1.7c-1.5 1.5-3 2.7-4.5 4.1.1.6.7 1.1.9 1.7-1.4 0-2.8-.3-4.1-.4h-.1l.2 11.2c.2.1.2-.1.3-.2 1.6-3.5 5-5.6 7.5-8.6a30.8 30.8 0 0 0 4.9-8.6.2.2 0 0 0-.2-.2l-3.3-.4v-.2l1.1-1.2-3-5c.3-.2.9 0 1.1-.3l.3-2.9h.1l1.9 1.4c.5-.2.7-.8 1.1-1l.8 2.8h.3v-.3l.4-4.4 1.4.9h.2l2-2.2h.1z"/><path fill="#cbcbcb" d="M139.5 113.3c-.6 2.5-1.4 4.9-2 7.4h.3l5.5-2.5h.1l-5.5 3.4a5.5 5.5 0 0 1 1.3 1.8 5.4 5.4 0 0 0-5.4-1.8 6.2 6.2 0 0 1 1.9-.7v-.3c-.7-1.8-1.6-3.5-2.2-5.4 1.1 1.6 2 3.5 3.1 5.2l.2-.3c.9-2.3 1.7-4.6 2.7-6.9zm-30.7 7.1c1.1-1.7 2-3.4 3.1-5.2h.1c-.8 1.8-1.6 3.7-2.3 5.6.6.3 1.4.3 1.9.8a7.2 7.2 0 0 0-2.9.1 5.6 5.6 0 0 0-2.4 1.7h-.1a3.2 3.2 0 0 1 1.3-1.8l-.4-.3-4.9-3.1 5.7 2.4v-.2c-.6-2.4-1.5-4.8-2-7.2 1 2.4 1.8 4.9 2.9 7.2zm14-4.1l.3 10 5.2-4.2c-1.3 1.6-3.1 3.1-4.5 4.8.6.4 1.5.7 1.9 1.5-1.1-.6-2.4-1.4-3.8-.9a10 10 0 0 0-2.1 1c0-.5.6-.7.9-1l1-.6c-1.4-1.6-3.2-3-4.6-4.6h.1l5 4.1h.1l.2-10.1c.2-.3.3-.1.3 0zm25.7-32.4h-21.2V70.7h21.2zm-20.9-.3h20.6V71h-20.6z"/><path d="M185.3 87.7a7.9 7.9 0 0 0-2.4-.5 4.3 4.3 0 0 0-2.7.8 2.8 2.8 0 0 0-1 2.3 3.2 3.2 0 0 0 .3 1.4 5.2 5.2 0 0 0 1 1.1l1.3.9 1.6.7 1.7.8 1.5 1a3.6 3.6 0 0 1 1 1.4 3.4 3.4 0 0 1 .4 1.8 4.4 4.4 0 0 1-1.9 3.9 9.3 9.3 0 0 1-5.2 1.3 14.8 14.8 0 0 1-4.4-.7h-.1l.6-4.3h.6l.9 3.6a6.6 6.6 0 0 0 2.7.6 4.5 4.5 0 0 0 3-.9 2.8 2.8 0 0 0 1.1-2.4 3.3 3.3 0 0 0-.4-1.4 3.1 3.1 0 0 0-.9-1.1l-1.3-.8-1.5-.7-1.8-.8-1.5-1a5.8 5.8 0 0 1-1.1-1.5 5.9 5.9 0 0 1-.4-2 4.1 4.1 0 0 1 1.9-3.5 8.2 8.2 0 0 1 4.8-1.3 21.8 21.8 0 0 1 4.2.5h.1l-.8 3.9h-.5zm7.3 3.4h7.7l-.7 3.6h-.5l-.7-2.7h-4.6v5h2.6a.5.5 0 0 0 .5-.3l.3-1.4h.7c0 .9-.1 1.7-.1 2.2s.1 1.3.1 2.3h-.7l-.3-1.4c-.1-.3-.2-.4-.5-.4h-2.6v5.2h4.7l1.4-2.9h.5l-.3 4h-10.4v-.5l1.5-.4c.2-.1.3-.2.3-.4V92.4c0-.2-.1-.3-.3-.4l-1.5-.4V91zm13.1 3.2v6.3a15.5 15.5 0 0 0 .1 2.3.5.5 0 0 0 .3.5l1.4.4v.5h-4.8v-.5l1.5-.4c.2-.1.3-.2.3-.4V92.4c0-.2-.1-.3-.3-.4l-1.5-.4V91h3.3l8 9.3v-5.9c0-.8-.1-1.5-.1-2s-.1-.4-.3-.4l-1.4-.4V91h4.8v.6l-1.5.4c-.2.1-.3.2-.3.4s-.1 1.2-.1 2v9.9h-.9zm15.4 8.7a.4.4 0 0 0 .1.3h.3l1.1.4v.5h-5.1v-.5l1.2-.4c.3-.1.6-.2.7-.4a3 3 0 0 0 .5-1l4.8-11 1.1-.2 4.1 11.1.5 1.1.7.4 1.2.4v.5h-6.1v-.5l1.2-.4h.3a.4.4 0 0 0 .1-.3 2 2 0 0 0-.1-.7c-.1-.2-.2-.6-.4-1l-.6-1.6h-4.4l-.6 1.6a5.1 5.1 0 0 1-.4 1 2 2 0 0 0-.2.7zm3.5-9l-1.9 4.6h3.5zm13.9 10.3h-3.1v-.5l1.7-.5c.2 0 .3-.2.3-.4V92.1H234l-1.1 3.2h-.5l-.3-4.3h13.1l-.8 4.2h-.5l-.7-3.3h-3.5v10.8c0 .2.1.4.3.4l1.7.5v.5zm11.6-13.2h7.7l-.7 3.6h-.5l-.7-2.7h-4.7v5h2.7a.5.5 0 0 0 .5-.3l.3-1.4h.6v4.5h-.6l-.4-1.4a.4.4 0 0 0-.4-.4h-2.7v2.6a22.6 22.6 0 0 0 .1 2.6h4.7l1.3-2.9h.6l-.3 4h-10.4v-.5l1.5-.4c.2-.1.3-.2.3-.4V92.4c0-.2-.1-.3-.3-.4l-1.5-.4V91zM8.9 87.6a7.9 7.9 0 0 0-2.4-.5 3.8 3.8 0 0 0-2.7.9 2.6 2.6 0 0 0-1 2.2 3.7 3.7 0 0 0 .3 1.5l1 1.1 1.3.8 1.6.7 1.7.8 1.5 1a4.5 4.5 0 0 1 1 1.4 3.6 3.6 0 0 1 .4 1.9 4.4 4.4 0 0 1-1.9 3.8 9.3 9.3 0 0 1-5.2 1.3 18.5 18.5 0 0 1-4.4-.6H0l.6-4.4h.6l.9 3.6a8.6 8.6 0 0 0 2.7.5 5.1 5.1 0 0 0 3-.8 3 3 0 0 0 1-2.4 3.7 3.7 0 0 0-.3-1.5 2.8 2.8 0 0 0-.9-1 5.7 5.7 0 0 0-1.3-.9l-1.6-.7-1.7-.9-1.5-1A7.6 7.6 0 0 1 .4 93a4.5 4.5 0 0 1-.4-2 4.1 4.1 0 0 1 1.9-3.6 9 9 0 0 1 4.8-1.3 21.8 21.8 0 0 1 4.2.5h.1l-.8 4h-.5zm7.3 3.4h7.7l-.7 3.5h-.5l-.7-2.4h-4.6V97H20a.5.5 0 0 0 .5-.3l.3-1.4h.7c0 1-.1 1.7-.1 2.3s.1 1.2.1 2.2h-.7l-.3-1.4a.5.5 0 0 0-.5-.4h-2.6v5.2h4.7l1.4-2.9h.5l-.3 4.1H13.3v-.5l1.5-.4c.2-.1.3-.2.3-.4V92.4a.5.5 0 0 0-.3-.5l-1.5-.4V91zm3.4-6h2.5l-3 4.7h-.9zm9.7 9.2v6.3a16.3 16.3 0 0 0 .1 2.4c0 .2.1.3.3.4l1.4.4v.5h-4.8v-.5l1.5-.4c.2-.1.3-.2.3-.4V92.4c0-.3-.1-.4-.3-.4l-1.5-.5V91h3.4l8 9.2v-5.9c0-.8-.1-1.5-.1-2s-.1-.3-.3-.4l-1.4-.4V91h4.8v.5l-1.5.5c-.2 0-.3.1-.3.4s-.1 1.1-.1 1.9v9.9h-.9zm15.4 8.7a.4.4 0 0 0 .1.3l.3.2 1.1.3v.5h-5v-.5l1.2-.3a1.3 1.3 0 0 0 .7-.5 3.6 3.6 0 0 0 .5-.9l4.8-11.1h1.1l4.1 11a3.8 3.8 0 0 0 .5 1.1 1.8 1.8 0 0 0 .7.5l1.2.3v.5h-6.2v-.5l1.1-.3.4-.2a.4.4 0 0 0 .1-.3 1.3 1.3 0 0 0-.1-.6 7.6 7.6 0 0 0-.4-1.1l-.6-1.5h-4.5l-.6 1.5-.4 1.1a1.3 1.3 0 0 0-.1.5zm3.5-9l-1.9 4.7h3.5zm13.9 10.3H59v-.5l1.7-.5a.3.3 0 0 0 .3-.3V92.1h-3.5l-1.1 3.2h-.5l-.3-4.2h13.1l-.8 4.2h-.5l-.7-3.2h-3.5v10.8a.3.3 0 0 0 .3.3l1.7.5v.5zm40.1 90.3h-.3l-.4-1.7-1.5-.2a3 3 0 0 0-2.4 1.1 4.3 4.3 0 0 0-.9 2.8 4.2 4.2 0 0 0 1 3 3.8 3.8 0 0 0 2.8 1.1 5.2 5.2 0 0 0 2.1-.4v.3a4.6 4.6 0 0 1-2.8.8 4.5 4.5 0 0 1-3.3-1.2 4.2 4.2 0 0 1-1.3-3.3 4.3 4.3 0 0 1 1.4-3.4 4.8 4.8 0 0 1 3.6-1.3l2.2.2h.1zm6.3-2.3l2.8 7.8.3.6.3.2.6.2v.2h-3.2v-.2l.6-.2h.2v-.2a.4.4 0 0 0-.1-.3c0-.2-.1-.3-.1-.6l-.6-1.7h-3.1l-.7 1.7c-.1.3-.1.5-.2.6s-.1.2-.1.3v.2h.8v.3h-2.8v-.1l.7-.2.3-.3a1.1 1.1 0 0 0 .3-.5l3.2-7.7zm-2.1 5.2h2.6l-1.2-3.5zm8.7-3.3v6.4c0 .1 0 .2.1.2l.8.2v.3h-2.6v-.2l.8-.3.2-.2v-7.4l-.2-.3-.7-.2v-.3h1.9l5.4 6.7v-4.9c0-.4-.1-.8-.1-1.1v-.2l-.8-.2v-.3h2.6v.3l-.8.2-.2.3v8.1h-.5zm12.4-1.9l2.9 7.8a3.3 3.3 0 0 0 .3.6l.3.2.6.2v.2h-3.2v-.2l.6-.2h.1v-.2a.4.4 0 0 0-.1-.3c0-.2-.1-.3-.2-.6l-.6-1.7h-3l-.7 1.7c-.1.3-.1.5-.2.6s-.1.2-.1.3v.2h.8v.3h-2.8v-.1l.6-.2.4-.3a.6.6 0 0 0 .2-.5l3.3-7.7zm-2 5.2h2.6l-1.2-3.5zm8.6 3.8h-1.6v-.2l.8-.3.2-.2v-7.4l-.2-.3-.8-.2v-.3h4a4.9 4.9 0 0 1 3.4 1 4.1 4.1 0 0 1 1.1 3 5.3 5.3 0 0 1-1.2 3.7 5 5 0 0 1-3.5 1.3h-2.2zm.6-.5h1.5a3 3 0 0 0 2.5-1 4.1 4.1 0 0 0 .9-3 4.6 4.6 0 0 0-.8-2.9 3.3 3.3 0 0 0-2.7-1h-1.4zm11.3-8.5l2.8 7.8a3.3 3.3 0 0 0 .3.6l.3.2.6.2v.2h-3.2v-.2l.6-.2h.2v-.2a.4.4 0 0 0-.1-.3c0-.2-.1-.3-.1-.6l-.6-1.7h-3.1l-.7 1.7c-.1.3-.1.5-.2.6s-.1.2-.1.3v.2h.8v.3h-2.8v-.1l.7-.2.3-.3a1.1 1.1 0 0 0 .3-.5l3.2-7.7zm-2.1 5.2h2.7l-1.3-3.5z"/></svg>