<?xml version="1.0" encoding="utf-8"?>
<!-- Generator: Adobe Illustrator 23.0.0, SVG Export Plug-In . SVG Version: 6.00 Build 0)  -->
<svg version="1.1" id="Layer_1" xmlns="http://www.w3.org/2000/svg" xmlns:xlink="http://www.w3.org/1999/xlink" x="0px" y="0px"
	 width="360px" height="144px" viewBox="0 0 360 144" style="enable-background:new 0 0 360 144;" xml:space="preserve">
<style type="text/css">
	.st0{fill:#B1B3B6;}
	.st1{fill:#6D6E71;}
</style>
<g>
	<g>
		<path class="st0" d="M68.9,63.2c0,3.6-1.4,7-4.1,9.4c2.6,2.3,4.1,5.8,4.1,9.3v16.7c0,1-0.9,1.9-1.9,1.9h-3.6
			c-1-0.1-1.7-0.9-1.7-1.9V81.9c0-3.2-2.6-5.8-5.8-5.8h-5.6v22.5c0,1-0.7,1.7-1.7,1.9h-3.6c-1,0-1.9-0.9-1.9-1.9V48.5
			c0-2,1.6-3.6,3.6-3.6h9.3c7.1,0,12.9,5.8,13,12.9V63.2z M61.6,57.7c-0.1-3.2-2.6-5.6-5.8-5.6h-5.6V69h5.6c3.2,0,5.8-2.6,5.8-5.8
			V57.7z"/>
		<path class="st0" d="M83.1,52.1V69h9.7c1-0.1,1.7,0.6,1.9,1.6v0.1v3.6c0,1-0.7,1.7-1.7,1.7h-0.1h-9.7v17.1h9.7
			c1,0,1.7,0.7,1.9,1.7v3.6c0,1-0.9,1.9-1.9,1.9H79.4c-2,0-3.6-1.6-3.6-3.6V48.5c0-2,1.6-3.6,3.6-3.6h13.3c1,0,1.9,0.9,1.9,1.9v3.6
			c0,1-0.7,1.7-1.7,1.7h-0.1L83.1,52.1z"/>
		<path class="st0" d="M108.8,52.1V69h9.7c1-0.1,1.7,0.6,1.9,1.6v0.1v3.6c0,1-0.7,1.7-1.7,1.7h-0.1h-9.7v22.5c0,1-0.9,1.9-1.9,1.9
			h-3.5c-1,0-1.9-0.9-1.9-1.9V48.5c0-2,1.6-3.6,3.6-3.6h13.3c1,0,1.9,0.9,1.9,1.9v3.6c0,1-0.7,1.7-1.7,1.7h-0.1L108.8,52.1z"/>
		<path class="st0" d="M151.3,46.7v40.7c0.7,7.1-4.5,13.6-11.6,14.3c-7.1,0.7-13.6-4.5-14.3-11.6c-0.1-0.9-0.1-1.9,0-2.8V46.7
			c0-1,0.7-1.7,1.7-1.9h3.6c1,0,1.9,0.9,1.9,1.9v40.7c-0.1,3.2,2.3,5.6,5.5,5.8h0.3c3.2-0.1,5.6-2.6,5.6-5.8V46.7
			c0-1,0.9-1.9,1.9-1.9h3.5C150.4,44.8,151.3,45.7,151.3,46.7z"/>
		<path class="st0" d="M176.2,61.8v-3.9c0.1-3-2.3-5.5-5.4-5.6c-0.1,0-0.1,0-0.3,0c-3.2-0.1-5.6,2.3-5.8,5.5v0.1v29.7
			c0,3.2,2.6,5.8,5.8,5.8s5.6-2.5,5.6-5.6v-0.1V76.1h-3.9c-1,0-1.7-0.7-1.7-1.7v-3.6c0-1,0.7-1.7,1.7-1.7h9.3c1-0.1,1.7,0.6,1.9,1.6
			v0.1v16.8c0,7.1-5.8,12.9-12.9,12.9s-12.9-5.8-12.9-12.9V57.9c0-7.1,5.8-12.9,12.9-12.9s12.9,5.8,12.9,12.9v3.9
			c0,1-0.7,1.7-1.7,1.7h-0.1h-3.5c-1,0.1-1.7-0.6-1.9-1.6V61.8z"/>
		<path class="st0" d="M197.3,52.1V69h9.7c1-0.1,1.7,0.6,1.9,1.6v0.1v3.6c0,1-0.7,1.7-1.7,1.7h-0.1h-9.7v17.1h9.7
			c1,0,1.7,0.7,1.9,1.7v3.6c0,1-0.9,1.9-1.9,1.9h-13.3c-2,0-3.6-1.6-3.6-3.6V48.5c0-2,1.6-3.6,3.6-3.6h13.3c1,0,1.9,0.9,1.9,1.9v3.6
			c0,1-0.7,1.7-1.7,1.7h-0.1L197.3,52.1z"/>
		<path class="st0" d="M222.1,52.1V69h9.7c1,0,1.7,0.7,1.7,1.7v3.6c0,1-0.7,1.7-1.7,1.7h-9.7v17.1h9.7c1,0,1.7,0.7,1.7,1.7v3.6
			c0.1,1-0.6,1.7-1.6,1.9h-0.1h-13.3c-2,0-3.6-1.6-3.6-3.6V48.5c0-2,1.6-3.6,3.6-3.6h13.3c1,0,1.7,0.7,1.7,1.7v0.1v3.6
			c0,1-0.7,1.7-1.7,1.7L222.1,52.1z"/>
	</g>
	<path class="st1" d="M3.7,69c8,0,9-4.5,9-8.4c-0.1-3.2-0.4-6.2-0.9-9.4c-0.6-3-0.9-6.2-0.9-9.3c0-10.3,6.7-14.6,16.2-14.6h2.5v6.1
		h-2c-6.7,0-9,3.6-9,9.7c0.1,2.6,0.4,5.4,0.9,8c0.4,2.9,0.7,5.6,0.7,8.5c0.1,7.1-3,10.7-8,12v0.3c4.9,1.2,8.1,5.1,8,12.2
		c0,2.9-0.3,5.6-0.7,8.5c-0.4,2.6-0.7,5.4-0.9,8.1c0,6.2,2.6,9.7,9,9.7h2v6.2h-2.5c-9.3,0-16.2-4.1-16.2-15.4c0.1-3,0.4-6.2,0.9-9.3
		c0.4-3,0.7-6.1,0.9-9.1c0-3.5-1-8.3-9-8.3V69z"/>
	<path class="st1" d="M272.1,74.7c-8,0-9.1,4.8-9.1,8.3c0,3,0.4,6.1,1,9.1c0.4,3,0.7,6.2,0.9,9.3c0,11.3-7.1,15.4-16.4,15.4h-2.3
		v-6.2h1.9c6.4-0.1,9-3.5,9-9.7c-0.1-2.8-0.3-5.4-0.7-8.1c-0.6-2.8-0.9-5.6-0.9-8.5c0-7.1,3-11,8-12.2v-0.3c-4.9-1.3-8-4.9-8-12
		c0-2.9,0.3-5.8,0.9-8.5c0.4-2.6,0.6-5.4,0.7-8c0-6.1-2.3-9.6-8.8-9.7h-2v-6.1h2.3c9.6,0,16.4,4.3,16.4,14.6c0,3-0.3,6.2-0.9,9.3
		c-0.6,3-1,6.2-1,9.4c0,3.9,1.2,8.4,9.1,8.4V74.7z"/>
	<path class="st1" d="M304.5,76.6v11c0.7,7.1-4.5,13.6-11.6,14.3c-7.1,0.7-13.6-4.5-14.3-11.6c-0.1-0.9-0.1-1.9,0-2.8V58
		c0.7-7.1,7.2-12.3,14.3-11.6c6.1,0.6,11,5.5,11.6,11.6c0,1-0.7,1.7-1.7,1.7h-3.6c-1,0-1.7-0.7-1.7-1.7c0-3.2-2.6-5.8-5.8-5.8
		s-5.8,2.6-5.8,5.8v7.1c1.7-1,3.8-1.4,5.8-1.4C298.7,63.7,304.5,69.5,304.5,76.6z M297.4,76.6c0-3.2-2.6-5.8-5.8-5.8
		s-5.8,2.6-5.8,5.8v11c0,3.2,2.6,5.8,5.8,5.8s5.8-2.6,5.8-5.8V76.6z"/>
	<path class="st1" d="M323.2,48.8v50.1c0,0.9-0.9,1.7-1.7,1.7h-3.6c-1,0-1.7-0.7-1.7-1.7V52.2h-5.9c-1,0-1.7-0.7-1.7-1.7v-3.6
		c0-1,0.7-1.7,1.7-1.7h9.4C321.6,45.1,323.2,46.7,323.2,48.8L323.2,48.8z"/>
	<path class="st1" d="M356.2,63.4c0,3.6-1.4,7-4.1,9.4c2.6,2.5,4.1,5.8,4.1,9.3v5.5c0.7,7.1-4.5,13.6-11.6,14.3
		c-7.1,0.7-13.6-4.5-14.3-11.6c-0.1-0.9-0.1-1.9,0-2.8v-3.8c-0.1-1,0.6-1.7,1.6-1.9h0.1h3.6c1,0,1.9,0.9,1.9,1.9v3.8
		c-0.1,3.2,2.3,5.6,5.5,5.8h0.1c3.2,0.1,5.6-2.3,5.8-5.5c0-0.1,0-0.1,0-0.3v-5.5c-0.1-3.2-2.6-5.6-5.8-5.6c-1,0-1.7-0.7-1.7-1.7
		v-0.1v-3.5c-0.1-1,0.6-1.7,1.6-1.9h0.1c3.2,0,5.8-2.6,5.8-5.8V58c0-3.2-2.6-5.8-5.8-5.8s-5.6,2.5-5.6,5.6V58v3.9
		c-0.1,1-0.9,1.7-1.9,1.7h-3.6c-1,0-1.7-0.7-1.7-1.7V58c0.7-7.1,7.2-12.3,14.3-11.6c6.1,0.6,11,5.5,11.6,11.6V63.4z"/>
</g>
</svg>
