<svg height="189.9" viewBox="0 0 336.5 189.9" width="336.5" xmlns="http://www.w3.org/2000/svg"><path d="m146.7 94.8c-5.8-19.9-17.3-34.1-25.7-31.7-6.4 1.9-9.2 12.8-7.6 26.6a14.3 14.3 0 0 1 3.7-.8 16.2 16.2 0 0 1 6.1 31.7c5.8 10.3 13 16.4 18.8 14.7 8.4-2.5 10.5-20.6 4.7-40.5z" fill="#6d6e71"/><g fill="#b1b3b6"><path d="m134.8 103.5a16.2 16.2 0 0 0 -17.7-14.6 14.3 14.3 0 0 0 -3.7.8 86.7 86.7 0 0 0 2.8 14 85 85 0 0 0 7 16.9 16.3 16.3 0 0 0 11.6-17.1z"/><path d="m122 131.2-1.7-2.4-1.2-1.8-.4-.7c-.5-.8-1-1.6-1.4-2.4v-.2a84.7 84.7 0 0 1 -7.5-18.1 88.2 88.2 0 0 1 -2.8-11.9c-.1-1.1-.3-2.1-.4-3s-.1-.8-.1-1.1-.2-2-.2-3a1.7 1.7 0 0 1 -.1-.7 21.7 21.7 0 0 0 -.1-2.6v-.7c0-1 .1-2 .1-3v-.6l.3-2.9a35.5 35.5 0 0 1 1.3-6.5l-76.1 38a21 21 0 0 0 -10.8 24.7 21.2 21.2 0 0 0 22.7 15l5.4-.7 9.6 19.1a8 8 0 0 0 10.6 3.6 8.1 8.1 0 0 0 3.6-10.7l-7.1-14 61.9-7.5a40.2 40.2 0 0 1 -5.6-5.9z"/><path d="m162 66.2a9.3 9.3 0 0 1 -4.3-2.7 10.4 10.4 0 0 1 -2.3-4.7 9.4 9.4 0 0 1 .3-5.3 8.9 8.9 0 0 1 2.9-4.2 11.4 11.4 0 0 1 10.1-2 9 9 0 0 1 4.2 2.7 8.4 8.4 0 0 1 2.3 4.7 10.5 10.5 0 0 1 -.2 5.3 9.9 9.9 0 0 1 -2.9 4.1 10.8 10.8 0 0 1 -4.8 2.3 11.8 11.8 0 0 1 -5.3-.2zm6.8-5.4a4.8 4.8 0 0 0 1.5-2.2 4.8 4.8 0 0 0 .1-2.9 5.2 5.2 0 0 0 -1.2-2.6 4.8 4.8 0 0 0 -2.2-1.5 5 5 0 0 0 -2.7-.1 5.3 5.3 0 0 0 -2.5 1.2 4.8 4.8 0 0 0 -1.5 2.2 5.6 5.6 0 0 0 -.1 2.9 5 5 0 0 0 1.3 2.6 4.8 4.8 0 0 0 2.2 1.5 6.1 6.1 0 0 0 2.7.1 5 5 0 0 0 2.4-1.2z"/><path d="m174.7 45.2 8.1-1.7a7.7 7.7 0 0 1 5.5.7 5.9 5.9 0 0 1 2.9 4.3 6.5 6.5 0 0 1 -.9 5.2 8.3 8.3 0 0 1 -4.8 2.8l-3.5.7 1.1 5.5-4.7 1zm9.2 7.5a3.8 3.8 0 0 0 2.1-1 2.3 2.3 0 0 0 .4-2.2q-.3-1.5-1.2-1.8a3.5 3.5 0 0 0 -2.3-.1l-2.7.6 1 5.1z"/><path d="m191.5 41.8 13.1-2.7.8 3.9-8.4 1.7.7 3.5 6.1-1.3.8 3.7-6.2 1.3.7 3.4 8.5-1.7.8 4-13.1 2.6z"/><path d="m206.5 38.7 8.3-1.7a8 8 0 0 1 5.4.6 6.4 6.4 0 0 1 2.8 4.3 6.5 6.5 0 0 1 -.2 3.7 5.6 5.6 0 0 1 -2.1 2.7l4.6 5.8-4.8 1-4.1-5.2-2.7.5 1.2 5.8-4.7 1zm9.2 7.2a3.5 3.5 0 0 0 2.1-1 2.1 2.1 0 0 0 .4-2 2.1 2.1 0 0 0 -1.2-1.7 3.2 3.2 0 0 0 -2.2-.1l-2.9.6 1 4.8z"/><path d="m228.7 34.2 4.6-1 11.2 17-4.8 1-2.3-3.5-6.8 1.4-.7 4.1-4.8 1zm6.8 10.1-3.5-5.7-1 6.6z"/><path d="m243.8 35.2-5.2 1.1-.8-4 15.1-3.1.8 4-5.2 1 2.9 14.6-4.6.9z"/><path d="m254.9 28.8 4.7-.9 3.7 18.5-4.6.9z"/><path d="m269.9 44.2a9.3 9.3 0 0 1 -4.3-2.7 10.8 10.8 0 0 1 -2.3-4.8 9.5 9.5 0 0 1 .3-5.3 9.1 9.1 0 0 1 2.9-4.1 9.7 9.7 0 0 1 4.8-2.2 10.6 10.6 0 0 1 5.3.1 9.3 9.3 0 0 1 4.2 2.7 9.9 9.9 0 0 1 2.4 4.8 11.7 11.7 0 0 1 -.3 5.3 9.1 9.1 0 0 1 -2.9 4.1 9.7 9.7 0 0 1 -4.8 2.2 10.6 10.6 0 0 1 -5.3-.1zm6.9-5.4a4.6 4.6 0 0 0 1.4-2.2 5.8 5.8 0 0 0 -1.1-5.6 5.5 5.5 0 0 0 -2.2-1.4 4.9 4.9 0 0 0 -2.7-.1 5.3 5.3 0 0 0 -2.5 1.2 4.4 4.4 0 0 0 -1.5 2.2 6.9 6.9 0 0 0 -.1 2.9 5.8 5.8 0 0 0 1.3 2.6 4 4 0 0 0 2.2 1.4 5 5 0 0 0 2.7.1 4.4 4.4 0 0 0 2.5-1.1z"/><path d="m283.1 23.1 4.6-1 9.1 9.6-2.3-11 4.7-.9 3.8 18.5-4.6.9-9.1-9.6 2.3 11-4.7.9z"/><path d="m166.3 94.6a11.6 11.6 0 0 1 -3.5-.4l-1.1-5a12.6 12.6 0 0 0 3.8.6 10.5 10.5 0 0 0 3.6-.3 4.5 4.5 0 0 0 2.2-.9 1.3 1.3 0 0 0 .5-1.5 2.4 2.4 0 0 0 -.6-1.1l-1.4-.6-2.8-.6a11.1 11.1 0 0 1 -5-2 6.1 6.1 0 0 1 -2.2-3.5 6.2 6.2 0 0 1 .4-3.6 6.9 6.9 0 0 1 2.5-2.9 11.8 11.8 0 0 1 4.1-1.7 28.1 28.1 0 0 1 3.6-.4 18.6 18.6 0 0 1 3.3.4l.9 4.9a11.5 11.5 0 0 0 -5.8-.3 5.5 5.5 0 0 0 -2.3.9 1.7 1.7 0 0 0 .6 2.9l3.7.8a17.7 17.7 0 0 1 3.8 1.1 5.4 5.4 0 0 1 2.2 1.7 8.1 8.1 0 0 1 1.2 2.8 5.7 5.7 0 0 1 -1.3 5.2 10.3 10.3 0 0 1 -6.2 3 20.1 20.1 0 0 1 -4.2.5z"/><path d="m176.3 69.7 9.6-2a9.3 9.3 0 0 1 6.5.8 7.2 7.2 0 0 1 3.5 5.1 7.6 7.6 0 0 1 -1.1 6.2 9.6 9.6 0 0 1 -5.7 3.3l-4.1.8 1.3 6.5-5.5 1.2zm10.9 8.9a4.9 4.9 0 0 0 2.5-1.2 3.1 3.1 0 0 0 .5-2.6c-.3-1.1-.7-1.8-1.4-2.1a4.3 4.3 0 0 0 -2.8-.1l-3.2.6 1.2 6z"/><path d="m205.8 85.5a11.4 11.4 0 0 1 -5.1-3.2 10.9 10.9 0 0 1 -2.7-5.6 11.2 11.2 0 0 1 .3-6.3 11.8 11.8 0 0 1 3.4-4.9 12.4 12.4 0 0 1 5.7-2.6 11.8 11.8 0 0 1 6.2.2 10.6 10.6 0 0 1 5.1 3.2 11.8 11.8 0 0 1 2.7 5.6 10.8 10.8 0 0 1 -.3 6.2 10.6 10.6 0 0 1 -3.4 4.9 13.7 13.7 0 0 1 -5.7 2.7 12.9 12.9 0 0 1 -6.2-.2zm8.1-6.4a5.2 5.2 0 0 0 1.7-2.6 6.4 6.4 0 0 0 .2-3.4 7.9 7.9 0 0 0 -1.5-3.2 6.5 6.5 0 0 0 -2.6-1.7 6.9 6.9 0 0 0 -3.2-.1 6 6 0 0 0 -3 1.4 6 6 0 0 0 -1.8 6 5.9 5.9 0 0 0 1.4 3.1 5.8 5.8 0 0 0 2.6 1.8 7.4 7.4 0 0 0 3.3.1 6.5 6.5 0 0 0 2.9-1.4z"/><path d="m221.4 60.5 5.4-1.1 10.7 11.4-2.6-13.1 5.5-1.1 4.5 21.9-5.5 1.1-10.7-11.4 2.7 13-5.6 1.2z"/><path d="m251.1 77.3a12.8 12.8 0 0 1 -3.6-.4l-1-5a12.1 12.1 0 0 0 3.8.6 13.2 13.2 0 0 0 3.5-.2 6.3 6.3 0 0 0 2.3-1 1.7 1.7 0 0 0 .5-1.5 1.4 1.4 0 0 0 -.7-1 3.7 3.7 0 0 0 -1.4-.7l-2.8-.6a13.1 13.1 0 0 1 -5-1.9 6 6 0 0 1 -2.1-3.6 5.6 5.6 0 0 1 .4-3.6 6.6 6.6 0 0 1 2.4-2.9 12.3 12.3 0 0 1 4.2-1.6 16.3 16.3 0 0 1 3.6-.5 17.5 17.5 0 0 1 3.2.4l1 4.9a11.5 11.5 0 0 0 -5.8-.3 5.5 5.5 0 0 0 -2.3.9 1.4 1.4 0 0 0 -.6 1.6 1.7 1.7 0 0 0 1.2 1.3 18.1 18.1 0 0 0 3.6.8 26.4 26.4 0 0 1 3.8 1.1 5.8 5.8 0 0 1 2.3 1.7 6.6 6.6 0 0 1 1.1 2.8 5.9 5.9 0 0 1 -1.2 5.2 11.3 11.3 0 0 1 -6.3 3.1 27.1 27.1 0 0 1 -4.1.4z"/><path d="m270.5 72.3a11.4 11.4 0 0 1 -5.1-3.2 11.9 11.9 0 0 1 -2.8-5.6 12.2 12.2 0 0 1 .4-6.3 11.8 11.8 0 0 1 3.4-4.9 12.4 12.4 0 0 1 5.7-2.6 11.8 11.8 0 0 1 6.2.2 10.6 10.6 0 0 1 5.1 3.2 11.8 11.8 0 0 1 2.7 5.6 10.8 10.8 0 0 1 -.3 6.2 10.6 10.6 0 0 1 -3.4 4.9 13.7 13.7 0 0 1 -5.7 2.7 12.9 12.9 0 0 1 -6.2-.2zm8.1-6.4a5.2 5.2 0 0 0 1.7-2.6 6.4 6.4 0 0 0 .2-3.4 7.9 7.9 0 0 0 -1.5-3.2 6.5 6.5 0 0 0 -2.6-1.7 7.3 7.3 0 0 0 -3.3-.1 6.1 6.1 0 0 0 -2.9 1.4 5.6 5.6 0 0 0 -1.7 2.6 6.4 6.4 0 0 0 -.2 3.4 6.9 6.9 0 0 0 1.5 3.1 5.8 5.8 0 0 0 2.6 1.8 7.4 7.4 0 0 0 3.3.1 6.5 6.5 0 0 0 2.9-1.4z"/><path d="m286.1 47.3 9.8-2a8.9 8.9 0 0 1 6.4.7 7.3 7.3 0 0 1 3.3 5.1 8 8 0 0 1 -.2 4.4 6.6 6.6 0 0 1 -2.5 3.2l5.5 6.8-5.7 1.2-4.9-6.2-3.1.7 1.4 6.8-5.6 1.2zm10.9 8.5a5.3 5.3 0 0 0 2.5-1.1 2.7 2.7 0 0 0 .4-2.4 2.5 2.5 0 0 0 -1.3-2.1 4.9 4.9 0 0 0 -2.7 0l-3.3.6 1.1 5.7z"/></g><path d="m175.5 131.7a19.8 19.8 0 0 1 -5.3-.6l-1.5-7.4a26.2 26.2 0 0 0 5.6.9 23.6 23.6 0 0 0 5.4-.5 6.3 6.3 0 0 0 3.3-1.4 2.1 2.1 0 0 0 .8-2.2 2.9 2.9 0 0 0 -1-1.6 6.9 6.9 0 0 0 -2.1-1l-4.2-.9a16.5 16.5 0 0 1 -7.4-2.9 8.7 8.7 0 0 1 -3.3-5.3 8.3 8.3 0 0 1 .6-5.4 10.4 10.4 0 0 1 3.6-4.3 17 17 0 0 1 6.3-2.5 27.8 27.8 0 0 1 5.4-.6 19.7 19.7 0 0 1 4.8.6l1.5 7.2a18.6 18.6 0 0 0 -8.7-.5 8.8 8.8 0 0 0 -3.5 1.5 2.4 2.4 0 0 0 -.9 2.4 2.6 2.6 0 0 0 1.8 1.9 37.7 37.7 0 0 0 5.5 1.3 25 25 0 0 1 5.7 1.6 7.6 7.6 0 0 1 3.3 2.5 10.2 10.2 0 0 1 1.8 4.2 8.7 8.7 0 0 1 -1.9 7.8c-1.8 2.1-5 3.6-9.3 4.5a27 27 0 0 1 -6.3.7z" fill="#6d6e71"/><path d="m200.5 123.1c-3.1-2.1-5-5.4-5.9-9.7l-3.9-19 8.3-1.7 3.9 19.1a6.6 6.6 0 0 0 2.8 4.6 6.7 6.7 0 0 0 5.1.7 6.5 6.5 0 0 0 4.5-2.7 6.6 6.6 0 0 0 .7-5.3l-3.9-19.1 8.3-1.7 3.9 19c.9 4.4.4 8.1-1.6 11.3s-5.4 5.2-10.3 6.2-8.9.4-11.9-1.7z" fill="#6d6e71"/><path d="m224.2 87.5 14.7-3c3.8-.7 7-.4 9.6 1.1s4.2 4.1 5 7.7a12.7 12.7 0 0 1 -.4 6.5 9.3 9.3 0 0 1 -3.7 4.8l8.2 10.2-8.6 1.8-7.3-9.2-4.6.9 2.1 10.3-8.3 1.7zm16.4 12.8a6.1 6.1 0 0 0 3.6-1.7c.8-.8 1-2 .7-3.6a4 4 0 0 0 -2-3.1 7.5 7.5 0 0 0 -4-.1l-5 1 1.7 8.6z" fill="#6d6e71"/><path d="m267.7 111.4a15.5 15.5 0 0 1 -7.5-4.7 19.2 19.2 0 0 1 -4.1-8.6 18.8 18.8 0 0 1 .4-9.5 14.5 14.5 0 0 1 5-7.2 20.1 20.1 0 0 1 9-4 25 25 0 0 1 6.4-.6 15.1 15.1 0 0 1 5.6 1.1l1.6 7.9a13 13 0 0 0 -5.2-1.4 22 22 0 0 0 -6.1.4 12.3 12.3 0 0 0 -4.9 2.2 8.4 8.4 0 0 0 -2.9 4.1 9.4 9.4 0 0 0 -.3 5.3 9.8 9.8 0 0 0 4 6.5 10.1 10.1 0 0 0 7.6 1.1 9.2 9.2 0 0 0 4-1.7l-1.1-5.2-5 1-1.2-5.8 12.9-2.7 3.3 16.3c-2.9 2.8-6.8 4.6-11.7 5.6a21.5 21.5 0 0 1 -9.8-.1z" fill="#6d6e71"/><path d="m286.3 74.9 23.2-4.8 1.4 7-14.9 3.1 1.3 6.1 10.9-2.2 1.3 6.5-10.9 2.2 1.2 6.1 15-3 1.4 7-23.2 4.7z" fill="#6d6e71"/><g fill="#b1b3b6"><path d="m172.2 140.5 3.6-.7a3.1 3.1 0 0 1 2.4.3 2.7 2.7 0 0 1 1.2 1.9 3.2 3.2 0 0 1 -.1 1.7 2.8 2.8 0 0 1 -1.2 1.2l2.5 3-1.6.4-2.4-2.9-1.7.4.6 3.2-1.5.3zm4.2 3.6a2.3 2.3 0 0 0 1.2-.6 1.6 1.6 0 0 0 .2-1.2c-.2-1-.8-1.4-2-1.1l-1.8.3.6 2.9z"/><path d="m182 147a3.2 3.2 0 0 1 -1.5-2.2 3.4 3.4 0 0 1 .4-2.5 3.8 3.8 0 0 1 2.3-1.4 4 4 0 0 1 1.9.1 2.2 2.2 0 0 1 1.3.8 3.3 3.3 0 0 1 .7 1.6l.2.7-5.2 1c.3.9 1.2 1.2 2.6.9l1.2-.4 1-.4.2 1.2-1 .5-1.3.4a4.2 4.2 0 0 1 -2.8-.3zm3.5-3.7a1.3 1.3 0 0 0 -.7-1 2.1 2.1 0 0 0 -1.4-.1 1.9 1.9 0 0 0 -1.2.7 1.1 1.1 0 0 0 -.3 1.1z"/><path d="m188.1 141.4-.8.2-.3-1.2.9-.2-.2-1.1a1.9 1.9 0 0 1 .3-1.8 2.8 2.8 0 0 1 1.6-.9h1.1l.2 1.2h-.7a1.2 1.2 0 0 0 -.8.5.8.8 0 0 0 -.1.8l.2 1 1.4-.3.3 1.2-1.5.3 1 4.8-1.6.3z"/><path d="m193.3 144.8a2.6 2.6 0 0 1 -1-1.6l-.7-3.8 1.5-.3.8 3.7c.2.8.7 1.2 1.5 1a2.5 2.5 0 0 0 .9-.4 3.6 3.6 0 0 0 .7-1l-.8-3.9 1.5-.3 1.3 6-1.6.3v-.8a2 2 0 0 1 -.9.9 2.2 2.2 0 0 1 -1.2.5 2 2 0 0 1 -2-.3z"/><path d="m203 146.2h-1.1l-.2-1.2h2.3a3.5 3.5 0 0 0 1.5-.8 2.4 2.4 0 0 0 .2-1.5v-.4a2.4 2.4 0 0 1 -.9.8 2.8 2.8 0 0 1 -1.2.4 3.7 3.7 0 0 1 -1.8 0 3.4 3.4 0 0 1 -2.1-2.5 3.2 3.2 0 0 1 .1-1.7 2.2 2.2 0 0 1 .9-1.4 3.5 3.5 0 0 1 1.5-.7h1.4a3.1 3.1 0 0 1 1.2.5l-.2-.7 1.6-.3 1.1 5.6a3.3 3.3 0 0 1 -.4 2.6 4 4 0 0 1 -2.6 1.4zm1.7-4.7a1.6 1.6 0 0 0 .5-1.1l-.2-1.2a1.9 1.9 0 0 0 -1-.8 2.5 2.5 0 0 0 -1.2-.2 2.1 2.1 0 0 0 -1.3.9 1.9 1.9 0 0 0 -.3 1.5 2 2 0 0 0 .8 1.3 1.8 1.8 0 0 0 1.6.2 1.7 1.7 0 0 0 1.1-.6z"/><path d="m209.1 141.4a3 3 0 0 1 -1.4-2.1 3 3 0 0 1 .4-2.5 3.2 3.2 0 0 1 2.2-1.4h1.9a3.4 3.4 0 0 1 1.4.9 5.2 5.2 0 0 1 .7 1.5v.7l-5.1 1.1c.3.8 1.1 1.1 2.6.8a2 2 0 0 0 1.1-.3 2.3 2.3 0 0 0 1-.5l.3 1.2a2.8 2.8 0 0 1 -1.1.5l-1.3.4a4.3 4.3 0 0 1 -2.7-.3zm3.6-3.6a1.5 1.5 0 0 0 -.7-1 1.7 1.7 0 0 0 -1.4-.1 1.7 1.7 0 0 0 -1.2.6 1.2 1.2 0 0 0 -.3 1.2z"/><path d="m216.5 139.9a2.8 2.8 0 0 1 -1.5-2.1 3.4 3.4 0 0 1 .4-2.5 3.4 3.4 0 0 1 2.3-1.4h1.9a3 3 0 0 1 1.3.9 2.6 2.6 0 0 1 .7 1.5l.2.7-5.1 1.1c.2.8 1.1 1.1 2.5.8l1.2-.3a3.1 3.1 0 0 0 1-.5l.2 1.2-1 .5-1.3.4a4.2 4.2 0 0 1 -2.8-.3zm3.6-3.6a1.6 1.6 0 0 0 -.8-1 2 2 0 0 0 -1.4-.2 3.5 3.5 0 0 0 -1.2.7 1.6 1.6 0 0 0 -.3 1.2z"/><path d="m224.2 139.1-1.2-.2-.3-1.4a2.8 2.8 0 0 0 1.3.3h1.3l.8-.3c.2-.1.3-.2.2-.4a.5.5 0 0 0 -.2-.4h-1.6l-1.2-.2-.8-.5a1.5 1.5 0 0 1 -.4-.8 1.6 1.6 0 0 1 .4-1.5 4.8 4.8 0 0 1 1.9-.9h2.3l.2 1.3h-2.1a1.9 1.9 0 0 0 -.9.4c-.2.1-.2.2-.2.5l.2.3h1.6l1.3.2a1.3 1.3 0 0 1 .7.5 2 2 0 0 1 .4.8 1.4 1.4 0 0 1 -.4 1.4 2.6 2.6 0 0 1 -1.9.9z"/><path d="m232.8 131 1.5-.3v.8a2.6 2.6 0 0 1 .9-.9 3.1 3.1 0 0 1 1.2-.5 2 2 0 0 1 1.9.3 2.6 2.6 0 0 1 1 1.6l.8 3.8-1.6.3-.8-3.6c-.1-.9-.6-1.3-1.4-1.1a1.9 1.9 0 0 0 -1 .5 1.5 1.5 0 0 0 -.6.9l.8 3.9-1.6.3z"/><path d="m241.9 134.7a3 3 0 0 1 -1.4-2.1 3 3 0 0 1 .4-2.5 3.2 3.2 0 0 1 2.3-1.4h1.8a3.4 3.4 0 0 1 1.4.9 3.5 3.5 0 0 1 .7 1.5v.7l-5.1 1.1c.3.9 1.2 1.1 2.6.8l1.2-.3 1-.5.2 1.2a3.1 3.1 0 0 1 -1 .5l-1.3.4a3.5 3.5 0 0 1 -2.8-.3zm3.6-3.6a1.3 1.3 0 0 0 -.7-1 1.7 1.7 0 0 0 -1.4-.1 1.7 1.7 0 0 0 -1.2.6 1.3 1.3 0 0 0 -.3 1.2z"/><path d="m249.3 133.2a3.1 3.1 0 0 1 -1.5-2.1 3.4 3.4 0 0 1 .4-2.5 3.6 3.6 0 0 1 2.3-1.4 6 6 0 0 1 1.9 0 3 3 0 0 1 1.3.9 2.6 2.6 0 0 1 .7 1.5l.2.7-5.1 1.1c.3.9 1.1 1.1 2.6.8l1.1-.3a3.1 3.1 0 0 0 1-.5l.3 1.2a2.8 2.8 0 0 1 -1.1.5l-1.3.4a4.3 4.3 0 0 1 -2.8-.3zm3.6-3.6a1.4 1.4 0 0 0 -.8-1 1.6 1.6 0 0 0 -1.4-.1 2.3 2.3 0 0 0 -1.2.6 1.6 1.6 0 0 0 -.2 1.2z"/><path d="m257.3 132.1a3 3 0 0 1 -1.3-.9 3.5 3.5 0 0 1 -.8-1.6 3.7 3.7 0 0 1 .1-1.8 2 2 0 0 1 .9-1.3 3.6 3.6 0 0 1 1.5-.8 3.5 3.5 0 0 1 2.5.3l-.8-3.8 1.6-.3 1.9 9.2-1.5.3-.2-.7a3.8 3.8 0 0 1 -.9.9 2.9 2.9 0 0 1 -1.3.5zm3-1.9a1.6 1.6 0 0 0 .5-1.1l-.2-1.2a2.8 2.8 0 0 0 -1-.9 1.7 1.7 0 0 0 -1.2-.1 2 2 0 0 0 -1.3.8 2.2 2.2 0 0 0 -.3 1.6 1.7 1.7 0 0 0 .8 1.2 2.1 2.1 0 0 0 1.5.3 2.3 2.3 0 0 0 1.2-.6z"/><path d="m270.1 132.2h-.6l-.2-1.2h.8a.9.9 0 0 0 .7-.3 1.5 1.5 0 0 0 .2-.8l.2-.6-3.8-5.2 1.6-.4 2.7 4 .9-4.7 1.5-.3-1.2 7.1a4.8 4.8 0 0 1 -.7 1.6 2.2 2.2 0 0 1 -1.4.8z"/><path d="m277.2 128a2.8 2.8 0 0 1 -1.5-.8 4.5 4.5 0 0 1 -.8-1.7 3.2 3.2 0 0 1 .1-1.7 3.6 3.6 0 0 1 1-1.4 4.9 4.9 0 0 1 1.8-.8 4 4 0 0 1 1.9.1 2.8 2.8 0 0 1 1.5.8 4 4 0 0 1 .8 1.6 3.5 3.5 0 0 1 -.1 1.8 4.5 4.5 0 0 1 -1 1.4 4.8 4.8 0 0 1 -1.8.7 3.1 3.1 0 0 1 -1.9 0zm2.9-2a1.8 1.8 0 0 0 .2-1.6 1.7 1.7 0 0 0 -.8-1.3 1.7 1.7 0 0 0 -1.4-.2 1.7 1.7 0 0 0 -1.3.8 1.6 1.6 0 0 0 -.2 1.5 2 2 0 0 0 .8 1.3 1.9 1.9 0 0 0 1.5.3 2 2 0 0 0 1.2-.8z"/><path d="m284.3 126.3a2.9 2.9 0 0 1 -1-1.6l-.8-3.8 1.6-.3.8 3.6c.1.9.6 1.2 1.4 1a1.8 1.8 0 0 0 1-.4 3.1 3.1 0 0 0 .7-.9l-.9-4 1.6-.3 1.2 6-1.5.3v-.8a4.3 4.3 0 0 1 -.9 1l-1.2.5a2.9 2.9 0 0 1 -2-.3z"/><path d="m294.7 118.4 1.5-.3.2.8a2.8 2.8 0 0 1 .9-1 3.3 3.3 0 0 1 1.2-.5 2.9 2.9 0 0 1 1.9.3 2.9 2.9 0 0 1 1 1.6l.7 3.8-1.5.3-.8-3.6a1.2 1.2 0 0 0 -1.5-1.1l-.9.5a3.1 3.1 0 0 0 -.7.9l.8 4-1.6.3z"/><path d="m304.5 122.4a2.2 2.2 0 0 1 -1.4-.8 3 3 0 0 1 -.8-1.6 2.7 2.7 0 0 1 .1-1.8 2.6 2.6 0 0 1 1-1.4 3.8 3.8 0 0 1 1.7-.7 3.1 3.1 0 0 1 1.9 0 2.8 2.8 0 0 1 1.5.8 3.5 3.5 0 0 1 .8 1.6 3.5 3.5 0 0 1 -.1 1.8 2.8 2.8 0 0 1 -1 1.4 4.8 4.8 0 0 1 -1.8.7 3.1 3.1 0 0 1 -1.9 0zm2.9-2a2.1 2.1 0 0 0 .3-1.5 2.7 2.7 0 0 0 -.8-1.4 2.4 2.4 0 0 0 -1.5-.2 2 2 0 0 0 -1.3.8 1.9 1.9 0 0 0 -.2 1.5 2 2 0 0 0 .8 1.3 1.9 1.9 0 0 0 1.5.3 1.7 1.7 0 0 0 1.2-.8z"/><path d="m308.9 115.5 1.5-.3 2.1 3.8.4-4.3 1.3-.3 2.1 3.8.4-4.3 1.5-.3-.7 6.4-1.5.3-2.1-3.8-.4 4.3-1.5.3z"/></g><path d="m0 0h336.5v189.88h-336.5z" fill="none" opacity="0" stroke="#b1b3b6" stroke-miterlimit="10"/></svg>