<svg enable-background="new 0 0 300 300" viewBox="0 0 300 300" xmlns="http://www.w3.org/2000/svg"><path d="m58.9 127.6v4.8h-28.9v-42.6h28.4v4.8h-23v13.8h20v4.5h-20v14.7zm43 4.8v-32.9l-14.1 25.2h-3.1l-14.2-25.2v32.9h-5.4v-42.6h5.7l15.4 27.7 15.5-27.7h5.6v42.6zm12 0v-42.6h5.4v42.6zm12 0v-42.6h5.4v37.8h23.8v4.8zm35.1 0v-42.6h5.4v42.6zm39.9-4.8v4.8h-28.9v-42.6h28.4v4.8h-23v13.8h20v4.5h-20v14.7z" fill="#b1b3b6"/><path d="m27.4 180.9c0-3.5.6-7 1.9-10.3 1.2-3.3 3-6.4 5.4-9 2.5-2.7 5.5-4.9 8.8-6.5 3.7-1.7 7.8-2.6 11.9-2.5 4.7-.1 9.4 1.1 13.5 3.5 3.6 2.1 6.6 5.2 8.5 8.9l-8.4 5.8c-.7-1.5-1.7-2.8-2.8-4-1-1-2.1-1.9-3.4-2.6-1.2-.6-2.5-1.1-3.8-1.4s-2.7-.4-4-.4c-2.5-.1-5 .5-7.2 1.7-2 1.1-3.7 2.5-5.1 4.3s-2.5 3.9-3.1 6.1c-1.4 4.6-1.3 9.5.2 14 .8 2.2 1.9 4.3 3.4 6.1 1.4 1.7 3.2 3.2 5.2 4.2 2.1 1.1 4.4 1.6 6.8 1.6 1.4 0 2.7-.1 4-.5 1.4-.3 2.7-.8 4-1.5s2.4-1.6 3.4-2.7c1.1-1.1 2-2.4 2.6-3.9l9 5.2c-.9 2.1-2.2 4-3.9 5.6-1.6 1.6-3.5 3-5.6 4.1-2.1 1.2-4.4 2-6.8 2.6-2.3.6-4.6.9-7 .9-3.9 0-7.7-.9-11.1-2.6-3.3-1.6-6.3-3.9-8.7-6.7-2.4-2.7-4.4-5.9-5.7-9.3s-2-7-2-10.7zm80.3 29.2c-3.9 0-7.8-.8-11.3-2.4-3.3-1.6-6.2-3.8-8.7-6.5-2.4-2.7-4.3-5.9-5.6-9.3-1.4-3.4-2-7-2-10.6 0-7.4 2.8-14.6 7.9-20 2.5-2.7 5.5-4.9 8.8-6.4 3.5-1.6 7.3-2.4 11.2-2.4s7.7.9 11.2 2.6c3.3 1.6 6.3 3.8 8.7 6.6 2.4 2.7 4.3 5.8 5.6 9.2s2 7 2 10.6c0 3.7-.7 7.4-2.1 10.8-1.3 3.4-3.3 6.5-5.8 9.1-2.4 2.7-5.4 4.9-8.8 6.3-3.5 1.6-7.3 2.4-11.1 2.4zm-16.4-28.8c0 2.4.3 4.8 1.1 7.1.7 2.2 1.8 4.3 3.2 6.1s3.2 3.2 5.2 4.2c4.5 2.1 9.6 2.1 14.1 0 2-1.1 3.8-2.6 5.2-4.4s2.5-3.9 3.2-6.1 1-4.6 1-6.9c0-2.4-.3-4.8-1.1-7.1-.8-2.2-1.9-4.3-3.3-6.1-1.4-1.7-3.2-3.2-5.2-4.2-2.2-1-4.5-1.5-6.9-1.5-2.5-.1-4.9.5-7.1 1.6-2 1-3.8 2.5-5.2 4.3s-2.5 3.9-3.2 6.1-1 4.6-1 6.9zm50.5-28.4 14 27.4 14.2-27.4h11.9l-20.6 37v19.8h-11v-20l-20.5-36.8zm46.3 56.8v-56.8h11.1v47.1h28.9v9.7zm84.5-9.7v9.7h-39.4v-56.8h38.7v9.7h-27.7v13.7h23.9v8.9h-23.9v14.8z" fill="#6d6e71"/></svg>