<?xml version="1.0" encoding="utf-8"?>
<!-- Generator: Adobe Illustrator 22.1.0, SVG Export Plug-In . SVG Version: 6.00 Build 0)  -->
<svg version="1.1" id="Layer_1" xmlns="http://www.w3.org/2000/svg" xmlns:xlink="http://www.w3.org/1999/xlink" x="0px" y="0px"
	 viewBox="0 0 300 300" style="enable-background:new 0 0 300 300;" xml:space="preserve">
<style type="text/css">
	.st0{fill:#B1B3B6;}
	.st1{fill:#6D6E71;}
</style>
<path class="st0" d="M58.9,127.6v4.8H30V89.8h28.4v4.8h-23v13.8h20v4.5h-20v14.7L58.9,127.6z M101.9,132.4V99.5l-14.1,25.2h-3.1
	L70.5,99.5v32.9h-5.4V89.8h5.7l15.4,27.7l15.5-27.7h5.6v42.6H101.9z M113.9,132.4V89.8h5.4v42.6H113.9z M125.9,132.4V89.8h5.4v37.8
	h23.8v4.8L125.9,132.4z M161,132.4V89.8h5.4v42.6H161z M200.9,127.6v4.8H172V89.8h28.4v4.8h-23v13.8h20v4.5h-20v14.7L200.9,127.6z"
	/>
<path class="st1" d="M27.4,180.9c0-3.5,0.6-7,1.9-10.3c1.2-3.3,3-6.4,5.4-9c2.5-2.7,5.5-4.9,8.8-6.5c3.7-1.7,7.8-2.6,11.9-2.5
	c4.7-0.1,9.4,1.1,13.5,3.5c3.6,2.1,6.6,5.2,8.5,8.9l-8.4,5.8c-0.7-1.5-1.7-2.8-2.8-4c-1-1-2.1-1.9-3.4-2.6c-1.2-0.6-2.5-1.1-3.8-1.4
	c-1.3-0.3-2.7-0.4-4-0.4c-2.5-0.1-5,0.5-7.2,1.7c-2,1.1-3.7,2.5-5.1,4.3c-1.4,1.8-2.5,3.9-3.1,6.1c-1.4,4.6-1.3,9.5,0.2,14
	c0.8,2.2,1.9,4.3,3.4,6.1c1.4,1.7,3.2,3.2,5.2,4.2c2.1,1.1,4.4,1.6,6.8,1.6c1.4,0,2.7-0.1,4-0.5c1.4-0.3,2.7-0.8,4-1.5
	c1.3-0.7,2.4-1.6,3.4-2.7c1.1-1.1,2-2.4,2.6-3.9l9,5.2c-0.9,2.1-2.2,4-3.9,5.6c-1.6,1.6-3.5,3-5.6,4.1c-2.1,1.2-4.4,2-6.8,2.6
	c-2.3,0.6-4.6,0.9-7,0.9c-3.9,0-7.7-0.9-11.1-2.6c-3.3-1.6-6.3-3.9-8.7-6.7c-2.4-2.7-4.4-5.9-5.7-9.3
	C28.1,188.2,27.4,184.6,27.4,180.9L27.4,180.9z M107.7,210.1c-3.9,0-7.8-0.8-11.3-2.4c-3.3-1.6-6.2-3.8-8.7-6.5
	c-2.4-2.7-4.3-5.9-5.6-9.3c-1.4-3.4-2-7-2-10.6c0-7.4,2.8-14.6,7.9-20c2.5-2.7,5.5-4.9,8.8-6.4c3.5-1.6,7.3-2.4,11.2-2.4
	c3.9,0,7.7,0.9,11.2,2.6c3.3,1.6,6.3,3.8,8.7,6.6c2.4,2.7,4.3,5.8,5.6,9.2c1.3,3.4,2,7,2,10.6c0,3.7-0.7,7.4-2.1,10.8
	c-1.3,3.4-3.3,6.5-5.8,9.1c-2.4,2.7-5.4,4.9-8.8,6.3C115.3,209.3,111.5,210.1,107.7,210.1L107.7,210.1z M91.3,181.3
	c0,2.4,0.3,4.8,1.1,7.1c0.7,2.2,1.8,4.3,3.2,6.1c1.4,1.8,3.2,3.2,5.2,4.2c4.5,2.1,9.6,2.1,14.1,0c2-1.1,3.8-2.6,5.2-4.4
	c1.4-1.8,2.5-3.9,3.2-6.1c0.7-2.2,1-4.6,1-6.9c0-2.4-0.3-4.8-1.1-7.1c-0.8-2.2-1.9-4.3-3.3-6.1c-1.4-1.7-3.2-3.2-5.2-4.2
	c-2.2-1-4.5-1.5-6.9-1.5c-2.5-0.1-4.9,0.5-7.1,1.6c-2,1-3.8,2.5-5.2,4.3c-1.4,1.8-2.5,3.9-3.2,6.1C91.6,176.6,91.3,179,91.3,181.3
	L91.3,181.3z M141.8,152.9l14,27.4l14.2-27.4h11.9l-20.6,37v19.8h-11v-20l-20.5-36.8H141.8z M188.1,209.7v-56.8h11.1V200h28.9v9.7
	H188.1z M272.6,200v9.7h-39.4v-56.8h38.7v9.7h-27.7v13.7h23.9v8.9h-23.9V200H272.6z"/>
</svg>
