<?xml version="1.0" encoding="utf-8"?>
<!-- Generator: Adobe Illustrator 23.0.1, SVG Export Plug-In . SVG Version: 6.00 Build 0)  -->
<svg version="1.1" id="Layer_1" xmlns="http://www.w3.org/2000/svg" xmlns:xlink="http://www.w3.org/1999/xlink" x="0px" y="0px"
	 viewBox="0 0 248 134" style="enable-background:new 0 0 248 134;" xml:space="preserve">
<style type="text/css">
	.st0{fill:#B1B3B6;}
	.st1{fill:#6D6E71;}
</style>
<path class="st0" d="M32.9,44.6v4.8H4V6.8h28.4v4.8h-23v13.8h20v4.5h-20v14.7C9.4,44.6,32.9,44.6,32.9,44.6z M75.9,49.4V16.5
	L61.8,41.7h-3.1L44.5,16.5v32.9h-5.4V6.8h5.7l15.4,27.7L75.7,6.8h5.6v42.6C81.3,49.4,75.9,49.4,75.9,49.4z M87.9,49.4V6.8h5.4v42.6
	C93.3,49.4,87.9,49.4,87.9,49.4z M99.9,49.4V6.8h5.4v37.8h23.8v4.8C129.1,49.4,99.9,49.4,99.9,49.4z M135,49.4V6.8h5.4v42.6
	C140.4,49.4,135,49.4,135,49.4z M174.9,44.6v4.8H146V6.8h28.4v4.8h-23v13.8h20v4.5h-20v14.7L174.9,44.6z"/>
<path class="st1" d="M1.4,97.9c0-3.5,0.6-7,1.9-10.3c1.2-3.3,3-6.4,5.4-9c2.5-2.7,5.5-4.9,8.8-6.5c3.7-1.7,7.8-2.6,11.9-2.5
	c4.7-0.1,9.4,1.1,13.5,3.5c3.6,2.1,6.6,5.2,8.5,8.9L43,87.8c-0.7-1.5-1.7-2.8-2.8-4c-1-1-2.1-1.9-3.4-2.6c-1.2-0.6-2.5-1.1-3.8-1.4
	s-2.7-0.4-4-0.4c-2.5-0.1-5,0.5-7.2,1.7c-2,1.1-3.7,2.5-5.1,4.3s-2.5,3.9-3.1,6.1c-1.4,4.6-1.3,9.5,0.2,14c0.8,2.2,1.9,4.3,3.4,6.1
	c1.4,1.7,3.2,3.2,5.2,4.2c2.1,1.1,4.4,1.6,6.8,1.6c1.4,0,2.7-0.1,4-0.5c1.4-0.3,2.7-0.8,4-1.5s2.4-1.6,3.4-2.7
	c1.1-1.1,2-2.4,2.6-3.9l9,5.2c-0.9,2.1-2.2,4-3.9,5.6c-1.6,1.6-3.5,3-5.6,4.1c-2.1,1.2-4.4,2-6.8,2.6c-2.3,0.6-4.6,0.9-7,0.9
	c-3.9,0-7.7-0.9-11.1-2.6c-3.3-1.6-6.3-3.9-8.7-6.7c-2.4-2.7-4.4-5.9-5.7-9.3S1.4,101.6,1.4,97.9L1.4,97.9z M81.7,127.1
	c-3.9,0-7.8-0.8-11.3-2.4c-3.3-1.6-6.2-3.8-8.7-6.5c-2.4-2.7-4.3-5.9-5.6-9.3c-1.4-3.4-2-7-2-10.6c0-7.4,2.8-14.6,7.9-20
	c2.5-2.7,5.5-4.9,8.8-6.4c3.5-1.6,7.3-2.4,11.2-2.4s7.7,0.9,11.2,2.6c3.3,1.6,6.3,3.8,8.7,6.6c2.4,2.7,4.3,5.8,5.6,9.2s2,7,2,10.6
	c0,3.7-0.7,7.4-2.1,10.8c-1.3,3.4-3.3,6.5-5.8,9.1c-2.4,2.7-5.4,4.9-8.8,6.3C89.3,126.3,85.5,127.1,81.7,127.1L81.7,127.1z
	 M65.3,98.3c0,2.4,0.3,4.8,1.1,7.1c0.7,2.2,1.8,4.3,3.2,6.1s3.2,3.2,5.2,4.2c4.5,2.1,9.6,2.1,14.1,0c2-1.1,3.8-2.6,5.2-4.4
	s2.5-3.9,3.2-6.1s1-4.6,1-6.9c0-2.4-0.3-4.8-1.1-7.1c-0.8-2.2-1.9-4.3-3.3-6.1c-1.4-1.7-3.2-3.2-5.2-4.2c-2.2-1-4.5-1.5-6.9-1.5
	c-2.5-0.1-4.9,0.5-7.1,1.6c-2,1-3.8,2.5-5.2,4.3s-2.5,3.9-3.2,6.1S65.3,96,65.3,98.3L65.3,98.3z M115.8,69.9l14,27.4L144,69.9h11.9
	l-20.6,37v19.8h-11v-20l-20.5-36.8C103.8,69.9,115.8,69.9,115.8,69.9z M162.1,126.7V69.9h11.1V117h28.9v9.7H162.1z M246.6,117v9.7
	h-39.4V69.9h38.7v9.7h-27.7v13.7h23.9v8.9h-23.9V117H246.6z"/>
</svg>
