<?xml version="1.0" encoding="utf-8"?>
<!-- Generator: Adobe Illustrator 22.1.0, SVG Export Plug-In . SVG Version: 6.00 Build 0)  -->
<svg version="1.1" id="Layer_1" xmlns="http://www.w3.org/2000/svg" xmlns:xlink="http://www.w3.org/1999/xlink" x="0px" y="0px"
	 viewBox="0 0 96.8 96.8" style="enable-background:new 0 0 96.8 96.8;" xml:space="preserve">
<style type="text/css">
	.st0{fill:#FFE4E3;}
</style>
<path class="st0" d="M48.5,30H58c1.5,0,2.9,0.3,4.3,0.8c1,0.5,1.9,1.1,2.7,1.9c0.8,0.7,1.4,1.7,1.8,2.7c0.5,1.4,0.8,2.9,0.8,4.4
	c0.1,2.4,0.1,3.2,0.1,9.5s0,7-0.1,9.5c0,1.5-0.3,2.9-0.8,4.3c-0.4,1-1,2-1.8,2.7c-0.7,0.8-1.7,1.5-2.7,1.8c-1.4,0.5-2.8,0.8-4.3,0.8
	H38.9c-1.5,0-2.9-0.3-4.3-0.8c-1-0.3-2-1-2.7-1.8c-0.8-0.7-1.4-1.7-1.8-2.7c-0.5-1.4-0.8-2.8-0.8-4.3c-0.1-2.5-0.1-3.3-0.1-9.5
	s0-7.1,0.1-9.5c0-1.5,0.3-3,0.8-4.4c0.4-1,1-2,1.8-2.7c0.8-0.8,1.7-1.4,2.7-1.8c1.4-0.5,2.8-0.8,4.3-0.8h9.6 M48.5,25.8
	c-6.4,0-7.2,0.1-9.7,0.2c-2,0-3.9,0.3-5.8,1c-1.5,0.6-2.9,1.5-4.1,2.7c-1.2,1.2-2.1,2.6-2.7,4.2c-0.7,1.8-1.1,3.7-1.1,5.7
	c-0.1,2.5-0.2,3.3-0.2,9.7s0.1,7.1,0.2,9.7c0,2,0.4,3.9,1.1,5.7c1.2,3.1,3.7,5.6,6.8,6.8c1.9,0.7,3.8,1.1,5.8,1.1
	c2.5,0.2,3.3,0.2,9.7,0.2s7.1,0,9.6-0.2c2,0,3.9-0.4,5.8-1.1c3.1-1.2,5.6-3.7,6.8-6.8c0.7-1.8,1.1-3.7,1.1-5.7
	c0.1-2.6,0.2-3.4,0.2-9.7s-0.1-7.2-0.2-9.7c0-2-0.4-3.9-1.1-5.7c-0.6-1.6-1.5-3-2.7-4.2c-1.2-1.2-2.6-2.1-4.1-2.7
	c-1.9-0.7-3.8-1.1-5.8-1.1c-2.5-0.1-3.3-0.2-9.6-0.2"/>
<path class="st0" d="M48.5,37.2c-6.7-0.1-12.1,5.3-12.2,12c-0.1,6.7,5.3,12.1,12,12.2s12.1-5.3,12.2-12c0,0,0-0.1,0-0.1
	C60.5,42.7,55.1,37.3,48.5,37.2 M48.5,57.1c-4.4,0.1-7.9-3.4-8-7.8c-0.1-4.4,3.4-7.9,7.8-8c4.4-0.1,7.9,3.4,8,7.8c0,0.1,0,0.1,0,0.2
	C56.3,53.6,52.8,57.1,48.5,57.1 M63.8,36.7c0,1.5-1.3,2.8-2.8,2.8s-2.8-1.3-2.8-2.8c0-1.5,1.3-2.8,2.8-2.8l0,0
	c1.5-0.1,2.7,1.1,2.8,2.6C63.8,36.6,63.8,36.6,63.8,36.7"/>
</svg>
