<svg xmlns="http://www.w3.org/2000/svg" width="99.7" height="93.5" viewBox="0 0 99.7 93.5"><g fill="#057265"><path d="M55.8 0h.3a1.4 1.4 0 0 1 .2.6 11 11 0 0 1 .2 1.8v18.7H68v-.6a50.9 50.9 0 0 1 .3-7.8c.3-2.1 1-2.7 2.6-2.9l3.3-.4h7.2l14.1.2a9.3 9.3 0 0 1 2.4.4 2 2 0 0 1 1.4 1.7 4.5 4.5 0 0 1 .1 1.1c.1 3.4.2 6.8.2 10.2.1 5.8.1 11.6.1 17.4l-.3 20.8a8.8 8.8 0 0 1-.2 1.7 2.2 2.2 0 0 1-1.9 1.4 12.4 12.4 0 0 1-2.7.3h-5c-.4 0-.5.1-.5.5V72c0 2.3-.1 4.5-.1 6.8s-.2 1.7-.4 2.6a2.4 2.4 0 0 1-1.9 1.6h-2.2l-8.1.2H56.5c0 .2.1.4 0 .6v8a7.8 7.8 0 0 1-.2 1.6h-2.1l-3.5-.6-10.2-1.7-9.7-1.7-10.1-1.8-11.4-2L0 83.9v-74l7.5-1.3 11.2-1.9 10.6-1.9 12-2.1L53.8.4zm.7 49.6h22.4v3.5c0 .5 0 .5-.5.5H57.1c-.4 0-.6.1-.6.5v5.2a4.3 4.3 0 0 1 .1.5h22.3V63c0 .8.1.8-.7.8H57.1c-.4 0-.6 0-.6.5v5.2a4.3 4.3 0 0 1 .1.5h22.3v3.3c0 .6 0 .6-.6.6H56.6V80h28.9c.4 0 .4-.1.4-.5V24.8c0-.4-.1-.5-.5-.5H56.6v6.6h21.7c.6 0 .6 0 .6.6v12.3H57.1c-.4 0-.6.1-.6.5v4.8zm14.8-36.5v.2l.6.4 1.8 1.1 11 6.1 3.9 2.3a1 1 0 0 1 .5 1v36.5c0 .7 0 .7.7.7h6.1c.6 0 .6 0 .6-.6V13c0-.5 0-.5-.5-.5H81.9l-9.1.3zM24.4 51.8h.7l4-.3a8.4 8.4 0 0 0 7.3-4.9 13.1 13.1 0 0 0 .4-11.1 7.4 7.4 0 0 0-4.1-4.2 9 9 0 0 0-3.7-.6l-9.9.3c-.4 0-.4.2-.4.5.1 10.1.1 20.2.2 30.2 0 .8.1.9.8.9h4.7z"/><path d="M24.4 36.1a14.3 14.3 0 0 1 4.6.7 3.2 3.2 0 0 1 1.8 2 5.9 5.9 0 0 1 .3 3.7 4.4 4.4 0 0 1-3.8 3.6 21.1 21.1 0 0 1-2.6.2.3.3 0 0 1-.3-.3z"/></g></svg>