<svg xmlns="http://www.w3.org/2000/svg" width="70" height="70.5" viewBox="0 0 70 70.5"><defs><linearGradient id="a" x1="75.02" x2="-16.81" y1="59.8" y2="-62.49" gradientUnits="userSpaceOnUse"><stop offset="0" stop-color="#ffe1e0"/><stop offset=".44" stop-color="#f07b7e"/><stop offset="1" stop-color="#2f243a"/></linearGradient></defs><path fill="url(#a)" d="M6 13V6h58v58h6V0H0v13"/><path fill="#ef767a" d="M22.8 20.5h5.9l8.5 26h-5l-1.8-5.6h-9.6L19 46.5h-5zM22 37.3h7.3l-3.6-11.2zm32.5-5a12.4 12.4 0 0 1 .5 3.1 18.1 18.1 0 0 1-.2 2.5H42.3a6.7 6.7 0 0 0 1.1 3.9 4.2 4.2 0 0 0 3.3 1.4c2 0 3.1-.8 3.5-2.5H55a8 8 0 0 1-2.7 4.6 9.3 9.3 0 0 1-5.6 1.7 8.3 8.3 0 0 1-6.4-2.8 10.4 10.4 0 0 1-2.7-7.4 10.5 10.5 0 0 1 2.7-7.6 8.4 8.4 0 0 1 6.4-2.7 7.8 7.8 0 0 1 6.3 2.8 8.5 8.5 0 0 1 1.5 3zm-7.7-2a3.9 3.9 0 0 0-3.2 1.3 6.2 6.2 0 0 0-1.3 3.3h8.3c0-2.1-.7-3.5-2-4.2a3.4 3.4 0 0 0-1.8-.4z"/><path fill="#9f9aa4" d="M42.1 64.2a1 1 0 0 0-1.1-1.1l-1 .2-.6.7a4.3 4.3 0 0 0-.6 2.4v.8a2.2 2.2 0 0 1 .9-1.6 2.5 2.5 0 0 1 1.5-.5 2.7 2.7 0 0 1 2.7 2.7 2.3 2.3 0 0 1-.9 1.9 3.1 3.1 0 0 1-2.2.8 3 3 0 0 1-2.5-1.2 4.5 4.5 0 0 1-1-3.1 4.8 4.8 0 0 1 1-3.3 3.1 3.1 0 0 1 2.6-1.2 3.2 3.2 0 0 1 2 .7 2.6 2.6 0 0 1 .9 1.8zm-1.3 2.2a1.3 1.3 0 0 0-1 .4 1 1 0 0 0-.4.9 1.2 1.2 0 0 0 .4 1 1.8 1.8 0 0 0 1 .4 2.1 2.1 0 0 0 1.1-.4 1.5 1.5 0 0 0 .4-1 1.4 1.4 0 0 0-.5-1 1.5 1.5 0 0 0-1-.3zm7.5-4.7a3.2 3.2 0 0 1 1.4.3l1.1.8a4.8 4.8 0 0 1 1 3.3 4.8 4.8 0 0 1-1 3.3 3.4 3.4 0 0 1-5 0 5.9 5.9 0 0 1 0-6.6 3.1 3.1 0 0 1 2.5-1.1zm1.4 2.2a1.6 1.6 0 0 0-2.8 0 5.1 5.1 0 0 0 0 4.4 1.6 1.6 0 0 0 2.8 0 5.1 5.1 0 0 0 0-4.4zm5-2.2l.7.2a.9.9 0 0 1 .5.3 2.2 2.2 0 0 1 0 3 1.7 1.7 0 0 1-1.2.5 2.1 2.1 0 0 1-1.3-.5 2.5 2.5 0 0 1 0-3 2.1 2.1 0 0 1 1.3-.5zm4.5.2h1.5L55 70.3h-1.5zm-3.9 1.8c0-.7-.2-1-.6-1s-.6.3-.6 1 .2 1 .6 1 .6-.3.6-1zm4.2 2.8a2.1 2.1 0 0 1 1.3.5 2.5 2.5 0 0 1 0 3 2.1 2.1 0 0 1-1.3.5 1.7 1.7 0 0 1-1.2-.5 2.5 2.5 0 0 1 0-3 1.7 1.7 0 0 1 1.2-.5zm0 1c-.4 0-.6.3-.6 1s.2 1 .6 1l.5-.2a1.7 1.7 0 0 0 0-1.6z"/></svg>