<svg xmlns="http://www.w3.org/2000/svg" width="100" height="97.6" viewBox="0 0 100 97.6"><g fill="#cb4a32"><path d="M100 13.5v68.3c0 .1-.1.1-.1.2a2.5 2.5 0 0 1-.6 1.4 3.2 3.2 0 0 1-2.7 1.4h-39c-.5 0-.4-.1-.4.4v12.1a.3.3 0 0 1-.3.3l-4.9-.9-4.9-.8-5.1-1-5.2-.9-5.4-1-5.3-.9-4.9-.9-4.9-.8-5.1-1-5-.8-4.9-.9-1.3-.2V10.1h.2l3.4-.6 9-1.6 8.1-1.4 7.7-1.4 7.1-1.3 6.3-1.1 8-1.4 7-1.3c.4 0 .4 0 .4.4v9.7c0 .6 0 .5.4.5h39.6a3.3 3.3 0 0 1 2.7 2.5c0 .2.1.3.1.4zM57.2 47.4v10.7c0 .3 0 .3.3.3h30.2a.3.3 0 0 1 .3.3v3.2c0 .4 0 .4-.4.4H57.5c-.3 0-.3 0-.3.4v5.9c0 .4 0 .4.4.4h30.2c.1.1.2.1.2.2v3.5a.2.2 0 0 1-.2.2H57.6c-.4 0-.4 0-.4.4v7.8c0 .4 0 .4.3.4h38.9c.4 0 .4 0 .4-.4V14.3c0-.4 0-.4-.4-.4H57.2v15.5l.9-1a13.7 13.7 0 0 1 9-3.9c.5 0 .4 0 .4.4V38c0 .5-.1.5.4.5h12.8c.2 0 .3 0 .3.3s-.1 1.3-.2 2a12.8 12.8 0 0 1-3.4 7.1 12.9 12.9 0 0 1-12.1 4.2 12.7 12.7 0 0 1-7.7-4.3.8.8 0 0 1-.4-.4zM18.3 49v16.2c0 .2 0 .3.3.3h5.2a.3.3 0 0 0 .3-.3V54.9c0-.2 0-.3.2-.3h2.1l3-.3a9.4 9.4 0 0 0 7.3-6 21.5 21.5 0 0 0 .9-4.4 10.9 10.9 0 0 0 0-3.6 10.2 10.2 0 0 0-2.7-5.6 5.4 5.4 0 0 0-4.1-2H18.6c-.3 0-.3 0-.3.3z"/><path d="M69.6 29.5v-6.6c0-.3.1-.3.3-.3a13.1 13.1 0 0 1 8.5 3.3 13.5 13.5 0 0 1 4.5 8.2c.1.7.1 1.4.2 2.1a.3.3 0 0 1-.3.3q-6.5-.2-12.9 0a.3.3 0 0 1-.3-.3zM24.2 43.4v-4.5c0-.2.1-.3.3-.4h1.9a3.8 3.8 0 0 1 4.2 3.1 7.3 7.3 0 0 1-.3 4.4 3.5 3.5 0 0 1-3.5 2.4h-2.4c-.2 0-.2-.1-.2-.3z"/></g></svg>