<?xml version="1.0" encoding="utf-8"?>
<!-- Generator: Adobe Illustrator 22.1.0, SVG Export Plug-In . SVG Version: 6.00 Build 0)  -->
<svg version="1.1" id="Layer_1" xmlns="http://www.w3.org/2000/svg" xmlns:xlink="http://www.w3.org/1999/xlink" x="0px" y="0px"
	 viewBox="0 0 96.8 96.8" style="enable-background:new 0 0 96.8 96.8;" xml:space="preserve">
<style type="text/css">
	.st0{fill:#FFE4E3;}
</style>
<title>icon-twitter</title>
<path class="st0" d="M28.6,64.8C32.9,67.5,37.9,69,43,69c17.4,0,27.2-14.7,26.6-27.9c1.9-1.3,3.5-3,4.7-4.9
	c-1.7,0.8-3.5,1.3-5.4,1.5c2-1.2,3.4-3,4.1-5.2c-1.8,1.1-3.8,1.9-5.9,2.3c-1.8-1.9-4.3-3-6.9-3c-5.2,0-9.4,4.3-9.3,9.5
	c0,0.7,0.1,1.4,0.2,2c-7.5-0.3-14.6-3.9-19.3-9.8c-2.5,4.3-1.3,9.8,2.9,12.6c-1.5-0.1-3-0.5-4.3-1.2c0,4.5,3.1,8.4,7.5,9.3
	c-1.4,0.4-2.8,0.5-4.2,0.2c1.3,3.8,4.8,6.4,8.8,6.5C38.6,64,33.6,65.4,28.6,64.8z"/>
</svg>
