<?xml version="1.0" encoding="utf-8"?>
<!-- Generator: Adobe Illustrator 22.1.0, SVG Export Plug-In . SVG Version: 6.00 Build 0)  -->
<svg version="1.1" id="Layer_1" xmlns="http://www.w3.org/2000/svg" xmlns:xlink="http://www.w3.org/1999/xlink" x="0px" y="0px"
	 viewBox="0 0 96.8 96.8" style="enable-background:new 0 0 96.8 96.8;" xml:space="preserve">
<style type="text/css">
	.st0{fill:#FFE4E3;}
</style>
<path class="st0" d="M48.3,21.3c-15.1-0.1-27.4,12.2-27.5,27.3S33,76,48.1,76.1s27.4-12.2,27.5-27.3c0,0,0-0.1,0-0.1
	C75.6,33.6,63.4,21.4,48.3,21.3z M48.3,26.1c5,0,9.8,1.6,13.7,4.7c-3,3.7-6.9,6.6-11.3,8.4c-2.3-4.3-5-8.5-8-12.4
	C44.5,26.3,46.4,26.1,48.3,26.1z M38.1,28.5c3,3.9,5.6,8,8,12.3c-6.4,1.8-13.1,2.6-19.8,2.5C27.9,36.9,32.2,31.5,38.1,28.5z
	 M25.7,48.7v-0.6c7.7,0.2,15.3-0.9,22.7-3l1.5,3.2c-7.7,2.4-14,7.4-19,14.8C27.5,59.1,25.7,54,25.7,48.7z M48.3,71.3
	c-5,0-9.9-1.7-13.9-4.8c4.5-7.1,10.2-11.7,17.3-13.8c2.1,5.5,3.7,11.2,4.7,17C53.8,70.7,51.1,71.3,48.3,71.3z M60.8,67.4
	c-1-5.3-2.5-10.6-4.4-15.7c4.7-0.6,9.5-0.4,14.1,0.5C69.6,58.4,66,63.9,60.8,67.4z M54.6,47.2l-1.7-3.8c4.9-2.1,9.2-5.2,12.6-9.3
	c3.2,3.7,5.1,8.4,5.3,13.3C65.4,46.4,60,46.4,54.6,47.2z"/>
</svg>
