<?xml version="1.0" encoding="utf-8"?>
<!-- Generator: Adobe Illustrator 23.0.1, SVG Export Plug-In . SVG Version: 6.00 Build 0)  -->
<svg version="1.1" id="Layer_1" xmlns="http://www.w3.org/2000/svg" xmlns:xlink="http://www.w3.org/1999/xlink" x="0px" y="0px"
	 viewBox="0 0 10.6 20.7" style="enable-background:new 0 0 10.6 20.7;" xml:space="preserve">
<style type="text/css">
	.st0{fill:#B3AEB7;}
</style>
<path class="st0" d="M1.2,20.7c-0.3,0-0.6-0.1-0.8-0.3c-0.5-0.5-0.5-1.3,0-1.8l7.4-7.4c0.4-0.5,0.4-1.2,0-1.7L0.4,2.1
	c-0.5-0.5-0.5-1.2,0-1.7l0,0c0.5-0.5,1.2-0.5,1.7,0l0,0l7.4,7.4c1.4,1.4,1.5,3.7,0.1,5.1L9.5,13l-7.4,7.4
	C1.9,20.6,1.5,20.7,1.2,20.7z"/>
</svg>
