<svg xmlns="http://www.w3.org/2000/svg" width="70" height="70.5" viewBox="0 0 70 70.5"><defs><linearGradient id="a" x1="61.34" x2="-30.49" y1="70.07" y2="-52.21" gradientUnits="userSpaceOnUse"><stop offset="0" stop-color="#ffe1e0"/><stop offset=".44" stop-color="#f07b7e"/><stop offset="1" stop-color="#2f243a"/></linearGradient></defs><path fill="url(#a)" d="M0 0v70h33v-6H6V6h58v58h6V0H0z"/><path fill="#ef767a" d="M26.8 20.5h6l8.5 26h-5l-1.8-5.6h-9.7L23 46.5h-5zM26 37.3h7.3l-3.6-11.2zm17.3-16.5a2.9 2.9 0 0 1 .8-2.1 2.8 2.8 0 0 1 2.1-.7 3.1 3.1 0 0 1 2.2.7 2.9 2.9 0 0 1 .8 2.1 2.8 2.8 0 0 1-.8 2 3.1 3.1 0 0 1-2.2.7 2.6 2.6 0 0 1-2.9-2.7zm.6 6.2h4.7v19.5h-4.7z"/><path fill="#9f9aa4" d="M40.4 69.1c1.3 0 2-1.1 2-3.3 0-.2-.1-.5-.1-.7a2.8 2.8 0 0 1-.8 1.5 2.4 2.4 0 0 1-1.5.4 2.7 2.7 0 0 1-2-.7 2.9 2.9 0 0 1-.7-1.9 2.6 2.6 0 0 1 .8-1.9 3.3 3.3 0 0 1 2.2-.8 3.4 3.4 0 0 1 2.6 1.2 5 5 0 0 1 1 3.1c0 2.1-.7 3.5-1.9 4.2a3.5 3.5 0 0 1-1.4.3l-1.4-.2c-.3-.2-.7-.3-.9-.6a2.3 2.3 0 0 1-.9-1.9H39a1 1 0 0 0 .4.9 1.8 1.8 0 0 0 1 .4zm-.1-6a1.8 1.8 0 0 0-1 .4 1.2 1.2 0 0 0-.4 1 1 1 0 0 0 .4.9 1.3 1.3 0 0 0 1 .4 1.5 1.5 0 0 0 1.1-.4 1.3 1.3 0 0 0 .4-.9 1.5 1.5 0 0 0-.4-1 2.1 2.1 0 0 0-1.1-.4zm8-1.4a3.2 3.2 0 0 1 1.4.3l1.1.8a4.8 4.8 0 0 1 1 3.3 4.8 4.8 0 0 1-1 3.3 3.4 3.4 0 0 1-5 0 5.9 5.9 0 0 1 0-6.6 3.1 3.1 0 0 1 2.5-1.1zm1.4 2.2a1.6 1.6 0 0 0-2.8 0 5.1 5.1 0 0 0 0 4.4 1.6 1.6 0 0 0 2.8 0 5.1 5.1 0 0 0 0-4.4zm5-2.2l.7.2a.9.9 0 0 1 .5.3 2.2 2.2 0 0 1 0 3 1.7 1.7 0 0 1-1.2.5 2.1 2.1 0 0 1-1.3-.5 2.5 2.5 0 0 1 0-3 2.1 2.1 0 0 1 1.3-.5zm4.5.2h1.5L55 70.3h-1.5zm-3.9 1.8c0-.7-.2-1-.6-1s-.6.3-.6 1 .2 1 .6 1 .6-.3.6-1zm4.2 2.8a2.1 2.1 0 0 1 1.3.5 2.5 2.5 0 0 1 0 3 2.1 2.1 0 0 1-1.3.5 1.7 1.7 0 0 1-1.2-.5 2.5 2.5 0 0 1 0-3 1.7 1.7 0 0 1 1.2-.5zm0 1c-.4 0-.6.3-.6 1s.2 1 .6 1l.5-.2a1.7 1.7 0 0 0 0-1.6z"/></svg>