<svg xmlns="http://www.w3.org/2000/svg" width="70" height="70.5" viewBox="0 0 70 70.5"><defs><linearGradient id="a" x1="61.34" x2="-30.49" y1="70.07" y2="-52.21" gradientUnits="userSpaceOnUse"><stop offset="0" stop-color="#ffe1e0"/><stop offset=".44" stop-color="#f07b7e"/><stop offset="1" stop-color="#2f243a"/></linearGradient></defs><path fill="#ef767a" d="M33.3 22.6a8 8 0 0 1 2.4 6.2 7.8 7.8 0 0 1-2.4 6.1 10.5 10.5 0 0 1-6.9 2.1H22v9.5h-4.8v-26h9.2a10.5 10.5 0 0 1 6.9 2.1zm-6.9 10.3a4.5 4.5 0 0 0 3.3-1.1 4 4 0 0 0 1.1-3 4 4 0 0 0-1.1-3 4.2 4.2 0 0 0-3.3-1.2H22v8.3zm15.2 7.6c.1 1.9 1.4 2.8 4.1 2.8a4.1 4.1 0 0 0 2.5-.7 1.9 1.9 0 0 0 1-1.5 1.5 1.5 0 0 0-.6-1.3 4.2 4.2 0 0 0-1.9-.9l-4.3-1.6c-3.1-1-4.7-2.8-4.7-5.3a4.7 4.7 0 0 1 2.2-4 10.7 10.7 0 0 1 6-1.5 9.7 9.7 0 0 1 5.8 1.6 5.7 5.7 0 0 1 2.1 4.2h-4.5a1.6 1.6 0 0 0-.9-1.5 5.1 5.1 0 0 0-4.8 0 1.7 1.7 0 0 0-.9 1.4q0 1.5 2.4 2.1l4.6 1.7a9 9 0 0 1 3.5 2 4.1 4.1 0 0 1 1.2 3 5.3 5.3 0 0 1-2.3 4.2 9.9 9.9 0 0 1-6.2 1.8 10.2 10.2 0 0 1-6.3-1.7 6 6 0 0 1-2.4-4.8z"/><path fill="#9f9aa4" d="M40 61.7a4.8 4.8 0 0 1 2.4.7 2.1 2.1 0 0 1 .9 1.7 1.7 1.7 0 0 1-.4 1.2 2.3 2.3 0 0 1-1.3.6 4.9 4.9 0 0 1 1.5.9 1.7 1.7 0 0 1 .5 1.3 2 2 0 0 1-.9 1.7 5 5 0 0 1-2.6.7 4.7 4.7 0 0 1-2.6-.7 2.1 2.1 0 0 1-1-1.8 1.4 1.4 0 0 1 .6-1.2 1.7 1.7 0 0 1 1.4-.6 3.8 3.8 0 0 1-1.6-1.4 2.2 2.2 0 0 1-.1-.8 1.9 1.9 0 0 1 .8-1.6 3.6 3.6 0 0 1 2.4-.7zm-.2 5a1.9 1.9 0 0 0-1.6.7 1.3 1.3 0 0 0 0 1l.5.3a2 2 0 0 0 1.4.4 2.6 2.6 0 0 0 1.4-.3c.4-.2.5-.4.5-.6a.8.8 0 0 0-.2-.6l-.7-.4zm-.6-1.7l1 .4a1.5 1.5 0 0 0 1.1-.4.8.8 0 0 0 .4-.8.9.9 0 0 0-.4-.8 2.4 2.4 0 0 0-1.2-.3 2.1 2.1 0 0 0-1.2.3c-.4.2-.5.4-.5.7s.3.6.8.9zm9.1-3.3a3.2 3.2 0 0 1 1.4.3l1.1.8a4.8 4.8 0 0 1 1 3.3 4.8 4.8 0 0 1-1 3.3 3.4 3.4 0 0 1-5 0 5.9 5.9 0 0 1 0-6.6 3.1 3.1 0 0 1 2.5-1.1zm1.4 2.2a1.6 1.6 0 0 0-2.8 0 5.1 5.1 0 0 0 0 4.4 1.6 1.6 0 0 0 2.8 0 5.1 5.1 0 0 0 0-4.4zm5-2.2l.7.2a.9.9 0 0 1 .5.3 2.2 2.2 0 0 1 0 3 1.7 1.7 0 0 1-1.2.5 2.1 2.1 0 0 1-1.3-.5 2.5 2.5 0 0 1 0-3 2.1 2.1 0 0 1 1.3-.5zm4.5.2h1.5L55 70.3h-1.5zm-3.9 1.8c0-.7-.2-1-.6-1s-.6.3-.6 1 .2 1 .6 1 .6-.3.6-1zm4.2 2.8a2.1 2.1 0 0 1 1.3.5 2.5 2.5 0 0 1 0 3 2.1 2.1 0 0 1-1.3.5 1.7 1.7 0 0 1-1.2-.5 2.5 2.5 0 0 1 0-3 1.7 1.7 0 0 1 1.2-.5zm0 1c-.4 0-.6.3-.6 1s.2 1 .6 1l.5-.2a1.7 1.7 0 0 0 0-1.6z"/><path fill="url(#a)" d="M0 0v70h17v-6H6V6h58v58h6V0H0z"/></svg>