<?xml version="1.0" encoding="utf-8"?>
<!-- Generator: Adobe Illustrator 23.0.1, SVG Export Plug-In . SVG Version: 6.00 Build 0)  -->
<svg version="1.1" id="Layer_1" xmlns="http://www.w3.org/2000/svg" xmlns:xlink="http://www.w3.org/1999/xlink" x="0px" y="0px"
	 viewBox="0 0 19.6 17.2" style="enable-background:new 0 0 19.6 17.2;" xml:space="preserve">
<style type="text/css">
	.st0{fill:#2F243A;}
</style>
<path class="st0" d="M0.2,9.1L19.1,0c0.3-0.1,0.6,0.2,0.5,0.4l-6.2,15.7c0,0.2-0.2,0.2-0.4,0.2l-6-2.8c-0.2-0.1-0.3-0.4-0.1-0.5
	l8.3-8.3l-9.8,7.7H5.1L0.2,9.7C0,9.7-0.1,9.6-0.1,9.4S0,9.1,0.2,9.1z M6.9,14.4l1.7,0.8c0.2,0.1,0.3,0.4,0.1,0.5c0,0,0,0,0,0.1
	l-1.5,1.4c-0.2,0.1-0.5,0-0.5-0.2l-0.3-2.2C6.4,14.5,6.6,14.3,6.9,14.4z"/>
</svg>
