<svg xmlns="http://www.w3.org/2000/svg" width="70" height="70.5" viewBox="0 0 70 70.5"><defs><linearGradient id="a" x1="68.78" x2="-23.05" y1="64.48" y2="-57.8" gradientUnits="userSpaceOnUse"><stop offset="0" stop-color="#ffe1e0"/><stop offset=".44" stop-color="#f07b7e"/><stop offset="1" stop-color="#2f243a"/></linearGradient></defs><path fill="#ef767a" d="M35.5 22.6a8 8 0 0 1 2.4 6.2 7.8 7.8 0 0 1-2.4 6.1 10.3 10.3 0 0 1-6.9 2.1h-4.4v9.5h-4.7v-26h9.1a10.3 10.3 0 0 1 6.9 2.1zm-6.9 10.3a4.5 4.5 0 0 0 3.3-1.1 4.3 4.3 0 0 0 0-6 4.2 4.2 0 0 0-3.3-1.2h-4.4v8.3zm17.3-2c1.2-2.8 3-4.2 5.3-4.2l1.7.3v4.7l-2.2-.3q-4.8 0-4.8 6.6v8.5h-4.7V27h4.7z"/><path fill="#9f9aa4" d="M44 61.9v1.5l-3.6 6.9h-2l3.8-6.9h-4.1v-1.5zm4.3-.2a3.2 3.2 0 0 1 1.4.3l1.1.8a4.8 4.8 0 0 1 1 3.3 4.8 4.8 0 0 1-1 3.3 3.4 3.4 0 0 1-5 0 5.9 5.9 0 0 1 0-6.6 3.1 3.1 0 0 1 2.5-1.1zm1.4 2.2a1.6 1.6 0 0 0-2.8 0 5.1 5.1 0 0 0 0 4.4 1.6 1.6 0 0 0 2.8 0 5.1 5.1 0 0 0 0-4.4zm5-2.2l.7.2a.9.9 0 0 1 .5.3 2.2 2.2 0 0 1 0 3 1.7 1.7 0 0 1-1.2.5 2.1 2.1 0 0 1-1.3-.5 2.5 2.5 0 0 1 0-3 2.1 2.1 0 0 1 1.3-.5zm4.5.2h1.5L55 70.3h-1.5zm-3.9 1.8c0-.7-.2-1-.6-1s-.6.3-.6 1 .2 1 .6 1 .6-.3.6-1zm4.2 2.8a2.1 2.1 0 0 1 1.3.5 2.5 2.5 0 0 1 0 3 2.1 2.1 0 0 1-1.3.5 1.7 1.7 0 0 1-1.2-.5 2.5 2.5 0 0 1 0-3 1.7 1.7 0 0 1 1.2-.5zm0 1c-.4 0-.6.3-.6 1s.2 1 .6 1l.5-.2a1.7 1.7 0 0 0 0-1.6z"/><path fill="url(#a)" d="M6 39V6h58v58h6V0H0v39"/></svg>