<?xml version="1.0" encoding="utf-8"?>
<!-- Generator: Adobe Illustrator 23.0.1, SVG Export Plug-In . SVG Version: 6.00 Build 0)  -->
<svg version="1.1" id="Layer_1" xmlns="http://www.w3.org/2000/svg" xmlns:xlink="http://www.w3.org/1999/xlink" x="0px" y="0px"
	 viewBox="0 0 10.6 20.7" style="enable-background:new 0 0 10.6 20.7;" xml:space="preserve">
<style type="text/css">
	.st0{fill:#B3AEB7;}
</style>
<path class="st0" d="M9.4,20.7c-0.3,0-0.7-0.1-0.9-0.3L1.1,13C-0.3,11.6-0.4,9.3,1,7.9l0.1-0.1l7.4-7.4C8.9-0.1,9.6-0.1,10,0.2
	c0.1,0,0.1,0.1,0.2,0.2c0.5,0.5,0.5,1.2,0,1.7l0,0L2.8,9.5c-0.4,0.5-0.4,1.2,0,1.7l7.4,7.4c0.5,0.5,0.5,1.3,0,1.8
	C10,20.6,9.7,20.7,9.4,20.7z"/>
</svg>
