<?xml version="1.0" encoding="utf-8"?>
<!-- Generator: Adobe Illustrator 23.0.0, SVG Export Plug-In . SVG Version: 6.00 Build 0)  -->
<svg version="1.1" id="Layer_1" xmlns="http://www.w3.org/2000/svg" xmlns:xlink="http://www.w3.org/1999/xlink" x="0px" y="0px"
	 width="338.2px" height="338.2px" viewBox="0 0 338.2 338.2" enable-background="new 0 0 338.2 338.2" xml:space="preserve">
<path opacity="0.2" fill="#FAC9B8" enable-background="new    " d="M184.7,172.2c-2-2-2-5.1,0-7.1l68.6-68.6c2-2,5.1-2,7.1,0
	s2,5.1,0,7.1l-68.6,68.6C189.8,174.1,186.7,174.1,184.7,172.2L184.7,172.2z"/>
<path opacity="0.2" fill="#EF767A" enable-background="new    " d="M192.7,164.2c-2-2-2-5.1,0-7.1l68.6-68.6c2-2,5.1-2,7.1,0
	s2,5.1,0,7.1l-68.6,68.6C197.8,166.1,194.7,166.1,192.7,164.2L192.7,164.2z"/>
<path opacity="0.2" fill="#9F9AA4" enable-background="new    " d="M25.3,189.6c-2-2-2-5.1,0-7.1l49.4-49.4c2-2,5.1-2,7.1,0
	s2,5.1,0,7.1l-49.4,49.4C30.4,191.5,27.2,191.5,25.3,189.6z"/>
<path opacity="0.2" fill="#FAC9B8" enable-background="new    " d="M47.3,167.6c-2-2-2-5.1,0-7.1l49.4-49.4c2-2,5.1-2,7.1,0
	s2,5.1,0,7.1l-49.4,49.4C52.4,169.5,49.2,169.5,47.3,167.6z"/>
<path opacity="0.2" fill="#EF767A" enable-background="new    " d="M69.3,145.6c-2-2-2-5.1,0-7.1l49.4-49.4c2-2,5.1-2,7.1,0
	s2,5.1,0,7.1l-49.4,49.4C74.4,147.5,71.2,147.5,69.3,145.6z"/>
<path opacity="0.2" fill="#9F9AA4" enable-background="new    " d="M227.3,253.6c-2-2-2-5.1,0-7.1l43.4-43.4c2-2,5.1-2,7.1,0
	s2,5.1,0,7.1l-43.4,43.4C232.4,255.5,229.2,255.5,227.3,253.6L227.3,253.6z"/>
<path opacity="0.2" fill="#EF767A" enable-background="new    " d="M234.3,246.6c-2-2-2-5.1,0-7.1l43.4-43.4c2-2,5.1-2,7.1,0
	s2,5.1,0,7.1l-43.4,43.4C239.4,248.5,236.2,248.5,234.3,246.6L234.3,246.6z M304.2,176.7c-2-2-2-5.1,0-7.1l1.7-1.7c2-2,5.1-2,7.1,0
	s2,5.1,0,7.1l-1.7,1.7C309.3,178.7,306.1,178.7,304.2,176.7z"/>
<path opacity="0.2" fill="#FAC9B8" enable-background="new    " d="M80.4,52.5c-2-2-2-5.1,0-7.1l3.2-3.2c2-2,5.1-2,7.1,0
	s2,5.1,0,7.1l-3.2,3.2C85.5,54.4,82.4,54.4,80.4,52.5z M67.7,326.2c-2-2-2-5.1,0-7.1l68.6-68.6c2-2,5.1-2,7.1,0s2,5.1,0,7.1
	l-68.6,68.6C72.8,328.1,69.7,328.1,67.7,326.2z"/>
<path opacity="0.2" fill="#9F9AA4" enable-background="new    " d="M84.9,235c-2-2-2-5.1,0-7.1l12.2-12.2c2-2,5.1-2,7.1,0
	s2,5.1,0,7.1L92,235C90,236.9,86.9,236.9,84.9,235z"/>
<path opacity="0.2" fill="#EF767A" enable-background="new    " d="M250.4,326.5c-2-2-2-5.1,0-7.1l21.2-21.2c2-2,5.1-2,7.1,0
	s2,5.1,0,7.1l-21.2,21.2C255.5,328.4,252.4,328.4,250.4,326.5z M58.3,335.6c-2-2-2-5.1,0-7.1l23.4-23.4c2-2,5.1-2,7.1,0s2,5.1,0,7.1
	l-23.4,23.4C63.4,337.5,60.2,337.5,58.3,335.6z"/>
<path opacity="0.2" fill="#FAC9B8" enable-background="new    " d="M171.8,64.1c-2-2-2-5.1,0-7.1l54.4-54.4c2-2,5.1-2,7.1,0
	s2,5.1,0,7.1l-54.4,54.4C176.9,66,173.7,66,171.8,64.1L171.8,64.1z"/>
</svg>
