<svg xmlns="http://www.w3.org/2000/svg" width="1031.3" height="580.6" viewBox="0 0 1031.3 580.6"><g fill="#2f243a"><path d="M412.7 238.4l-16 5.5-23.1 7.6-3.3 1a7.4 7.4 0 0 0 2.2 2.8 7.9 7.9 0 0 1 3.2 6.4 3.1 3.1 0 0 1-.2.7c4.3 7.3 1.9 14.7.9 22.2-.4 3.7-2.3 6.8-3.3 10.2s-2.8 4.2-3.9 6.7c-2.3 5.4-6.5 9.6-10.1 14.2l-.2.2c-1.6 6-7.7 8.5-10.6 13.4s-6.9 7-10.5 10.3-6.7 6.2-10.4 9-7.3 5-9.6 8.9l-.2.2c-3.7-.2-4.4 3.8-7.3 5s-2.5 2.9-4 4-5.8 3.2-8.3 5.2-4.6 3-6.3 5.2-3.8 2.5-5.6 3.7a42.4 42.4 0 0 1-8.5 4.3c-1.3.5-2.2 2.7-4 3.5-3.6 1.8-6.4 5.3-10.7 6l-.2.2c-3.8 4.3-9.7 5.1-14.1 8.3s-11.6 5.9-17.1 9.4a36.7 36.7 0 0 1-9.9 4.3c-.2 0-.5.2-.7.1s-1.9-.2-2.2.6-2.8 1.3-4.1 2.1a44.9 44.9 0 0 1-7.6 3.8c-4 1.6-7.9 3.2-12 4.5a4.1 4.1 0 0 1-2.2.1c-1-.2-1.7-.7-2.1.9s-2 1-3.1 1.3c-4.2 1.3-8.5 2.2-12.7 3.7-6.8 2.3-13.9 2.7-21.1 2.9s-12.1.5-17.9-1.6-9.3-2.9-13.3-5.8a23 23 0 0 1-8.7-12.3 20.2 20.2 0 0 1 .3-12.4 65 65 0 0 1 3-8c1.7-3.2 4-5.8 5.9-8.9a42.4 42.4 0 0 1 7-8.8c3.7-3.5 7.2-7.4 11.4-10.4 1.7-1.2 3.2-3.1 5-4.4 4.2-3.1 7.9-6.8 12.4-9.5 2.5-1.4 4.6-3.5 6.8-5.3a12.4 12.4 0 0 1 5.6-3.1c2.4-.5 2.5-3.4 4.7-4.4s5.3-3.6 8.2-5.1 5.2-2.7 7-5.2a2.4 2.4 0 0 1 .8-.6c2.4-.5 4.3-2.3 6.4-3.1s4.6-3.1 7-4.4 5.1-2.8 7.6-4.4c6.3-4.2 13.2-7 19.7-10.9 2.5-1.5 5.6-2.5 7.9-4.1a62.3 62.3 0 0 1 11.6-5.7c2.8-1.2 4.7-3.3 7.4-4.4s5.5-2.7 8.2-4c6-2.8 11.8-5.9 17.8-8.6 3.6-1.5 7.3-2.9 10.7-4.7a148.5 148.5 0 0 1 15.7-7.2c4.1-1.5 8-3.4 12.2-5s9.5-3.5 14.2-5.4 9.1-3.3 13.8-4.8c.9-.3 1.9-.6 1.9-1.4s-1-1.1-1.7-1.5a35.2 35.2 0 0 1-3.9-1.8c-1-.5-2-.9-1.4-2.6-1.5 1.8-2.6 1.5-3.9.2s-4.1-1.6-5.8-1.6c-3.4-.1-6.2-1.6-9.5-1.9-5.4-.4-10.8-.8-16.1-1.4a161.3 161.3 0 0 0-22-.9c-1.3 0-2.4-1.5-3.5-.8s-4.1 1-6.3 1a98.2 98.2 0 0 0-12.1.7c-3.4.3-6.8-.2-10.2.9a8.3 8.3 0 0 1-6.2.2c-1.6-.6-2.4 1.3-4.1 1.2s-5.2-.6-7.8.4-4.5.8-6.8 1.2c-3.8.5-7.7.6-11.6 1.3s-4.8 1.6-7.6 1.6c-6.3 0-12.4 2.1-18.7 2.8s-15.3 2.9-22.9 4.3l-22.8 4.5a118.6 118.6 0 0 0-13.4 3.1c-5.7 1.8-11.7 1.8-17.2 3.5s-10.3 2.5-15.4 4c-2.2.6-4.9 1.8-7.5.5a.8.8 0 0 0-.8.1c-3.9 2.7-9 1.9-13.2 4.2-1.3.7-3.5.5-5 .4s-5.2 1.1-7.7 1.7a7.3 7.3 0 0 1-3.3.2c-2.3-.6-4.4.5-6.5.9a72.4 72.4 0 0 1-18 1.2c-2.4-.1-4.8.3-7.2.2a63.8 63.8 0 0 1-13.3-2.3c-3.6-1-7.4-2.3-10.3-5.5s-5.1-4.7-7.1-7.9-3.1-5.2-2.9-8.2-1-8.6.1-12.9 1.1-5.7 1.9-8.5a138.5 138.5 0 0 1 5.4-14.8 11.9 11.9 0 0 1 3-5.2c1.1-1 .3-2.8 1.3-4 2.5-3.3 3.7-7.3 5.9-10.7s3-5.5 5-7.8 4.2-6.9 6.5-10.2c.9-1.2 1.4-2.5 2.9-3s.7-.5.8-1.2.5-2.5 2.2-2.2.7 0 .7-.2c2-5.7 2.3-5.5 6-9.9l5.8-6.7c3.2-3.3 4.4-8.1 8-10.9s5.5-6.1 8.3-9.1 5.6-5.7 7.4-9.3c.9-1.8 2.8-1.4 4-2.9 3.2-4 6.8-7.6 10.2-11.4a47.7 47.7 0 0 1 6.6-6.1c4.6-3.5 7.2-9.3 13.1-11.4.2-.2.2-.9.5-1.2a10.4 10.4 0 0 1 3.9-3.9c3.2-1.7 5.5-4.6 8.3-6.9s2.1-2.8 4-3l.2-.2c.1-4.3 4.7-4 6.9-6.3a60.4 60.4 0 0 1 9.5-7.9c3-2.1 5.9-4.6 8.8-6.8s8.3-6.7 12.5-9.4 9-8.7 15.3-10.4c4.5-1.2 7.6-4.5 10.6-7.8a2.8 2.8 0 0 1 1.9-.7c3.3-.5 6-1.7 8-4.3l.5-.4c4.1-.8 7-4.2 10.9-5.5a10.9 10.9 0 0 0 3.8-2.5c2-1.7 4.1-1.8 6.5-1.9.3 0 .8-.1.9-.3 1.8-2.8 5-3.3 7.7-4.7s5.1-2.6 7.4-3c4.4-.6 7.8-3.2 11.8-4.3s8.3-2.8 12.5-3.5S265.6.9 269.5.9c8.4-.1 16.8-2.1 25.2.1 2.8.8 5.8.7 8.5 2.4s6.2 2.5 8.7 4.6l5.5 4.7c2 1.8 2.4 4.6 3.7 6.9 3.1 5.4 3.7 11.4 3 17.4-.3 3.6.1 7.3-.7 10.9-2 7.9-3.4 15.9-6.2 23.6-1.4 3.8-3.2 7.4-4.2 11.3-.1.5 0 2.4-1.7 1.3l-.5.2c1.9 4.4-2.1 6.9-3.5 10.2a105.7 105.7 0 0 1-9.6 18.6 13.5 13.5 0 0 0-1.8 3.6c-.8 2.7-3.1 4.3-4.6 6.4s-.3 3.4-1.7 4.8-1.7 4.1-4.4 4.3c-.4.1-.5.4-.5.8-.2 3.3-1.9 6.4-4.8 9.2-1.1-.8-.5-1.7-.1-2.4s1.5-5 4.1-6.3c.2-.1 0-1.1.3-1.8a43.2 43.2 0 0 1 4.6-7.8c1-1.3.7-3.7 3.2-3.8a1.1 1.1 0 0 0 .3-.9c-1.6-4 1.8-6.6 3.1-9.7 2.5-6.2 5.8-12 7.7-18.5.7-2.4 2.7-4.2 3.2-6.7s2.8-7 3.7-10.6a.8.8 0 0 1 .2-.5c2.5-2.7 2.1-6.3 2.7-9.4s1.2-6.9 1.9-10.3.9-4 1.2-5.9c.6-3.7.2-7.3.1-11 0-5.4-1.6-10.1-3.8-14.9s-7.4-6.7-12-9-10.4-1.9-15.6-2.5-8.7.4-13 1.1-8.6 3-13.3 2.4a13.6 13.6 0 0 0-3.5 1.1 61 61 0 0 1-12.4 4.4c-1.4.3-3.1.2-4.2 1.1-3.5 2.8-7.9 3.2-11.6 5.4s-10.6 4.1-15.4 7.5a64.1 64.1 0 0 1-10.6 5.9l-1.4.8c-2.8 2.8-7 3.6-9.7 6s-7.3 2.4-9 6.2c-3.2-.8-3.7 3.3-6.3 3.4-2.3 4.4-7.6 5-11 8.3s-6.1 4.7-9.4 6.9-6.3 5.5-9.9 7.6-5.7 6.6-9.2 8.3-6.3 5.3-9.8 7.6a5.8 5.8 0 0 0-1.5 1.9c-1.4 2.4-3.9 3.5-6.2 5s-2.8 1.5-3.3 2.8c-1.1 2.9-4.1 3.9-6.1 5.7s-5.9 6.2-9.2 8.9c-5.2 4.4-9.6 9.8-14.5 14.6s-8.1 7.6-10.7 12.6A7.8 7.8 0 0 1 71 148c-4 3.4-6.7 7.9-10.5 11.5a23.6 23.6 0 0 0-5.9 8.6c-.1.2-.2.5-.4.6-4.4 1.4-4.9 6.1-7.5 9a55.8 55.8 0 0 0-6.6 10c-.9 1.5-2.8 3-4.3 4.6s-3.3 5.6-5 8.4c-2.8 4.5-6.3 8.7-8.3 13.6s-6.7 10.6-7.8 17.1c-.4 2.6-1.9 5.1-2.9 7.7a27.5 27.5 0 0 0-1.6 9 22.7 22.7 0 0 0 1 9.7 16.3 16.3 0 0 0 7.2 8.3c4.8 3.1 10.6 3.9 16.1 4.1s12.6.9 18.7-.9a25.2 25.2 0 0 1 6.6-.7 42.6 42.6 0 0 0 11.7-2.3 18 18 0 0 1 4.5-.9c3.9-.2 7.5-1.7 11.4-2 1.8-.2 3.1-1.5 5-1.7 5.1-.5 10.2-.9 14.9-3.2 1.7-.8 3.7-2 5.7-.3s.5-.4.8-.5 2.7-2.1 5.2-1.9 6.8-1.6 10.4-1.6 7.2-2.1 11-2.6 7.7-1.1 11.3-2.5 10-1.6 14.8-3.6a14.9 14.9 0 0 1 6.1-.5c2.5.2 5.1-.9 7.7-1.6a68 68 0 0 1 9.2-1.8 51 51 0 0 0 7.7-1.1 58.9 58.9 0 0 1 12.5-2.5 147.5 147.5 0 0 0 17.3-2.6c3.2-.7 6.6-.4 9.7-1.2 5.5-1.3 11.1-1.2 16.6-1.9 3.7-.4 7.4-1.5 11.3-.6a8.1 8.1 0 0 0 4.6-.9c2-1.1 2.3.3 3.1 1s-.7-1.7 1.2-1.4c3.9.7 8-1.8 12 .2 6-1.8 12.2.3 18.2-1a1.9 1.9 0 0 1 2.4.7c.8 1.4 1.5-.4 2.6-.4 5.2.4 10.3 1.6 15.7 1.3a19.3 19.3 0 0 1 9.7 2c2.3 1.2 5 1.2 7.5 1.6a28.9 28.9 0 0 1 7.7 2.5c4.8 2 9.1 4.9 13.7 7.2 1.6.8 2 2.4 3.4 3.3s5 .4 7-.2c7.3-2.1 14.4-4.6 21.8-6.2l14.9-3.5c1-.2 1.9-.5 2.6.6zM195.1 418.2c-.1-4 3.1-4.6 4.6-4.7a11.1 11.1 0 0 0 4.7-1.9c4.1-2.8 8.9-4 13.5-5.4a13.3 13.3 0 0 0 4.8-2.7c.4-.3.7-.7 1.2-.8 5-1.6 9.5-4.3 14.2-6.7s6.2-5.6 10.9-4.9c.2.1.4-.3.6-.5a41 41 0 0 1 6.8-5.8c5.6-3.3 11.5-6.1 16.8-9.8 3-2 6.2-3.7 9-6a11.8 11.8 0 0 1 4.9-2.7 7.5 7.5 0 0 0 3.8-2.4c1.9-3.2 5.2-4.8 7.8-6.7a114.5 114.5 0 0 0 10.1-8c4.2-3.8 9.1-6.8 13.1-10.8s6.9-4.3 8.7-7.4 6.2-4.6 7.2-8.5a1.7 1.7 0 0 1 .6-.6c4.6-1.8 7-6.3 9.6-9.7s6-6.6 8-10.8 5-7.6 6.8-11.9 1.5-6.3 2.6-9.4 2-3.3 1.8-4.8c-.7-5.5-.9-11.3-5.3-15.7s-2.8-3-6.7-1.1-7.2 2.8-10.6 4.5-5 1.2-7 2.7-6.5 2.1-9.5 3.8c-1 .5-1.5 1.3-2.5 1.8a141.4 141.4 0 0 0-14.3 6.4c-4.5 2.3-9.5 3.3-13.4 6.5a8.5 8.5 0 0 1-2.3 1.2 45.4 45.4 0 0 0-9.3 4.1c-1.1.6-1.8 1.7-3.2 1.9-4.1.9-7.4 3.5-11 5.3s-10 5.1-14.9 7.9-10.4 5.8-15.8 8.3c-7 3.2-13.4 7.7-20.2 11.4-4.7 2.5-8.8 6-13.5 8.4s-10.4 7.1-15.9 10.3a73.1 73.1 0 0 0-8.9 6c-1.5 1.2-3.6 1.3-4.6 2.3a41.4 41.4 0 0 1-6.3 5.5c-6 4.4-11.9 9.1-17.8 13.7a19.8 19.8 0 0 0-4.7 4.4 6.8 6.8 0 0 1-2.8 3c-2.8 1-4 3.5-6 5.3s-2.1 3.1-3.7 4.3c-4.9 3.9-6.8 9.9-10.5 14.7-1.7 2.3-1.8 5.8-2.4 8.9a4.5 4.5 0 0 0 .2 3c1.3 2.2 3.2 3.7 5.1 5.4 4 3.5 8.9 3.6 13.4 5 2.9.9 6.3.7 9.4.5 5-.2 10-.8 14.9-1.4 8.2-1 15.8-3.9 23.4-6.7 1.2-.5 3.1-1.6 4.6 1.3z"/><path d="M412.7 238.5c.2-.3.2-.6.4-.7 6.7-3 9.7-9.6 14.5-14.5s6.4-7.3 10.4-10.2c1.8-1.2 3.3-2.9 5.2-4.1 4.1-2.7 7.4-6.3 11.7-8.7s10.9-6.8 16.6-9.8c4.1-2.1 8.3-4 13.1-4.2h.5c4.1-3.8 8.9-3.6 14.1-3.6 3.1 0 6.3-.2 9.5-.4s5.3 1.3 7.8 2.3c4.2 1.5 4.1 5.4 5.3 8.6a2.3 2.3 0 0 1-.1 1.8c-2.1 4-3.2 8.3-5.7 12.3s-5.8 7.1-8.6 10.8c-.7 1-1.6 2-3.1 1.8s-.6-.1-.8.4c-1.8 5.3-6.1 9.1-8.1 14.4s-4.6 8.6-6.6 12.9-5.1 9.9-6.5 15.3c-.8 3.2-2.9 5.9-3.5 9.2a46.1 46.1 0 0 1-2.7 7.9c-.7 1.9-.7 4.6-1.5 6.8s.4 1.5.7 2.3l1.6-.7c7.2-5 14.3-10.1 20.7-16.2 3.9-3.8 8.7-6.8 12.6-10.5s6.2-4.4 8.4-7.6c.9-1.2 2.4-1.6 3.3-2.5 4.9-4.8 10.6-8.6 15.2-13.7 1.6-1.8 3.9-3 4.7-5.4a.9.9 0 0 1 .6-.6c5.5-2.2 8.2-7.6 12.3-11.5 2.6-2.5 4.9-5.5 7.8-7.7s5.7-6.6 9-9.3 6.5-7.2 10-10.6 7.5-8.3 11.3-12.4c1.9-2.1 3.9-4.2 6-6.1s3.9-5.1 6.4-7.3 4.3-4.7 6.4-7 4.3-4.8 6.6-7.1a90.8 90.8 0 0 0 9.4-11c1.5-2 4.1-3.2 5.6-5.4 2.5-3.8 6.4-6.7 8.5-10.5s4.5-4.9 6.8-7.2.5-2.3 1.6-3.2c3.8-3.1 6.6-7.1 10.4-10.2s5.2-4.4 7.6-6.7a6.2 6.2 0 0 1 5.7-1.7 3.1 3.1 0 0 1 2.8 3.4c0 3-1.6 4.9-3.6 6.7q-9.4 9.1-18.3 18.9c-2.2 2.4-4.6 4.8-6.6 7.3s-3 4.3-4.9 6-3.5 4.8-5.4 6.9a83.2 83.2 0 0 0-8 11c-2.5 3.9-5.7 7.4-7.5 11.7-.3.5-.7.9-.2 1.7s1.8-1.2 2.6-2c3-2.6 5.9-5.3 8.6-8.1 4.3-4.5 9.8-7.6 13.9-12.3s7.6-5.6 11.1-8.7c2.6.9 1.8-1.9 2.8-2.7q7.5-6.1 15.6-11.7a128.5 128.5 0 0 0 12.9-9.4c2.8-2.4 6.7-4 10-6.1s7.1-4.4 10.7-6.6c5.4-3.2 11.3-5.5 16.5-9.3a12.1 12.1 0 0 1 5.8-2.2 7.7 7.7 0 0 0 4.4-2.2c2.6-2 5.8-2.5 8.7-3.7s7.3-3.7 11.5-4.6 10.7-3.5 16.4-4.4 10-2.4 15.2-3.1a98.3 98.3 0 0 1 20.3-.2c4.4.4 8.4 2.3 12.9 2 2.2-.1 4.7 2 6.9 3.2 4.8 2.7 9.2 6.1 11.3 11.5s2.1 10.4-1.4 15.2c-1.9 2.5-3.4 5.4-7.3 7.2 2-4.2 2.6-7.9 3.5-11.6a6.7 6.7 0 0 0-1.2-5.1c-1.6-2-2.9-4.5-5.1-5.9-3.8-2.3-7.6-4.5-12.3-5-2.3-.2-4.7-.2-7.1-.6s-5.2-.2-7.8-1c-.3-.1-.4-.4-.8-.1s-3.5 1.2-5.5.9-5.6-.7-8.3.8a3.5 3.5 0 0 1-3 .2c-.7-.2-.9-.5-1.4.3a1.4 1.4 0 0 1-2.4.5c-1-.8-.8.3-1.1.6-1.9 1.7-5.6 1.6-7.2-.5.6 3.3-2.3 3.5-3.5 3.5-3.1 0-5.5 1.5-8.2 2.4a114.5 114.5 0 0 0-16.9 6.2c-4 2.1-8.4 3.6-12.2 6.3a16.9 16.9 0 0 1-8.2 3.4c-.4.1-1.1-.2-1 .5s-1.5 2-2.2 2c-4 .4-6.5 4.1-10.4 4.6-.6.1 1.1.9-.1 1.6-5.1 3.1-10 6.4-15.3 9.1a32.6 32.6 0 0 0-5.5 3.9c-4.7 4-10.3 6.7-15 10.6-1.5 1.2-2.9 2.7-4.5 4a147.5 147.5 0 0 1-13.3 10.3 7.1 7.1 0 0 0-1.5 1.5 12.7 12.7 0 0 1-5.7 4.8 3.7 3.7 0 0 0-2.4 2.2 5.8 5.8 0 0 1-2.1 2.3c-6.3 4.2-10.8 10.2-16.9 14.6-2.5 1.8-4 4.9-6.1 7.4s-7.2 6.9-10.2 11a19.8 19.8 0 0 1-3.7 3.2c-2.6 1.8-4 4.4-5.5 7s-3.1 2.8-4.7 4.2a5.9 5.9 0 0 0-2.2 3 5.8 5.8 0 0 1-2.1 3.4c-3.8 3.6-6.5 8-9.1 12.5s-5.3 9.1-7.5 13.9a92.9 92.9 0 0 1-8.4 14.2 16 16 0 0 0-1.1 3.3c-.8 2.1-1.1 4.2-3 5.9s-1.5 4.7-3.2 6.8c-3.7 4.6-5.8 10.1-7.9 15.6s-5.5 10.7-8 16.2-4.6 7.7-4.9 12.4c-.1 2.6-5 4.3-7.9 3.2s-4.6-3.9-3.4-7.3c2.5-6.8 4.8-13.7 8.6-20a13.7 13.7 0 0 0 1.3-4.5 5 5 0 0 1 .9-2.4c2.8-3.7 4.6-8 6.5-12.1s5.7-9 5.9-14.6c0-1.2 1.2-2.2 2.2-3.2 2.8-2.5 3.9-6.1 5.1-9.5a21.4 21.4 0 0 1 3.7-6.4c3-3.4 4.3-7.8 7.7-11s2.3-4.9 4-7.1c5.4-7 9.1-15 13.7-22.5 1.8-3 4.7-5.2 5.8-8.7.1-.4.6-.8.1-1.2s-.8.2-1.1.6c-4.1 5.2-9.4 9.2-13.5 14.4a27.7 27.7 0 0 1-5.5 5.3c-1.3.9-1.1 3.1-2.8 3.9s-2.7 2.4-4.1 3.7c-4.6 4.6-9 9.4-13.7 14s-6.9 6.7-10.6 9.9-4.6 5.2-7.2 7.1c-6 4.3-10.6 10.1-16.5 14.5-1.5 1.2-2 3.1-4.1 4s-3.3 3.3-5.1 4.4c-4 2.6-6.4 6.8-10.5 9.1a25.1 25.1 0 0 0-4.4 3.5c-3.5 3.1-7.9 5-11.4 8.1s-5.1 3-7.9 4.1-8.4-.4-9.3-4.5-2.8-6-.1-9.3c.7-1-.3-3.2 0-4.8a28.6 28.6 0 0 1 2-6.9c2-4 3.1-8.4 4.7-12.5a142 142 0 0 1 7.2-16.5 1.9 1.9 0 0 0 .2-1.8c-1.3.3-1.8 1.4-2.5 2.3s-3.1 3.5-5.7 3.5-1.2 1-.5 1.4.7 1.7-.3 2.1c-4.9 2.1-7.5 6.9-11.7 9.9-.7.6-1.7.7-2.4 1.5a101.6 101.6 0 0 1-10.1 9.6 85 85 0 0 1-9.2 7.4c-3.9 2.6-7.6 5.8-11.4 8.6-1.9 1.4-4.4 2.3-6.1 3.9-3.8 3.7-9 5-13.4 7.6s-7.2 1.7-10.9.9-4.2-3.2-4.9-5.6-1.3-6.6 0-9.3 1-8.3 4-11.6 1.4-4.9 2.6-7.3 3.5-4.5 4.3-7.4c.3-.9.6-2.6 1.7-3.6a12.2 12.2 0 0 0 3-4.8c1.8-5 5.7-8.5 8.1-13.1-.5-.5-1.2 0-1.7-.3zm101-37.4c.8-1.5.7-2.9 1.2-4.3s-.7-3.4-1.7-5.1-1.8-.5-2.7-.6a17.5 17.5 0 0 1-3.2-.4c-3.2-.4-6.7-.4-9.3.6s-7.8.5-10.8 3.5l-1.5.5c-2.5.8-5.3 1.1-7.6 2.6-6.1 4.1-13 7-19.1 11.3-3.9 2.8-7.7 5.7-11.2 8.7s-5.6 4-7.2 7.2a4 4 0 0 1-2.2 1.8 10 10 0 0 0-4.4 4.7 3.8 3.8 0 0 1-1.4 1.9c-2.6 1.4-3.7 4.2-5.8 6.2-4.8 4.7-7.4 11.2-11.2 16.7-1.3 1.9-2.9 4.1-3.5 6.2-1.5 5-5.5 8.6-7.2 13.5-.8 2.3-.3 5.4-2.9 7-.3.2-.1.7.3.9s.5.9.1 1.3-1.3 3.2-2.1 4.7-.4 1.4.1 1.7a2.3 2.3 0 0 0 1.8.2c1.7-1.1 3.9-1.3 5.6-2.6s4.3-3.5 6.8-4.1 5.7-4.1 8.9-5.8 7.2-6.2 11.3-8.5a8.5 8.5 0 0 0 2.5-2.1c3.3-4.1 8.7-5.9 11.7-10.4a4.2 4.2 0 0 1 1.5-1.1c2.8-1 4.6-3.4 6.5-5.3 3.9-3.7 8.1-7.1 11.6-11.2s5.5-4.1 7.6-7.3 4-4.5 6-6.6 5.4-6.2 8.1-9.3c.8-.9 1.8-1 2.7-1.4-1.2-1.9 1-1.8 1.5-2.7 2.8-4.2 6.7-7.5 9.7-11.4s6.2-4.5 9.5-1zM301.6 580.6c-2.6-.3-5.4-1.6-5.8-3.6s-2.5-3.1-3.2-4.9a30.4 30.4 0 0 1-1.8-7.8c-.3-2.6-.8-5.3-.4-7.9s1-5.4 1.1-7.9c.3-6.2 2.5-11.8 4.6-17.3a79.6 79.6 0 0 1 5.5-12.4c1.7-3 3.6-6.1 5.2-9.1a101 101 0 0 1 11.7-18c3-3.6 6.2-6.9 8.7-10.9s5-5.4 7.6-8c4.9-5.1 9.7-10.4 15.1-15 3.3-2.9 6.7-5.9 10.3-8.5a104.7 104.7 0 0 0 9.8-7.4c2.5-2.2 5.6-3.1 8.1-5.2 4.4-3.6 9.6-6.1 14.3-9.2 2.4-1.6 4.4-4 8-4.2 1.7-.1 3.8-2 5.6-3.2a182 182 0 0 1 19.1-9.9c6.2-2.7 12.3-5.6 18.7-7.9s15.1-5.9 22.7-8.6c3.4-1.2 6.6-3.2 10.4-3.1a8.4 8.4 0 0 0 3.7-1.4 21.2 21.2 0 0 1 7.8-2.2 29.2 29.2 0 0 0 7.2-1.8c2.6-1 5.1-2.4 8.1-1.1.3.1 1-.6 1.5-1s4-2.2 6.3-1.2c.5.2.7.3.8-.1.5-2 2.3-2.1 3.6-2.2 4 0 7.8-1.3 11.6-2l6.8-.8a35.3 35.3 0 0 0 5.4-.8 19.1 19.1 0 0 1 9.5-.9 1.6 1.6 0 0 0 1-.1c5.1-1.9 10.4-2 15.7-2.2 3.4-.1 6.7-1 10.2-1h8.2c2.4 0 4.7.3 7.1-.2s2.4.5 3.6.4a77.8 77.8 0 0 1 18.7.5c6.4.9 13 .9 19.1 3.6 1.4.6 3.1.3 4.7.4a16.4 16.4 0 0 1 5.3 1.7c2.8 1.3 6.1 1.7 8.9 2.9a95.4 95.4 0 0 1 15.1 7.3c3.3 2.1 7.1 3.4 9.7 6.5s3.5 2.6 6.3 1.8 7.6-.9 11-2.2 9.8-1.8 14.6-3.1a58.9 58.9 0 0 1 7.1-1.3c5.1-.9 10.2-2.1 15.3-3l12-2.3c5.1-1.2 10.2-2.9 15.6-3.1s10.3-1.8 15.5-2.7 8.3-1.5 12.5-2.1c7-1.1 14.1-1.7 21-3.3 4.4-1.1 9.1-.8 13.4-2.3 5.8-2.1 11.9-2 17.9-2.8 2.2-.3 4.1-1.3 6.3-1.6s6.8-.7 10.2-1.6c1.6-.5 3.5-.3 5.3-1s4.4.8 6.5-.4 6.3-.3 9.1-2.1c.4-.2.8-.7 1.2-.6 3.7.7 7-1.1 10.6-1.4 6.9-.7 13.7-1.7 20.6-2.5s10.7-2.2 16.3-2.3c2.7-.1 5.7-1.3 8.5-1.4s4.6-.9 6.9-.1a1.2 1.2 0 0 0 1-.1c4.6-2.7 9.7-1.5 14.6-2.5 3.3-.6 6.6-1.2 9.9-1.6s8.3-.4 12.5-1c7-1 14.2-1.5 21.3-2.1 5.5-.5 11.1-1.1 16.6-1.2 3.9-.1 7.6-.7 11.4-.8 1.3-.1 2.7-.6 3.8 1-6.2 1.3-12.4 2.1-18.6 3s-10.1 1.7-15.2 2.3a15.4 15.4 0 0 1-4.3.2c-.8-.1-2.3.8-3.7 1.1-4.5.7-8.9 1.8-13.5 1.2-.5 0-1-.1-1.1.5a2.4 2.4 0 0 1-3.2 1.6c-3-.7-5.6.9-8.4 1.1s-5.9 1.2-8.8 1.2c-4.8-.2-9.1 2.4-13.9 1.8-1.4-.1-2.9 2.5-4.3-.2-1 2-3 1.5-4.7 1.8-9.5 2-19.1 3.3-28.7 4.5-1.9.3-3.7 1.6-5.6 1.6-4.8.1-9.3 1.6-14 2.2s-10.3 2.1-15.5 2.5c-8.9.6-17.5 3-26.4 4.1s-15.8 3.4-23.8 4.4-16.2 2.9-24.3 4.2c-5.4.9-11 1-16.3 2.7-6.9 2.4-14.3 2.4-21.3 4.2a62.5 62.5 0 0 1-10.8 1.9c-3.5.3-7 1.4-10.5 2s-8.6 2.3-12.9 3.1-10.9 2.1-16.4 2.9-8.5 2.2-12.7 3.5a8.2 8.2 0 0 1-3.8.3 2.6 2.6 0 0 0-2.4 1.2c-.6 1 .6 1.3 1 1.9s2.4 2.5 1.8 4.7a5 5 0 0 0 .9 3c2.3 5 1.3 10.2.9 15.4s-3.1 9.1-5.2 13.5a60.5 60.5 0 0 1-14.1 19.4c-4.9 4.5-9.3 9.5-14.6 13.7s-8.9 5.2-12.8 8.6c-5.5 4.8-12.3 7.4-18.6 10.6-4 2.1-8 4.3-12.5 5.5a63.5 63.5 0 0 0-8.4 3.8c-4.6 2.2-9.4 2.6-14.1 3.3-2.2.3-4.2 2.7-6.6.8a5.7 5.7 0 0 1-2.2 1.9c-2.3 1.1-4.6 0-6.9.2a114.5 114.5 0 0 1-11.7.5c-1.8-.1-3.5-.6-5.3-.7-6.1-.6-11.9-2.7-17.6-4.9-2.1-.8-3.8-2.5-5.8-3.5-4.5-2.3-7.3-6.5-10.5-10.1s-3.2-5.9-3.2-9.6-.1-9.5 1.4-14c1-2.9 1.4-6.5 5.2-7.8 1.7-.6 1.3-3 2.6-4.4a68.5 68.5 0 0 1 12.2-11.2c3.3-2.2 6.5-4.6 9.8-6.9a22.3 22.3 0 0 1 6.3-3.3 6.8 6.8 0 0 0 3.3-1.6c2-2 5-2.5 7-4.6s5-.5 6.8-2.7c2.3 1.8 3.5-1.1 5.2-1.6a16.4 16.4 0 0 0 6.7-3.4c1.8-1.7 5-.9 7.3-2.2 5-2.6 10.7-3.2 15.9-5.6a36.9 36.9 0 0 1 8.7-2.6c4.3-.8 8.8-1.4 12.8-3.8 1.9-1.1 4.3-.6 6.5-1.1s5-1.9 7.7-1.3 1.7-1.3 2.9-1.5c4.5-1 8.9-2.4 13.4-3.7.4-.1 1 0 1-.6s-.3-.9-.9-.7-1-1.4-1.8-2c-2.9-2.2-6.5-2.6-9.4-4.4s-7.7-2.4-11.1-4.2-5.1-.7-7.5-2.1-5.6-1.1-8.4-1.7c-6.7-1.5-13.6-.9-20.2-2.1s-10.7.2-16-.4-7.5-.1-11.3-.5-7.5.5-11.3.8-8.4 1.2-12.6 1.3c-1.8 0-3 1.3-4.8 1.1s-4 .1-6.1-.2-5.3.4-7.6 1.4-6.1 1.1-9.1 1.6a167.7 167.7 0 0 0-18.7 3.9c-3.8 1.1-7.8 1.6-11.6 2.7s-5.2 1.4-7.7 2.3c-10.1 3.7-20.4 6.8-30.5 10.3-8.1 2.7-15.9 5.9-23.7 9.1a239.8 239.8 0 0 0-22.8 11.1c-5.9 3.2-11.6 6.7-17.7 9.6-4 2-7.6 4.8-11.4 7.3a120.7 120.7 0 0 0-14.8 11c-1.7 1.6-4.2 2.8-6 4.5s-5.5 4.3-8 6.8-5.7 4.9-8.6 7.5a142.6 142.6 0 0 0-13.7 14.3c-2.9 3.5-5.9 7-8.7 10.7a132.9 132.9 0 0 0-9.1 13.1c-1.5 2.7-3.9 5.1-5.1 7.9s-4.3 8.2-5.9 12.7c-.9 2.6-1.2 5.7-3.6 7.8-.1.1-.3.2-.3.3.1 5.7-2.4 10.9-3.2 16.4a31.2 31.2 0 0 0 1.1 12.1c1.2 4.4 2.8 8.2 6.3 11.1zM566 501.9c2.3.9 5.4-.2 8.4-.3 6.4-.2 12.4-2.2 18.6-3.6l7.2-2c3.8-1.1 6.7-5.1 11.2-3.4.2.1.5 0 .5-.1 1.3-3.6 5.2-3.6 7.7-5.1 5-2.8 10.1-5.1 15-8.3s8.8-5.7 13.1-8.7a19.7 19.7 0 0 0 3.1-2.2 32.5 32.5 0 0 1 6.8-6c1.2-.7 2.5-1.3 3.1-2.7a17 17 0 0 1 5-5.7c1.2-.9 2.9-1.7 3.5-3.2 1.9-4.8 5.3-8.7 7.7-13.2 3.4-6.3 4.3-12.4 2.1-19-1-2.9-3-5.5-2.9-8.8-1 .3-1.1-1.2-2.6-1-5 .8-10 1.3-14.7 3.2s-9.7 1-13.9 3.6a3.5 3.5 0 0 1-1.1.3c-5.4.1-10.4 2.4-15.5 3.7s-9.3 2.3-13.8 3.8a253 253 0 0 0-25.6 9.5c-2.4 1.1-4.8 2.5-7.3 2.9s-5 2.1-7.7 2.7-4 2.9-6.5 3.7-3.7.8-5.3 2-4.6 3.8-7.6 4.7a7.3 7.3 0 0 0-2.9 1.6c-4.2 3.8-9.1 6.8-12.4 11.5-1.7 2.3-4.1 4.2-5.5 6.5s-3.3 4.4-3.2 7.8-.4 6.5.9 9.8 3.4 4.8 5.4 6.8.6 4.3 3.6 2.8c2.1 2.3 5.3 2 8 3.1 5.4 2.3 11 3.2 17.6 3.3z"/><path d="M743.9 318.4c-4.5-.2-9-.4-12.3-4a31.6 31.6 0 0 0-4.5-3.7c-1.6-1.2-2-2.9-2.5-4.6-1.4-4.2-1.5-8.5-1.6-12.9s1.5-11.3 2.6-16.8c.7-3.8 1.5-7.8 3.9-11.2a5.6 5.6 0 0 0 .8-3c.1-4.5 2.9-7.8 4.4-11.7a122.1 122.1 0 0 1 7.1-15.6 14.7 14.7 0 0 1 2.8-4.2 8.3 8.3 0 0 0 1.4-3.4 11.4 11.4 0 0 1 3-5.5c.6-.8 1.3-1.6.5-2.4s-1.5.5-2 1c-3.9 4.7-7.9 9.3-11.7 14-1.4 1.7-2.1 4-4 5.3a10.1 10.1 0 0 0-3.8 4.6 7.4 7.4 0 0 1-3.5 3.5 5.6 5.6 0 0 0-2.6 3.9.8.8 0 0 1-.2.4c-5.2 3.6-8.1 9.4-13 13.4-2.6 2.2-4.9 5.2-7.6 7.5s-5.6 5.8-8.9 8.2-4.2 2.4-5.2 3.7c-2.2 2.9-6.1 3.8-7.4 7.3-.4 1.3-1.3.3-2 .8-3.2 2.2-6.6 4.1-9.2 7.2-.4.5-.8 1-1.5 1s-3.3-.7-3.1 2.1c0 .6-1.3.9-2.1.8s-2.9.3-3.3 2.2-1.7 1.5-2.6 1.9a28.5 28.5 0 0 0-7.5 4.7c-2.2 2-5.5 3.1-8.3 4.5s-4.5 2.3-6.7 3.4c-5.4 2.7-11 3.1-16.6 3.7-2.9.4-5.9-1.4-8.5-3.1-4.6-2.8-5.3-7.6-5.9-12.4s1-7.6 1.5-11.4 3.2-6.1 3-9.9 2.2-4.3 3.3-6.4 1.6-5.3 3.4-7.7c3.2-4.1 4.9-9.2 8.3-13.3 1.8-2.1 2.7-5 5-6.8s4-5.6 6.2-8.2 2.4-3.6 4.1-4.9c3.9-3.1 7.1-7.1 10.8-10.5l11.2-10.6c2.6-2.5 6.3-4 8.7-6.5s7.8-5.8 11.7-8.5 7.5-4.6 11.2-6.9a91.4 91.4 0 0 1 12-6.3c3.1-1.3 5.8-3.8 9.6-3.7.8 0 1.5-1.2 2.3-1.7 3.5-2.3 7.6-2.7 11.4-4.3a67.3 67.3 0 0 1 10.9-2.9 62.7 62.7 0 0 1 16.2-1.4c4.3.2 8.4.4 12 2.8 1.6 1 3.7 1.2 4.8 3.1s1.2.6 1.9 0l2.8-1.9c1.8-1.3 4-1.7 5.6-.4s2.7 3.3 1.4 5.7-1.5 3.9-3.5 5.2-.8 2.2-1.4 3.3c-1.8 3.8-4.7 6.9-6.5 10.6s-5.6 9.2-8.5 13.7-4.9 7-6 10.8-4 6.6-5.5 10.2c-.8 1.9-.5 4-2.1 5.7a14.4 14.4 0 0 0-3 5.9c-.2.8.1 3-2.1 2.8-.7-.1-.1.4-.1.6 1.2 3.1-.2 5.9-1.7 8.2s-2.6 7.9-3.8 11.9a55 55 0 0 0-2.4 10.5c-.6 5.2-2.9 10.3-1.3 15.6s4.8 8.9 12.2 9.5c5.1.4 9.9-.8 14.7-1.9l3.2-.7c.9-.2 1.7-.2 2.1.7s-.6 1.3-1.1 1.7a72.4 72.4 0 0 1-16.8 7.5 27.5 27.5 0 0 1-4.1.2zm-127.4-3.3a31.6 31.6 0 0 0 16.9-4.4c4.1-2.4 8.4-4.5 12.7-6.7a135.8 135.8 0 0 0 17.3-10.9c5.5-3.9 10.9-8.1 16.3-12.2s11.3-9.6 16.7-14.7a259.8 259.8 0 0 0 19.4-19.9c1.2-1.4 2.8-2.1 3.8-3.3s3.4-5.4 5.8-7.5 4.4-5.2 6.4-7.7 4.1-4.6 5.9-7.1c3.7-5.4 8.5-10.2 12.1-15.7a4.6 4.6 0 0 1 1.7-1.7c2.6-.8 3.9-3.4 5.3-5.2s4.5-4.2 6.3-6.8 1.1-2-.3-2.8l-2.6-1.4c-3.7-2.8-8-.7-11.9-1.2s-5.3 1.3-8.1 1.4a16.7 16.7 0 0 0-6.5 1.5 119.2 119.2 0 0 1-11.9 4.1l-.9.3c-4.2 3.1-9.3 4.4-14 6.6-2.9 1.4-6.3 2.2-8.4 4.5s-2.8 3-4.9 3.3a5.5 5.5 0 0 0-3.4 1.8c-1.3 2-4.2 1.3-4.9 2.8s-3.2 2.8-5.1 3.9-2.8 1.2-3.8 2.3c-2.8 2.9-6.3 4.9-9 8s-6.6 4.1-8.2 8c-.1.3-.8.6-1.2.6a3.1 3.1 0 0 0-2.5 2.1 6.2 6.2 0 0 1-3.4 2.8 3.4 3.4 0 0 0-1.6 1l-12.6 15a53.4 53.4 0 0 0-5.6 7.4 122.2 122.2 0 0 1-6.6 10.4c-2.2 3.4-3.5 7.3-6.3 10.5a17.1 17.1 0 0 0-2.3 4.9c-1 2.7-1.1 5.7-2.3 8.3a23.2 23.2 0 0 0-1.6 14c.5 2.9 1.1 4 3.3 3.7zM275.4 148.9c0-2.2 1.2-3.6 2.1-5.1a.8.8 0 0 1 1.2-.2c.3.3.7.9.3 1.1s-1.3 3.6-3.6 4.2z"/></g></svg>