<svg xmlns="http://www.w3.org/2000/svg" width="192" height="141.6" viewBox="0 0 192 141.6"><g fill="#fff"><path d="M191.6 56.6c-.6-.1-.9.3-1 .8a1.4 1.4 0 0 0-.2.6c-.8 4.8-1.5 9.5-2.4 14.3a63.2 63.2 0 0 1-5.8 18 57.9 57.9 0 0 1-8.6 12.7 10.2 10.2 0 0 1-5.3 3.3 3.6 3.6 0 0 1-3.5-.3 9.1 9.1 0 0 1-2.1-1.8 37.2 37.2 0 0 1-6.8-14.5 3 3 0 0 1 .1-2.1c.3-.9 1.1-2.5 1.4-3.4a145.1 145.1 0 0 0 4.7-15.9c1-4.5 1.7-9 1-13.7a8.5 8.5 0 0 0-2.5-5.1 6.6 6.6 0 0 0-9.2.7 8.6 8.6 0 0 0-.7 1 23.8 23.8 0 0 0-2.4 5.1 66.8 66.8 0 0 0-3.3 19.8c0 2.4.1 4.7.3 7a43.7 43.7 0 0 0 2.7 12.4 1.4 1.4 0 0 1-.1 1.4 34.7 34.7 0 0 1-6 6.7 10.4 10.4 0 0 1-5.7 3.1 3.4 3.4 0 0 1-3.5-1.8 10.2 10.2 0 0 1-1.1-2.9 42.6 42.6 0 0 1-.8-8 6.3 6.3 0 0 1 1.7-4.5c3.9-4.3 6.1-9.3 5.6-15.2-.2-2.1-1-3.5-2.6-3.9a7.5 7.5 0 0 0-6.2.9c-3.7 2.6-5.7 6.3-7.1 10.5a41.3 41.3 0 0 0-1.4 7 26.6 26.6 0 0 0-.1 6.3.6.6 0 0 1-.6.8l-3.7 1.5c-.6.3-.9.2-.9-.5a13.5 13.5 0 0 0-1.8-6.2 6.1 6.1 0 0 0-5.3-3.1c-3.1-.1-5.3 1.5-7.3 3.4a35 35 0 0 0-7.3 9.4c-.1.2-.2.5-.4.5s-.3-.3-.3-.4l-3.3-8.8a3.4 3.4 0 0 1-.1-2c1-3.5 1.4-9.3 1.5-12.9a57.4 57.4 0 0 0-.6-11.7 21.1 21.1 0 0 0-2.1-7.3 4.7 4.7 0 0 0-4.3-2.7 5.7 5.7 0 0 0-5.5 3.5 25.1 25.1 0 0 0-2 8.5A55.7 55.7 0 0 0 77 80a88.7 88.7 0 0 0 5.9 19.6 2.5 2.5 0 0 1 0 2.4c-.3.6-.5 1.3-.8 1.9a46.1 46.1 0 0 1-4.3 8.6c-.1.2-.2.6-.6.5s-.2-.3-.3-.5c-.9-2-1.6-4.1-2.3-6.1a71.9 71.9 0 0 0-4.4-10.8 2.9 2.9 0 0 0-3.1-1.7c-.6.1-.8-.1-.7-.7a1.9 1.9 0 0 0-.8-1.7 5.8 5.8 0 0 0-2.5-1.2 10.2 10.2 0 0 0-10.7 4.3c-2.3 3.8-3.1 4.9-3.7 10.9 0 .2-.1 1.3-.1 2.1a13.3 13.3 0 0 0 .9 4.4c-.3 1-.6 2-.8 2.8-.9 3.3-1.8 6.8-3.5 13.4a39.1 39.1 0 0 1-3 8.3c-.6 1.2-1.3 2.4-2.3 2.7a1.3 1.3 0 0 1-1.2-.2c-.7-.4-1.4-1.4-1.6-4.1s-.2-5.8-.8-10.1-1.1-10.6-3.1-14.9c-.6-1.7-1.4-3.2-3.3-3.6-3.8-.8-7.5 5.6-8.3 7a26.9 26.9 0 0 1-1.6 2.9 82 82 0 0 0-4.2 9.6l-.2-.6a212 212 0 0 1-4.9-23.7c-.4-2.8-.8-5.6-1.1-8.5s-.3-4.6-.6-6.9a2.5 2.5 0 0 1 .9-2.4l2.1-1.6a50.8 50.8 0 0 0 10.5-16.2 27.7 27.7 0 0 0 2.2-11c-.1-3.2-.5-6.5-3.2-8.5a7.5 7.5 0 0 0-8.7-.6c-4.9 2.7-7.2 7.8-9 13.1A48.4 48.4 0 0 0 2.4 64 95.4 95.4 0 0 0 .1 81.6c0 2.2-.1 4.4-.1 6.7a65 65 0 0 0 .6 7.4c.3 2.5.7 6.6 1.3 9.9a154.8 154.8 0 0 0 5.5 21.3 53 53 0 0 0 3.4 7.7 4.7 4.7 0 0 0 5.3 2.5 2 2 0 0 0 1.6-2c0-.8-.1-1.5-.1-2.3a25.1 25.1 0 0 1 3-11.7 20.7 20.7 0 0 1 2.7-4.5c1.1-1.4 3-3.4 3.8-3.1s1.3 2.2 1.7 3.5a62.1 62.1 0 0 1 1.3 7.3c.8 4.2 1.3 9.6 2.9 13.3a6.9 6.9 0 0 0 1.6 2.2 5.2 5.2 0 0 0 5.6 1.5c2.1-.7 3.2-3.4 4.2-5.6a27.5 27.5 0 0 0 2-5.7c2.2-9.4 3.3-12.8 4.1-15.9a6.5 6.5 0 0 0 3.2 2.9 4.3 4.3 0 0 0 5.3-1.3 15.6 15.6 0 0 0 1.6-2.8c1.3-2.8 2.5-5.7 3.7-8.5a20 20 0 0 1 1-2.1c.1.3.1.6.2.8a44.4 44.4 0 0 0 2.1 7.1 11.3 11.3 0 0 0 4.5 5.6c2.9 1.9 7.2 1.9 9.5-2.2a27.4 27.4 0 0 0 2.1-4.2c.6-1.3 1.1-2.7 1.7-4.2l1.3 2.1a5.2 5.2 0 0 0 6.5 2.7 1.6 1.6 0 0 0 1.5-1.7 9 9 0 0 1 .9-3.2 53.8 53.8 0 0 1 3.1-6.4 22.7 22.7 0 0 1 7.3-7.8.8.8 0 0 1 1 .2c0 .1.1.2.1.3a44.7 44.7 0 0 1 .4 7.3c0 .9-.2 1.3-1.2 1.6a7.4 7.4 0 0 0-5.2 5.1 14.3 14.3 0 0 0-.4 4.1 12.2 12.2 0 0 0 2.6 7.8 3.9 3.9 0 0 0 2.6 1.7c2.7.5 4.6-.8 6.1-2.8s3.3-7.5 3.6-11.6c.1-1.4 0-2.9 0-4.3s0-.8.6-.9a14.8 14.8 0 0 0 3.5-1.3c.9-.5 1.2-.6 1.3 0a11.7 11.7 0 0 0 .5 2c2.6 9.5 13.2 12.2 20.3 7.2a29.7 29.7 0 0 0 7.3-7.7c.4-.6.6-.5.9.1a22.7 22.7 0 0 0 6.1 7 15 15 0 0 0 16.8 1.1 17.7 17.7 0 0 0 5.4-5.5 57.8 57.8 0 0 0 9.4-19.3c2.1-8.4 2.1-10.8 2.9-16.2.4-3 .9-6 1.3-9 .1-.5.3-1-.3-1.2zm-57.7 18.6c2.2 2.4.9 8.6-2.7 12.4 0-4.4.6-8.6 2.7-12.4zM9.2 72.9c.2-2.6.4-5.3.8-7.9a49.1 49.1 0 0 1 3-13 10.1 10.1 0 0 1 3.1-4.3 2.2 2.2 0 0 1 2.7 0 8.6 8.6 0 0 1 3.1 5.7A24.3 24.3 0 0 1 20 65.9 49.7 49.7 0 0 1 12.1 79c-.9 1.1-2 2.1-3.2 3.3 0-3.3.1-6.4.3-9.4zm55.1 26.3a133.5 133.5 0 0 1-5.7 12.1l-1.2 1.9a23.6 23.6 0 0 1 .2-4.6 35.7 35.7 0 0 1 2.7-11.5 7.8 7.8 0 0 1 2.1-3.3 1.1 1.1 0 0 1 .8-.3c.7.1.9.8 1.2 1.3a7.3 7.3 0 0 1-.1 4.4zm24.6-22.8a45.3 45.3 0 0 1-1.2 9 43.1 43.1 0 0 1-1.9-6.1 60.8 60.8 0 0 1-1.6-8.7 39 39 0 0 1 .2-11.3c.1-.4.1-.9.5-1s.6.4.8.7a16.4 16.4 0 0 1 2.8 7.6 40.3 40.3 0 0 1 .4 9.8zm18.3 38.3c-.1.6-.2 1.6-.8 1.7s-.9-.8-1.2-1.4a11.9 11.9 0 0 1-1.8-6.4 8.1 8.1 0 0 1 3.1-6l.6-.3c.3.2.2.5.2.7.2 2.1.1 4.3.1 6.7a27.5 27.5 0 0 1-.2 5zm47.7-30.3a94.2 94.2 0 0 1-.8-18.4 47.5 47.5 0 0 1 1.9-13l.7-1.8c.3-.6.7-.6 1.2-.2a11 11 0 0 1 2 2.8A15.6 15.6 0 0 1 161 59c.2 4.4-.9 8.6-2 12.8a120.8 120.8 0 0 1-3.8 11.6z"/><path d="M18.7 31c4.6 3.9 9.3 7.7 13.8 11.8A89 89 0 0 1 43.2 55a1.1 1.1 0 0 1 .1 1.4c-2.2 3.3-4.3 6.5-6.3 10a61.3 61.3 0 0 0-4.8 10 15.6 15.6 0 0 0-1 6.4c.3 3.3 2.5 5.2 5.5 6.2a13.6 13.6 0 0 0 8.9 0 19.8 19.8 0 0 0 12.1-10.4 24.5 24.5 0 0 0 2.4-11 24.4 24.4 0 0 0-3-12.1 44.1 44.1 0 0 0-5-7.2c-.2-.3-.5-.5-.1-1a93.6 93.6 0 0 1 6.2-7.9c.9-.9 1-.9 1.8.1a6.7 6.7 0 0 0 8.2 1.9 20.7 20.7 0 0 0 3.2-1.9l2.2-1.8a13.4 13.4 0 0 1 .1 2 9.3 9.3 0 0 0 1.1 4.4c1.4 2.6 5.9 3.8 8.3 1s4.9-5.6 7.1-8.6a47.6 47.6 0 0 0 8-15.5 1.9 1.9 0 0 1 .7-1.2 57.7 57.7 0 0 0 4.4-4.2c3.1-3.2 6.4-6.2 9.8-9.1a28.3 28.3 0 0 1 2.8-2 6.6 6.6 0 0 1-.9 1.9 132 132 0 0 0-7 14.1 59.8 59.8 0 0 0-2 6.9c-.4 2-.7 4.1-.9 6.1a19.1 19.1 0 0 0 .5 8.9 5.3 5.3 0 0 0 5.6 3.9c1.6-.1 2.5-1.1 3.5-2.1 3.7-3.8 7-8 10.8-11.8l3.2-3.2.3 1.7a5.3 5.3 0 0 0 6.1 4.4 5 5 0 0 0 2-.8 11.2 11.2 0 0 0 3.6-2.9l2.9-3a1.1 1.1 0 0 1 .2.8 14.2 14.2 0 0 0 3.9 9.4c2.1 2.4 6.5 2.9 8.8-.2s3.7-5.2 5.5-7.9c3.7-5.7 7.9-11 11.9-16.5a4.4 4.4 0 0 0 .8-1.1c.1-.2.3-.5.1-.7a.8.8 0 0 0-.8-.1 3.6 3.6 0 0 0-1.9 1.3c-3.2 3.6-6 7.6-8.9 11.4a110.1 110.1 0 0 1-9.5 11.9c-.2.1-.3.5-.6.4s-.3-.4-.3-.7c-.6-3-.1-6 .4-8.9a47.8 47.8 0 0 0 .9-7.6c0-2.2-.6-2.9-2.9-3.4a4.9 4.9 0 0 0-1.7.1c-.4 0-.6-.1-.7-.5a3.8 3.8 0 0 0-2.6-2.9 10.8 10.8 0 0 0-10.5 1.8c-3.1 2.4-4.9 5.8-6.2 9.4a3.2 3.2 0 0 1-.9 1.6c-4.5 4.4-9 8.9-13.3 13.6l-1.5 1.6.3-1.5c1.3-4.8 2.5-9.6 3.8-14.4s2.6-9.4 4.2-14.1a22 22 0 0 0 1.5-7.2c.2-2.9-1.4-4.4-4-4.2-.9.1-1.4.8-2.1 1.3a108.6 108.6 0 0 0-10.6 8.4l-6.5 5.9a2.1 2.1 0 0 1-1.1.8 33 33 0 0 0 .8-7.7 11.8 11.8 0 0 0-1.8-6.3A2.9 2.9 0 0 0 96.6 1a6.6 6.6 0 0 0-6.9 1.7 13.3 13.3 0 0 0-3 13.9 7.4 7.4 0 0 0 6.4 5.5 11.3 11.3 0 0 0 2.6-.1A54.7 54.7 0 0 1 82 43a86.8 86.8 0 0 1 .1-10.2c.1-1.8-.2-2.3-2-3-.3-.1-.5-.2-.5-.6a7.8 7.8 0 0 0-2.8-6 9 9 0 0 0-6.5-2.1c-7.2.1-14.3 6.6-12 15.3a.6.6 0 0 1-.3.8 21.9 21.9 0 0 0-3.4 3.4 61.2 61.2 0 0 0-3.9 5c-.4.4-.6.4-.9 0l-1.1-1.2a173.3 173.3 0 0 0-16.3-14.6 47.2 47.2 0 0 1-7.4-6.7 7.3 7.3 0 0 1-1.5-7.3c1.6-4.6 5.1-7.3 9.4-8.9 2-.8 3.4-.1 4.4 1.7a12.6 12.6 0 0 1 1.6 4.2c.2.6.6.7 1.1.8s.9-.2 1-.8a15.5 15.5 0 0 0 .5-2.3c.4-2.9-.1-5.1-2.8-6.6a13.8 13.8 0 0 0-8.5-1.3 26.4 26.4 0 0 0-17.3 9.7c-3.4 4.3-3.3 8.7 0 13a31.3 31.3 0 0 0 5.8 5.7zm119.4-2.5a79 79 0 0 1 5.8-9.6c.5-.7.5-.7 1 0a2.7 2.7 0 0 1 .7 2.4c-.2.8-.5 1.6-.7 2.2a12.6 12.6 0 0 1-2.8 4 40.8 40.8 0 0 1-4.7 4.6 4.2 4.2 0 0 1-1.4.9 45.4 45.4 0 0 1 2.1-4.5zM95.5 10.4a21.1 21.1 0 0 1 .6-6.1c.1 0 .1-.1.2-.3a8.3 8.3 0 0 1 1.6 3.6 22.4 22.4 0 0 1-.9 10.3c-.1.4-.3.7-.7.7s-.3-.5-.3-.8c-.3-2.5-.4-4.9-.5-7.4zm-28.7 28a42.3 42.3 0 0 1 2.3-9.8 9 9 0 0 1 2.3-3.2 1.2 1.2 0 0 1 1.4 0 10.9 10.9 0 0 1 3.3 4.6.8.8 0 0 1-.2.9 6.5 6.5 0 0 0-1.6 3.2 2 2 0 0 1-.4.8 27.3 27.3 0 0 1-5.8 4.3h-.2c-1.2.6-1.2.5-1.1-.8zM45.3 58.2a34.5 34.5 0 0 1 5.3 11.9 18.3 18.3 0 0 1 .4 5.7c-.3 4-1.6 7.6-5 10.1s-5.8 2.8-9 1.4a5.6 5.6 0 0 1-3.3-5.4 22.2 22.2 0 0 1 2.6-9 122.8 122.8 0 0 1 8.1-14.6c.3-.3.5-.8.9-.1z"/></g></svg>