<svg xmlns="http://www.w3.org/2000/svg" width="854.2" height="193.8" viewBox="0 0 854.2 193.8"><g fill="#2f243a"><path d="M81.7 106.4a70.2 70.2 0 0 1-4.5-8.1 4.3 4.3 0 0 1-1.7-2.4 1.4 1.4 0 0 0-1-.5c-1.2-1.9-3.6-2.6-5-4.3-1.4 0-1.4-1.2-2.6-1.2s-.7-.7-1.2-1.2h-1c-.7-.9-1.7-.7-3.1-1.2s-1.4-1.4-3.1-.9a26.3 26.3 0 0 0-9.4-3.6c-2.4-1.7-6.9-1-9.3-2.7-.7-1.2-1.7-2.1-2.2-3.6-1.2-5.7-.2-11.2.5-17a2.7 2.7 0 0 0 .7-2.1 92.2 92.2 0 0 0 3.2-8.9c.2-.2-.3-.2 0-.7.9-3.4 2.8-6 3.6-9.3.2 0 .4-.3.7-.3v-.7c2.8-2.9 5.7-5.8 8.4-8.4 1.9-.7 2.1-2.9 4.7-2.6 1-1 1.5-1 2.9-1.2s2.2-1 3.4-.7.7.7 1.4.7.7 0 1.2.2.7.7 1.2 1 1.2-.3 1.4 0 1.2.9 2 1.2a6 6 0 0 0 1.9 0c1.4.2 2.1.7 3.3.2s1.5-1.2 1.9-1.9a35.4 35.4 0 0 0-1.2-6c-.9-1.4-1.4-3.6-3.3-4.1-.2-1.4-1.7-1.6-1.9-3.1-2.2-1.7-3.6-4-6-5.5-.5-.2-.2.3-.7.3s-1.2-1.2-1.5-2c-2.6.5-3.1-2.6-5-1.4s-.7-.7-1.2-1a3 3 0 0 1-2.4-1.2c-1.2.8-2.1-.7-3.1-.9s-1.2 0-1.7 0S50.1.1 49.4.1h-1.7c-2.6.2-5-.5-7.4.2s-3.1.7-5.3 1-3.6 1.7-4.8 3.3c-1.2 0-.9 1.5-2.4 1.5S26.1 8 25 8.2s-.3 1-.8 1.2c-2.1 1.2-3.3 3.4-5.2 4.8 0 .5-.3.5-.3 1C10.8 23.6 5.5 34.3 2 47.3 1 56.1-.9 65.2.5 74.6c0 .9 1 2.1.5 3.6 1.4.7 1.9 2.1 2.4 3.6 2.1 1.2 3.8 3.1 5.7 4.3a1.2 1.2 0 0 0 1.2.5 8.3 8.3 0 0 0 2.4 2.1c.5 0 .5-.5 1-.5l2.6 1.7h1.2c1 .3 1.7 1 2.4 1.2s3.9.3 6 .5 7.7.5 10.5.7a13.1 13.1 0 0 0 2.4 1.7c.3-.2.3-.5.8-.5s2.6 1 4 1.2a49.4 49.4 0 0 1 5.5 13.2c1.7 7.2-.7 15.1-1.6 22.3a30.5 30.5 0 0 0-1.7 8.6 36.8 36.8 0 0 0-2.4 9.1c-2.9 3.8-3.8 9.6-5.5 14.1-.7.3-.7 1-1.5 1.5a23.7 23.7 0 0 0-5.5 3.6l-1.2.2c-1.4 1.7-2.8 3.3-5.7 3.3-1-1.6-1-3.3-1-5.5a23.6 23.6 0 0 0-.7-3.3c0-1.9.7-4.1.5-6a31.7 31.7 0 0 1 .7-4.6c.3-2.1 0-4 1-5.5s-.5-.4-.5-1.4.7-.5.7-1c.5-3.1 2.2-4.8 3.6-6.9 1.2.5 2.2 0 3.1 0s3.6 2.4 6.2 1.4c.3-.4-.2-.4-.2-.9A7.6 7.6 0 0 0 40 135c-.9-3.4-5-3.9-6.7-6.3h-1.2a4.4 4.4 0 0 0-4.3-1.2 18.4 18.4 0 0 0-5.5-.7c-.2.2-.2.7-.7.5a3.1 3.1 0 0 1-1.7-.3 11.5 11.5 0 0 1-.9-2.6c0-.7.4-.9.4-1.4s-.9.7-1.6 1.2-1.5 4-2.4 6c-.5.4-1 .7-1.2 1.2s-.3 1.4-.5 1.9l-.7.2c-.3.5-.3 1.5-1 1.5s-.5-.5-.7 0-1.7 2.8-1.9 4.7-.3 1.7-1 2 .7.7.7 1.2-1.2 4.5-2.4 6.2a9.1 9.1 0 0 1-1.2 3.3c-.2 1.5-.4 2.7-1.2 3.4a53.6 53.6 0 0 0-1.1 15.1c-.5 0-1.2-.3-1.2.2s2.1 2.2 2.3 3.6 0 .7 0 1.2.5 1 .5 1.5a.7.7 0 0 1-.2.4c0 .3.2.5.2 1a6.4 6.4 0 0 0 .7 2.1 4.5 4.5 0 0 1 3.2 2.4c1.6.8 3.3 1.2 4.8 2.4a4.1 4.1 0 0 1 3.5 1c3.2.2 6.3.2 9.4.2.2-.2.2-.7.5-.9s.4.5 1.2.2 2.8-.5 4.5-.5a3.3 3.3 0 0 1 3.1-1.2c1-.9 2.4-1.4 3.6-2.4h.7c4.6-3.1 9.9-5.7 13.7-9.3h.7a5.7 5.7 0 0 1 2.7-2.6 6.6 6.6 0 0 1 2.3-2.4c.8-1.7 2.9-2.2 3.4-4.1 1 0 1-1 1.2-1.4s1.2-1.2 1.9-1.2A26.2 26.2 0 0 1 70 156c1.4-2.6 3.8-4.5 4.8-7.6a11.4 11.4 0 0 0 1.9-3.4 18.6 18.6 0 0 0 3.3-8.8c.5-.5 1-1 .8-1.7s.7-.3.9-.7-.5-.8-.5-1.2c.8-2.9 2.4-5.1 1.7-8.4a24.5 24.5 0 0 0 .7-7.2c.3-3.8-1.6-7.2-1.9-10.6zM56.8 12.5a5.4 5.4 0 0 1-3.1 0c.2-.4 3.1-1.6 3.1 0zM28.3 35.8a59.8 59.8 0 0 0-3.6 8.6c-1.2 0-.9-2.1-.7-2.9s1-.7 1.2-1.2 1.4-4 2.6-5.2h.5zM39.1 93c-.5 0-.7 0-.7-.4h.7zm154.8 37.1h.2v-.3zm176.3 0h.2v-.3z"/><path d="M384.5 94c-1.4 3.3-3.3 5.3-4.5 8.4-.3 0-.5.2-.8.5s-.2.7-.7 1.2-1.2 1.9-1.7 2.8a3.1 3.1 0 0 1-1.9 2.4c0-.2-.2-.5-.2-.7a1.7 1.7 0 0 0 .7-1.7c0-.5.5-.7 1-.7.4-2.6 2.1-4.8 3.6-6.5s-.8-.4-.8-.7 1.5-1.7 1.7-2.9a15.5 15.5 0 0 0 3.8-6.9c-1.6 1.2-2.4 3.4-4.3 4.3a6.8 6.8 0 0 1-2.1 4.3c-.3 1.2-.5 1.9-1.2 1.9-1.7 5.1-5.8 9.9-5.3 9.6s-.5.3-.7-.2a21.9 21.9 0 0 1-1.2 3.3 1 1 0 0 0-1.2.3c0 2.9-2.4 3.3-2.9 6.2a32.2 32.2 0 0 0-4.5 8.1 1.9 1.9 0 0 0-1 1.7 55.4 55.4 0 0 0-3.8 6.3 9.6 9.6 0 0 0-1.9 2.8c0 .3-.5 0-.5.5a1.8 1.8 0 0 0-.3 1.2l-.9 1c-1 2.1-2.4 3.6-3.4 5.7-.7.3-.4 1.5-1.2 1.2a2.5 2.5 0 0 0-.2 1.2c-.5-.2-.5 0-.7.2a12.4 12.4 0 0 1-2.7 2.9c-.9 1.9 0 0-1.6 1.5a1.5 1.5 0 0 1-.8-1.7c-1.6-1.5-1.9.5-2.8-1.7s-.3-2.1.2-2.4-.2-.5-.2-.9c0-2.4-1.5-4.4-1.2-7.5l-1-.9a6.6 6.6 0 0 0-.2-4.8c.7-.7 0-1.9-.3-2.4a1.2 1.2 0 0 0 .5-1c-.7-.9 0-1.9-.5-3.1 1-1.4-.2-3.6.8-5.3a4.5 4.5 0 0 1 0-3.6c0-.4-.5-.7-.5-1.2s-.3-1.6-.3-2.3.5.2 1 0 .5-2.7 0-3.4 0 .7-.5 1-.5-.3-.5-1 1-.5 1.7-.5 1.4-2.1.3-3.1.7-.2.7-.7-1.5-1.4-.5-1.7-.2 1 .5 1v-1.9c-.3-.3-.5.4-.7-.3a1.7 1.7 0 0 0 1.4-.5c.2-1.6-.5-2.6-.3-3.8s.3.5.8.5.4-1.5 0-2.4-.5.5-.8 0 .5-.3.8-.3c.9-2.1.9-5.5.9-7.9-.7.5-1.4-.4-.5-.4s.5.4.8.2a5.6 5.6 0 0 1 .4-3.4c-.4-.2-1.4-.2-1.6.3-.3-1.2.4-1.9.2-2.6a1.5 1.5 0 0 1 1 .2c.4.2 0 .9.2 1.2.5-1.2 0-1.9.7-2.9s-.5.5-.9.3-1.2-.3-1.5-.8.5-1.2 1-1.2.2.3.5.5.2-.7.4-.7.3.5.5.5.3-1 .3-1.7-.5 0-.5-.2 1.4-2.7.5-3.4a2.1 2.1 0 0 0 .2-2.6c-.2 0-.5.7-.7 0s.2-2.4-.3-3.6a1.7 1.7 0 0 1-.7-1.5c-1.9-.7-3.1-2.1-4.5-3.1a.6.6 0 0 1-.7.7c-.3-.2-.5-.7-1.2-.7s.4.7 0 .7-7.7-1.9-9.1-1.4-.3-.7-.5-.9-3.4 1.4-3.4-.5c-1.7.2-1.7 3.3-3.3 2.6s-1.2 2.4-1.9 3.4 0 1.2 0 1.6-.3 2-.8 3.2-1.2 2.6-.7 3.8c-1.4 1.9-1.7 5.3-2.6 7.4a6.1 6.1 0 0 1-1.9 0c-.3-.2-.3-.7-.5-1.2s-2.4-.7-3.6-.9-1.4.2-1.4 0-2.7-.8-5.3-.8-7.9 1.2-8.9 1.7-.5-.2-.9-.2a2.6 2.6 0 0 1-1.5.5c-.7.4-1.2 1.1-2.4 1.1a16.8 16.8 0 0 1-2.8 2.4c-.3 1.2-2.4.8-2.9 2a1.5 1.5 0 0 1-1 .2c-.2 1.4-2.1 1.7-1.4 3.1-.3-.2-.3-.5-.7-.2a1.6 1.6 0 0 1-1.2.9c.2.8-.3 1-.8 1.7s.8.3.5 1-.7.4-.9.7c-1 2.9-2.9 6-2.7 9.1-.2 0-.2.2-.7.2s-.5 2.2.3 3.1a4.2 4.2 0 0 0-1.2 2.7c0 .2.2.5.2.7a18 18 0 0 0-.2 8.4c-.8.7-.3 1.4-.8 2.4 1 1.9-.2 4.5 1 6.4a3.2 3.2 0 0 0-.3.9l-.2.3v-.2c-1.2 1.4-9.1 13.7-14.6 21.8a1 1 0 0 0-.9.5c-.3 0-.3.5-.3.9-2.1 3.2-3.6 7-3.8 7-1 2.4-2.9 2.4-3.4 5.3-2.6 5.7-3.6.9-5-3.2s.7-10.7 1.7-16c.7-2.6.7-5.3 1.2-8.2s.4-8.8.7-13.4c-.7-.4-.7-1.6-1.2-2.4s-1.9-1.6-2.9-2.4l-3.1-.2-2.4-3.4c-.5-1.1-1.4-1.6-1.9-2.8a6.2 6.2 0 0 0-2.2-1.7 11.3 11.3 0 0 0-2.6 0 6.9 6.9 0 0 1-2.6-1.7c.4-.5 0-.9 0-1.7a1.1 1.1 0 0 0 .4-.9c.3-5 1.7-9.6 2.7-13.7 0-.7-.3-1.4 0-2.1s.5-.7.7-1.2 0-1.9.2-2.9a47.9 47.9 0 0 0 2-8.1c1.4-1.2.7-3.6.9-5.3a4.7 4.7 0 0 0 0-3.1c0-.3-.5-.3-.7-.5s-1.2-2.2-2.6-2.2-.5-.9-1-.9-3.8-1-4.8-2.4-3.3-.3-5-.3a1.4 1.4 0 0 1-.5-.9c-1.9 0-3.8-.7-4.3.9l-1.7.8c-.7-.5-1.4-.8-1.7-1.7a16.1 16.1 0 0 1-3.1 0c-.9 1.7-4.8.7-6.7 1.4s-1.4 1.5-1.9 1.9-.7.3-.7.5 0 .5-.3.7-1.2 1-1.6 1.5l-.8 1.4c-.4 1-1.2 1.5-1.6 2.6s.2.5.2 1c-3.6 7.7-2.6 18.5-.7 27.1a10.8 10.8 0 0 1 1.9 4.8h.1c-.9 1.3-1.5 2.1-1.3 2s-.5.3-.7-.2a21.9 21.9 0 0 1-1.2 3.3 1 1 0 0 0-1.2.3c0 2.9-2.4 3.3-2.9 6.2a32.2 32.2 0 0 0-4.5 8.2 1.9 1.9 0 0 0-1 1.7 55.4 55.4 0 0 0-3.8 6.3 9.6 9.6 0 0 0-1.9 2.8c0 .3-.5 0-.5.5a1.8 1.8 0 0 0-.3 1.2l-.9 1c-1 2.1-2.4 3.6-3.4 5.7-.7.3-.5 1.5-1.2 1.2a2.5 2.5 0 0 0-.2 1.2c-.5-.2-.5 0-.7.2a12.4 12.4 0 0 1-2.7 2.9c-.9 1.9 0 0-1.6 1.5a1.5 1.5 0 0 1-.8-1.7c-1.6-1.5-1.9.5-2.8-1.7s-.3-2.1.2-2.4-.2-.5-.2-.9c0-2.4-1.5-4.4-1.2-7.5l-1-.9a6.6 6.6 0 0 0-.2-4.8c.7-.7 0-1.9-.3-2.4a1.2 1.2 0 0 0 .5-1c-.7-.9 0-1.9-.5-3.1 1-1.4-.2-3.6.8-5.3a4.5 4.5 0 0 1 0-3.6c0-.4-.5-.7-.5-1.2s-.3-1.6-.3-2.3.5.2 1 0 .5-2.7 0-3.4 0 .7-.5 1-.5-.3-.5-1 1-.5 1.7-.5 1.4-2.1.2-3.1.8-.2.8-.7-1.5-1.4-.5-1.7-.3 1 .5 1v-1.9c-.3-.3-.5.4-.8-.3a1.8 1.8 0 0 0 1.5-.5c.2-1.6-.5-2.6-.3-3.8s.3.5.8.5.4-1.5 0-2.4-.5.5-.8 0 .5-.3.8-.3c.9-2.1.9-5.5.9-7.9-.7.5-1.4-.4-.5-.4s.5.4.8.2a5.6 5.6 0 0 1 .4-3.4c-.4-.2-1.4-.2-1.6.3-.3-1.2.4-1.9.2-2.6a1.5 1.5 0 0 1 1 .2c.4.2 0 .9.2 1.2.5-1.2 0-1.9.7-2.9s-.5.5-.9.3-1.2-.3-1.5-.8.5-1.2 1-1.2.2.3.5.5.2-.7.4-.7.3.5.5.5.3-1 .3-1.7-.5 0-.5-.2 1.4-2.7.5-3.4a2.1 2.1 0 0 0 .2-2.6c-.2 0-.5.7-.7 0s.2-2.4-.3-3.6a1.7 1.7 0 0 1-.7-1.5c-1.9-.7-3.1-2.1-4.5-3.1a.6.6 0 0 1-.7.7c-.3-.2-.5-.7-1.2-.7s.4.7 0 .7-7.7-1.9-9.1-1.4-.3-.7-.5-.9-3.4 1.4-3.4-.5c-1.7.2-1.7 3.3-3.3 2.6s-1.2 2.4-2 3.4a4.2 4.2 0 0 0 0 1.6c-.4.8-.2 2-.7 3.2s-1.2 2.6-.7 3.8c-1.4 1.9-1.7 5.3-2.6 7.4a6.1 6.1 0 0 1-1.9 0c-.3-.2-.3-.7-.5-1.2s-2.4-.7-3.6-.9-1.4.2-1.4 0-2.7-.8-5.3-.8-7.9 1.2-8.9 1.7-.5-.2-.9-.2a2.6 2.6 0 0 1-1.5.5c-.7.4-1.2 1.1-2.4 1.1a16.8 16.8 0 0 1-2.8 2.4c-.3 1.2-2.4.8-2.9 2a1.5 1.5 0 0 1-1 .2c-.2 1.4-2.1 1.7-1.4 3.1-.3-.2-.3-.5-.7-.2a1.6 1.6 0 0 1-1.2.9c.2.8-.3 1-.8 1.7s.8.3.5 1-.7.4-.9.7c-1 2.9-2.9 6-2.7 9.1-.2 0-.2.2-.7.2s-.5 2.2.3 3.1a4.2 4.2 0 0 0-1.2 2.7c0 .2.2.5.2.7a18 18 0 0 0-.2 8.4c-.8.7-.3 1.4-.8 2.4 1 1.9-.2 4.5 1 6.4a2 2 0 0 0-.2 1.7c.2.3.7 0 .7.7s.2 3.6.9 4.4 1.2 1.4.8 2.8a6.3 6.3 0 0 1 2.1 1.9c-.2 0-.7 0-.7.3.2 1.9 1.9 2.4 1.9 4.5a4.2 4.2 0 0 0 1.2.8c.7 2.1 3.4 2.3 5 3.3s2.2 2.4 3.9 2.4a3.3 3.3 0 0 0 2.8.2c.5.3.5.8 1 .8 3.6.4 5.5-.8 8.4-.8.2-.4.9-.4 1.7-.4a1.2 1.2 0 0 1 1.4-1c0-1.4 1.9-1.2 1.9-2.6s-.5-.3-.2-1 2.6-1.9 2.8-3.6a9.2 9.2 0 0 0 2-3.8c0-.5-.8 0-.5-.5s.5-.2.9-.5a45.3 45.3 0 0 0 2.7-8.8c1.7-1 1.2-3.9 2.4-5.1h.7c.2 3.6-.7 15.6-.2 16.8.7 5-.3 8.1 1.4 12.5.2 1.4.9 2.6 1.2 4 .5 5.8 4.8 5.3 5 6.5s-.2.5 0 1l5.5 3.1a2.9 2.9 0 0 1 3.1-.5c0 .2.3.5.3.7l3.3.7c.5-.5-.4-1.2.3-1.4s.5.9 1.2.7a1.2 1.2 0 0 1 1.2-.9c.2-.3-.3-.8.2-1s.7.5 1.2.5.2-.7.5-.7c2.1-.3 3.6-1.7 5.7-1.2.3-.3.3-.8 1-.8s1.9 0 1.9-.7-.9 0-.5-.5 1.5 0 1.9-.9 2.4-1.5 3.4-2.9 1.9-1.7 2.9-2.4-.5-.2-.5-.7a1.9 1.9 0 0 1 1-1c0 .3 0 .3.2.5s-.7.3-.2.5 2.1-1.4 1.9-2.9a2.2 2.2 0 0 0 1.4-1.7c.2-.7-.5-.9 0-1.2s.2.5.5.8 1.2-1.2 1.4-2.7-.2-3.3 1-2.1-1 .9-.7 1.6 1.9-2.6.7-3.3a1.8 1.8 0 0 1 1.4-1.2c0 .2.3.2.3.7s-.8.3-.8.5 1 0 1.2 0c.5-1.7-.9-1.7-1.2-2.9s1.7.7 2 1.2a3 3 0 0 0 .4-1.7c-.7 0-1.2-1.2-.9-1.9s.5 1 .7 1 1.4-.3 1.4-1.2-.7-.5-.7-.7.3-.5.5-1.2 1.7 0 1.4-.7-.7 0-.7-.5.3 0 .5-.5a4 4 0 0 1-1.7-1.4 1.8 1.8 0 0 1 1.9-.3c.5-.7 0-.7.3-1.4h.5c0 .5.2.9.2 1.4s-1.4.5-1.4 1 1.4.5 1.4.9c.2-1.4 0-1.9.2-3.1s.8-.7 1.2 0c-.2-1.2 1-1.4.7-1.9s-.7 1-1.4.7.7-1.4.5-1.9l.3-.3-.8-.2c0-.7-.2-2.4 1.2-1.9s-.2.2-.7.7.5.3.7.5a2 2 0 0 1-.1.7h.3c.3.3 0 1 .3 1a3.4 3.4 0 0 0 .5-2.9c-1 0-.8-1-1-1.7s1-.7 1.7-.4 0 .4.2.4.5-.7.5-1.2 1-.4.7-.9-.7.7-1.4.7 0-1.2.5-1.2 1.2-1 .7-1.9.7-.5 1.2-.5.2-.5.5-.5-.5.5-.3 1 .7-1 1-1.9-.5.4-1 .2c-.5-1.9 1.7-1.7 1.9-2.4s-.9-.2-.9-1 .7.3.9-.2-1.2-.5-.9-1.2.9.3 1.7-.2a3 3 0 0 1 .2-1 2.7 2.7 0 0 1 2.4 1.5c.5 0 .5.2.9.2a19.3 19.3 0 0 0 6 4.1c.8 0 1.5-.3 1.7.2s-1.2 1.2-1.4 2.2a4.1 4.1 0 0 1 1.4 2.1c-1.7 3.6-3.3 7.2-3.6 11.8a67.1 67.1 0 0 0-1.7 11.2c0 2.2.3 4.3.3 6.5a40.7 40.7 0 0 0 1.2 13.6 46.4 46.4 0 0 0 4.8 12.3c.2.2.7 0 .7.4s.9.7.9 1.7c2.9 1.7 5.3 3.8 8.7 5 1.2 1.5 1.9 3.2 3.8 3.6 0 .3.2.3.2.7s1.2 1 2.2 1.2 3.4 0 4.1 1.2a64.2 64.2 0 0 0 7.6 0c1.2-.2 2-.7 2.9-.9s2.4-.5 3.1-1.5h1c1.9-1.9 4.3-3.3 5.7-5.7 0-.5-.2-.5-.2-1s.5-.7.5-1.2.7-.2.9-.2 1-1.2 1-2.2a1.8 1.8 0 0 0 .9-.4c2.2-3.4 4.6-6.5 5.8-11.1 1.9-2.1 2.6-5.5 4.5-7.6 0-.7.5-.7.5-1.5s1-1.6 1.5-2.1-.3-1 0-1.4c1.2-2.4 2.8-4.6 3.8-7.5a1.4 1.4 0 0 1 .5-.9 2.6 2.6 0 0 0 .7-1.9 9.7 9.7 0 0 1 .2-1.2c.5.2 1-.3 1.2-.3a1.5 1.5 0 0 0-.4-1.7 3.5 3.5 0 0 1 .9 2.4 4.2 4.2 0 0 0 1.2.8c.7 2.1 3.4 2.3 5 3.3s2.2 2.4 3.9 2.4a3.3 3.3 0 0 0 2.8.2c.5.3.5.8 1 .8 3.6.4 5.5-.8 8.4-.8.2-.4.9-.4 1.7-.4a1.2 1.2 0 0 1 1.4-1c0-1.4 1.9-1.2 1.9-2.6s-.5-.3-.2-1 2.6-1.9 2.9-3.6a10.4 10.4 0 0 0 1.9-3.8c0-.5-.8 0-.5-.5s.5-.2.9-.5a45.3 45.3 0 0 0 2.7-8.8c1.7-1 1.2-3.9 2.4-5.1h.7c.2 3.6-.7 15.6-.2 16.8.7 5-.3 8.1 1.4 12.5.2 1.4 1 2.6 1.2 4 .5 5.8 4.8 5.3 5 6.5s-.2.5 0 1l5.5 3.1a2.9 2.9 0 0 1 3.1-.5c0 .2.3.5.3.7l3.3.7c.5-.5-.4-1.2.3-1.4s.5.9 1.2.7a1.2 1.2 0 0 1 1.2-.9c.2-.3-.3-.8.2-1s.7.5 1.2.5.3-.7.5-.7c2.1-.3 3.6-1.7 5.7-1.2.3-.3.3-.8 1-.8s1.9 0 1.9-.7-.9 0-.5-.5 1.5 0 2-.9 2.3-1.5 3.3-2.9 1.9-1.7 2.9-2.4-.5-.2-.5-.7a1.9 1.9 0 0 1 1-1c0 .3 0 .3.2.5s-.7.3-.2.5 2.1-1.4 1.9-2.9a2.2 2.2 0 0 0 1.4-1.7c.3-.7-.5-.9 0-1.2s.3.5.5.8 1.2-1.2 1.4-2.7-.2-3.3 1-2.1-1 .9-.7 1.6 1.9-2.6.7-3.3a1.8 1.8 0 0 1 1.4-1.2c0 .2.3.2.3.7s-.8.3-.8.5 1 0 1.2 0c.5-1.7-.9-1.7-1.2-2.9s1.7.7 2 1.2a3 3 0 0 0 .4-1.7c-.7 0-1.2-1.2-.9-1.9s.5 1 .7 1 1.4-.3 1.4-1.2-.7-.5-.7-.7.3-.5.5-1.2 1.7 0 1.4-.7-.7 0-.7-.5.3 0 .5-.5a4 4 0 0 1-1.7-1.4 1.8 1.8 0 0 1 1.9-.3c.5-.7 0-.7.3-1.4h.5c0 .5.2.9.2 1.4s-1.4.5-1.4 1 1.4.5 1.4.9c.2-1.4 0-1.9.2-3.1s.8-.7 1.2 0c-.2-1.2 1-1.4.7-1.9s-.7 1-1.4.7.7-1.4.5-1.9l.3-.3-.8-.2c0-.7-.2-2.4 1.2-1.9s-.2.2-.7.7.5.3.7.5a2 2 0 0 1-.1.7h.3c.3.3 0 1 .3 1a3.4 3.4 0 0 0 .5-2.9c-1 0-.8-1-1-1.7s1-.7 1.7-.4 0 .4.2.4.5-.7.5-1.2 1-.4.7-.9-.7.7-1.4.7 0-1.2.5-1.2 1.2-1 .7-1.9.7-.5 1.2-.5.2-.5.5-.5-.5.5-.3 1 .7-1 1-1.9-.5.4-1 .2c-.5-1.9 1.7-1.7 1.9-2.4s-.9-.2-.9-1 .7.3.9-.2-1.2-.5-.9-1.2.9.3 1.7-.2.4-1.2.2-1.9-.2.4-.7.4a2.1 2.1 0 0 1-.5-.9c1-.3-.2-1 0-1.2a2.5 2.5 0 0 0 1.2.2c0 .3.2.5.5.7s-.5-.4-.5-1.2 2.2-.2 1.7-1.4-.5.5-1 .5-.7-.5-.5-1a1.2 1.2 0 0 0 1.2-.7c.5.5.5.7.8 1s.4-1.7.2-2.4.7-1 0-1 0 1.9-1 2.2a1.5 1.5 0 0 1 1-2.4.9.9 0 0 1 1-1c0-.5-.3-.7 0-1.2s.7.5.9.3 0-1 .2-1.2.3-2 0-2.9 1-.5 1-1-.5-.7-.5-1.2a35.2 35.2 0 0 0 2.9-4.5c-.5.2-.5 1.2-1.2.7zm-7.4 6.9c.2-.2.5 0 .7.3s-1 .2-.7-.3zm-34.3-25.4a.7.7 0 0 1 0 1c.5.2.3 1 .3 1.4s-.3-.7-.3-1.4-.2-.2-.5-.2.3-.5.5-.8zm-1.4.5c0 .5 0 .7-.3.7s0-.7.3-.7zm-1.7 26.4c-.7-.5-.2-1.2-.5-1.9l.5.2c-.2.2.2 1.2 0 1.7zm-.2-6.7a.4.4 0 0 1-.3.7c0-.3-.2-.5.3-.7zm1.2-.3h-.5c1.2-1.2-1.2-2.6.2-3.1a3.2 3.2 0 0 1 .3 3.1zm.7-4.8c.2.3 0 .3-.3.5s-.2-.2-.2-.5zm-.5 1.5l-.2.2a1.6 1.6 0 0 1-1.2-.9c0-.5.4-1.5 1.2-.8s-.5 0-.8.5.8.5 1 1zm-.5-4.8c.3 0 .3-.3.5 0s.5.5.2.9-.4.3-.7 0-.2-.7 0-.9zm-.9-9.6c.4 0 .4.2.7.5v.2c-.5 0-.7-.2-1.2 0s.2-.5.5-.7zm-1 24.9v.7c-.5 0-.9 0-.9-.4s.4-.3.9-.3zm-172-27.1a.7.7 0 0 1 0 1c.5.2.3 1 .3 1.4s-.3-.7-.3-1.4-.2-.2-.5-.2.3-.5.5-.8zm-1.4.5c0 .5 0 .7-.3.7s0-.7.3-.7zm-1.7 26.4c-.7-.5-.2-1.2-.5-1.9l.5.2c-.2.2.2 1.2 0 1.7zm-.2-6.7a.4.4 0 0 1-.3.7c0-.3-.2-.5.3-.7zm1.2-.3h-.5c1.2-1.2-1.2-2.6.2-3.1a3.2 3.2 0 0 1 .3 3.1zm.7-4.8c.2.3 0 .3-.3.5s-.2-.2-.2-.5zm-.5 1.5l-.2.2a1.6 1.6 0 0 1-1.2-.9c0-.5.4-1.5 1.2-.8s-.5 0-.8.5.8.5 1 1zm-.5-4.8c.3 0 .3-.3.5 0s.5.5.2.9-.4.3-.7 0-.2-.7 0-.9zm-.9-9.6c.4 0 .4.2.7.5v.2c-.5 0-.7-.2-1.2 0s.2-.5.5-.7zm-1 24.9v.7c-.5 0-.9 0-.9-.4s.4-.3.9-.3zM95.6 116c.3.3.5.5.3 1s-.3.2-.8.2 0-1.2.5-1.2zm-.7 4.6c-.2-.5.5-.5.5 0zm1 12.4c0-.4 0-.7.4-.7s0 .7-.4.7zm6.2 12.5l-.7-1.4c.4 0 1.2.7.7 1.4zm29.2-55.8c.2 0 .2.2.2.5h-.4c0-.5 0-.8.2-.5zm-12.4 35.2c0-.7.7-1.7 1.1-1.2s-.4 1.7-1.1 1.2zm10.7 19.9a.7.7 0 0 1-.7-1h.5c0 .5.5.5.2 1zm.3-1.5v-.4l.4.2c0 .2 0 .5-.4.2zm2.4-44c0 .2.2.4 0 .7-1.5 4.1-2.2 9.1-3.9 12.9.3 1.9-.9 3.1-1.2 4.6a28.6 28.6 0 0 0-.7 2.8 15.2 15.2 0 0 0-1.2 3.2c-.2.7-.5 1.2-.7 1.9s-1 3.8-1.7 5.5a1 1 0 0 1-.5.7c-.4 1.2-.4 3.1-1.6 4.1s-.3-1.2-.5-1.5-1 0-.7-.7.2.3.7 0v-2.9c-.5-.2-.5.3-.7.3s.4-1.2.9-1.7-.5-.2-.5-.7c1.2-3.4-.4-7 .8-11a1.4 1.4 0 0 0-.5-1c1.2-.7.5-2.1.7-3.6s1-1.9.5-3.1.5-.7.7-1.2a2.8 2.8 0 0 1 .5-2.4c-.3-2.4 1.2-3.6.9-5.5 1-.2.8-1.7 1.2-2.6s-.4-.3-.4-.8a11.8 11.8 0 0 0 1.2-3.1c1.4-.9 1.9-2.8 3.3-4s1.9.7 2.9 1.2-.3-.8 0-1.2 1.2.4 2.1.2c1 2.6-.9 5-.9 7.9-.3.5-.5.5-.7 1zm2.1 33.7c-.5-.2-.9-1.4 0-1.2s.5.8 0 1.2zm6.7 15.4c-.2.2-.5 0-.5 0s0-.3.5-.3zm18.7-32.8h.3v.7c-.3-.3-.5-.3-.3-.7zm.3 5.9c.4 0 .4.3.7.3s-.3.5-.7.5zm10.3 30.2a.5.5 0 0 1-.5-.5c.5-.2.2 0 .5 0zm3.5 8.9c0-1 .8-.7 1-.3s-.5.3-1 .3zm2.9-18.2c-.2 0 0-.3 0-.7s.3.2 0 .7zm1 14.4h-.5c.5-.3.5-.8.7-.5s-.2.2-.2.5zm.5-2.7c-.8.3-.3-.2-.8-.2s.5-.3.8 0zm1.6.7c-.2-.2 0-.4 0-.7h.5c0 .3 0 .7-.5.7zm1-2.1v-.5c.2.2.2.5.5.5h-.5zm2.4-1.7c-.5-.2-1-.7-.7-1.2s.7.2 1.2.5-.3.5-.5.7zm14.6-39c-.2 0-.7.2-1-.3s0-.2.3-.5.2-.2.7-.2 0 .5 0 1zm-3.8 8.6c0-.3.2-.7.7-.5s-.5.5-.7.5zm.4 2.9c0 .4-.2.4-.2.9h-.7c0-.2.2-.5.2-.7a1.1 1.1 0 0 1 .7-.2zm-5.9 7.4h.4v.5c-.2-.3-.2 0-.4.2s0-.7 0-.7zm-3.9 8.8a1.1 1.1 0 0 1 .7-.2c-.2.2-.2.2 0 .2s-.7.3-.7 0zm1.2 4.1c-.5-.2-.9-.2-.7-.9s.5.7 1 .7zm0-11.7c-.2-.5.5-.5.5 0s-.2 0-.5 0zm1 5.5c.5.5.5.7.5 1.7-.3-.8-1.2-1.2-.5-1.7zm0 2.6c0-.5.5 0 .7 0s-.2.3-.7 0zm.7-2.8c.5-.5.5.2 1 .4s0 .7-.3.7a1.8 1.8 0 0 1-.7-1.1zm1.4 2.6c-.2.2-.4.2-.9 0a1 1 0 0 0 .2-.5c0-.5.5 0 1 0s-.3.5-.3.5zm1-3.4c-.7 0 0 1.2-.7 1s0-1.2.7-1zm-.7-5c.2-.5.7-.5 1.2 0s-.7 0-1.2 0zm1.4 1.4c0-.4 0-.9.5-.9a1.2 1.2 0 0 0 .2.5c.3.4-.2.4-.7.4zm1.7-.7c-.7 0-.7-.5-1-1.2s.5-.5 1-.5.2 1.2 0 1.7zm.5-10.3h.5c0 .7-.8.7-.5 0zm0-8.1c.5.2.5.5.5.9s-.8-.4-.5-.9zm.5-.7c-.3-.5.9-.3.9.2s-1.2.2-.9-.2zm.2 12.2c.2-.3.7-.3.7-.7a1.5 1.5 0 0 1 1 .4 1.6 1.6 0 0 1-1.7.3zm1.9-6c.2-.7-.7-.5-1-.7s.5-.3.5-.5.5.7 1 .9-.3.3-.5.3zm.2 2.6c.5-.5 1.2-1.2 1.5-.5a1.8 1.8 0 0 1-1.5.5zm1-1.2c-.2-.7 1-.2 1.2-.7h.2c-.4.2-.7 1-1.4.7zm1.2-3.3c-.2-.8.2-.5 0-.8a1.7 1.7 0 0 1 1.2 1.5c-.7-.3-1-.7-1.2-.7zm1.7-2.9c0-1 .5-.7 1.2-.5s-.7.5-1.2.5zm1.2-1a.5.5 0 0 1-.2-.4l.3.4zm67 42.9c-.4-.2 0-.2.3-.2s-.3.2-.3.2zm39.8-66.8c.2 0 .2.2.2.5h-.4c0-.5 0-.8.2-.5zM271.9 116c.3.3.5.5.3 1s-.3.2-.8.2 0-1.2.5-1.2zm-.2 4.6h-.5c-.2-.5.5-.5.5 0zm3.6 24.2c0-.3.2-.5.2-.7s.3.2.3.4-.5.3-.5.3zm3.1.7l-.7-1.4c.4 0 1.2.7.7 1.4zm16.8-20.6c0-.7.7-1.7 1.2-1.2s-.5 1.7-1.2 1.2zm10.7 19.9a.7.7 0 0 1-.7-1h.5c0 .5.5.5.2 1zm.3-1.5v-.4c.2 0 .2.2.5.2s0 .5-.5.2zm2.4-44c0 .2.2.4 0 .7-1.5 4.1-2.2 9.1-3.9 12.9.3 1.9-.9 3.1-1.2 4.6a28.6 28.6 0 0 0-.7 2.8 15.2 15.2 0 0 0-1.2 3.2c-.2.7-.5 1.2-.7 1.9s-1 3.8-1.7 5.5a1 1 0 0 1-.5.7c-.4 1.2-.4 3.1-1.6 4.1s-.3-1.2-.5-1.5-1 0-.7-.7.2.3.7 0v-2.9c-.5-.2-.5.3-.7.3s.5-1.2.9-1.7-.4-.2-.4-.7c1.1-3.4-.5-7 .7-11a1.4 1.4 0 0 0-.5-1c1.2-.7.5-2.1.7-3.6s1-1.9.5-3.1.5-.7.7-1.2a2.8 2.8 0 0 1 .5-2.4c-.3-2.4 1.2-3.6.9-5.5 1-.2.8-1.7 1.2-2.6s-.4-.3-.4-.8a11.8 11.8 0 0 0 1.2-3.1c1.4-.9 1.9-2.8 3.3-4s1.9.7 2.9 1.2-.3-.8 0-1.2 1.2.4 2.1.2c1 2.6-.9 5-.9 7.9-.3.5-.5.5-.7 1zm2.1 33.7c-.5-.2-.9-1.4 0-1.2s.5.8 0 1.2zm6.7 15.4a.3.3 0 0 1-.4 0c0-.3 0-.3.4-.3zm18.7-32.8h.3v.7c-.3-.3-.5-.3-.3-.7zm.3 5.9c.4 0 .4.3.7.3s-.3.5-.7.5zm10.3 30.2a.5.5 0 0 1-.5-.5c.5-.2.2 0 .5 0zm3.5 8.9c0-1 .8-.7 1-.3s-.5.3-1 .3zm2.9-18.2c-.2 0 0-.3 0-.7s.3.2 0 .7zm1 14.4h-.5c.5-.3.5-.8.7-.5s-.2.2-.2.5zm.5-2.7c-.8.3-.3-.2-.8-.2s.5-.3.8 0zm1.6.7c-.2-.2 0-.4 0-.7h.5c0 .3 0 .7-.5.7zm1-2.1v-.5c.2.2.2.5.5.5h-.5zm2.4-1.7c-.5-.2-1-.7-.7-1.2s.7.2 1.2.5-.3.5-.5.7zm13.9-39.8c0-.2.2-.2.7-.2s0 .5 0 1-.7.2-1-.3 0-.2.3-.5zm-3.1 9.4c0-.3.2-.7.7-.5s-.5.5-.7.5zm.4 2.9c0 .4-.2.4-.2.9h-.7c0-.2.2-.5.2-.7a1.1 1.1 0 0 1 .7-.2zm-5.9 7.4h.4v.5c-.2-.3-.2 0-.4.2s0-.7 0-.7zm-3.9 8.8a1.1 1.1 0 0 1 .7-.2c-.2.2-.2.2 0 .2s-.7.3-.7 0zm1.2 4.1c-.5-.2-.9-.2-.7-.9s.5.7 1 .7zm0-11.7c-.2-.5.5-.5.5 0s-.2 0-.5 0zm1 5.5c.5.5.5.7.5 1.7-.3-.8-1.2-1.2-.5-1.7zm0 2.6c0-.5.5 0 .7 0s-.2.3-.7 0zm.7-2.8c.5-.5.5.2 1 .4s0 .7-.3.7a1.8 1.8 0 0 1-.7-1.1zm1.4 2.6c-.2.2-.4.2-.9 0a1 1 0 0 0 .2-.5c0-.5.5 0 1 0s-.3.5-.3.5zm1-3.4c-.7 0 0 1.2-.7 1s0-1.2.7-1zm-.7-5c.2-.5.7-.5 1.2 0s-.7 0-1.2 0zm1.4 1.4c0-.4 0-.9.5-.9a1.2 1.2 0 0 0 .2.5c.3.4-.2.4-.7.4zm1.7-.7c-.7 0-.7-.5-1-1.2s.5-.5 1-.5.2 1.2 0 1.7zm.5-10.3h.5c0 .7-.8.7-.5 0zm0-8.1c.5.2.5.5.5.9s-.8-.4-.5-.9zm.5-.7c-.3-.5.9-.3.9.2s-1.2.2-.9-.2zm.2 12.2c.2-.3.7-.3.7-.7a1.5 1.5 0 0 1 1 .4 1.6 1.6 0 0 1-1.7.3zm1.9-6c.2-.7-.7-.5-1-.7s.5-.3.5-.5.5.7 1 .9-.3.3-.5.3zm.2 2.6c.5-.5 1.2-1.2 1.5-.5a1.8 1.8 0 0 1-1.5.5zm1-1.2c-.2-.7 1-.2 1.2-.7h.2c-.4.2-.7 1-1.4.7zm1.2-3.3c-.2-.8.2-.5 0-.8a1.7 1.7 0 0 1 1.2 1.5c-.7-.3-1-.7-1.2-.7zm2.9-3.4c-.5 0-.7.5-1.2.5s.5-.7 1.2-.5zm1.9-8.8c.2-.5.5-.3.7 0s-.5.2-.7 0zm1.2-1.7c0-.3.5-.3.7 0s-.7.5-.7 0zM534 74.8a4.4 4.4 0 0 1 .9-2.4c.3-.2-.4-.4-.4-.9s.2-1.9 0-3.1-1.2 0-1.5-.3-1.2-1.2-1.2-2.1-.9-.5-1.7-.8-.9 1.2-1.6 1.7-.8-.7-1-.9c-1.9-1-2.4.9-3.8 1.2s-1.5 3.3-2.9 2.6 1-1.7 1.4-2.4 2-1.4 1.5-2.4c-1.5.5-1.5 2.2-3.1 2.4-.3-1.9-1-4.5-.5-6.7 0-.5.2-.7.2-1.2a12.9 12.9 0 0 0 0-3.4c0-3.5.5-6.9.3-10s.2-6.2.4-9.4 1.2-5.5.5-8.1c.3-.2.7-.2.7-.7a4.2 4.2 0 0 1-.4-1.5c.9-1.4.2-3.3.4-5s.3-.7.5-1.2c.5-2.9-.2-6.5-.5-8.9-.9-.7-1.4-1.6-2.8-1.6s-1.5-1-2-1.9c-2.3-.3-2.1 3.1-5.7 2.1-.2.3.2 1-.2 1.2-2.2.5-2.7-1.2-4.4-.9 0 2.3 1.7 5.2.5 7.1s-.2 7.2-.5 11.1a13.3 13.3 0 0 1-.9 4.3c.2 1.4-.7 2.4-.3 3.6-1.2.7-.4 3.1-.4 4.5s-.5.7-.5 1a50.2 50.2 0 0 0-.3 8.6c-.9 1.2 0 2.4 0 3.6s-.4 1.4-.4 1.9c-.5 6.2.4 13.2-.3 19.9-1.9 1.2-5.2.5-7.9.9-.5 0-.7.3-.9.3-4.6.9-9.1.2-13.4.9a101.8 101.8 0 0 1-12.5 1.2 6.5 6.5 0 0 1-3.1.8c-1-1.2-.7-2.9-1.2-4.1s-.5-1-.7-1.5v-.9c0-.7-.5-1.2-.8-1.9a5.8 5.8 0 0 0-.2-1.9c0-.5-.5-.8-.7-1.2s-.3-2.7-.5-4.1-.5-1.4-.7-2.6-.5-1-.5-1.5-.5-3.1-.9-3.8a14.6 14.6 0 0 1-.3-3.6 43.9 43.9 0 0 1-.7-8.4c0-2.1-.2-3.8-.2-5.7.2-3.4.7-7.5.2-10.3 0-1-.5-1.5-.5-2.4s.5-1.5.3-2.7a52.3 52.3 0 0 0-1.7-6 34 34 0 0 0-2.9-2.6h-1.9c-.7-1.7-2.6-1.7-4.1-1.2s-.2 1-.5 1.2-2.4 1.9-4 1a2.9 2.9 0 0 0-1.7 1.4c-.3 0-.5.5-1 .2s.3-1.6.3-1.9c-2.4.3-2.4 2.7-4.3 3.1a7.1 7.1 0 0 1-1.5 2.2h-.9c-1 .9-2.7 1.2-3.9 1.9s-.9-1.2-1.6-.5-.3 1-.5 1.7.9 1.4 1.2 2.4.2.7.2 1.2-.2 1.7-.2 2.6.5 2.9.5 4.1-.5 3.1-.3 4.6.3 1.9 0 2.8.5 2.9.5 4.3-.5 2 .2 2.7c-.7 3.3.3 7.2 0 11 0 .5.5.5.5 1-.2 6.7-.2 13.8.2 20.6 0 .7-.4 1.4-.4 2.1s.2 2.2.2 3.1-.5 1.2 0 1.9c-1.2 0-1.7 1.2-2.6 1.5s-1.9-.5-2.9 0 .7.2.5 1.2a3.1 3.1 0 0 1-1.7-.3c0 1.5 1.7 1.2 1.9 2.4 2.2-.2 3.1 2 4.8 2.7a20.2 20.2 0 0 0 .5 2.8 11.4 11.4 0 0 0 .2 5.8c-1.2 3.6.5 7.7-.2 10.8 0 .2.5.2.5.7-.3 4.1.2 8.4 0 12 .7.9.2 2.1.2 3.3s.7 4.8 0 6.7.2 3.9 0 5.1c1 3.8 1 7.9 1.7 12.2.2 2.6 1.4 5.2 1.7 7.9s1.4 2.6 1.6 4.3 1.7 2.6 2.4 3.8 1.2 1.2 2.2 1.2 2.6 0 3.3 1.2c2.9-.2 3.6 1.9 7 1.2.5-.2.2-.9.7-.9s3.1 0 4.8-.3 2.4-1.2 3.8-1.2.7-1.4 1.9-1.2a8.8 8.8 0 0 1 3.6-3.3 22.7 22.7 0 0 1 2.9-4.1 60.6 60.6 0 0 0 4.1-26.1c.7-1.4 0-3.1.5-4.3s-.3-5.8-.8-8.4c0-.2-.4-.5-.4-1s.2-1.9.2-2.8a8.1 8.1 0 0 0-.7-2.2c-.2-2.4-.2-4.5-.5-6.9-.2-.8-.5-1.2-.7-2-.5-3.3-.7-6.4-1.2-9.5a15 15 0 0 0-.7-2c-.5-3.5-1-6.7-1.5-9.3 3.4-1.2 7.5-1.2 10.6-1.7s7.2-.2 11-.5c1.7-.2 3.6-.7 5.5-.9s6.2-.7 8.9-.3c.2 4.4-.3 8.7.4 12.5-.4 1.2-.4 3.6.3 4.6s-.5 1.9 0 2.4-.3 1.9 0 2.8c.5 3.1-.3 7 .5 9.8 0 .5.2.8.2 1.2.2 2.2-.5 4.8 0 7 0 .5.2.7.2 1.2s-.4 3.8-.2 5.7a4.4 4.4 0 0 1 .5 1.5v.9c0 3.6.5 7.7.9 11.5 0 1.9.8 4.3 1 6a59.5 59.5 0 0 1 .7 7.7 5.4 5.4 0 0 1 .7 1.7 11.2 11.2 0 0 0 0 2.6c.3 1.9 1 3.8 1.2 5.7a9.3 9.3 0 0 0 .5 3.9l2.2.7c.2.5 0 1.2.5 1.4s.7.3 1.4.8.2.4.5.7a.8.8 0 0 1 .9 0c.7.2.3.5.7.5s.5-.5 1-.3 1.2.7 1.7.7 1.9-.2 2.9-.2.7-.7 1.6-.2c-.2-1.7 1.2-1.5 1.7-2.2a4.9 4.9 0 0 1 1.2-2.4 3.6 3.6 0 0 1-.2-2.2c0-1.2-.8-2.1-.8-3.3a70.1 70.1 0 0 0-1.4-8.2c-.5-3.5-.7-7.4-1.7-11 .8-.9 0-2.4-.2-3.3 0-3.4-1.2-7.7-.7-11s-.5-4.4-.5-6.8c0-4.3-.5-8.8-.5-13.1-.2-1.9-.7-3.9-.7-5.3s.2-1 .2-1.4a22 22 0 0 0-.4-3.6v-9.4c0-1.9-.5-4-.5-5.7a2.4 2.4 0 0 0 .5-1c.2-1.7-.5-3.3 0-5.2s2.1-1.5 4-1.5 2.7-1.2 3.4-2.1 1.7-1.5 3.3-1.5 2-2.1 2.7-3.6zm-106.9 17h-.2c0-.2-.2-.7.2-.4zm29.7 59.4c-.4-.4 0-1.9 0-3.1l1-.2c.2 1.7 0 2.9-1 3.3zm66.9 25v.7c-.3 0-.7 0-.7-.5s.4-.2.7-.2z"/><path d="M704 115.8a4.5 4.5 0 0 1-.7-2.4c-.9-2.2-2.1-4.1-3.1-6.2a2.4 2.4 0 0 1-1.2-2.2c-1.7-2.1-3.8-4.1-5.5-6.2a13.9 13.9 0 0 1-3.8-2.7c-1.9-.2-2.4-1.9-4.6-1.6s-3.1-1-4-2.2c-1.7.3-3.4-.7-4.6-1.2s-4.6.5-6.9 1-3.6 1.9-5.1 3.1c-1.2-.5-1.7 1.7-2.6.5a7.7 7.7 0 0 0-.3-4.3c.8-2.9-1.4-5.3-.7-8.9-1.9-1-.7-3.8-.9-5.8 0-.4-.7-.2-.5-.4-.5-3.1.2-6.3-.7-8.4 1.2-1 .5-3.4 0-4.6.2-2.8-.5-6.7-.5-10.3 0-.4-.5-.4-.5-.7a10.8 10.8 0 0 0 .5-3.8c-.2-1-1-1.2-1.2-1.9s-1.4-1.7-1.7-2.2 0-.5 0-.7-1.4-1-2.1-1.7-.8-1.2-1.5-1.2a.9.9 0 0 0-.5-.9c-1.2.2-1.6-.8-2.3-1.2s-.8.2-1.2 0-3.9-.5-6-.8-3.9.3-4.8.8-2.9 2.1-4.6 3.1c-.2 1.2-1.2 1.6-1.9 2.4s-.2.7-.2 1.2-1.2 3.3-2.9 4.3c-1.2 4.8-3.1 9.6-3.4 14.8a2.1 2.1 0 0 0-.4 1.2c0 .5.4.5.2 1.2s-.5.5-.5 1.2.5.5.5 1c-.5 2.9-1 7.2-.5 10-.2 1-.5 1.7 0 2.4-.9 2.2-.5 5.8-.7 8.7.2.2.2.4.5.9-1.2 1 .5 3.1-.7 4.3.7 1.5-.3 3.1.2 4.3-1 5.8 1 11.3.2 17 .3.5.8-.2 1.2.3s-.2 2.9 1 3.3c.2-1.6-.2-4 0-5.7s0-1.4.5-1.4 0 1.9.7 2.1.7-.5 1.2-.5v-7.9c1.4-.2.5-2.1 2.1-1.9s.3.3.3.5a4.7 4.7 0 0 0 .2 3.3c-.2.5-.5.5-.5 1s.3.5.3 1l-.3 3.4c-.7 1.7-2.2 2.4-2.6 4.7l-1.9 2.9c0-.3.2-.3.2-.5h-.4c0 .2 0 .5.2.5a25.3 25.3 0 0 0-2.6 5.2 1.9 1.9 0 0 0-1 1.7 55.4 55.4 0 0 0-3.8 6.3 9.6 9.6 0 0 0-1.9 2.8c0 .3-.5 0-.5.5a1.8 1.8 0 0 0-.3 1.2l-.9 1c-1 2.1-2.4 3.6-3.4 5.7-.7.3-.5 1.5-1.2 1.2a2.5 2.5 0 0 0-.2 1.2c-.5-.2-.5 0-.7.2a12.4 12.4 0 0 1-2.7 2.9c-.9 1.9 0 0-1.6 1.5a1.5 1.5 0 0 1-.8-1.7c-1.6-1.5-1.9.5-2.8-1.7s-.3-2.1.2-2.4-.2-.5-.2-.9c0-2.4-1.5-4.4-1.2-7.5l-1-.9a6.6 6.6 0 0 0-.2-4.8c.7-.7 0-1.9-.3-2.4a1.2 1.2 0 0 0 .5-1c-.7-.9 0-1.9-.5-3.1 1-1.4-.2-3.6.8-5.3a4.5 4.5 0 0 1 0-3.6c0-.4-.5-.7-.5-1.2s-.3-1.6-.3-2.3.5.2 1 0 .5-2.7 0-3.4 0 .7-.5 1-.5-.3-.5-1 1-.5 1.7-.5 1.4-2.1.2-3.1.8-.2.8-.7-1.5-1.4-.5-1.7-.3 1 .5 1v-1.9c-.3-.3-.5.4-.8-.3a1.8 1.8 0 0 0 1.5-.5c.2-1.6-.5-2.6-.3-3.8s.3.5.8.5.4-1.5 0-2.4-.5.5-.8 0 .5-.3.8-.3c.9-2.1.9-5.5.9-7.9-.7.5-1.4-.4-.5-.4s.5.4.8.2a5.6 5.6 0 0 1 .4-3.4c-.4-.2-1.4-.2-1.6.3-.3-1.2.4-1.9.2-2.6a1.5 1.5 0 0 1 1 .2c.4.2 0 .9.2 1.2.5-1.2 0-1.9.7-2.9s-.5.5-.9.3-1.2-.3-1.5-.8.5-1.2 1-1.2.2.3.5.5.2-.7.4-.7.3.5.5.5.3-1 .3-1.7-.5 0-.5-.2 1.4-2.7.5-3.4a2.1 2.1 0 0 0 .2-2.6c-.2 0-.5.7-.7 0s.2-2.4-.3-3.6a1.7 1.7 0 0 1-.7-1.5c-1.9-.7-3.1-2.1-4.5-3.1a.6.6 0 0 1-.7.7c-.3-.2-.5-.7-1.2-.7s.4.7 0 .7-7.7-1.9-9.1-1.4-.3-.7-.5-.9-3.4 1.4-3.4-.5c-1.7.2-1.7 3.3-3.3 2.6s-1.2 2.4-2 3.4a4.2 4.2 0 0 0 0 1.6c-.4.8-.2 2-.7 3.2s-1.2 2.6-.7 3.8c-1.4 1.9-1.7 5.3-2.6 7.4a6.1 6.1 0 0 1-1.9 0c-.3-.2-.3-.7-.5-1.2s-2.4-.7-3.6-.9-1.4.2-1.4 0-2.7-.8-5.3-.8-7.9 1.2-8.9 1.7-.5-.2-.9-.2a2.6 2.6 0 0 1-1.5.5c-.7.4-1.2 1.1-2.4 1.1a16.8 16.8 0 0 1-2.8 2.4c-.3 1.2-2.4.8-2.9 2a1.5 1.5 0 0 1-1 .2c-.2 1.4-2.1 1.7-1.4 3.1-.3-.2-.3-.5-.7-.2a1.6 1.6 0 0 1-1.2.9c.2.8-.3 1-.8 1.7s.8.3.5 1-.7.4-.9.7c-1 2.9-2.9 6-2.7 9.1-.2 0-.2.2-.7.2s-.5 2.2.3 3.1a4.2 4.2 0 0 0-1.2 2.7c0 .2.2.5.2.7a18 18 0 0 0-.2 8.4c-.8.7-.3 1.4-.8 2.4 1 1.9-.2 4.5 1 6.4a2 2 0 0 0-.2 1.7c.2.3.7 0 .7.7s.2 3.6.9 4.4 1.2 1.4.8 2.8a6.3 6.3 0 0 1 2.1 1.9c-.2 0-.7 0-.7.3.2 1.9 1.9 2.4 1.9 4.5a4.2 4.2 0 0 0 1.2.8c.7 2.1 3.4 2.3 5 3.3s2.2 2.4 3.9 2.4a3.3 3.3 0 0 0 2.8.2c.5.3.5.8 1 .8 3.6.4 5.5-.8 8.4-.8.2-.4.9-.4 1.7-.4a1.2 1.2 0 0 1 1.4-1c0-1.4 1.9-1.2 1.9-2.6s-.5-.3-.2-1 2.6-1.9 2.8-3.6a9.2 9.2 0 0 0 2-3.8c0-.5-.8 0-.5-.5s.5-.2.9-.5a45.3 45.3 0 0 0 2.7-8.8c1.7-1 1.2-3.9 2.4-5.1h.7c.2 3.6-.7 15.6-.2 16.8.7 5-.3 8.1 1.4 12.5.2 1.4.9 2.6 1.2 4 .5 5.8 4.8 5.3 5 6.5s-.2.5 0 1l5.5 3.1a2.9 2.9 0 0 1 3.1-.5c0 .2.3.5.3.7l3.3.7c.5-.5-.4-1.2.3-1.4s.5.9 1.2.7a1.2 1.2 0 0 1 1.2-.9c.2-.3-.3-.8.2-1s.7.5 1.2.5.2-.7.5-.7c2.1-.3 3.6-1.7 5.7-1.2.3-.3.3-.8 1-.8s1.9 0 1.9-.7-.9 0-.5-.5 1.5 0 1.9-.9 2.4-1.5 3.4-2.9 1.9-1.7 2.9-2.4-.5-.2-.5-.7a1.9 1.9 0 0 1 1-1c0 .3 0 .3.2.5s-.7.3-.2.5 2.1-1.4 1.9-2.9a2.2 2.2 0 0 0 1.4-1.7c.2-.7-.5-.9 0-1.2s.2.5.5.8 1.2-1.2 1.4-2.7-.2-3.3 1-2.1c-.3.5-1 .9-.7 1.6s1.9-2.6.7-3.3a1.8 1.8 0 0 1 1.4-1.2c0 .2.3.2.3.7s-.8.3-.8.5 1 0 1.2 0c.5-1.7-.9-1.7-1.2-2.9s1.7.7 2 1.2a3 3 0 0 0 .4-1.7c-.7 0-1.2-1.2-.9-1.9s.5 1 .7 1 1.4-.3 1.4-1.2-.7-.5-.7-.7.3-.5.5-1.2 1.7 0 1.4-.7-.7 0-.7-.5.3 0 .5-.5a4 4 0 0 1-1.7-1.4 1.8 1.8 0 0 1 1.9-.3v-.2a.6.6 0 0 1 .1.4.9.9 0 0 0-.6.8c.1.2.4.3.7.4s-.3 1.9-.3 3.2.3.7.3.9-.5.7-.5 1c-.2 2.4.5 4.8.2 7.2a21.8 21.8 0 0 1-.2 3.8c.2.2.5.2.5.7s-.5.5-.3 1 0 3.3.3 5.7c.2.5.7-.2.7.5s-.7 1.9 0 2.2-.5.4-.3 1.2.3 5.2 1.7 7.6a1.5 1.5 0 0 0-.2 1 6.9 6.9 0 0 1 1.2 2.9c.2.4.5-.5.7 0-.5 2.8 1.7 4.3 2.4 6.4 1.4-.2 1.2 1.5 2.6.5 1.5 1.7 4.3 1 6.3 2.2 1.9-1.2 5.5 0 6.9-1.7a3.8 3.8 0 0 1 1.9-.3 1.7 1.7 0 0 0-.2-1.6c.7-.7 1.4 0 2.1-.7s.8-2.2 1-3.2-.7-1.4-.7-2.1l1.7-.5a5.7 5.7 0 0 0-1-1.9c.5-1.9.5-3.8 1.2-5.3-.7-3.3 1.7-7.2.5-10.3.2-.2.2-.2.5-.2s1.9.5 2.1 1.7c3.8 0 7.7.9 11 0 1.2.4 1.7-1 3.4-.5.2-.3.5-.7.7-.7 1.9 0 2.6-1.5 4.6-1.7s2.8-1.7 3.8-3.1c.5.2.5-.3.9 0a1.6 1.6 0 0 1 1.5-1.2c2.4-2.4 5-4.6 7.4-7 0-.2.2-.2.2-.7s1.2-1.2 2.2-1.7c1.7-2.9 4.1-5 5-8.6 1.2-.5 1.5-1.9 2.4-2.6s.5-1.5 0-2.7c1-.7 1.2-2.1 1-3.8s-.4-5.8-.2-7.9zm-78.3-3.1a1.6 1.6 0 0 1-.2-2.4c.7.5.5 1.9.2 2.4zm-21.8-37.2a.7.7 0 0 1 0 1c.5.2.3 1 .3 1.4s-.3-.7-.3-1.4-.2-.2-.5-.2.3-.5.5-.8zm-1.4.5c0 .5 0 .7-.3.7s0-.7.3-.7zm-1.7 26.4c-.7-.5-.2-1.2-.5-1.9l.5.2c-.2.2.2 1.2 0 1.7zm-.2-6.7a.4.4 0 0 1-.3.7c0-.3-.2-.5.3-.7zm1.2-.3h-.5c1.2-1.2-1.2-2.6.2-3.1a3.2 3.2 0 0 1 .3 3.1zm.7-4.8c.2.3 0 .3-.3.5s-.2-.2-.2-.5zm-.5 1.5l-.2.2a1.6 1.6 0 0 1-1.2-.9c0-.5.4-1.5 1.2-.8s-.5 0-.8.5.8.5 1 1zm-.5-4.8c.3 0 .3-.3.5 0s.5.5.2.9-.4.3-.7 0-.2-.7 0-.9zm-.9-9.6c.4 0 .4.2.7.5v.2c-.5 0-.7-.2-1.2 0s.2-.5.5-.7zm-1 24.9v.7c-.5 0-.9 0-.9-.4s.4-.3.9-.3zM533 116c.3.3.5.5.3 1s-.3.2-.8.2 0-1.2.5-1.2zm-.7 4.6c-.2-.5.5-.5.5 0zm1 12.4c0-.4 0-.7.4-.7s0 .7-.4.7zm6.2 12.5l-.7-1.4c.4 0 1.2.7.7 1.4zm29.2-55.8c.2 0 .2.2.2.5h-.4c0-.5 0-.8.2-.5zm-12.4 35.2c0-.7.7-1.7 1.1-1.2s-.4 1.7-1.1 1.2zm10.7 19.9a.7.7 0 0 1-.7-1h.5c0 .5.5.5.2 1zm.3-1.5v-.4l.4.2c0 .2 0 .5-.4.2zm2.4-44c0 .2.2.4 0 .7-1.5 4.1-2.2 9.1-3.9 12.9.3 1.9-.9 3.1-1.2 4.6a28.6 28.6 0 0 0-.7 2.8 15.2 15.2 0 0 0-1.2 3.2c-.2.7-.5 1.2-.7 1.9s-1 3.8-1.7 5.5a1 1 0 0 1-.5.7c-.4 1.2-.4 3.1-1.6 4.1s-.3-1.2-.5-1.5-1 0-.7-.7.2.3.7 0v-2.9c-.5-.2-.5.3-.7.3s.4-1.2.9-1.7-.5-.2-.5-.7c1.2-3.4-.4-7 .8-11a1.4 1.4 0 0 0-.5-1c1.2-.7.5-2.1.7-3.6s1-1.9.5-3.1.5-.7.7-1.2a2.8 2.8 0 0 1 .5-2.4c-.3-2.4 1.2-3.6.9-5.5 1-.2.8-1.7 1.2-2.6s-.4-.3-.4-.8a11.8 11.8 0 0 0 1.2-3.1c1.4-.9 1.9-2.8 3.3-4s1.9.7 2.9 1.2-.3-.8 0-1.2 1.2.4 2.1.2c1 2.6-.9 5-.9 7.9-.3.5-.5.5-.7 1zm2.1 33.7c-.5-.2-.9-1.4 0-1.2s.5.8 0 1.2zm6.7 15.4c-.2.2-.5 0-.5 0s0-.3.5-.3zm18.7-32.8h.3v.7c-.3-.3-.5-.3-.3-.7zm.3 5.9c.4 0 .4.3.7.3s-.3.5-.7.5zm10.3 30.2a.5.5 0 0 1-.5-.5c.5-.2.2 0 .5 0zm3.5 8.9c0-1 .8-.7 1-.3s-.5.3-1 .3zm2.9-18.2c-.2 0 0-.3 0-.7s.3.2 0 .7zm1 14.4h-.5c.5-.3.5-.8.7-.5s-.2.2-.2.5zm.5-2.7c-.8.3-.3-.2-.8-.2s.5-.3.8 0zm1.6.7c-.2-.2 0-.4 0-.7h.5c0 .3 0 .7-.5.7zm1-2.1v-.5c.2.2.2.5.5.5h-.5zm2.4-1.7c-.5-.2-1-.7-.7-1.2s.7.2 1.2.5-.3.5-.5.7zm8.2-19.9zm-5.3.6v.5h-.3c-.1-.4.1-.5.3-.5zm2.8-.3h-.1v-.4h.1zm-4.3 8.3a1.1 1.1 0 0 1 .7-.2c-.2.2-.2.2 0 .2s-.7.3-.7 0zm1.2 4.1c-.5-.2-.9-.2-.7-.9s.5.7 1 .7zm1-6.2h.1c0 .1.1.3.1.4h.1c.2.3.2.6.2 1.3-.3-.8-1.2-1.2-.5-1.7zm0 2.6c0-.5.5 0 .7 0s-.2.3-.7 0zm.7-2.7a.4.4 0 0 0 .1-.3c.4-.2.4.4.9.6s0 .7-.3.7a2 2 0 0 1-.7-1zm1.4 2.5c-.2.2-.4.2-.9 0a1 1 0 0 0 .2-.5c0-.5.5 0 1 0s-.3.5-.3.5zm.9-3.4zm-.6-5c.2-.5.7-.5 1.2 0s-.7 0-1.2 0zm1.4 1.4c0-.4 0-.9.5-.9a1.2 1.2 0 0 0 .2.5v.3zm5 42.7c.3 0 .5.2.3.5s-.3-.3-.3-.5zm.3.7c.5-.2.9.7 1.2 1.2s-.7-.7-1.2-1.2zm1.7 3.4a.7.7 0 0 1 0-1c0 .2.4.2.4.5s-.2.5-.4.5zm1.2 1.4a.7.7 0 0 1-.8-.7c0 .2.5.2.8.4zm5.5-25.2c0-.4.4-.7.7-.4s-.3.7-.7.4zm4.8-34.9a.5.5 0 0 1-.5-.5c.2 0 .2-.3.2-.3s.7.5.3.8zm0-1.7c.2-.7-.5-1.5.2-1.7s.5 1.7-.2 1.7zm.2-6c.7-.2.7.7.5 1s-.5-.5-.5-1zm.5-56.1c.2 0 .7 0 .7.3v.7h-.5c-.2-.2-.2-.5-.2-1zm0 65.2c-.3 0-.3-.7 0-1s.2.3.5.3-.3.5-.5.7zm.7-24h.2c.3.3.3.3.3.8s-.5-.3-.5-.8zm.5-47.1c-1.5 1.2-1.9-1.2-2.4-2.2s-2.9-1.2-3.6-2.4a2.8 2.8 0 0 1 1.2-1.4c2.6.9 5.5 1.6 4.8 6zm.7 16c0-.2-.2-.7.2-.5s.3.7-.2.5zm1.9-19.2c.2 0 0 .3.5.3v.2c-.5 0-.7 0-.5-.5zm.5 133h.7c0 .7-1 .5-.7 0zm3.1-5c.2.2-.2.7-.5.9s-.2-1.4.5-.9zm-1 3.6c-.4-.5 0-.8.5-.8s-.2.8-.5.8zm1.2-1.2a.8.8 0 0 1-.7-1.2c.5.2 1 .7.7 1.2zm.5-6.8a.7.7 0 0 1-.2-.4h.5c.2.2 0 .4-.3.4zm.3-7.4c0 .3-.3.3-.5.3s.2-.5.7-.5a.2.2 0 0 1-.2.2zm.4-113.8c.5 0 .5.3.8.5s-.5 0-.8.3zm.5 5.3c0-.5.5-.7.7-.5s-.2.5-.7.5zm1.5 7c-.8.2-.5-.8 0-.8zm19.8 73.5a75.3 75.3 0 0 1-7.9 8.1c-.2 0-.7.3-1.2 0s-.7.8-1.6 1.2a6.9 6.9 0 0 0-1.2 1c-1 .5-2.7 0-3.2 1.4-1.6-.2-1.4-2.4-2.6-3.1s-.9-3.3-1.2-5 .5-2.4.5-3.6c.2-4.3.2-8.4 1.2-12.7.2-1.2.7-2.4.9-3.8s.8-2 1-2.9v-1a15.8 15.8 0 0 0 1-1.6c0-1-.5-1.7-.5-2.7a4.2 4.2 0 0 0 .7-1.2 7.1 7.1 0 0 1 .7-2.6c.5-.7 1.5-1 1.7-1.9s.7-.5 1.2-.5a8.9 8.9 0 0 1 5.7 1.9c0 .5.8 1 1.2 1.2a26 26 0 0 1 5.1 9.6c.9 6.2 1.4 13.6-1.5 18.2zm83.6 20.1s0-.2.3-.2-.7 0-.3.2z"/><path d="M854.2 100.9c-.4.3-.4 1.2-1.2.8-1.4 3.3-3.3 5.2-4.5 8.3-.2 0-.5.3-.7.5s-.3.7-.7 1.2-1.2 1.9-1.7 2.9-1 1.9-1.9 2.4-.3-.5-.3-.7a1.7 1.7 0 0 0 .7-1.7c0-.5.5-.7 1-.7.5-2.7 2.2-4.8 3.6-6.5s-.7-.5-.7-.7 1.4-1.7 1.7-2.9a17.1 17.1 0 0 0 3.8-6.9c-1.7 1.2-2.4 3.3-4.3 4.3a8.1 8.1 0 0 1-2.2 4.3c-.2 1.2-.5 1.9-1.2 1.9-1.7 5-5.7 9.8-5.2 9.6s-.5.2-.8-.3a11.6 11.6 0 0 1-1.2 3.4 1.3 1.3 0 0 0-1.2.2c0 2.9-2.4 3.4-2.8 6.3a34 34 0 0 0-4.6 8.1 1.7 1.7 0 0 0-.9 1.7 49.7 49.7 0 0 0-3.9 6.2 10.4 10.4 0 0 0-1.9 2.9c0 .2-.5 0-.5.5a1 1 0 0 0-.2.7c-2.9 3.1-5.3 6.2-5.3 6.2-1.4 1.7-4.1 3.1-6 4.8-1.4-.2-.5-2.6-1.2-3.3 0-2.7-.5-5.1-.7-7.9-.5-6.8-.5-13.7-.5-19.5a42.7 42.7 0 0 0 0-6.2 54.1 54.1 0 0 1 0-5.7c0-.7.3-1.5.3-2.2s-.3-3.8.2-5.5l-.7-1.2a2.5 2.5 0 0 0 .2-2.4c.7-.7.3-1.4.3-2.4a30.9 30.9 0 0 0 0-4.3c.2-.7-.3-1.2-.3-1.9.3-5.3 1-11 1.2-16.8 0-4.1.5-8.8.3-11.7a112.2 112.2 0 0 0 .4-27.1c-1.4-2.6-1.2-18.9-4.3-20.3-1.6 0-2.8-7.2-3.8-7.2s-2.4.4-3.4.2a4.2 4.2 0 0 1-2.8-1.4c-.7-.5-.7-1.7-1.5-1.9s-2.1.2-2.8 0a11.4 11.4 0 0 0-3.2 0c-1.1-1-2.3-1.2-4.7-1.2-.5.9-1.7 1.2-3.4 1.4-2.9 3.8-2.9 17.5-4.5 22.3-.3.4.2.4.2.9s-1 15.8-1.2 17.8c0 .2-.5.7-.5.9a51.1 51.1 0 0 0-.5 5.5c0 .7.5 1.7 0 2.4s-.9 2.7-.4 3.9 0 1.9-.8 3.5.5.5.5 1-.5 4.6-.9 7.2.2 6.2-.3 8.9c0 .4.7.2.5.7-.5 3.1-.2 6.9-.7 10a25.8 25.8 0 0 0 .5 4.6 42.8 42.8 0 0 0-.5 6c0 .5.2.7.2 1.2s-.5 2.1-.2 3.1a1.4 1.4 0 0 0 .5.9 3.4 3.4 0 0 1-.3 1.7c0 1.5-.1 3.3-.1 4.9a4.4 4.4 0 0 0-.6 1.6v-.3l-1 .8c-.4 1.6-1.2 3.3-3.1 3.8-1.4 2.6-3.3 4.8-4.8 7.4-.4 0-.4.5-.7.5v.7c-1.4 1-1.9 3.1-3.6 4.1.3.2 0 .5 0 .7-3.1 2.9-5.2 6.5-9.1 8.4-.2.2-.2 1-.5 1s-1.2.9-1.9 1.4-.5 0-.9 0a2.2 2.2 0 0 1-1.9 1.2c-1 1.2-2.9 1.2-4.4 1.9s-1.4-1-1.6-1.9a4.5 4.5 0 0 1-3.2-2.6c-.7 0-.7.4-1.4.7s-.9-.7-1.2-1.2a63 63 0 0 1 .3-18.9c1.2-1 1.9.2 2.8.4s3.6 0 4.8.7 6.2 0 8.2-1.6h1.2a2.5 2.5 0 0 1 2.1-1.2 3.7 3.7 0 0 1 1.9-1.2 30.5 30.5 0 0 0 2.9-3.6c.7-2.9 1.7-5.5 1.7-8.4v-1.4c.5-1.5.2-2.7.2-4.1s.3-1.4.3-2.2-1-4.8-.5-6.7a12.7 12.7 0 0 1-2.4-6c-1-.2-1-1.2-1.7-1.6 0-2-1.7-2.4-1.9-4.1-1 0-1-1-1.4-1.4s-2.2-.8-2.4-2.2-1.5-.7-2.2-1.2-1.2-.7-1.9-1.2-2.9-1.2-5.3-.5a7.1 7.1 0 0 0-4.3-1.2c-.2 0-.5-.2-.7-.7s-1.2-.7-1.9-1-4.1.3-5.3.3c-2.2 1.7-4.1 1.4-5.3 4.1.3.4-3.6 2.8-3.6 3.6-1.6 1.4.3 2.1-.9 3.3s-1.2 1.9-1.5 3.1l-.7.5c-3.3 6.2-2.6 12-4 19.9 0 .2-.3.2-.3.7s-.7 2.2-.5 3.8-.4 2.2-.4 3.9-.8 3.1-.5 4.3c.2 5 .5 10.5 2.6 13.6a78.4 78.4 0 0 0 6 11.1l1.9 1.4a1.1 1.1 0 0 0 .5.9.7.7 0 0 0 .7.3c1.2 1.9 3.4 2.9 4.8 4.3a21 21 0 0 1 4.1 2.4c1.4 0 2.1.7 3.1 1.2h1.2c.5.5 1.2.5 1.7.9 2.4-.2 3.8 1 5.5 1.5s5.5-.5 8.4-.3 6.7-1.2 11.5-3.1c.2-.4-.5-.2-.5-.7a1.6 1.6 0 0 1 .9-.9c0 .2 0 .2.3.4v.3c.7-.7 1.9-1.2 1.7-2.7a2.3 2.3 0 0 0 1.4-1.6c.2-.8-.5-1 0-1.2s.2.4.5.7a4.9 4.9 0 0 0 1.4-2.7l-.5-.2c.3-.2.5-.5.7-.5v.3c1 .2 1.5-1 1.5-1.9s0-.3.2-.3v-.9c.5.2 1-.3 1.2-.3v-.9a1.2 1.2 0 0 0 .5-1l.2.2a2.4 2.4 0 0 0 .5-1.6h-.2c.7-1 1.9-1.7 2.1-3.2l.5-.4c.3 2 .7 4 1 6.2 0 .2.5.2.5.7-.3 2.9 1.2 5.5 1.2 8.6a14.3 14.3 0 0 1 1.6 4.8c.7 1.7 1.7 2.7 1.9 4.6s1 1.4 1.5 1.9c.7 2.4 3.1 3.1 4.1 5s1.2 2.7 3.1 2.4a29.6 29.6 0 0 0 2.6 2.4c.5-.5 1.4.5 2.6 1.2s1.7.3 2.2.7-.7 0-1.2-.2 1.4 1 1.7.5l.2.2c1.5-.2 3.1-.7 3.8 0l4.6-.2c2.6 0 3.4-1.5 5.7-1.7.5 0 1.7-1.7 2.4-2.4a.8.8 0 0 0 .3.7c.2-.2.2-.7.9-.7s2 0 2-.7a1.3 1.3 0 0 0-.8-.3l.5-.2a1.8 1.8 0 0 0 1.7-1c1.2-.2 1.9-.9 2.9-2.1a4.9 4.9 0 0 1 1.9-1c.7-.7 1.4-1.9 2.6-2.4s.3-.4.3-.9a2.6 2.6 0 0 0 1.2-.5v-1c.9-.9 1.4-2.4 2.4-3.8s.2-.5.2-.7l1.2-1.2v-.5a1.8 1.8 0 0 0 .9-1.7s0-.2.3-.4a2.2 2.2 0 0 1 .2-1c.3.2.7-.2 1-.2a1.5 1.5 0 0 0-.3-1.5l.8-.7c0 .2 0 .5.2.5a2.5 2.5 0 0 0 .5-1.7 1 1 0 0 1 .2-.5.8.8 0 0 1-.2-.5c.5-.2 1.2-.2 1.2-1.1s-.3 0-.5-.3l.7-1.4a.9.9 0 0 0 1-1h-.5l.7-.9a.8.8 0 0 1 .7.2c.3-1.4 0-1.9.3-3.1s.7-.7 1.2 0c-.3-1.2.9-1.5.7-1.9s-.7.9-1.4.7.7-1.5.4-1.9l.3-.3c-.3-.2-.3 0-.7-.2s-.3-2.4 1.2-1.9-.3.2-.8.7l.8.5a.7.7 0 0 1-.3.7h.5c.2.2 0 .9.2.9s1-1.9.5-2.8-.7-1-.9-1.7.9-.7 1.6-.5 0 .5.3.5.4-.7.4-1.2 1-.5.8-1-.8.8-1.5.8 0-1.2.5-1.2 1.2-1 .7-2 .7-.4 1.2-.4.3-.5.5-.5-.5.5-.2.9.7-.9.9-1.9-.5.5-.9.3c-.5-1.9 1.6-1.7 1.9-2.4s-1-.3-1-1 .7.3 1-.2-1.2-.5-1-1.2 1 .2 1.7-.3.5-1.2.2-1.9-.2.5-.7.5-.5-.7-.5-1-.2-.9 0-1.2a1.9 1.9 0 0 0 1.2.3c0 .2.3.5.5.7s-.5-.5-.5-1.2 2.2-.2 1.7-1.4-.5.4-.9.4-.8-.4-.5-.9a1.5 1.5 0 0 0 1.2-.7l.7.9c-.2-.7.5-1.6.2-2.4s.8-.9 0-.9 0 1.9-.9 2.1a1.4 1.4 0 0 1 .9-2.4c0-.7.5-.9 1-.9s-.2-.7 0-1.2.7.5 1 .2 0-.9.2-1.2.2-1.9 0-2.9.9-.4.9-.9-.4-.7-.4-1.2a30.9 30.9 0 0 0 2.8-4.6zm-8.6 7.7c.3-.2.5 0 .7.2s-.9.3-.7-.2zm-108.3 1.7c.8-2.7 1.2-5.3 2.7-7.2a31.7 31.7 0 0 1 3.1-7c-.2-1.1 0-2.3 1.4-2.1 1 4.5 2.2 12-.7 16 .3.8 0 1.5.3 2.4a18.8 18.8 0 0 1-8.7 4.6c0-2.2 1.5-4.3 1.9-6.7zm22.6 46h-.5c.5-.3.5-.7.7-.5s-.2.2-.2.5zm2.1-1.9c-.2-.3 0-.5 0-.8h.5c0 .3 0 .8-.5.8zm1-2.2v-.2c.2.2.2.2.5.2h-.5zm2.4-1.7a.8.8 0 0 1-.5-.2l.5-.7c0 .2.2.2.5.2zm3.8-5.7c0-.3 0 0 .2-.3zm55.1 19.9c-.5-.3 0-.3.2-.3s-.2.3-.2.3zm6.5-25c-.3-.4.4-.4.4 0s-.2 0-.4 0zm1.4 13l-.2.2c0-.2 0-.2.2-.5zm9.8-33.8c0-.2.3-.2.7-.2s0 .4 0 .9-.7.3-.9-.2 0-.3.2-.5zm-3.1 9.3c0-.2.3-.7.7-.4s-.4.4-.7.4zm.5 2.9c0 .5-.2.5-.2 1h-.8zm-3.4 8.6a.7.7 0 0 0 .3.5c.2.5-.3.5-.7.5s0-1 .4-1zm-2.1-.7c-.3-.2-.3 0-.5.3s0-.8 0-.8h.5zm1.4.3c-.7.4-.7 0-1.2 0s.7-.5 1.2 0zm.5 4v.3l-1.2-.5c-.2-.2-.2-.2-.2-.5a1.6 1.6 0 0 1 1.9-.2c.5-.7 0-.7.2-1.5h.5c0 .5.2 1 .2 1.5s-1.4.5-1.4.9zm1.4-3.3c-.7 0-.7-.5-.9-1.2s.5-.5.9-.5.3 1.2 0 1.7zm.5-18.5c.5.3.5.5.5 1s-.7-.5-.5-1zm.5-.7c-.2-.5 1-.2 1 .3s-1.2.2-1-.3zm.2 12.2c.3-.2.8-.2.8-.7a1.3 1.3 0 0 1 .9.5c-.2.5-1.4.5-1.7.2zm2-6c.2-.7-.8-.4-1-.7s.5-.2.5-.4.5.7.9.9-.2.2-.4.2zm.2 2.7c.5-.5 1.2-1.2 1.4-.5a1.6 1.6 0 0 1-1.4.5zm.9-1.2c-.2-.7 1-.3 1.2-.7h.3c-.5.2-.7.9-1.5.7zm1.2-3.4c-.2-.4 0-.4 0-.4s1.2.4 1.2 1.2-.9-.8-1.2-.8zm2.9-3.3c-.5 0-.7.5-1.2.5s.5-.8 1.2-.5zm1.9-8.9c.3-.5.5-.2.8 0s-.5.3-.8 0zm1.2-1.7c0-.2.5-.2.8 0s-.8.5-.8 0z"/><path d="M794.4 176.4l-.8-.5c-.2.3.3.5.8.5zm44.5-38.6v-.2l-.2.2h.2z"/></g></svg>