<svg xmlns="http://www.w3.org/2000/svg" width="191.7" height="170.6" viewBox="0 0 191.7 170.6"><path fill="#fc4349" d="M32.5 0A32.6 32.6 0 0 0 0 32.5C0 47.6 23 91 30.3 104.4a2.5 2.5 0 0 0 4.4 0C42 91 65 47.6 65 32.5A32.5 32.5 0 0 0 32.5 0z"/><circle cx="32.5" cy="33.9" r="19" fill="#bc333d"/><path fill="#fbae17" d="M159.2 62.8a32.6 32.6 0 0 0-32.6 32.5c0 15.1 23.1 58.5 30.4 71.9a2.5 2.5 0 0 0 4.3 0c7.4-13.4 30.4-56.8 30.4-71.9a32.6 32.6 0 0 0-32.5-32.5z"/><circle cx="159.2" cy="96.7" r="19" fill="#ba7d13"/><path fill="#6dbcdb" d="M124.9 170.6h-10.4a2.1 2.1 0 0 1 0-4.2h10.4a2.1 2.1 0 0 1 0 4.2zm-20.9 0H93.5a2.1 2.1 0 0 1 0-4.2H104a2.1 2.1 0 0 1 0 4.2zm-20.9 0H72.6a2.1 2.1 0 0 1 0-4.2h10.5a2.1 2.1 0 1 1 0 4.2zm-21 0H51.7a2.1 2.1 0 0 1 0-4.2h10.4a2.1 2.1 0 1 1 0 4.2zm-20.9 0H41c-1.4-.2-5.8-1.4-6.8-10.4a2.1 2.1 0 1 1 4.2-.4c.7 6.2 3 6.6 3.1 6.6a2.1 2.1 0 0 1-.3 4.2zm-4.5-18.9h-.4a1.9 1.9 0 0 1-1.6-2.4c1.5-7.6 5.5-9.1 6-9.3h1.9a2.1 2.1 0 0 1 2 2.1 2 2 0 0 1-2 2.1h-.8c-.5.4-2.2 1.8-3 6a2.2 2.2 0 0 1-2.1 1.5zm68.8-7.7H95a2.1 2.1 0 0 1-2.1-2.1 2.2 2.2 0 0 1 2.1-2.1h10.5a2.1 2.1 0 0 1 2.1 2.1 2.1 2.1 0 0 1-2.1 2.1zm-21 0H74.1a2.1 2.1 0 0 1-2.1-2.1 2.1 2.1 0 0 1 2.1-2.1h10.4a2.1 2.1 0 0 1 2.1 2.1 2.1 2.1 0 0 1-2.1 2.1zm-20.9 0H53.1a2.1 2.1 0 0 1-2.1-2.1 2.1 2.1 0 0 1 2.1-2.1h10.5a2.2 2.2 0 0 1 2.1 2.1 2.1 2.1 0 0 1-2.1 2.1zm50.5-4.6l-.9-.2a2 2 0 0 1-1-2.7 22.7 22.7 0 0 0 1.4-8.8 1.3 1.3 0 0 0-.1-.6 2.1 2.1 0 0 1 2.1-2.1 2 2 0 0 1 2.1 2v.7c0 4.4-.5 7.9-1.7 10.5a2.1 2.1 0 0 1-1.9 1.2zm-.8-20.3a2.2 2.2 0 0 1-1.8-1 5.3 5.3 0 0 0-3.2-2.5h-4.2a2.1 2.1 0 1 1 0-4.1h4.2c.4 0 4.1.1 6.8 4.4a2.1 2.1 0 0 1-.7 2.9 2 2 0 0 1-1.1.3zm-19.6-3.5H83.2a2 2 0 0 1-2.1-2 2.1 2.1 0 0 1 2.1-2.1h10.5a2.1 2.1 0 1 1 0 4.1zm-21 0H62.3a2 2 0 0 1-2.1-2 2.1 2.1 0 0 1 2.1-2.1h10.4a2.1 2.1 0 0 1 2.1 2.1 2 2 0 0 1-2.1 2zm-20.9 0H41.3a2.1 2.1 0 1 1 0-4.1h10.5a2.1 2.1 0 0 1 2.1 2.1 2 2 0 0 1-2.1 2z"/></svg>