<svg xmlns="http://www.w3.org/2000/svg" width="149.3" height="172.4" viewBox="0 0 149.3 172.4"><path fill="#a7a9ac" d="M126.9 56.3a.4.4 0 0 0 .2-.8 34.8 34.8 0 0 1-15.6-16.1 1.1 1.1 0 0 0-1.4-.5 28.6 28.6 0 0 0-4.3 2.3 1 1 0 0 0-.3 1.5c6.2 8.3 16 12.1 21.4 13.6z"/><path fill="#d1d3d4" d="M142.7 4.7L87.2 0a11.3 11.3 0 0 0-7.5 2.2L57.1 18.5a5.1 5.1 0 0 0-1.6 8c4.4 4.8 10.1 13 10.5 23.8a1.5 1.5 0 0 0 1.4 1.4h27.2a1.3 1.3 0 0 0 1.3-1.4c0-2.2.7-6.6 6.6-10.8a35.2 35.2 0 0 1 6.2-3.4c7.9-3.3 13.5-6 33.6-6.5a7.1 7.1 0 0 0 7-7.1V11.8a7.2 7.2 0 0 0-6.6-7.1zm-95.8 77L30.8 98.9a4.2 4.2 0 0 0-1.2 2.9v56.6a4.6 4.6 0 0 0 4.7 4.5H128a5.6 5.6 0 0 0 2.3-.6L48.6 80.6a4.5 4.5 0 0 0-1.7 1.1z"/><path fill="#a7a9ac" d="M132.8 158.4v-56.6a4.2 4.2 0 0 0-1.2-2.9l-16.2-17.2a4.7 4.7 0 0 0-3.5-1.5H50.5a4.1 4.1 0 0 0-1.9.4l81.7 81.7a4.4 4.4 0 0 0 2.5-3.9z"/><path fill="#d1d3d4" d="M63.3 55.3a4.2 4.2 0 0 0-4.2 4.2v12.8a4.2 4.2 0 0 0 4.2 4.2h35.6L77.7 55.3z"/><path fill="#a7a9ac" d="M103.2 72.3V59.5a4.2 4.2 0 0 0-4.2-4.2H77.7l21.2 21.2h.1a4.2 4.2 0 0 0 4.2-4.2z"/><circle cx="25.4" cy="147" r="20" fill="#d1d3d4"/><path fill="#fff" d="M25.4 127a20 20 0 1 1-20 20 20.1 20.1 0 0 1 20-20m0-5.4A25.4 25.4 0 1 0 50.8 147a25.4 25.4 0 0 0-25.4-25.4z"/><circle cx="45.4" cy="123.8" r="13.4" fill="#d1d3d4"/><path fill="#fff" d="M45.4 110.4A13.4 13.4 0 1 1 32 123.8a13.4 13.4 0 0 1 13.4-13.4m0-5.4a18.8 18.8 0 1 0 18.8 18.8A18.8 18.8 0 0 0 45.4 105z"/><circle cx="15.8" cy="115.8" r="9.9" fill="#d1d3d4"/><path fill="#fff" d="M15.8 105.9a9.9 9.9 0 1 1-9.9 9.9 9.9 9.9 0 0 1 9.9-9.9m0-5.4a15.3 15.3 0 1 0 15.3 15.3 15.3 15.3 0 0 0-15.3-15.3zm37.5 22.9h-.6a2.1 2.1 0 0 1-1.4-2.5 2.4 2.4 0 0 0-3-3 2 2 0 0 1-1.2-3.8 6.4 6.4 0 0 1 8.1 7.9 2 2 0 0 1-1.9 1.4z"/><path fill="#fff" d="M10.7 116.6h-.1a1.9 1.9 0 0 1-1.9-2.1 6.3 6.3 0 0 1 3.8-5.4 6.3 6.3 0 0 1 6.5.7 2 2 0 1 1-2.4 3.2 2.8 2.8 0 0 0-2.5-.3 2.6 2.6 0 0 0-1.4 2.1 2 2 0 0 1-2 1.8zM36.2 158a2.1 2.1 0 0 1-2-1.5 2 2 0 0 1 1.4-2.4 2.7 2.7 0 0 0 1.8-1.8 2.4 2.4 0 0 0-.8-2.4 2 2 0 0 1 2.7-3 6.4 6.4 0 0 1-2.6 11z"/></svg>