<svg xmlns="http://www.w3.org/2000/svg" width="160" height="151.1" viewBox="0 0 160 151.1"><rect width="109.8" height="9.31" x="26" fill="#d1d3d4" rx="4.7"/><path fill="#a7a9ac" d="M157.7 18.6H2.3A2.3 2.3 0 0 0 0 21c1.1 50.8 36.5 91.6 80 91.6s78.9-40.8 80-91.6a2.3 2.3 0 0 0-2.3-2.4zM80 104.4c-35.8 0-64.9-32.9-66-74.1a2.3 2.3 0 0 1 2.3-2.4h127.4a2.3 2.3 0 0 1 2.3 2.4c-1.1 41.2-30.2 74.1-66 74.1z"/><path fill="#d1d3d4" d="M99.1 142.1l-1.9-1.9-9-9-17.6-17.6-5 17.6H50.3a1.3 1.3 0 0 0-1.3 1.3v7.7H28.7a1.8 1.8 0 0 0-1.7 1.7v9.2h81.1z"/><path fill="#a7a9ac" d="M131.3 140.2H111v-7.7a1.3 1.3 0 0 0-1.3-1.3H94.4l-5.6-19.5H71.2l-.6 1.9 17.6 17.6 9 9 1.9 1.9 9 9H133v-9.2a1.8 1.8 0 0 0-1.7-1.7z"/><path fill="#d1d3d4" d="M29.8 8.4v53c.7 27.4 23.1 51.2 50.7 51.2s49.9-23.8 50.6-51.2h.1v-53z"/><path fill="#fff" d="M80.5 23.1l5.2 17.6 14.5-11.2-6.1 17.2 18.3-.5-15.1 10.4 15.1 10.3-18.3-.5 6.1 17.3-14.5-11.2-5.2 17.6-5.2-17.6-14.5 11.2 6.1-17.3-18.3.5 15.2-10.3-15.2-10.4 18.3.5-6.1-17.2 14.5 11.2 5.2-17.6z"/><path fill="#a7a9ac" d="M30 9.1h101v4H30z"/></svg>