<svg xmlns="http://www.w3.org/2000/svg" width="160" height="151.1" viewBox="0 0 160 151.1"><rect width="109.8" height="9.31" x="26" fill="#fbae17" rx="4.7"/><path fill="#fbae17" d="M157.7 18.6A2.3 2.3 0 0 1 160 21c-1.1 50.8-36.5 91.6-80 91.6S1.1 71.8 0 21a2.3 2.3 0 0 1 2.3-2.4z"/><path fill="#fff" d="M16.3 27.9a2.3 2.3 0 0 0-2.3 2.4c1.1 41.2 30.2 74.1 66 74.1s64.9-32.9 66-74.1a2.3 2.3 0 0 0-2.3-2.4z"/><path fill="#fbae17" d="M88.2 131.2H50.3a1.3 1.3 0 0 0-1.3 1.3v7.7h48.2zM49 142.1v-1.9H28.7a1.8 1.8 0 0 0-1.7 1.7v9.2h81.1l-9-9z"/><path fill="#fbae17" d="M99.1 142.1l-1.9-1.9H49v1.9h50.1zm-28.5-28.5l-5 17.6h22.6l-17.6-17.6z"/><path fill="#ba7d13" d="M97.2 140.2H111v-7.7a1.3 1.3 0 0 0-1.3-1.3H88.2zm35.8 1.7a1.8 1.8 0 0 0-1.7-1.7H111v1.9H99.1l9 9H133z"/><path fill="#ba7d13" d="M99.1 142.1H111v-1.9H97.2l1.9 1.9zm-4.7-10.9l-5.6-19.5H71.2l-.6 1.9 17.6 17.6h6.2z"/><path fill="#fbae17" d="M29.8 8.4v53c.7 27.4 23.1 51.2 50.7 51.2s49.9-23.8 50.6-51.2h.1v-53z"/><path fill="#fff" d="M80.5 23.1l5.2 17.6 14.5-11.2-6.1 17.2 18.3-.5-15.1 10.4 15.1 10.3-18.3-.5 6.1 17.3-14.5-11.2-5.2 17.6-5.2-17.6-14.5 11.2 6.1-17.3-18.3.5 15.2-10.3-15.2-10.4 18.3.5-6.1-17.2 14.5 11.2 5.2-17.6z"/><path fill="#ba7d13" d="M30 9.1h101v4H30z"/></svg>