<svg xmlns="http://www.w3.org/2000/svg" width="170.7" height="123" viewBox="0 0 170.7 123"><path fill="#d1d3d4" d="M78.2 73.2L13.1 8a9.3 9.3 0 0 0-5.8 8.6v89.8a9.3 9.3 0 0 0 9.3 9.2h137.5a9.2 9.2 0 0 0 9.2-9.2V16.6a9.2 9.2 0 0 0-5.7-8.6L92.4 73.2a10.1 10.1 0 0 1-14.2 0z"/><path fill="#a7a9ac" d="M157.6 8a9.2 9.2 0 0 1 5.7 8.6v89.8a9.2 9.2 0 0 1-9.2 9.2H16.6a9.3 9.3 0 0 1-9.3-9.2V16.6A9.3 9.3 0 0 1 13.1 8l65.1 65.2a10.4 10.4 0 0 0 7.1 2.9 10.1 10.1 0 0 0 7.1-2.9L157.6 8m0-7.3a7.3 7.3 0 0 0-5.2 2.1L87.3 68a2.7 2.7 0 0 1-2 .8 2.7 2.7 0 0 1-1.9-.8L18.3 2.8A7.3 7.3 0 0 0 13.1.7a9.2 9.2 0 0 0-2.8.5A16.5 16.5 0 0 0 0 16.6v89.8A16.6 16.6 0 0 0 16.6 123h137.5a16.7 16.7 0 0 0 16.6-16.6V16.6a16.7 16.7 0 0 0-10.3-15.4 9.2 9.2 0 0 0-2.8-.5z"/><path fill="#d1d3d4" d="M16.6 7.3a10.4 10.4 0 0 0-3.5.7l65.1 65.2a10.1 10.1 0 0 0 14.2 0L157.6 8a10.4 10.4 0 0 0-3.5-.7z"/><path fill="#a7a9ac" d="M154.1 7.3a10.4 10.4 0 0 1 3.5.7L92.4 73.2a10.1 10.1 0 0 1-7.1 2.9 10.4 10.4 0 0 1-7.1-2.9L13.1 8a10.4 10.4 0 0 1 3.5-.7h137.5m0-7.3H16.6a16.8 16.8 0 0 0-6.3 1.2 7.5 7.5 0 0 0-4.4 5.4 7.3 7.3 0 0 0 2 6.6L73 78.4a17.8 17.8 0 0 0 12.3 5.1 17.4 17.4 0 0 0 12.3-5.1l65.2-65.2a7.3 7.3 0 0 0 2-6.6 7.8 7.8 0 0 0-4.4-5.4 17.2 17.2 0 0 0-6.3-1.2z"/><path fill="#a7a9ac" d="M105.77 63.127l5.161-5.162 55.5 55.501-5.161 5.162zM4.744 112.484l55.508-55.508 5.19 5.19-55.508 55.508z"/><circle cx="87.3" cy="61.8" r="36.2" fill="#fff"/><path fill="#a7a9ac" d="M87.3 25.6a36.3 36.3 0 1 1-36.2 36.2 36.2 36.2 0 0 1 36.2-36.2m0-8.1a44.3 44.3 0 1 0 44.4 44.3 44.4 44.4 0 0 0-44.4-44.3z"/><path fill="#a7a9ac" d="M87.3 80.3a4 4 0 0 1-4-4V46.8a4.1 4.1 0 1 1 8.1 0v29.5a4 4 0 0 1-4.1 4z"/><path fill="#a7a9ac" d="M102.1 62.6a3.8 3.8 0 0 1-2.8-1.2L84.5 46.6a4 4 0 0 1 0-5.7 4.2 4.2 0 0 1 5.7 0L105 55.7a4.1 4.1 0 0 1-2.9 6.9z"/><path fill="#a7a9ac" d="M72.6 63.1a3.9 3.9 0 0 1-3-1.3 4.1 4.1 0 0 1 0-5.9l14.8-14.8a4.1 4.1 0 0 1 5.9 0 4.2 4.2 0 0 1 0 6L75.6 61.8a4.1 4.1 0 0 1-3 1.3z"/></svg>